<svg height="512" viewBox="0 0 64 64" width="512" xmlns="http://www.w3.org/2000/svg"><path d="M7.783 28.977l9 2a1.052 1.052 0 00.341.015l7.464-.933C25.29 31.217 26.55 32 28 32c2.206 0 4-1.794 4-4a3.99 3.99 0 00-1.902-3.391l.883-4.413a1.015 1.015 0 00-.019-.471l-.069-.243c.053.018.109.03.162.05l.682-1.881c-.482-.174-.98-.302-1.483-.407l-1.291-4.519a1.001 1.001 0 00-1.925.001l-2 7c-.043.153-.05.314-.019.471l.883 4.413a4.01 4.01 0 00-1.314 1.331l-5.167-.646c.072-.228.146-.455.236-.676l-1.854-.752c-.155.383-.283.777-.395 1.176l-.285-.036a1 1 0 00-.341.016l-9 2a1.001 1.001 0 00.001 1.954zM28 30c-1.103 0-2-.897-2-2s.897-2 2-2 2 .897 2 2-.897 2-2 2zm-.972-9.958L28 16.64l.972 3.402-.795 3.976C28.117 24.015 28.06 24 28 24s-.117.015-.177.018zm-9.98 6.972l6.964.87c-.001.04-.012.076-.012.116s.011.076.012.116l-6.964.87L12.609 28zM36 52h-5v-2h4a1 1 0 001-1v-4a1 1 0 00-1-1h-6v2h5v2h-4a1 1 0 00-1 1v4a1 1 0 001 1h6zM38 50h4v4h2v-4h1v-2h-1v-4h-2v4h-3v-4h-2v5a1 1 0 001 1zM45 52h2v2h-2z"/><path d="M61 50h-2.246l-1.792-6.274A1.001 1.001 0 0056 43h-5.184A2.996 2.996 0 0048 41H28c-1.654 0-3 1.346-3 3v4.764c-4.317-.612-8.175-2.474-11.195-5.231l2.903-2.903-1.414-1.414-2.896 2.896C9.027 38.383 7 33.434 7 28c0-5.43 2.09-10.37 5.484-14.101l2.808 2.808 1.414-1.414-2.808-2.808a20.886 20.886 0 0113.101-5.434V10h2V7.049a20.89 20.89 0 0113.065 5.395l-2.772 2.772 1.414 1.414 2.776-2.776c3.206 3.507 5.255 8.089 5.493 13.146H46a1.001 1.001 0 00-.8 1.6l6 8c.377.504 1.223.504 1.6 0l6-8A.999.999 0 0058 27h-3.019C54.454 12.573 42.554 1 28 1 13.112 1 1 13.112 1 28c0 13.722 10.47 25.326 24 26.828V56a1 1 0 001 1v1c0 1.103.897 2 2 2h1.142c.447 1.721 1.999 3 3.858 3s3.411-1.279 3.858-3h9.284c.447 1.721 1.999 3 3.858 3s3.411-1.279 3.858-3H57a1 1 0 001 1h2c1.654 0 3-1.346 3-3v-6c0-1.103-.897-2-2-2zm0 2v3H51V45h1v6a1 1 0 001 1h5zm-24.556 5h10.112a3.93 3.93 0 00-.414 1h-9.284a3.93 3.93 0 00-.414-1zm20.23-7H54v-5h1.246zM27 44a1 1 0 011-1h20a1 1 0 011 1v11H27zM3 28C3 14.215 14.215 3 28 3s25 11.215 25 25a1 1 0 001 1h2l-4 5.333L48 29h2a1 1 0 001-1C51 15.317 40.683 5 28 5S5 15.317 5 28c0 11.674 8.539 21.297 20 22.781v2.038C12.579 51.328 3 40.631 3 28zm25 29h1.556a3.93 3.93 0 00-.414 1H28zm5 4c-1.103 0-2-.897-2-2s.897-2 2-2 2 .897 2 2-.897 2-2 2zm17 0c-1.103 0-2-.897-2-2s.897-2 2-2 2 .897 2 2-.897 2-2 2zm3.858-3a3.93 3.93 0 00-.414-1H57v1zM60 59h-1v-2h2v1a1 1 0 01-1 1z"/><path d="M20.494 23.031a9.142 9.142 0 011.139-1.393l-1.416-1.412c-.519.52-.985 1.091-1.389 1.699zM23.023 20.5a9.03 9.03 0 011.585-.838l-.752-1.854c-.678.275-1.331.621-1.94 1.027zM38.726 25.549l-1.949.443c.132.581.206 1.181.221 1.783l2-.049a11.083 11.083 0 00-.272-2.177zM22.892 35.412a9.158 9.158 0 01-1.37-1.164l-1.439 1.389a11.103 11.103 0 001.673 1.42zM23.679 38.119c.675.288 1.381.509 2.099.656l.402-1.959a8.877 8.877 0 01-1.714-.537zM27.963 37l.035 2h.017c.715 0 1.432-.07 2.13-.209l-.389-1.961c-.57.112-1.156.17-1.779.17h-.014zM17.732 31.952c.261.68.594 1.339.99 1.96l1.686-1.076a8.973 8.973 0 01-.809-1.601zM38.833 29.916l-1.969-.348a9.085 9.085 0 01-.487 1.729l1.861.732c.268-.681.468-1.392.595-2.113zM38.024 23.466a11.053 11.053 0 00-1.102-1.898l-1.621 1.172c.351.484.653 1.007.9 1.553zM33.716 18.6l-1.039 1.709c.512.312.993.675 1.432 1.082l1.359-1.467a10.932 10.932 0 00-1.752-1.324zM31.474 36.304l.771 1.846a11.072 11.072 0 001.932-1.047l-1.125-1.654a9.05 9.05 0 01-1.578.855zM37.232 33.982l-1.678-1.09a9.051 9.051 0 01-1.124 1.403l1.43 1.398c.514-.524.975-1.099 1.372-1.711z"/></svg>