<svg width="14" height="11" fill="none" xmlns="http://www.w3.org/2000/svg"><path d="M0 10.596V.588h5.585v1.38H1.627v2.496h3.958v1.429H1.627v4.703H0zM8.668 7.335c0 .66.169 1.194.506 1.6.342.405.781.608 1.32.608.56 0 .993-.187 1.298-.56.31-.374.465-.905.465-1.593 0-.684-.162-1.217-.486-1.6-.319-.387-.758-.581-1.319-.581-.56 0-.998.187-1.312.56-.315.374-.472.896-.472 1.566zM8.716 0v5.175a1.96 1.96 0 01.827-.95c.383-.224.839-.335 1.367-.335.861 0 1.559.319 2.092.957.538.633.807 1.467.807 2.502 0 1.089-.265 1.948-.793 2.577-.524.624-1.245.936-2.16.936-.456 0-.862-.09-1.217-.273a2.612 2.612 0 01-.923-.834v.84H7.232V0h1.484z" fill="#000"/></svg>