<svg width="17" height="11" fill="none" xmlns="http://www.w3.org/2000/svg"><path d="M4.286 1.969v8.627H2.66V1.969H0V.588h6.932v1.38H4.286z" fill="#000"/><path d="M12.845 10.985l-1.497-3.37c-.114-.26-.208-.49-.28-.69a13.283 13.283 0 01-.199-.602c-.1.296-.189.552-.267.766a9.83 9.83 0 01-.184.472L8.88 10.985l-3.357-6.87h1.58L8.559 7.24c.059.132.116.315.17.547.06.228.11.48.15.759.005-.164.033-.335.083-.513a4.76 4.76 0 01.253-.656l1.586-3.5h.123l1.613 3.5c.1.219.173.422.219.608.05.187.08.374.089.56.04-.245.093-.478.157-.696.064-.22.137-.417.219-.595l1.428-3.138h1.566l-3.37 6.87z" fill="#000"/></svg>