<svg height="512" viewBox="0 0 64 64" width="512" xmlns="http://www.w3.org/2000/svg"><circle cx="18" cy="55" r="2"/><circle cx="39" cy="55" r="2"/><circle cx="52" cy="55" r="2"/><path d="M9 42h4v2H9z"/><path d="M62 41a1 1 0 001-1V27h-.016a.987.987 0 00-.477-.862L34.475 9.641l.466-1.305a1 1 0 00-.447-1.206l-7.045-4a1.001 1.001 0 00-1.332.324l-1.955 3a1.007 1.007 0 00-.137.771c.062.265.228.493.46.633l4.297 2.578-4.723 13.184a.995.995 0 00-.059.338V37a1 1 0 00-1 1v4h-1V27.972c0-1.103-.897-2-2-2h-6.758a4.028 4.028 0 00-2.828 1.171l-6.242 6.243A3.975 3.975 0 003 36.215v2.969c-1.161.414-2 1.514-2 2.816s.839 2.402 2 2.816V50c0 2.206 1.794 4 4 4h3a1 1 0 001-1v-1h1.812A5.958 5.958 0 0012 55c0 3.309 2.691 6 6 6s6-2.691 6-6a5.91 5.91 0 00-.095-1.028h2.279c.414 1.161 1.514 2 2.816 2s2.402-.839 2.816-2h1.279A5.91 5.91 0 0033 55c0 3.309 2.691 6 6 6s6-2.691 6-6a5.91 5.91 0 00-.095-1.028h1.189A6.01 6.01 0 0046 55c0 3.309 2.691 6 6 6 2.97 0 5.436-2.171 5.911-5.009l.116-.001a3.008 3.008 0 002.973-3V48h1a1 1 0 001-1v-4a1 1 0 00-1-1h-5.798l1.63-2.445c.151-.227.203-.506.145-.771a1.006 1.006 0 00-.458-.638l-.644-.391L58 35.829V37c0 2.206 1.794 4 4 4zm-2-4v-4.595l1-1.712v8.038c-.598-.345-1-.992-1-1.731zm.634-9.644l-.603 1.032-26.586-15.86.346-.97zm-10.587 6.253l3.892-6.525 1.718 1.025-3.901 6.538zm-17.288-19.16l2.288 1.365-3.805 6.378-1.026-.623zm4.004 2.388l1.718 1.025-3.821 6.405-1.71-1.038zm3.435 2.049l1.719 1.025-3.837 6.431-1.711-1.039zm3.435 2.05l1.719 1.025-3.852 6.458-1.711-1.039zm3.436 2.049l1.718 1.025-3.868 6.485-1.71-1.038zm3.434 2.049l1.719 1.025-3.884 6.512-1.71-1.039zM30.941 10.337a1 1 0 00-.427-1.195l-4.11-2.466.875-1.342 5.496 3.121-4.717 13.209a1 1 0 00.423 1.191l27.107 16.458-.892 1.338-28.478-17.128zM26 25.726l1 .601V37h-1zM25 39h3v3h-3zM13.242 27.972H20V46h-4.816A2.996 2.996 0 0118 44a1 1 0 001-1V31c0-1.103-.897-2-2-2h-5.614l.442-.442a2.015 2.015 0 011.414-.586zM9 49H5v-1h4zm1-3H5v-1h1a1 1 0 001-1v-3h10v1.101A5.009 5.009 0 0013.11 46zM5.586 34.801L9.386 31H17v8H5v-2.785c0-.534.208-1.036.586-1.414zM4 41h1v2H4a1 1 0 010-2zm3 11a1.993 1.993 0 01-1.722-1H9v1zm11 7c-2.206 0-4-1.794-4-4s1.794-4 4-4 4 1.794 4 4-1.794 4-4 4zm12-6.028a1 1 0 01-2 0v-1h2zM39 59c-2.206 0-4-1.794-4-4s1.794-4 4-4 4 1.794 4 4-1.794 4-4 4zm13 0c-2.206 0-4-1.794-4-4s1.794-4 4-4 4 1.794 4 4-1.794 4-4 4zm7-6.01c0 .547-.444.995-.991 1l-.1.001C57.426 51.162 54.964 49 52 49a5.997 5.997 0 00-5.171 2.972h-2.658C43.128 50.197 41.203 49 39 49s-4.128 1.197-5.171 2.972H32v-1a1 1 0 00-1-1h-4a1 1 0 00-1 1v1h-2.829A5.997 5.997 0 0018 49c-1.223 0-2.36.369-3.31 1H11v-2h48zM61 46H22v-2h39zm-31-4v-4a1 1 0 00-1-1v-9.47L53.059 42zm23.465-6.315l3.909-6.551 1.647.983-3.857 6.601z"/></svg>