<svg xmlns="http://www.w3.org/2000/svg" viewBox="0 0 470 470"><path d="M78.628 91.881a7.5 7.5 0 007.5-7.5V15h297.743v69.381a7.5 7.5 0 0015 0V7.5a7.5 7.5 0 00-7.5-7.5H78.628a7.5 7.5 0 00-7.5 7.5v76.881a7.5 7.5 0 007.5 7.5z"/><path d="M398.872 290.218v-95.837a7.5 7.5 0 00-15 0v95.161h-24.186V171.881h61.686a7.5 7.5 0 007.5-7.5v-50a7.5 7.5 0 00-7.5-7.5h-61.686v-22.5a7.5 7.5 0 00-7.5-7.5H117.814a7.5 7.5 0 00-7.5 7.5v22.5H48.628a7.5 7.5 0 00-7.5 7.5v50a7.5 7.5 0 007.5 7.5h61.686v117.661H86.128v-95.161a7.5 7.5 0 00-15 0v95.837c-19.868 3.554-35 20.949-35 41.824v79.491a7.5 7.5 0 007.5 7.5h2.5V462.5a7.5 7.5 0 007.5 7.5h64.186a7.5 7.5 0 007.5-7.5v-20.967a7.5 7.5 0 00-15 0V455H61.128v-35.967h347.743V455h-49.186v-13.467a7.5 7.5 0 00-15 0V462.5a7.5 7.5 0 007.5 7.5h64.186a7.5 7.5 0 007.5-7.5v-43.467h2.5a7.5 7.5 0 007.5-7.5v-79.491c.001-20.875-15.131-38.27-34.999-41.824zm-7.5 14.324c15.164 0 27.5 12.336 27.5 27.5v31.991h-59.186v-59.491h31.686zm27.5 99.491H51.128v-25h367.743v25zM125.315 171.881h219.371v192.151H125.315V171.881zm288.558-15h-15v-35h15v35zm-30-35v35h-24.186v-35h24.186zm-39.186 35H242.501v-65h102.186v65zm-219.372-65h102.186v65H125.315v-65zm-15 65H86.129v-35h24.186v35zm-54.186-35h15v35h-15v-35zm22.5 182.661h31.686v59.491H51.129v-31.991c0-15.164 12.337-27.5 27.5-27.5z"/><path d="M147.814 259.033h174.371a7.5 7.5 0 007.5-7.5c0-23.435-19.065-42.5-42.5-42.5H182.814c-23.435 0-42.5 19.065-42.5 42.5a7.5 7.5 0 007.5 7.5zm35-35h104.371c12.565 0 23.188 8.47 26.46 20H156.354c3.272-11.531 13.896-20 26.46-20zM322.186 274.033H147.814a7.5 7.5 0 000 15h174.371a7.5 7.5 0 00.001-15zM322.186 304.033H147.814a7.5 7.5 0 000 15h174.371a7.5 7.5 0 00.001-15zM322.186 334.033H147.814a7.5 7.5 0 000 15h174.371a7.5 7.5 0 00.001-15z"/></svg>