<svg id="Layer_3" enable-background="new 0 0 64 64" height="512" viewBox="0 0 64 64" width="512" xmlns="http://www.w3.org/2000/svg"><g><path d="m7.783 28.977 9 2c.071.015.144.023.217.023.041 0 .083-.003.124-.008l7.464-.933c.702 1.158 1.962 1.941 3.412 1.941 2.206 0 4-1.794 4-4 0-1.435-.765-2.685-1.902-3.391l.883-4.413c.031-.156.024-.317-.019-.471l-.069-.243c.053.018.109.03.162.05l.682-1.881c-.482-.174-.98-.302-1.483-.407l-1.291-4.519c-.124-.429-.517-.725-.963-.725s-.839.296-.962.726l-2 7c-.043.153-.05.314-.019.471l.883 4.413c-.538.334-.986.79-1.314 1.331l-5.167-.646c.072-.228.146-.455.236-.676l-1.854-.752c-.155.383-.283.777-.395 1.176l-.285-.036c-.115-.014-.229-.009-.341.016l-9 2c-.457.103-.782.508-.782.977s.325.874.783.977zm20.217 1.023c-1.103 0-2-.897-2-2s.897-2 2-2 2 .897 2 2-.897 2-2 2zm-.972-9.958.972-3.402.972 3.402-.795 3.976c-.06-.003-.117-.018-.177-.018s-.117.015-.177.018zm-9.98 6.972 6.964.87c-.001.04-.012.076-.012.116s.011.076.012.116l-6.964.87-4.439-.986z"/><path d="m36 52h-5v-2h4c.553 0 1-.447 1-1v-4c0-.553-.447-1-1-1h-6v2h5v2h-4c-.553 0-1 .447-1 1v4c0 .553.447 1 1 1h6z"/><path d="m38 50h4v4h2v-4h1v-2h-1v-4h-2v4h-3v-4h-2v5c0 .553.447 1 1 1z"/><path d="m45 52h2v2h-2z"/><path d="m61 50h-2.246l-1.792-6.274c-.123-.43-.516-.726-.962-.726h-5.184c-.414-1.161-1.514-2-2.816-2h-20c-1.654 0-3 1.346-3 3v4.764c-4.317-.612-8.175-2.474-11.195-5.231l2.903-2.903-1.414-1.414-2.896 2.896c-3.371-3.729-5.398-8.678-5.398-14.112 0-5.43 2.09-10.37 5.484-14.101l2.808 2.808 1.414-1.414-2.808-2.808c3.5-3.184 8.067-5.195 13.101-5.434v2.949h2v-2.951c5.016.238 9.57 2.232 13.065 5.395l-2.772 2.772 1.414 1.414 2.776-2.776c3.206 3.507 5.255 8.089 5.493 13.146h-2.975c-.379 0-.725.214-.895.553-.169.339-.133.744.095 1.047l6 8c.377.504 1.223.504 1.6 0l6-8c.228-.303.264-.708.095-1.047-.17-.339-.516-.553-.895-.553h-3.019c-.527-14.427-12.427-26-26.981-26-14.888 0-27 12.112-27 27 0 13.722 10.47 25.326 24 26.828v1.172c0 .553.447 1 1 1v1c0 1.103.897 2 2 2h1.142c.447 1.721 1.999 3 3.858 3s3.411-1.279 3.858-3h9.284c.447 1.721 1.999 3 3.858 3s3.411-1.279 3.858-3h3.142c0 .553.447 1 1 1h2c1.654 0 3-1.346 3-3v-2-4c0-1.103-.897-2-2-2zm0 2v3h-10v-10h1v6c0 .553.447 1 1 1h5zm-24.556 5h10.112c-.181.31-.322.644-.414 1h-9.284c-.092-.356-.233-.69-.414-1zm20.23-7h-2.674v-5h1.246zm-29.674-6c0-.552.448-1 1-1h20c.552 0 1 .448 1 1v11h-22zm-24-16c0-13.785 11.215-25 25-25s25 11.215 25 25c0 .553.447 1 1 1h2l-4 5.333-4-5.333h2c.553 0 1-.447 1-1 0-12.683-10.317-23-23-23s-23 10.317-23 23c0 11.674 8.539 21.297 20 22.781v2.038c-12.421-1.491-22-12.188-22-24.819zm25 29h1.556c-.181.31-.322.644-.414 1h-1.142zm5 4c-1.103 0-2-.897-2-2s.897-2 2-2 2 .897 2 2-.897 2-2 2zm17 0c-1.103 0-2-.897-2-2s.897-2 2-2 2 .897 2 2-.897 2-2 2zm3.858-3c-.092-.356-.233-.69-.414-1h3.556v1zm6.142 1h-1v-2h2v1c0 .552-.448 1-1 1z"/><path d="m20.494 23.031c.331-.498.714-.967 1.139-1.393l-1.416-1.412c-.519.52-.985 1.091-1.389 1.699z"/><path d="m23.023 20.5c.499-.331 1.032-.613 1.585-.838l-.752-1.854c-.678.275-1.331.621-1.94 1.027z"/><path d="m38.726 25.549-1.949.443c.132.581.206 1.181.221 1.783l2-.049c-.019-.735-.11-1.468-.272-2.177z"/><path d="m22.892 35.412c-.492-.341-.953-.732-1.37-1.164l-1.439 1.389c.509.527 1.072 1.005 1.673 1.42z"/><path d="m23.679 38.119c.675.288 1.381.509 2.099.656l.402-1.959c-.587-.12-1.163-.301-1.714-.537z"/><path d="m27.963 37 .035 2h.017c.715 0 1.432-.07 2.13-.209l-.389-1.961c-.57.112-1.156.17-1.779.17-.004 0-.009 0-.014 0z"/><path d="m17.732 31.952c.261.68.594 1.339.99 1.96l1.686-1.076c-.323-.507-.596-1.046-.809-1.601z"/><path d="m38.833 29.916-1.969-.348c-.104.59-.269 1.172-.487 1.729l1.861.732c.268-.681.468-1.392.595-2.113z"/><path d="m38.024 23.466c-.303-.666-.673-1.305-1.102-1.898l-1.621 1.172c.351.484.653 1.007.9 1.553z"/><path d="m33.716 18.6-1.039 1.709c.512.312.993.675 1.432 1.082l1.359-1.467c-.536-.497-1.125-.943-1.752-1.324z"/><path d="m31.474 36.304.771 1.846c.674-.282 1.324-.635 1.932-1.047l-1.125-1.654c-.496.337-1.028.624-1.578.855z"/><path d="m37.232 33.982-1.678-1.09c-.325.501-.703.973-1.124 1.403l1.43 1.398c.514-.524.975-1.099 1.372-1.711z"/></g></svg>