<svg width="34" height="17" viewBox="0 0 34 17" fill="none" xmlns="http://www.w3.org/2000/svg">
<path fill-rule="evenodd" clip-rule="evenodd" d="M26.3739 0.292893C25.9833 -0.0976311 25.3502 -0.0976311 24.9596 0.292893C24.5691 0.683417 24.5691 1.31658 24.9596 1.70711L30.5859 7.33338L1 7.33337C0.447715 7.33337 0 7.78109 0 8.33337C0 8.88566 0.447715 9.33337 1 9.33337L30.5858 9.33338L24.9596 14.9596C24.5691 15.3501 24.5691 15.9833 24.9596 16.3738C25.3502 16.7643 25.9833 16.7643 26.3739 16.3738L33.7072 9.04044C33.8292 8.9184 33.9131 8.77267 33.9589 8.61805C33.9761 8.55984 33.9879 8.50037 33.9944 8.44043C34.005 8.34116 34.0008 8.2406 33.9818 8.14234C33.9746 8.10518 33.9653 8.06834 33.9538 8.03203C33.9071 7.88358 33.8249 7.74389 33.7072 7.62623L26.3739 0.292893Z" fill="black"/>
</svg>
