<svg width="22" height="11" viewBox="0 0 22 11" fill="none" xmlns="http://www.w3.org/2000/svg">
<path fill-rule="evenodd" clip-rule="evenodd" d="M16.6971 0.21967C16.4042 -0.0732233 15.9293 -0.0732233 15.6364 0.21967C15.3435 0.512563 15.3435 0.987437 15.6364 1.28033L18.9395 4.58338L0.75 4.58337C0.335786 4.58337 0 4.91916 0 5.33337C0 5.74759 0.335786 6.08337 0.75 6.08337L18.9394 6.08338L15.6364 9.38634C15.3435 9.67923 15.3435 10.1541 15.6364 10.447C15.9293 10.7399 16.4042 10.7399 16.6971 10.447L21.2804 5.86366C21.3719 5.77213 21.4349 5.66283 21.4692 5.54687C21.4779 5.51747 21.4848 5.48764 21.4898 5.45757C21.5284 5.22666 21.4586 4.98116 21.2804 4.803L16.6971 0.21967Z" fill="#4E7440"/>
</svg>
