<svg width="14" height="11" viewBox="0 0 14 11" fill="none" xmlns="http://www.w3.org/2000/svg">
<path d="M0 10.5957V0.587891H5.58496V1.96875H1.62695V4.46387H5.58496V5.89258H1.62695V10.5957H0Z" fill="black"/>
<path d="M8.66797 7.33496C8.66797 7.99577 8.83659 8.52897 9.17383 8.93457C9.51562 9.34017 9.9554 9.54297 10.4932 9.54297C11.0537 9.54297 11.4867 9.35612 11.792 8.98242C12.1019 8.60872 12.2568 8.0778 12.2568 7.38965C12.2568 6.70605 12.0951 6.17285 11.7715 5.79004C11.4525 5.40267 11.0127 5.20898 10.4521 5.20898C9.8916 5.20898 9.4541 5.39583 9.13965 5.76953C8.8252 6.14323 8.66797 6.66504 8.66797 7.33496ZM8.71582 0V5.1748C8.889 4.76465 9.16471 4.44792 9.54297 4.22461C9.92578 4.0013 10.3815 3.88965 10.9102 3.88965C11.7715 3.88965 12.4688 4.20866 13.002 4.84668C13.5397 5.48014 13.8086 6.31413 13.8086 7.34863C13.8086 8.43783 13.5443 9.29688 13.0156 9.92578C12.4915 10.5501 11.7715 10.8623 10.8555 10.8623C10.3997 10.8623 9.99414 10.7712 9.63867 10.5889C9.28776 10.4066 8.98014 10.1286 8.71582 9.75488V10.5957H7.23242V0H8.71582Z" fill="black"/>
</svg>
