<svg width="11" height="11" viewBox="0 0 11 11" fill="none" xmlns="http://www.w3.org/2000/svg">
<path d="M0 10.5957V0.587891H1.62695V10.5957H0Z" fill="black"/>
<path d="M3.8418 10.5957V4.11523H5.23633V5.1748C5.53255 4.72819 5.88119 4.40234 6.28223 4.19727C6.68327 3.99219 7.1709 3.88965 7.74512 3.88965C8.22819 3.88965 8.63835 3.96712 8.97559 4.12207C9.31738 4.27246 9.58398 4.49805 9.77539 4.79883C9.88932 4.97656 9.97135 5.18392 10.0215 5.4209C10.0716 5.65788 10.0967 6.07259 10.0967 6.66504V10.5957H8.59961V7.2666C8.59961 6.41439 8.49479 5.84928 8.28516 5.57129C8.08008 5.28874 7.71322 5.14746 7.18457 5.14746C6.83822 5.14746 6.52832 5.21126 6.25488 5.33887C5.986 5.46647 5.77409 5.64648 5.61914 5.87891C5.50977 6.03385 5.43229 6.23438 5.38672 6.48047C5.3457 6.72201 5.3252 7.10938 5.3252 7.64258V10.5957H3.8418Z" fill="black"/>
</svg>
