<svg width="17" height="11" viewBox="0 0 17 11" fill="none" xmlns="http://www.w3.org/2000/svg">
<path d="M4.28613 1.96875V10.5957H2.65918V1.96875H0V0.587891H6.93164V1.96875H4.28613Z" fill="black"/>
<path d="M12.8447 10.9854L11.3477 7.61523C11.2337 7.35547 11.1403 7.12533 11.0674 6.9248C10.9945 6.71973 10.9284 6.51921 10.8691 6.32324C10.7689 6.61947 10.68 6.87467 10.6025 7.08887C10.5251 7.2985 10.4635 7.45573 10.418 7.56055L8.87988 10.9854L5.52344 4.11523H7.10254L8.55859 7.23926C8.61784 7.37142 8.6748 7.55371 8.72949 7.78613C8.78874 8.014 8.83887 8.26693 8.87988 8.54492C8.88444 8.38086 8.91178 8.20996 8.96191 8.03223C9.01204 7.85449 9.09635 7.63574 9.21484 7.37598L10.8008 3.87598H10.9238L12.5371 7.37598C12.6374 7.59473 12.7103 7.79753 12.7559 7.98438C12.806 8.17122 12.8356 8.35807 12.8447 8.54492C12.8857 8.29883 12.9382 8.06641 13.002 7.84766C13.0658 7.62891 13.1387 7.43066 13.2207 7.25293L14.6494 4.11523H16.2148L12.8447 10.9854Z" fill="black"/>
</svg>
