<svg id="Layer_3" enable-background="new 0 0 64 64" height="512" viewBox="0 0 64 64" width="512" xmlns="http://www.w3.org/2000/svg"><g><circle cx="18" cy="55" r="2"/><circle cx="39" cy="55" r="2"/><circle cx="52" cy="55" r="2"/><path d="m9 42h4v2h-4z"/><path d="m62 41c.553 0 1-.447 1-1v-13h-.016c-.001-.342-.161-.676-.477-.862l-28.032-16.497.466-1.305c.164-.458-.025-.966-.447-1.206l-7.045-4c-.461-.26-1.042-.119-1.332.324l-1.955 3c-.148.228-.197.506-.137.771.062.265.228.493.46.633l4.297 2.578-4.723 13.184c-.04.111-.059.225-.059.338v.003.003 13.036c-.553 0-1 .447-1 1v4h-1v-14.028c0-1.103-.897-2-2-2h-6.758c-1.053 0-2.084.427-2.828 1.171l-6.242 6.243c-.756.757-1.172 1.76-1.172 2.829v2.969c-1.161.414-2 1.514-2 2.816s.839 2.402 2 2.816v2.184 3c0 2.206 1.794 4 4 4h3c.553 0 1-.447 1-1v-1h1.812c-.513.884-.812 1.907-.812 3 0 3.309 2.691 6 6 6s6-2.691 6-6c0-.351-.036-.693-.095-1.028h2.279c.414 1.161 1.514 2 2.816 2s2.402-.839 2.816-2h1.279c-.059.335-.095.677-.095 1.028 0 3.309 2.691 6 6 6s6-2.691 6-6c0-.351-.036-.693-.095-1.028h1.189c-.058.335-.094.677-.094 1.028 0 3.309 2.691 6 6 6 2.97 0 5.436-2.171 5.911-5.009l.116-.001c1.64-.015 2.973-1.36 2.973-3v-4.99h1c.553 0 1-.447 1-1v-4c0-.553-.447-1-1-1h-5.798l1.63-2.445c.151-.227.203-.506.145-.771-.06-.266-.225-.496-.458-.638l-.644-.391 1.125-1.926v1.171c0 2.206 1.794 4 4 4zm-2-4v-4.595l1-1.712v8.038c-.598-.345-1-.992-1-1.731zm.634-9.644-.603 1.032-26.586-15.86.346-.97zm-10.587 6.253 3.892-6.525 1.718 1.025-3.901 6.538zm-17.288-19.16 2.288 1.365-3.805 6.378-1.026-.623zm4.004 2.388 1.718 1.025-3.821 6.405-1.71-1.038zm3.435 2.049 1.719 1.025-3.837 6.431-1.711-1.039zm3.435 2.05 1.719 1.025-3.852 6.458-1.711-1.039zm3.436 2.049 1.718 1.025-3.868 6.485-1.71-1.038zm3.434 2.049 1.719 1.025-3.884 6.512-1.71-1.039zm-19.562-14.697c.161-.449-.018-.949-.427-1.195l-4.11-2.466.875-1.342 5.496 3.121-4.717 13.209c-.16.447.017.945.423 1.191l27.107 16.458-.892 1.338-28.478-17.128zm-4.941 15.389 1 .601v10.673h-1zm-1 13.274h1 2v3h-3zm-11.758-11.028h6.758v15.028 3h-4.816c.414-1.161 1.514-2 2.816-2 .553 0 1-.447 1-1v-3-9c0-1.103-.897-2-2-2h-5.614l.442-.442c.372-.372.888-.586 1.414-.586zm-4.242 21.028h-4v-1h4zm1-3h-5v-1h1c.553 0 1-.447 1-1v-3h10v1.101c-1.955.399-3.491 1.945-3.89 3.899zm-4.414-11.199 3.8-3.801h7.614v8h-11-1v-2.785c0-.534.208-1.036.586-1.414zm-1.586 6.199h1v2h-1c-.552 0-1-.448-1-1s.448-1 1-1zm3 11c-.737 0-1.375-.405-1.722-1h3.722v1zm11 7c-2.206 0-4-1.794-4-4s1.794-4 4-4 4 1.794 4 4-1.794 4-4 4zm12-6.028c0 .552-.448 1-1 1s-1-.448-1-1v-1h2zm9 6.028c-2.206 0-4-1.794-4-4s1.794-4 4-4 4 1.794 4 4-1.794 4-4 4zm13 0c-2.206 0-4-1.794-4-4s1.794-4 4-4 4 1.794 4 4-1.794 4-4 4zm7-6.01c0 .547-.444.995-.991 1l-.1.001c-.483-2.829-2.945-4.991-5.909-4.991-2.203 0-4.128 1.197-5.171 2.972h-2.658c-1.043-1.775-2.968-2.972-5.171-2.972s-4.128 1.197-5.171 2.972h-1.829v-1c0-.553-.447-1-1-1h-4c-.553 0-1 .447-1 1v1h-2.829c-1.043-1.775-2.968-2.972-5.171-2.972-1.223 0-2.36.369-3.31 1h-3.69v-2h10 38zm2-6.99h-39v-2h39zm-31-4v-4c0-.553-.447-1-1-1v-9.47l24.059 14.47zm23.465-6.315 3.909-6.551 1.647.983-3.857 6.601z"/></g></svg>