<?xml version="1.0" standalone="no"?>
<!DOCTYPE svg PUBLIC "-//W3C//DTD SVG 1.1//EN" "http://www.w3.org/Graphics/SVG/1.1/DTD/svg11.dtd" >
<svg>
<metadata>
Created by FontForge 20090914 at Sun Feb 14 09:48:49 2021
 By www-data
Copyright 2015 The Benne Project Authors (https://github.com/googlefonts/Benne)
</metadata>
<defs>
<font id="Benne-Regular" horiz-adv-x="684" >
  <font-face 
    font-family="Benne"
    font-weight="400"
    font-stretch="normal"
    units-per-em="1000"
    panose-1="0 0 0 0 0 0 0 0 0 0"
    ascent="630"
    descent="-370"
    x-height="404.999"
    cap-height="653"
    bbox="-431 -544.004 1950 1105"
    underline-thickness="50"
    underline-position="-50"
    unicode-range="U+0020-U+1F4BA"
  />
<missing-glyph horiz-adv-x="364" 
d="M33 0v666h265v-666h-265zM66 33h199v600h-199v-600z" />
    <glyph glyph-name=".notdef" horiz-adv-x="364" 
d="M33 0v666h265v-666h-265zM66 33h199v600h-199v-600z" />
    <glyph glyph-name="space" unicode=" " horiz-adv-x="240" 
 />
    <glyph glyph-name="exclam" unicode="!" horiz-adv-x="270" 
d="M161 244c-2.66699 -26 -8.66699 -39.001 -18 -39.001s-15 11 -17 33l-5.5 46.5l-8.5 72.5c-6.66699 57.333 -11.5 103 -14.5 137s-4.5 61 -4.5 81s4.5 37.333 13.5 52s21.833 22 38.5 22s29.5 -7.33301 38.5 -22s13.5 -32 13.5 -52c0 -13.333 -0.666992 -29.333 -2 -48
s-2.83301 -37.167 -4.5 -55.5s-3.5 -34.166 -5.5 -47.499l-12 -96zM205 45.999c0 -16.667 -5.83203 -30.833 -17.499 -42.5s-25.834 -17.5 -42.501 -17.5s-30.834 5.83301 -42.501 17.5s-17.5 25.834 -17.5 42.501s6 31 18 43c11.333 11.333 25.333 17 42 17
s30.834 -5.83301 42.501 -17.5s17.5 -25.834 17.5 -42.501z" />
    <glyph glyph-name="quotedbl" unicode="&#x22;" horiz-adv-x="309" 
d="M222 469c-6.66699 -16.667 -13 -25 -19 -25c-4.66699 0 -6.66699 7.33301 -6 22v58l-3 90l-1 6c0 8 3.5 16.333 10.5 25s15.5 16 25.5 22s18.667 9 26 9c9.33301 0 14 -10.667 14 -32c0 -44.667 -15.667 -103 -47 -175zM91 469c-6.66699 -16.667 -13 -25 -19 -25
c-4.66699 0 -6.66699 7.33301 -6 22v58l-4 90v6c0 8 3.5 16.333 10.5 25s15.5 16 25.5 22s18.667 9 26 9c9.33301 0 14 -10.667 14 -32c0 -44.667 -15.667 -103 -47 -175z" />
    <glyph glyph-name="numbersign" unicode="#" horiz-adv-x="468" 
d="M90 27c-2 -10 -12 -14.999 -30 -14.999c-6.66699 0 -10 4 -10 12v3l44 177l-63 -3c-9.33301 0 -14 4 -14 12c0 31.333 8 47.333 24 48l67 3l34 138l-64 -3c-9.33301 0 -14 4 -14 12c0 31.333 8 47.333 24 48l69 3l42 171c3.33301 11.333 14.333 17 33 17
c5.33301 0 8 -4 8 -12l-42 -174l113 6l43 174c3.33301 11.333 14.333 17 33 17c5.33301 0 8 -4 8 -12l-43 -177l59 3c8.66699 0 13 -3.66699 13 -11c0 -8 -2.83301 -18 -8.5 -30s-13.167 -18.333 -22.5 -19l-56 -3l-34 -138l61 3c8.66699 0 13 -4 13 -12
s-2.83301 -17.833 -8.5 -29.5s-13.167 -17.834 -22.5 -18.501l-58 -3l-43 -176c-2 -10 -12 -15 -30 -15c-6.66699 0 -10 4 -10 12v3l43 174l-114 -6zM183 404.001l-34 -138l114 6l33 138z" />
    <glyph glyph-name="dollar" unicode="$" horiz-adv-x="458" 
d="M218 -101c-0.666992 -10 -8.99707 -15.0029 -24.9971 -15.0029c-4 0 -7.66699 1.5 -11 4.5s-5 6.16699 -5 9.5v1l10 79c0 4.66699 -2 7 -6 7c-6.66699 1.33301 -14.167 3.16602 -22.5 5.49902l-26.5 7.5c-9.33301 3.33301 -17 5.66602 -23 6.99902
s-9.66699 2.33301 -11 3l-8 3l-4 2c-4 8 -8.5 21.333 -13.5 40s-9.33301 37.834 -13 57.501s-5.83398 35.5 -6.50098 47.5c0 4 2 7.66699 6 11s8.66699 5 14 5c1.33301 0 6.66602 -9.66699 15.999 -29c6 -12.667 13.833 -27 23.5 -43s20.667 -30.833 33 -44.5
s25.5 -24.167 39.5 -31.5l4 -1c2.66699 0 4 1 4 3l33 269c0 5.33301 -4 11 -12 17c-41.333 28.667 -73.5 57.167 -96.5 85.5s-34.5 60.5 -34.5 96.5c0 24 7 48 21 72s34.333 44.667 61 62s58.667 27 96 29c6.66699 0.666992 10 2.66699 10 6l4 26c2 11.333 11.667 17 29 17
c3.33301 0 6.33301 -1.66699 9 -5s4 -6.66602 4 -9.99902v-2l-4 -26c0 -4 3.33301 -6.33301 10 -7c3.33301 -0.666992 11.333 -2 24 -4s29.667 -5.33301 51 -10c9.33301 -2 15.333 -9.33301 18 -22c4.66699 -26.667 8.16699 -48 10.5 -64s3.5 -26.667 3.5 -32
c0 -24 -3.33301 -36 -10 -36c-3.33301 0 -8 2.5 -14 7.5s-10 10.833 -12 17.5c-14 52 -41.333 86.333 -82 103h-1c-2.66699 0 -4 -1.66699 -4 -5l-28 -227l-1 -7c0 -3.33301 1.66699 -5.66602 5 -6.99902l9 -5c2 -2 9 -6.66699 21 -14
c8 -5.33301 14.167 -9.66602 18.5 -12.999l12.5 -9.5c4 -3 10 -7.83301 18 -14.5c11.333 -9.33301 19.666 -17 24.999 -23l21 -24c4 -5.33301 7.5 -10.333 10.5 -15s5.5 -9.33398 7.5 -14.001c10.667 -23.333 16 -46.333 16 -69c0 -31.333 -7.66699 -61.666 -23 -90.999
s-38.333 -53.166 -69 -71.499s-68.667 -27.5 -114 -27.5c-4.66699 0 -7.66699 -2 -9 -6zM231.003 410.997c4 -1.33301 6.33301 -2 7 -2c1.33301 0 2 1.33301 2 4l26 206c0 5.33301 -2.33301 8 -7 8c-18.667 -1.33301 -35.5 -7.5 -50.5 -18.5s-26.833 -24.5 -35.5 -40.5
s-13 -33 -13 -51c0 -34.667 23.667 -70 71 -106zM234.003 22.9971c0 -4.66699 2.66699 -7.00098 8 -7.00098c38.667 2.66699 66.667 13.834 84 33.501s26 52.5 26 98.5c0 14.667 -5 31 -15 49s-21.667 34.333 -35 49s-25.333 24.667 -36 30l-2 -6l-30 -244v-3z" />
    <glyph glyph-name="percent" unicode="%" horiz-adv-x="735" 
d="M188 -11c-6 -10 -18 -14.998 -36 -14.998c-4 0 -7.83301 1.33301 -11.5 4s-5.5 5 -5.5 7s0.333008 3.33301 1 4l412 649c7.33301 11.333 20.333 17 39 17c3.33301 0 6.5 -1.33301 9.5 -4s4.5 -5.33398 4.5 -8.00098s-0.333008 -4.33398 -1 -5.00098zM319 455.002
c0 -32 -5.83105 -62.332 -17.498 -90.999s-27.834 -51.834 -48.501 -69.501s-45.334 -26.5 -74.001 -26.5c-28 0 -51.667 8.16699 -71 24.5s-34 38 -44 65s-15 56.5 -15 88.5s6 62 18 90s28.833 50.667 50.5 68s46.167 26 73.5 26c28 0 51.5 -7.83301 70.5 -23.5
s33.333 -36.667 43 -63s14.5 -55.833 14.5 -88.5zM119.002 458.003c0 -24.667 2.83496 -49.834 8.50195 -75.501s13.667 -47.167 24 -64.5s22.166 -26 35.499 -26s24.666 7.33301 33.999 22s16.333 33.5 21 56.5s7 46.833 7 71.5v5c0 24.667 -3 48.834 -9 72.501
s-13.833 43.5 -23.5 59.5s-20.5 24 -32.5 24s-23 -7 -33 -21s-17.833 -32 -23.5 -54s-8.5 -45.333 -8.5 -70zM686.004 173.003c0 -32.667 -5.83105 -63.168 -17.498 -91.501s-27.834 -51.333 -48.501 -69s-45.334 -26.5 -74.001 -26.5s-52.5 8.16699 -71.5 24.5
s-33.5 37.833 -43.5 64.5s-15 56.334 -15 89.001c0 32 6 62 18 90s28.833 50.667 50.5 68s46.167 26 73.5 26c28 0 51.5 -7.83301 70.5 -23.5s33.333 -36.667 43 -63s14.5 -55.833 14.5 -88.5zM486.006 176.002c0 -24.667 2.83496 -49.834 8.50195 -75.501
s13.667 -47.167 24 -64.5s22.166 -26 35.499 -26s24.666 7.33301 33.999 22s16.333 33.5 21 56.5s7 46.833 7 71.5v5c0 24.667 -3 48.834 -9 72.501s-13.833 43.5 -23.5 59.5s-20.5 24 -32.5 24s-23 -7 -33 -21s-17.833 -32 -23.5 -54s-8.5 -45.333 -8.5 -70z" />
    <glyph glyph-name="ampersand" unicode="&#x26;" horiz-adv-x="788" 
d="M282 0c-18.667 -10 -42.0049 -15 -70.0049 -15c-31.333 0 -60.333 5.66699 -87 17s-48 27.333 -64 48s-24 45 -24 73c0 95.333 56 168.333 168 219l20 9l-15 16c-42 42 -63 81.333 -63 118c0 24 6.33301 44.5 19 61.5s29.334 30 50.001 39s42.334 13.5 65.001 13.5
c34.667 0 64.334 -9.33301 89.001 -28s37 -43.667 37 -75c0 -30.667 -8.5 -58 -25.5 -82s-40.833 -41.667 -71.5 -53l-14 -5l9 -10c4 -4.66699 11 -12.167 21 -22.5l39 -39.5l41 -45.5c12 -13.667 21.667 -26.167 29 -37.5l12 -18l18 19c12 13.333 24.333 27.833 37 43.5
l36 45.5c11.333 14.667 20.333 27.5 27 38.5s10 17.833 10 20.5c0 6 -2.5 12.333 -7.5 19s-10.167 10.334 -15.5 11.001c-6 1.33301 -10 3 -12 5c-3.33301 3.33301 -5 5.33301 -5 6c0 7.33301 7.33301 11 22 11l71 -5c5.33301 0 12.333 0.666992 21 2s18.667 3.33301 30 6
c21.333 4.66699 35 7 41 7c10.667 0 16 -3.33301 16 -10c0 -2.66699 -3 -6.16699 -9 -10.5s-11.333 -6.83301 -16 -7.5c-28 -2 -52.333 -12.333 -73 -31l-179 -188l17 -24l24 -33c5.33301 -7.33301 10.5 -13.833 15.5 -19.5l19.5 -21.5
c12.667 -12.667 25.667 -21.334 39 -26.001s25.333 -7 36 -7c12 0 19 0.333008 21 1c4.66699 0 10 1 16 3l6 2c2 0 4.33301 1 7 3c4 3.33301 9.66699 7.33301 17 12s14.333 7 21 7s10 -7.33301 10 -22c0 -2.66699 -6 -8.66699 -18 -18c-12.667 -8.66699 -29 -17 -49 -25
s-38.333 -12 -55 -12c-22.667 0 -42 3.5 -58 10.5s-31.167 18.833 -45.5 35.5s-31.166 40 -50.499 70l-13 21c-7.33301 -7.33301 -17.666 -18.666 -30.999 -33.999c-12 -14 -21 -23.333 -27 -28c-2.66699 -2.66699 -6 -5.83398 -10 -9.50098l-14 -13.5
c-5.33301 -5.33301 -10.333 -10 -15 -14s-8.66699 -6.66699 -12 -8zM263.995 393l14.999 -16.999l13 6c36.667 16.667 55 53.667 55 111c0 19.333 -6.66699 37.166 -20 53.499s-29.666 24.5 -48.999 24.5s-36 -5.5 -50 -16.5s-21 -24.833 -21 -41.5
c0 -32.667 19 -72.667 57 -120zM116.994 161.001c0 -32.667 11.334 -59.332 34.001 -79.999s50.334 -31 83.001 -31s61.667 6.5 87 19.5s51 33.5 77 61.5l9 9l-12 19c-8.66699 13.333 -19.334 27.833 -32.001 43.5s-27.667 32.5 -45 50.5l-42.5 43.5l-23.5 24.5l-12 13
l-21 -8c-29.333 -11.333 -51.333 -25.833 -66 -43.5s-24.334 -36.834 -29.001 -57.501s-7 -42 -7 -64z" />
    <glyph glyph-name="quotesingle" unicode="'" horiz-adv-x="178" 
d="M91 469c-6.66699 -16.667 -13 -25 -19 -25c-4.66699 0 -6.66699 7.33301 -6 22v58l-4 90v6c0 8 3.5 16.333 10.5 25s15.5 16 25.5 22s18.667 9 26 9c9.33301 0 14 -10.667 14 -32c0 -44.667 -15.667 -103 -47 -175z" />
    <glyph glyph-name="parenleft" unicode="(" horiz-adv-x="315" 
d="M264 -192c0 -6.66699 -2.49707 -12 -7.49707 -16s-11.167 -6 -18.5 -6s-13.333 2.33301 -18 7c-20 20 -40.5 48.333 -61.5 85s-40.5 77.667 -58.5 123s-32.5 91.333 -43.5 138s-16.5 89.667 -16.5 129s5.16699 79.5 15.5 120.5s24 80.833 41 119.5s36 74.167 57 106.5
s41.833 58.833 62.5 79.5c7.33301 7.33301 14.666 11 21.999 11s13.666 -1.66699 18.999 -5s8 -7 8 -11s-4.33301 -10.333 -13 -19c-26.667 -26.667 -51.667 -60.5 -75 -101.5s-42 -86.167 -56 -135.5s-21 -101 -21 -155c0 -40 4.16699 -82.5 12.5 -127.5
s19.666 -88.667 33.999 -131s30.333 -80.5 48 -114.5s35.5 -60 53.5 -78c10.667 -10.667 16 -17 16 -19z" />
    <glyph glyph-name="parenright" unicode=")" horiz-adv-x="316" 
d="M83 -207c-4 -4 -9.66699 -6.00195 -17 -6.00195s-14.166 1.83301 -20.499 5.5s-9.5 7.5 -9.5 11.5c0 3.33301 3.33301 8.33301 10 15c19.333 19.333 38.333 45.666 57 78.999s35.834 71 51.501 113s28.167 85 37.5 129s14 86 14 126s-4.33301 80.167 -13 120.5
s-20.667 79 -36 116s-32.333 70.667 -51 101s-38 55.5 -58 75.5c-5.33301 5.33301 -8 9.33301 -8 12c0 8.66699 7 13 21 13c13.333 0 23.333 -3.33301 30 -10c21.333 -21.333 42.333 -47.5 63 -78.5s39.5 -65 56.5 -102s30.5 -75.333 40.5 -115s15 -79.167 15 -118.5
c0 -31.333 -3.83301 -65.666 -11.5 -102.999s-17.834 -75.166 -30.501 -113.499s-26.834 -75.166 -42.501 -110.499s-32 -66.833 -49 -94.5s-33.5 -49.5 -49.5 -65.5z" />
    <glyph glyph-name="asterisk" unicode="*" horiz-adv-x="340" 
d="M185 372l-1.00098 0.000976562c-10 0 -15.667 6 -17 18l-13 92c-8.66699 -6.66699 -19.667 -14 -33 -22l-46 -28c-2.66699 -2.66699 -6.33398 -4 -11.001 -4c-12 0 -18 4.66699 -18 14c0 5.33301 3 11 9 17l73 58l-44 21.5c-14 7 -26.667 13.833 -38 20.5
c-8 3.33301 -12 9.66602 -12 18.999c0 8.66699 5.66699 13 17 13c2 0 7 -1.66699 15 -5l40 -16c13.333 -5.33301 26.666 -10.333 39.999 -15c-2.66699 29.333 -4.66699 60.333 -6 93c0 14 5.33301 21.333 16 22h1c10.667 0 16.334 -6 17.001 -18l13 -92
c9.33301 6.66699 20.5 14 33.5 22l45.5 28c2.66699 2.66699 6.33398 4 11.001 4c12 0 18 -4.66699 18 -14c0 -5.33301 -3 -11 -9 -17l-73 -58l44 -21.5c14 -7 26.667 -13.833 38 -20.5c8 -2.66699 12 -8.66699 12 -18s-5.66699 -14 -17 -14c-2.66699 0 -8 1.66699 -16 5
l-39 16c-13.333 5.33301 -26.666 10.333 -39.999 15c3.33301 -28.667 5.33301 -59.667 6 -93c0 -14 -5.33301 -21.333 -16 -22z" />
    <glyph glyph-name="plus" unicode="+" horiz-adv-x="590" 
d="M330 16c0 -8.66699 -5.66699 -14.832 -17 -18.499s-20 -5.5 -26 -5.5s-10.333 1.5 -13 4.5s-4 6.16699 -4 9.5v211c0 3.33301 -1.33301 5 -4 5h-202c-3.33301 0 -6.5 1.16699 -9.5 3.5s-4.5 6.16602 -4.5 11.499s2 12.5 6 21.5s10 13.5 18 13.5h189
c4.66699 0 7 2.66699 7 8v171c0 6.66699 3 12.167 9 16.5s12.5 7.83301 19.5 10.5s12.167 4 15.5 4c10.667 0 16 -4.33301 16 -13v-191c0 -4 0.666992 -6 2 -6h205c8.66699 0 13 -3.33301 13 -10c0 -9.33301 -3 -18.333 -9 -27s-13.333 -13 -22 -13h-185
c-2.66699 0 -4 -1.33301 -4 -4v-202z" />
    <glyph glyph-name="comma" unicode="," horiz-adv-x="228" 
d="M180 20c0 -30.667 -7.83301 -58.666 -23.5 -83.999s-34.667 -45.5 -57 -60.5s-43.5 -22.5 -63.5 -22.5c-12 0 -18 3.66699 -18 11c0 6 4.66699 10 14 12c26 5.33301 48.5 16.833 67.5 34.5s28.5 42.5 28.5 74.5c0 8.66699 -4 18.167 -12 28.5s-18 15.833 -30 16.5
c-12.667 1.33301 -23.167 5.66602 -31.5 12.999s-12.5 17.333 -12.5 30c0 12 5.5 22.333 16.5 31s26.167 13 45.5 13s36.833 -9.16699 52.5 -27.5s23.5 -41.5 23.5 -69.5z" />
    <glyph glyph-name="hyphen" unicode="-" horiz-adv-x="274" 
d="M39 170h-4c-4 0 -6 2 -6 6c2.66699 34.667 8 52.667 16 54c42.667 6 80 11 112 15l80 10c5.33301 0 8 -2 8 -6c-2.66699 -34.667 -9.66699 -52.667 -21 -54c-38.667 -6 -73.5 -11 -104.5 -15s-57.833 -7.33301 -80.5 -10z" />
    <glyph glyph-name="period" unicode="." horiz-adv-x="230" 
d="M170 41c0 -15.333 -5.33301 -28.333 -16 -39s-23.667 -16 -39 -16s-28.333 5.33301 -39 16s-16 23.667 -16 39s5.33301 28.333 16 39s23.667 16 39 16s28.333 -5.33301 39 -16s16 -23.667 16 -39z" />
    <glyph glyph-name="slash" unicode="/" horiz-adv-x="399" 
d="M82 -47c-4 -10 -13.667 -15 -29 -15c-16 0 -24 4 -24 12l1 1v2l297 695c5.33301 11.333 18.333 17 39 17c3.33301 0 6.5 -1.33301 9.5 -4s4.5 -5.66699 4.5 -9v-2z" />
    <glyph glyph-name="zero" unicode="0" horiz-adv-x="507" 
d="M467 202c0 -39.333 -9.5 -75.501 -28.5 -108.501s-44.667 -59.333 -77 -79s-68.166 -29.5 -107.499 -29.5s-75.166 10 -107.499 30s-58.166 46.5 -77.499 79.5s-29 69.167 -29 108.5s9.66699 74.833 29 106.5s45.166 56.834 77.499 75.501s67.833 28 106.5 28
c39.333 0 75.166 -9.33301 107.499 -28s58.166 -44 77.499 -76s29 -67.667 29 -107zM118 205.999c0 -31.333 5.33301 -60.832 16 -88.499s26 -49.834 46 -66.501s43.667 -25 71 -25c41.333 0 74.666 14.5 99.999 43.5s38 69.833 38 122.5c0 52 -11.667 95 -35 129
s-55 51 -95 51c-26.667 0 -50.667 -7.16699 -72 -21.5s-38.166 -34 -50.499 -59s-18.5 -53.5 -18.5 -85.5z" />
    <glyph glyph-name="one" unicode="1" horiz-adv-x="289" 
d="M146 2l-110 -5.00195c-7.33301 0 -11 4.33301 -11 13c0 8 3.66699 12 11 12c35.333 3.33301 57.333 10.666 66 21.999c4.66699 6.66699 7 14.667 7 24v265c0 17.333 -4.33301 29.333 -13 36c-6.66699 5.33301 -12.667 8.33301 -18 9l-10 2c-10.667 2.66699 -18 4 -22 4
c-4.66699 0 -7 3.66699 -7 11s2.33301 11 7 11l100 -3l97 3c5.33301 0 8 -3.33301 8 -10s-1.66699 -10.334 -5 -11.001s-8.66602 -1.66699 -15.999 -3c-6.66699 -0.666992 -11.5 -1.66699 -14.5 -3s-7.16699 -3 -12.5 -5
c-2.66699 -1.33301 -4.83398 -2.66602 -6.50098 -3.99902s-3.16699 -2.66602 -4.5 -3.99902c-6.66699 -8.66699 -10 -22.667 -10 -42c-0.666992 -9.33301 -1 -24.833 -1 -46.5v-82.5v-81c0 -20.667 0.333008 -34.667 1 -42c0 -15.333 3.66699 -26.166 11 -32.499
s14.333 -10.166 21 -11.499l39 -6c8 -0.666992 12 -5 12 -13s-4 -12 -12 -12z" />
    <glyph glyph-name="two" unicode="2" horiz-adv-x="422" 
d="M372 1c-4.66699 -3.33301 -7.66504 -4.99902 -8.99805 -4.99902l-16.5 0.5l-48.5 1.5c-22 0.666992 -41.333 1.16699 -58 1.5s-30.667 0.5 -42 0.5c-28.667 0 -54.667 -0.166992 -78 -0.5s-44.333 -0.833008 -63 -1.5l-28 -1c-4.66699 0 -7 2.66699 -7 8
c0 3.33301 2.33301 7.33301 7 12l35.5 34.5c10.333 9.66699 18.833 17.167 25.5 22.5c90.667 74 136 138.333 136 193c0 23.333 -6 42.166 -18 56.499s-27.667 21.5 -47 21.5c-48 0 -86.667 -16 -116 -48c-4.66699 -4.66699 -9 -7 -13 -7c-6.66699 0 -9 3 -7 9
c3.33301 13.333 6.16602 21.833 8.49902 25.5s7.83301 10.834 16.5 21.501s19 21 31 31c29.333 24 65.666 36 108.999 36c30.667 0 55.667 -12 75 -36s29 -52.667 29 -86c0 -32.667 -10.167 -61.334 -30.5 -86.001s-45.5 -51.667 -75.5 -81l-36.5 -34.5
c-9 -8.33301 -14.833 -13.5 -17.5 -15.5c-6.66699 -4 -5.66699 -6.66699 3 -8l4 -1h155c18.667 0 36.5 5.66699 53.5 17s30.167 26.666 39.5 45.999c4 6.66699 10.333 10 19 10c2.66699 0 4 -1.66699 4 -5c0 -2.66699 -5.66699 -20 -17 -52c-11.333 -32.667 -17 -53 -17 -61
c0 -9.33301 -2 -15.666 -6 -18.999z" />
    <glyph glyph-name="three" unicode="3" horiz-adv-x="372" 
d="M155 -169c-28 -14 -51.0029 -21.002 -69.0029 -21.002s-27 4.66699 -27 14c0 6 3 12.5 9 19.5s12 10.5 18 10.5c32 0 58.833 5.83301 80.5 17.5s39.834 27.834 54.501 48.501s22 53 22 97c0 14 -1.83301 27.333 -5.5 40s-12.167 25 -25.5 37c-14 12 -32.333 18 -55 18
c-17.333 0 -31.666 -3.33301 -42.999 -10s-17.666 -10 -18.999 -10c-11.333 0 -17 3 -17 9c0 4 3.66699 9.66699 11 17c3.33301 3.33301 7.83301 7.33301 13.5 12s12.5 9.33398 20.5 14.001c10.667 6.66699 23.5 15.5 38.5 26.5s28.333 26.333 40 46
s17.5 44.834 17.5 75.501c0 19.333 -5.83301 35.166 -17.5 47.499s-27.5 18.5 -47.5 18.5s-36.833 -4 -50.5 -12s-25.5 -17.667 -35.5 -29s-18.333 -17 -25 -17c-4.66699 0 -7 4 -7 12c0 7.33301 4.33301 16.5 13 27.5s20 22.167 34 33.5s29.5 20.833 46.5 28.5
s33.833 11.5 50.5 11.5c33.333 0 59.833 -9.5 79.5 -28.5s29.5 -41.833 29.5 -68.5c0 -63.333 -31.333 -113 -94 -149c-3.33301 -3.33301 -3 -5.33301 1 -6c28 0 51.167 -5.33301 69.5 -16s31.833 -24.167 40.5 -40.5s13 -33.5 13 -51.5c0 -94 -54.667 -168 -164 -222z" />
    <glyph glyph-name="four" unicode="4" horiz-adv-x="492" 
d="M351 -133c0 -6.66699 -4.00391 -13.833 -12.0039 -21.5s-16.667 -14 -26 -19s-16 -7.5 -20 -7.5c-10 0 -15 4.33301 -15 13v209c0 2.66699 -2.16699 4.83398 -6.5 6.50098s-7.16602 2.5 -8.49902 2.5l-229 -7c-8.66699 0 -13 1.66699 -13 5s5.33301 10.666 16 21.999
c10.667 12.667 102 115 274 307l15 18c13.333 17.333 21.333 26 24 26h1c2 0 3 -4 3 -12l-4 -300c0 -4 3.33301 -6 10 -6c3.33301 -0.666992 7.5 -1 12.5 -1h17.5c6.66699 0 15.334 0.166992 26.001 0.5s23.334 0.833008 38.001 1.5c7.33301 0 11 -2.33301 11 -7
c0 -8 -2.66699 -17.333 -8 -28s-9.66602 -16 -12.999 -16l-49 1c-29.333 0 -44 -2.66699 -44 -8v-179zM115.996 113.001c-4 -6 -4 -8.99902 0 -8.99902h150c8 0 12 2.66699 12 8v169c0 1.33301 -1.33301 2.16602 -4 2.49902s-4.66699 -0.166992 -6 -1.5l-65 -70z" />
    <glyph glyph-name="five" unicode="5" horiz-adv-x="375" 
d="M325 17c0 -30 -6.33301 -57.667 -19 -83s-29.834 -47.166 -51.501 -65.499s-45.667 -32.5 -72 -42.5s-53.166 -15 -80.499 -15c-22.667 0 -34 4 -34 12c0 7.33301 11 13 33 17c96 17.333 144 70.666 144 159.999c0 65.333 -45.667 121 -137 167
c-33.333 17.333 -50 35.666 -50 54.999c0 40 10.333 81.667 31 125c7.33301 15.333 19.333 26.333 36 33c40 15.333 88.667 27 146 35h1c7.33301 0 11 -5.66699 11 -17c0 -7.33301 -2.5 -16.5 -7.5 -27.5s-11.333 -20.833 -19 -29.5s-15.834 -14 -24.501 -16
c-18.667 -3.33301 -38 -6.16602 -58 -8.49902s-41.333 -3.83301 -64 -4.5c-6.66699 0 -12.667 -10 -18 -30c-0.666992 -0.666992 -1 -2.66699 -1 -6c0 -8.66699 6.66699 -16.667 20 -24c72.667 -40.667 123.334 -74.667 152.001 -102c16 -15.333 30.333 -35.333 43 -60
s19 -49 19 -73z" />
    <glyph glyph-name="six" unicode="6" horiz-adv-x="489" 
d="M439 190c0 -37.333 -8.16992 -71.5029 -24.5029 -102.503s-39.666 -55.667 -69.999 -74s-67.166 -27.5 -110.499 -27.5c-64.667 0 -113 18.833 -145 56.5s-48 87.834 -48 150.501c0 100 38.333 194.667 115 284c18.667 21.333 42 42.666 70 63.999
s59.167 40.666 93.5 57.999s70.166 30.666 107.499 39.999h5c6 0 9 -1 9 -3c0 -5.33301 -2.66699 -9.66602 -8 -12.999l-18 -9c-58 -25.333 -108.833 -59.5 -152.5 -102.5s-77.667 -92 -102 -147s-36.5 -113.167 -36.5 -174.5c0 -46.667 11.333 -83.667 34 -111
c10.667 -13.333 25.834 -26.166 45.501 -38.499s40.834 -18.5 63.501 -18.5c15.333 0 31 3.83301 47 11.5s29.333 20.334 40 38.001s16 41.167 16 70.5c0 31.333 -9.16699 58.833 -27.5 82.5s-42.5 35.5 -72.5 35.5s-54.667 -5 -74 -15c-6 -3.33301 -9.66699 -3 -11 1
s1.5 9.33301 8.5 16s16.5 13.834 28.5 21.501s24.667 13.834 38 18.501c20 7.33301 38 11 54 11c23.333 0 44.333 -5.33301 63 -16s33.667 -25.167 45 -43.5s17 -39.5 17 -63.5z" />
    <glyph glyph-name="seven" unicode="7" horiz-adv-x="460" 
d="M115 -166c-10 -18 -16.332 -27 -18.999 -27c-7.33301 0 -13.833 2.66699 -19.5 8s-8.5 10.333 -8.5 15s7 19.334 21 44.001l255 439c1.33301 1.33301 2 2.66602 2 3.99902c0 3.33301 -4 5.33301 -12 6c-78 2 -146.667 3 -206 3h-13c-28 0 -48 -7.33301 -60 -22
c-12 -15.333 -20.667 -23 -26 -23c-3.33301 0 -5 1.66699 -5 5c0 2 2.66699 15.333 8 40c2.66699 11.333 4.66699 22.833 6 34.5s2 23.167 2 34.5c0 7.33301 3.33301 11 10 11l63 -4c9.33301 -0.666992 27.166 -1 53.499 -1h103.5c85.333 0 137.333 2 156 6
c4.66699 0 7 -3.33301 7 -10c0 -8 -2.33301 -15.667 -7 -23l-11.5 -20c-5 -8.66699 -11.5 -19 -19.5 -31z" />
    <glyph glyph-name="eight" unicode="8" horiz-adv-x="452" 
d="M403 157c0 -31.333 -8.50586 -59.999 -25.5059 -85.999s-39 -46.5 -66 -61.5s-55.833 -22.5 -86.5 -22.5c-30 0 -57.5 6.33301 -82.5 19s-44.833 30 -59.5 52s-22 46.667 -22 74c0 26.667 6.33301 49.334 19 68.001s28.334 34.667 47.001 48s37.334 24.666 56.001 33.999
c4.66699 3.33301 6.33398 5.66602 5.00098 6.99902c-0.666992 0.666992 -2.66699 2.5 -6 5.5s-8.66602 7.16699 -15.999 12.5c-14 11.333 -27.5 23.666 -40.5 36.999s-25.167 31 -36.5 53c-11.333 22.667 -17 46 -17 70s8 45.167 24 63.5s36.833 32.666 62.5 42.999
s52.167 15.5 79.5 15.5c28 0 53.333 -5.33301 76 -16s40.834 -25.167 54.501 -43.5s20.5 -39.166 20.5 -62.499c0 -34.667 -16 -65.667 -48 -93l-18 -15l-21 -16c-15.333 -11.333 -23 -18 -23 -20v-1c0 -1.33301 2.33301 -3.66602 7 -6.99902
c40.667 -26.667 70.334 -51 89.001 -73s28 -50.333 28 -85zM250.994 342.001c5.33301 -4 9.99902 -4.66699 13.999 -2c36 29.333 54 73.333 54 132c0 24 -8 45.5 -24 64.5s-35.667 28.5 -59 28.5c-16 0 -31.167 -3.5 -45.5 -10.5s-26 -16.167 -35 -27.5s-13.5 -23 -13.5 -35
c0 -18 1.5 -32.167 4.5 -42.5s8.83301 -20.833 17.5 -31.5l14.5 -16.5c3.66699 -4.33301 8.33398 -8.83301 14.001 -13.5l25.5 -20l21 -16.5c5.33301 -4.33301 9.33301 -7.5 12 -9.5zM130.993 148.001c0 -22 4.50098 -42.5 13.501 -61.5s21.333 -34.167 37 -45.5
s33.167 -17 52.5 -17c29.333 0 53.166 9 71.499 27s27.5 40.333 27.5 67c0 44 -36.667 91 -110 141c-7.33301 5.33301 -12 8 -14 8c-2.66699 0 -9.5 -4.33301 -20.5 -13s-20.167 -16.667 -27.5 -24c-20 -20.667 -30 -48 -30 -82z" />
    <glyph glyph-name="nine" unicode="9" horiz-adv-x="466" 
d="M55 -186l-4.99609 0.00195312c-6 0 -9 1.66699 -9 5c0 5.33301 4.66699 9.66602 14 12.999c14 4 30.833 12.333 50.5 25s40.167 27.334 61.5 44.001s41.166 33.834 59.499 51.501s32.833 33.5 43.5 47.5c50.667 66.667 76 142.334 76 227.001
c0 28 -5.66699 53.5 -17 76.5s-26.333 41.167 -45 54.5s-39 20 -61 20c-32.667 0 -57.667 -11.5 -75 -34.5s-26 -49.167 -26 -78.5c0 -20 4.5 -39.5 13.5 -58.5s21 -34.5 36 -46.5s31.167 -18 48.5 -18c18.667 0 32 1.83301 40 5.5s16 7.83398 24 12.501
c7.33301 4 12.666 6.66699 15.999 8h2c2.66699 0 4.5 -1.33301 5.5 -4s0.833008 -5 -0.5 -7c-7.33301 -12.667 -18.333 -24.334 -33 -35.001c-30 -22 -61.667 -33 -95 -33c-22 0 -42.667 5.5 -62 16.5s-34.833 26.167 -46.5 45.5s-17.5 40.666 -17.5 63.999
c0 33.333 8.66699 65.166 26 95.499s40.5 55.166 69.5 74.499s61.167 29 96.5 29s66.666 -8.83301 93.999 -26.5s48.666 -41.834 63.999 -72.501s23 -65.667 23 -105c0 -88 -42 -173.667 -126 -257c-14.667 -14 -32.5 -28.667 -53.5 -44s-43.167 -29.833 -66.5 -43.5
s-46 -25.167 -68 -34.5s-41 -15 -57 -17z" />
    <glyph glyph-name="colon" unicode=":" horiz-adv-x="248" 
d="M180 318c0 -14.667 -5.33301 -27.5 -16 -38.5s-23.667 -16.5 -39 -16.5s-28.333 5.5 -39 16.5s-16 23.833 -16 38.5c0 15.333 5.33301 28.333 16 39s23.667 16 39 16s28.333 -5.5 39 -16.5s16 -23.833 16 -38.5zM180 41c0 -15.333 -5.33301 -28.333 -16 -39
s-23.667 -16 -39 -16s-28.333 5.33301 -39 16s-16 23.667 -16 39s5.33301 28.333 16 39s23.667 16 39 16s28.333 -5.33301 39 -16s16 -23.667 16 -39z" />
    <glyph glyph-name="semicolon" unicode=";" horiz-adv-x="228" 
d="M161 318c0 -14.667 -5.50098 -27.5 -16.501 -38.5s-23.833 -16.5 -38.5 -16.5s-27.5 5.5 -38.5 16.5s-16.5 23.833 -16.5 38.5s5.66699 27.667 17 39c10.667 10.667 23.334 16 38.001 16s27.5 -5.5 38.5 -16.5s16.5 -23.833 16.5 -38.5zM179.999 20
c0 -30.667 -7.83301 -58.666 -23.5 -83.999s-34.667 -45.5 -57 -60.5s-43.5 -22.5 -63.5 -22.5c-12 0 -18 3.66699 -18 11c0 6 4.66699 10 14 12c26 5.33301 48.5 16.833 67.5 34.5s28.5 42.5 28.5 74.5c0 8.66699 -4 18.167 -12 28.5s-18 15.833 -30 16.5
c-12.667 1.33301 -23.167 5.66602 -31.5 12.999s-12.5 17.333 -12.5 30c0 12 5.5 22.333 16.5 31s26.167 13 45.5 13s36.833 -9.16699 52.5 -27.5s23.5 -41.5 23.5 -69.5z" />
    <glyph glyph-name="less" unicode="&#x3c;" horiz-adv-x="590" 
d="M526 -6l-0.999023 0.00292969c-0.666992 0 -1.33398 0.333008 -2.00098 1l-429 200c-27.333 13.333 -41 22.666 -41 27.999s3.33301 13.166 10 23.499s14.334 17.5 23.001 21.5l437 200h1l2 1c6.66699 0 10 -3.33301 10 -10s-2.83301 -15.834 -8.5 -27.501
s-13.167 -19.5 -22.5 -23.5l-373 -174c-2.66699 -1.33301 -2.33398 -3 0.999023 -5l380 -174c8 -4 14 -11 18 -21s6 -17.667 6 -23c0 -4.66699 -1.16699 -8.66699 -3.5 -12s-4.83301 -5 -7.5 -5z" />
    <glyph glyph-name="equal" unicode="=" horiz-adv-x="590" 
d="M509 314l-445 0.000976562c-3.33301 0 -6.5 1.5 -9.5 4.5s-4.5 6.83301 -4.5 11.5c0 5.33301 2 12.333 6 21s10 13 18 13h453c3.33301 0 6.5 -1.16699 9.5 -3.5s4.5 -4.16602 4.5 -5.49902c0 -0.666992 -0.166992 -1.83398 -0.5 -3.50098
s-0.833008 -3.83398 -1.5 -6.50098s-1.5 -5 -2.5 -7s-1.83301 -4 -2.5 -6c-6 -12 -14.333 -18 -25 -18zM509 143.001l-445 0.000976562c-3.33301 0 -6.5 1.16699 -9.5 3.5s-4.5 6.16602 -4.5 11.499s2 12.5 6 21.5s10 13.5 18 13.5h453c3.33301 0 6.5 -1.16699 9.5 -3.5
s4.5 -4.83301 4.5 -7.5l-1 -1v-2c-8 -24 -18.333 -36 -31 -36z" />
    <glyph glyph-name="greater" unicode="&#x3e;" horiz-adv-x="590" 
d="M67 -5c-1.33301 0 -2.33301 -0.333984 -3 -1.00098c-6.66699 0 -10 3.66699 -10 11s2.83301 16.5 8.5 27.5s13.167 18.5 22.5 22.5l373 174c2.66699 1.33301 2.33398 3 -0.999023 5l-380 174c-8 4 -14 11.333 -18 22s-6 18.334 -6 23.001
c0 5.33301 1.16699 9.33301 3.5 12s4.83301 4 7.5 4l1 -1h2l429 -200c27.333 -13.333 41 -22.333 41 -27c0 -6 -3.33301 -14.167 -10 -24.5s-14.334 -17.5 -23.001 -21.5z" />
    <glyph glyph-name="question" unicode="?" horiz-adv-x="355" 
d="M149 204c0 -15.333 -5.00098 -22.999 -15.001 -22.999c-2.66699 0 -6.66699 3 -12 9c-2.66699 4 -6.16699 11.833 -10.5 23.5s-8 25 -11 40s-4.5 28.5 -4.5 40.5c0 18 8 33.5 24 46.5s36.667 26.167 62 39.5c50.667 24.667 76 50.667 76 78c0 34 -8.66699 61.5 -26 82.5
s-42.333 31.833 -75 32.5l-47 -4c-10.667 0 -20.334 6 -29.001 18s-13 23.667 -13 35s4.5 20.666 13.5 27.999s17.833 11 26.5 11c26 0 50 -7 72 -21s41.833 -32.167 59.5 -54.5s32.167 -46.166 43.5 -71.499c17.333 -38 26 -70 26 -96c0 -40 -15 -68.667 -45 -86l-56 -30
c-17.333 -9.33301 -31.166 -21.333 -41.499 -36s-16.166 -35.334 -17.499 -62.001zM207.999 46.001c0 -16.667 -5.83203 -30.833 -17.499 -42.5s-25.834 -17.5 -42.501 -17.5s-30.834 5.83301 -42.501 17.5s-17.5 25.834 -17.5 42.501s6 31 18 43
c11.333 11.333 25.333 17 42 17s30.834 -5.83301 42.501 -17.5s17.5 -25.834 17.5 -42.501z" />
    <glyph glyph-name="at" unicode="@" horiz-adv-x="749" 
d="M593 -57c-17.333 -12 -38.1641 -23.6699 -62.4971 -35.0029s-49.5 -20.666 -75.5 -27.999s-50.333 -11 -73 -11c-46 0 -89 7.66699 -129 23s-75.167 37.166 -105.5 65.499s-54.166 61.5 -71.499 99.5s-26 79.333 -26 124c0 68 16.167 126.333 48.5 175
s76.166 86 131.499 112s116.666 39 183.999 39c38 0 74 -7.16699 108 -21.5s64.333 -34 91 -59s47.667 -53.833 63 -86.5s23 -67.667 23 -105s-9.5 -70.166 -28.5 -98.499s-44.167 -50.333 -75.5 -66s-65.666 -23.5 -102.999 -23.5c-18.667 0 -34 9.33301 -46 28
c-2.66699 6 -5.33398 9 -8.00098 9c-1.33301 0 -7.66602 -3 -18.999 -9c-32.667 -18.667 -65.667 -28 -99 -28c-32.667 0 -60.167 9.66699 -82.5 29s-33.5 46 -33.5 80c0 39.333 9.66699 73.833 29 103.5s45 53 77 70s67 25.5 105 25.5c28 0 48.667 -2.33301 62 -7
s22 -7 26 -7s8.33301 3.33301 13 10c4.66699 5.33301 10 8 16 8s10.667 -2.33301 14 -7c-4.66699 -12.667 -8.83398 -25.5 -12.501 -38.5s-6.83398 -26.833 -9.50098 -41.5l-21 -132l-3 -27c0 -19.333 6 -29 18 -29c24.667 0 47 5.83301 67 17.5s36.167 27.667 48.5 48
s18.5 43.833 18.5 70.5c0 46 -11.667 87.667 -35 125s-55.166 67 -95.499 89s-85.833 33 -136.5 33c-38 0 -74.333 -6.66699 -109 -20s-65.334 -32.166 -92.001 -56.499s-47.834 -53.166 -63.501 -86.499s-23.5 -70 -23.5 -110s7.83301 -77.333 23.5 -112
s37.167 -65 64.5 -91s58.833 -46.167 94.5 -60.5s73.5 -21.5 113.5 -21.5c21.333 0 44.833 3.5 70.5 10.5s50.667 16.333 75 28s44.833 24.5 61.5 38.5c7.33301 6.66699 13.333 10 18 10c9.33301 0 14 -4.33301 14 -13s-13 -22 -39 -40zM275.002 184.997
c0 -39.333 8.3291 -66.5 24.9961 -81.5s35.334 -22.5 56.001 -22.5c21.333 0 40.333 5.83301 57 17.5s27.334 29.5 32.001 53.5l19 103c0.666992 2 1 6 1 12c0 18 -6.5 32.167 -19.5 42.5s-32.5 15.5 -58.5 15.5c-17.333 0 -34.666 -6.16699 -51.999 -18.5
s-31.666 -29 -42.999 -50s-17 -44.833 -17 -71.5z" />
    <glyph glyph-name="A" unicode="A" 
d="M147 1l-119.999 -6c-19.333 0 -29 4.33301 -29 13s11 16.334 33 23.001c40 12 68.667 37.667 86 77c63.333 146 125.666 302.667 186.999 470c8.66699 21.333 13 36.666 13 45.999c0 8 0.333008 12 1 12c23.333 8 37.333 14.667 42 20l5 6.5
c1.33301 1.66699 2.33301 3.16699 3 4.5c3.33301 6 5.66602 9 6.99902 9c3.33301 0 6.66602 -4.66699 9.99902 -14l81.5 -249.5l96.5 -284.5c12.667 -36.667 26.834 -61.5 42.501 -74.5s34.834 -21.5 57.501 -25.5s34 -11.667 34 -23c0 -6.66699 -9.66699 -10 -29 -10
l-139 6l-105 -1c-19.333 0 -29 4 -29 12c0 10 11 16.333 33 19c40.667 6.66699 61 21.667 61 45c0 18.667 -12.667 71 -38 157c-2 7.33301 -11 11 -27 11h-191c-7.33301 0 -13 -6 -17 -18c-26.667 -76 -40 -122 -40 -138c0 -14.667 5.5 -26.834 16.5 -36.501
s26.167 -17.167 45.5 -22.5s29 -11.666 29 -18.999s-9.66699 -11 -29 -11zM241.001 294c0 -4.66699 7 -7 21 -7h155c9.33301 0 14 1.66699 14 5l-2 10l-79 239c-4 12 -6.66699 18 -8 18c-2 0 -5 -5.66699 -9 -17l-90 -240z" />
    <glyph glyph-name="B" unicode="B" horiz-adv-x="578" 
d="M178 0l-32.499 -1.50195c-21.667 -1 -54.167 -2.16699 -97.5 -3.5c-19.333 0 -29 4 -29 12c0 7.33301 12.333 13.333 37 18c24 4 42.333 11.667 55 23s19 28.333 19 51v450c0 24 -5 41.667 -15 53s-26.667 18 -50 20s-35 8.66699 -35 20c0 7.33301 9.66699 11 29 11
l104 -1l111 5c75.333 0 131.166 -11.5 167.499 -34.5s54.5 -61.167 54.5 -114.5c0 -27.333 -5 -50.166 -15 -68.499s-22.667 -33 -38 -44s-31.333 -19.833 -48 -26.5c-2.66699 -0.666992 -4 -2.33398 -4 -5.00098s1.33301 -4.33398 4 -5.00098
c69.333 -21.333 112.333 -52.666 129 -93.999c8.66699 -19.333 13 -42.666 13 -69.999c0 -52 -12.333 -91 -37 -117c-13.333 -13.333 -24 -22.666 -32 -27.999c-52 -36 -117 -54 -195 -54zM208.001 407.998c0 -24.667 15.333 -37.001 46 -37.001
c41.333 0 78.333 9.66699 111 29c10.667 6 20.834 17 30.501 33s14.5 39.333 14.5 70c0 20.667 -4.33301 40.334 -13 59.001s-22.834 34.167 -42.501 46.5s-46.5 18.5 -80.5 18.5c-26 0 -43.5 -3.5 -52.5 -10.5s-13.5 -18.5 -13.5 -34.5v-174zM208.001 107.997
c0 -26.667 6.33105 -45.1641 18.998 -55.4971s32.667 -15.5 60 -15.5c26.667 0 51.834 6.83301 75.501 20.5s43 32 58 55s22.5 48.5 22.5 76.5c0 39.333 -9.33301 70.166 -28 92.499s-41.667 38.166 -69 47.499s-54.333 14 -81 14c-19.333 0 -33.666 -3.83301 -42.999 -11.5
s-14 -15.834 -14 -24.501v-199z" />
    <glyph glyph-name="C" unicode="C" horiz-adv-x="640" 
d="M528 2c-38 -11.333 -91.0078 -17.001 -159.008 -17.001c-44.667 0 -86.667 8.83301 -126 26.5s-73.666 42.167 -102.999 73.5s-52.333 67.666 -69 108.999s-25 85.333 -25 132s9.66699 90.334 29 131.001s45.833 76.5 79.5 107.5s72.334 55.167 116.001 72.5
s90.167 26 139.5 26c46.667 0 82 -4 106 -12s49.333 -14 76 -18c5.33301 0 9.33301 -6.66699 12 -20s4.83398 -29 6.50098 -47s2.5 -34 2.5 -48v-17v-14c0 -4 -0.333008 -7 -1 -9c-2 -5.33301 -5.33301 -7.66602 -10 -6.99902c-13.333 1.33301 -22 13.666 -26 36.999
c-4 30 -15.667 54.333 -35 73c-34 34 -84.667 51 -152 51c-34 0 -65.667 -7.66699 -95 -23s-55.166 -36.166 -77.499 -62.499s-39.666 -56.666 -51.999 -90.999s-18.5 -70.5 -18.5 -108.5c0 -55.333 10 -108 30 -158s50 -91.333 90 -124
c38.667 -32.667 83.334 -49 134.001 -49c83.333 0 145.333 40.333 186 121c3.33301 5.33301 8 9.66602 14 12.999c6 2.66699 9.66699 4.66699 11 6c0.666992 0.666992 1.33398 1 2.00098 1c4.66699 0 7 -6.33301 7 -19c-6 -50 -17.333 -87.333 -34 -112
c-3.33301 -5.33301 -22.666 -13.333 -57.999 -24z" />
    <glyph glyph-name="D" unicode="D" horiz-adv-x="754" 
d="M719 341c0 -47.333 -8.99902 -91.998 -26.999 -133.998s-43 -79 -75 -111s-69 -57.167 -111 -75.5s-87 -27.5 -135 -27.5c-0.666992 0 -7.83398 0.333008 -21.501 1l-60.5 3c-52.667 2 -94.667 3 -126 3l-105 -5c-19.333 0 -29 4 -29 12c0 7.33301 12 13.333 36 18
c23.333 4 39.833 11.333 49.5 22s14.5 28 14.5 52v450c0 23.333 -4.83301 40.166 -14.5 50.499s-26.167 17.833 -49.5 22.5c-24 4 -36 10.667 -36 20c0 7.33301 9.66699 11 29 11l104 -2h7l171 8c86 0 157 -13.333 213 -40s97.667 -63.834 125 -111.501
s41 -103.167 41 -166.5zM209.001 121.002c0 -26 6.83203 -45.6689 20.499 -59.002s32 -22.333 55 -27s47.833 -7 74.5 -7c52 0 98 12.5 138 37.5s71.167 60 93.5 105s33.5 97.5 33.5 157.5c0 44.667 -7.5 85.334 -22.5 122.001s-35.667 68.334 -62 95.001
s-56.166 47.167 -89.499 61.5s-68.333 21.5 -105 21.5c-62.667 0 -100.667 -4.66699 -114 -14c-14.667 -10 -22 -25.667 -22 -47v-446z" />
    <glyph glyph-name="E" unicode="E" horiz-adv-x="535" 
d="M167 1l-115 -6c-19.333 0 -29 4 -29 12c0 7.33301 12 13.333 36 18c24 4 41.833 11.5 53.5 22.5s17.5 28.167 17.5 51.5v450c0 23.333 -4.83301 40.166 -14.5 50.499s-26.167 17.833 -49.5 22.5c-24 4 -36 10.667 -36 20c0 7.33301 9.66699 11 29 11l177 -3l222 3
c11.333 0 17.333 -3 18 -9c10 -54 15 -87 15 -99c0 -12.667 -4.66699 -19 -14 -19c-5.33301 0 -9 3.33301 -11 10c-6.66699 21.333 -13.167 37.833 -19.5 49.5s-14.666 20 -24.999 25s-25.166 7.5 -44.499 7.5h-131c-6.66699 0 -14.334 -3.16699 -23.001 -9.5
s-13 -13.833 -13 -22.5v-212c0 -6 1.83301 -11.167 5.5 -15.5s7.83398 -6.5 12.501 -6.5h96c30 0 50.333 13 61 39c1.33301 2.66699 4.16602 6.16699 8.49902 10.5s7.83301 6.5 10.5 6.5c2 0 4.5 -1.5 7.5 -4.5s4.5 -6.83301 4.5 -11.5l-3 -55l2 -68
c0 -11.333 -3 -17 -9 -17c-10 0 -17.667 7.66699 -23 23c-10 30 -25.333 45 -46 45h-93c-12.667 0 -21.5 -1.66699 -26.5 -5s-7.5 -10.333 -7.5 -21v-192c0 -24.667 5.16699 -42 15.5 -52s27.166 -15 50.499 -15h104c24 0 42.667 2.33301 56 7s24.5 12.834 33.5 24.501
s18.5 28.167 28.5 49.5c4 6.66699 9 10 15 10c8 0 12 -3.66699 12 -11c0 -13.333 -1.5 -28.5 -4.5 -45.5s-7.16699 -36.167 -12.5 -57.5c-3.33301 -11.333 -8 -17 -14 -17z" />
    <glyph glyph-name="F" unicode="F" horiz-adv-x="512" 
d="M185 2l-125.999 -7.00098c-19.333 0 -29 4 -29 12c0 7.33301 12 13.333 36 18c23.333 4 39.833 11.5 49.5 22.5s14.5 28.5 14.5 52.5v422c0 32 -4 55.667 -12 71s-23.667 25 -47 29s-35 10.667 -35 20c0 7.33301 9.66699 11 29 11l172 -3l171 2h39l15 1
c11.333 0 17.333 -3 18 -9c1.33301 -9.33301 2.5 -22.5 3.5 -39.5s1.5 -37.167 1.5 -60.5c0 -14 -3 -21 -9 -21c-8 0 -13 4 -15 12c-8 24 -17.833 42.667 -29.5 56s-31.834 20 -60.501 20h-127c-10 0 -17.333 -2.66699 -22 -8s-7.66699 -11 -9 -17
c-0.666992 -6 -1.66699 -15.667 -3 -29c-0.666992 -6.66699 -1 -17.5 -1 -32.5v-57.5v-57.5c0 -15.667 0.333008 -27.167 1 -34.5c0 -15.333 3.33301 -23 10 -23l116 3c30 0 50.333 13 61 39c1.33301 2.66699 4.16602 6.16699 8.49902 10.5s7.83301 6.5 10.5 6.5
c2 0 4.66699 -1.66699 8 -5c2 -2 3 -7.33301 3 -16s-0.333008 -17.167 -1 -25.5s-1 -17.166 -1 -26.499c0 -14.667 1 -36.667 3 -66c0 -11.333 -3 -17 -9 -17c-10 0 -17.667 7.66699 -23 23c-8.66699 26 -24.334 39 -47.001 39h-12.5c-8.33301 0 -20.833 0.333008 -37.5 1
c-7.33301 0 -16.5 -0.166992 -27.5 -0.5s-23.5 -0.833008 -37.5 -1.5c-16 -0.666992 -24 -9 -24 -25c0 -82.667 1 -146 3 -190c1.33301 -22.667 6.83301 -40.167 16.5 -52.5s25.834 -20.5 48.501 -24.5s34 -9.66699 34 -17c0 -8 -9.66699 -12 -29 -12
c-9.33301 0 -18.666 0.333008 -27.999 1s-18.333 1.66699 -27 3c-16.667 2 -31 3 -43 3z" />
    <glyph glyph-name="G" unicode="G" horiz-adv-x="729" 
d="M591 35c-23.333 -11.333 -53.001 -22.3369 -89.001 -33.0039s-72.667 -16 -110 -16c-46.667 0 -91 8.16699 -133 24.5s-79 39.5 -111 69.5s-57.167 65 -75.5 105s-27.5 83.667 -27.5 131s9.66699 91.833 29 133.5s45.833 78.5 79.5 110.5s72.834 57.167 117.501 75.5
s92 27.5 142 27.5c14 0 32.5 -1.33301 55.5 -4s46.167 -6.16699 69.5 -10.5s43 -8.66602 59 -12.999s24 -8.16602 24 -11.499l8 -62.5c2 -16.333 3 -28.166 3 -35.499c0 -22.667 -4.66699 -34 -14 -34s-17.666 9.66699 -24.999 29
c-6.66699 19.333 -15.667 35.666 -27 48.999s-30.666 26 -57.999 38c-28.667 11.333 -63.334 17 -104.001 17c-50 0 -94.667 -13.667 -134 -41s-70.166 -64.333 -92.499 -111s-33.5 -98.667 -33.5 -156s12 -108.166 36 -152.499s56 -79 96 -104s83.333 -37.5 130 -37.5
c56.667 0 96.167 11.167 118.5 33.5s33.5 49.166 33.5 80.499l2 58c0 16 -2.66699 27.5 -8 34.5s-19 13.167 -41 18.5c-10.667 2.66699 -19.834 4.66699 -27.501 6s-13.834 2 -18.501 2c-8.66699 0 -15.5 1.66699 -20.5 5s-7.5 7.33301 -7.5 12s2.5 8.66699 7.5 12
s9.16699 5 12.5 5l126 -4l89 4c14 0 21 -5.33301 21 -16c0 -4 -2.66699 -7.83301 -8 -11.5s-12.333 -6.5 -21 -8.5c-12 -3.33301 -20.833 -11.5 -26.5 -24.5s-9.16699 -28.167 -10.5 -45.5s-2 -34.666 -2 -51.999v-27c0 -7.33301 3.33301 -14 10 -20c6 -6.66699 9 -11 9 -13
c0 -11.333 -4.66699 -17.666 -14 -18.999c-2.66699 -0.666992 -15.667 -6.66699 -39 -18z" />
    <glyph glyph-name="H" unicode="H" horiz-adv-x="810" 
d="M176 0l-110.002 -4.99902c-19.333 0 -29 4 -29 12c0 6.66699 11.667 12.667 35 18c23.333 4 38.833 11.167 46.5 21.5s11.5 27.833 11.5 52.5v452c0 24.667 -3 41.667 -9 51s-20.333 16 -43 20s-34 10.667 -34 20c0 7.33301 9.66699 11 29 11l103 -3l106 3
c19.333 0 29 -3.66699 29 -11c0 -9.33301 -11 -16 -33 -20c-45.333 -8 -68 -31.667 -68 -71v-192c0 -6 4.66699 -9 14 -9h371c4.66699 0 7 4 7 12v190c0 38.667 -22 62 -66 70c-22 4 -33 10.667 -33 20c0 7.33301 9.66699 11 29 11l116 -3l91 3c19.333 0 29 -3.66699 29 -11
c0 -9.33301 -11 -16 -33 -20c-22.667 -4 -37.167 -11.167 -43.5 -21.5s-9.5 -26.5 -9.5 -48.5v-452c0 -26 3.33301 -44.167 10 -54.5s21.334 -17.5 44.001 -21.5s34 -9.66699 34 -17c0 -8 -9.66699 -12 -29 -12l-104 5l-107 -5c-19.333 0 -29 4 -29 12
c0 7.33301 11 13 33 17c45.333 9.33301 68 33.666 68 72.999v190c0 10 -1.66699 15 -5 15h-382c-3.33301 0 -5 -3.66699 -5 -11v-185c0 -20.667 7.33301 -38.5 22 -53.5s33.334 -24.5 56.001 -28.5s34 -9.66699 34 -17c0 -8 -9.66699 -12 -29 -12z" />
    <glyph glyph-name="I" unicode="I" horiz-adv-x="340" 
d="M176 0l-128 -5c-19.333 0 -29 4 -29 12c0 7.33301 12.333 13.333 37 18c24 4 42.333 11.5 55 22.5s19 27.833 19 50.5v452c0 23.333 -4.83301 40 -14.5 50s-26.167 17.333 -49.5 22c-24 4 -36 10.667 -36 20c0 7.33301 9.66699 11 29 11l117 -3l109 3
c19.333 0 29 -3.66699 29 -11c0 -9.33301 -12 -16 -36 -20c-24 -4.66699 -41.333 -12.167 -52 -22.5s-16 -26.833 -16 -49.5v-452c0 -22.667 6.5 -39.5 19.5 -50.5s31.833 -18.5 56.5 -22.5c24 -4.66699 36 -10.667 36 -18c0 -8 -9.66699 -12 -29 -12z" />
    <glyph glyph-name="J" unicode="J" horiz-adv-x="300" 
d="M157 -134c-30.667 -44 -71.668 -66 -123.001 -66c-31.333 0 -56 4.33301 -74 13c-19.333 8 -29 18.333 -29 31c0 12 3.83301 23.833 11.5 35.5s15.834 17.5 24.501 17.5c22 0 39 -9 51 -27c12 -18.667 27.333 -28 46 -28c44 0 66 52.667 66 158v551
c0 22.667 -4.83301 39 -14.5 49s-26.167 17.333 -49.5 22c-23.333 4 -35 10.667 -35 20c0 7.33301 9.66699 11 29 11l117 -3l94 3c19.333 0 29 -3.66699 29 -11c0 -9.33301 -11.333 -16 -34 -20c-22.667 -4.66699 -37.667 -11.667 -45 -21s-11 -26 -11 -50v-409
c0 -100 -5.66699 -168 -17 -204c-4 -13.333 -7.5 -23.5 -10.5 -30.5s-6.33301 -13.167 -10 -18.5z" />
    <glyph glyph-name="K" unicode="K" horiz-adv-x="681" 
d="M186 2l-126.004 -7.00293c-19.333 0 -29 4 -29 12c0 7.33301 12 13.333 36 18c23.333 4 39.833 11.5 49.5 22.5s14.5 28.833 14.5 53.5v450c0 22.667 -4.83301 39 -14.5 49s-26.167 17.333 -49.5 22c-24 4 -36 10.667 -36 20c0 7.33301 9.66699 11 29 11l112 -2l97 2
c19.333 0 29 -3.66699 29 -11c0 -9.33301 -11.333 -16 -34 -20s-37.167 -11.333 -43.5 -22s-9.5 -27 -9.5 -49v-187c0 -12.667 1.66699 -19 5 -19c7.33301 0 16.333 6 27 18l200 204c10 10 15 20.667 15 32s-6.33301 18.333 -19 21c-20.667 4.66699 -31 11.334 -31 20.001
c0 7.33301 9.66699 11 29 11h54c37.333 0 68.833 0.333008 94.5 1s45.834 1.66699 60.501 3h7c14.667 0 22 -3.66699 22 -11c0 -9.33301 -11 -16 -33 -20c-41.333 -7.33301 -80.166 -22 -116.499 -44s-72.666 -50.5 -108.999 -85.5s-75.833 -76.167 -118.5 -123.5
c-1.33301 -2.66699 -2 -4.66699 -2 -6c0 -3.33301 2.33301 -7.33301 7 -12l242 -258c16 -17.333 28.667 -30.333 38 -39s19 -15 29 -19s23 -8 39 -12c24.667 -4.66699 37 -11 37 -19c0 -7.33301 -9.66699 -11 -29 -11l-139 5l-81 -1c-19.333 0 -29 3.66699 -29 11
s9.33301 13.333 28 18c18 4 27 10.333 27 19c0 6 -5 14.333 -15 25l-212 234c-11.333 11.333 -19 17 -23 17c-2.66699 0 -4 -13.333 -4 -40c0 -6 -0.166992 -13.667 -0.5 -23s-0.5 -19.666 -0.5 -30.999c0 -19.333 0.833008 -40.166 2.5 -62.499
s4.83398 -43.833 9.50098 -64.5s11.667 -38 21 -52s21.666 -22.667 36.999 -26c22 -4 33 -9.66699 33 -17c0 -8 -9.66699 -12 -29 -12c-9.33301 0 -18.666 0.333008 -27.999 1s-18.333 1.66699 -27 3c-16.667 2 -31 3 -43 3z" />
    <glyph glyph-name="L" unicode="L" horiz-adv-x="574" 
d="M190 0l-135 -5.00195c-18.667 0 -28 4 -28 12c0 7.33301 7.33301 13 22 17c27.333 5.33301 47.666 13.333 60.999 24s20 26.667 20 48v464c0 23.333 -3.66699 38.333 -11 45s-23 12.334 -47 17.001c-24 4 -36 10.667 -36 20c0 7.33301 9.66699 11 29 11l112 -3l126 3
c19.333 0 29 -3.66699 29 -11c0 -10 -9.33301 -16.333 -28 -19c-18.667 -3.33301 -32.167 -6 -40.5 -8s-17.5 -5 -27.5 -9c-17.333 -7.33301 -26 -20.333 -26 -39v-471c0 -22 5 -37.667 15 -47s30.667 -14 62 -14h146c2.66699 0 11 2.66699 25 8
c34.667 14.667 62.334 44.334 83.001 89.001c7.33301 20 15 30 23 30c7.33301 0 11 -6 11 -18c-0.666992 -0.666992 -1 -1.66699 -1 -3v-2c-14.667 -56.667 -23.667 -99 -27 -127c-1.33301 -11.333 -6 -17 -14 -17z" />
    <glyph glyph-name="M" unicode="M" horiz-adv-x="901" 
d="M419 14c-6.66699 -16 -12 -23.9961 -16 -23.9961s-9 8.66699 -15 26c-18.667 56 -42.834 122 -72.501 198s-65.167 161.667 -106.5 257c-2.66699 7.33301 -5.33398 11 -8.00098 11s-4.33398 -3.66699 -5.00098 -11c-10.667 -78.667 -18.667 -148.834 -24 -210.501
s-8 -114.5 -8 -158.5c0 -16 5.33301 -32 16 -48s27 -26 49 -30s33 -9.66699 33 -17c0 -8 -9.66699 -12 -29 -12l-94 5l-91 -5c-19.333 0 -29 4 -29 12c0 7.33301 11 13 33 17c34.667 6 55.334 32 62.001 78c13.333 102.667 23.5 190.334 30.5 263.001
s10.5 130.334 10.5 173.001l-1 23c0 9.33301 -3.33301 18.166 -10 26.499s-12.667 14.166 -18 17.499c-4.66699 3.33301 -10.667 6.16602 -18 8.49902s-13.333 4.16602 -18 5.49902c-2.66699 0.666992 -5.5 1.5 -8.5 2.5s-6.5 1.83301 -10.5 2.5
c-8 1.33301 -14.833 3 -20.5 5s-8.5 7 -8.5 15c0 7.33301 7.66699 11 23 11l166 -8c8.66699 0 17.667 -19.667 27 -59c2 -8.66699 3.83301 -15.834 5.5 -21.501s2.83398 -9.83398 3.50098 -12.501l158 -401c4 -10 8 -15 12 -15c3.33301 0 7 4 11 12l197 410
c2 4.66699 3.83301 10 5.5 16s3.16699 12.667 4.5 20c6 34.667 12 52 18 52h36c8 0 17.333 0.333008 28 1s22.667 1.66699 36 3s23.833 2.33301 31.5 3s12.834 1 15.501 1h3c14 0 21 -3.33301 21 -10c0 -6 -4.16699 -11.333 -12.5 -16s-17.666 -8.5 -27.999 -11.5
s-18.166 -5.5 -23.499 -7.5c-8.66699 -2.66699 -18.334 -8 -29.001 -16s-16 -17 -16 -27c0 -44.667 0.833008 -90.667 2.5 -138s4.16699 -95.666 7.5 -144.999c6.66699 -98.667 10.667 -160.334 12 -185.001c1.33301 -24 7.83301 -41.5 19.5 -52.5s29.5 -18.5 53.5 -22.5
c23.333 -5.33301 35 -11.333 35 -18c0 -8 -9.66699 -12 -29 -12l-117 5l-105 -5c-19.333 0 -29 3.66699 -29 11c0 9.33301 10.333 15.333 31 18s34.667 9.33398 42 20.001s11 28 11 52c0 65.333 -4 188 -12 368c0 10.667 -1.66699 16 -5 16
c-2.66699 0 -6.33398 -5.33301 -11.001 -16z" />
    <glyph glyph-name="N" unicode="N" horiz-adv-x="770" 
d="M662 8c0 -16.667 -6.99902 -24.9971 -20.999 -24.9971c-6.66699 0 -18.334 5.66699 -35.001 17s-32.667 28 -48 50c-8.66699 11.333 -42.5 53.166 -101.5 125.499l-252.5 308.5c-8.66699 10.667 -15.667 16 -21 16c-6 0 -9 -7 -9 -21l-3.5 -217.5
c-1 -62.333 -1.5 -114.833 -1.5 -157.5c0 -45.333 21.333 -72 64 -80c22 -4 33 -9.66699 33 -17c0 -8 -9.66699 -12 -29 -12l-94 5l-91 -5c-19.333 0 -29 4 -29 12c0 7.33301 9.66699 12.666 29 15.999c12.667 2.66699 23.334 9 32.001 19s15.5 21.167 20.5 33.5
s8.16699 22.833 9.5 31.5c12 100 18 233.333 18 400c0 32.667 -8 57 -24 73s-37.667 28.333 -65 37c-27.333 9.33301 -41 18.333 -41 27c0 9.33301 7.66699 14 23 14l154 -5c6.66699 0 14.667 -5.66699 24 -17l25 -32l53.5 -68l70.5 -89l76.5 -96.5l71.5 -90l55.5 -69
l27.5 -33.5c12 -14.667 21 -22 27 -22c5.33301 0 8.33301 7 9 21c0.666992 21.333 1.16699 58.666 1.5 111.999s0.5 122.666 0.5 207.999v87c-0.666992 12 -7.33398 23.833 -20.001 35.5s-27.667 18.834 -45 21.501c-17.333 3.33301 -26 9.33301 -26 18
c0 7.33301 9.66699 11 29 11h57l115 3c19.333 0 29 -3.66699 29 -11c0 -9.33301 -11.667 -16 -35 -20c-23.333 -4.66699 -39 -10.667 -47 -18s-12.667 -23 -14 -47c-0.666992 -12.667 -1.16699 -64.667 -1.5 -156s-0.5 -222.333 -0.5 -393z" />
    <glyph glyph-name="O" unicode="O" horiz-adv-x="763" 
d="M632 93c-27.333 -32.667 -62.668 -58.667 -106.001 -78s-91.333 -29 -144 -29c-44.667 0 -87.334 8.5 -128.001 25.5s-76.667 40.833 -108 71.5s-56 66.167 -74 106.5s-27 83.833 -27 130.5c0 62 12.833 118.5 38.5 169.5s65.167 92.833 118.5 125.5
c52.667 32.667 115.334 49 188.001 49c44.667 0 86.834 -8 126.501 -24s74.5 -38.833 104.5 -68.5s53.667 -64.5 71 -104.5s26 -84 26 -132c0 -94 -28.667 -174.667 -86 -242zM141.998 340c0 -40.667 6.33203 -79.833 18.999 -117.5s30.5 -71.334 53.5 -101.001
s50 -53.167 81 -70.5s64.5 -26 100.5 -26c72.667 0 128.334 24.833 167.001 74.5s58 120.834 58 213.501c0 61.333 -9.66699 115.5 -29 162.5s-46.833 83.667 -82.5 110s-78.5 39.5 -128.5 39.5c-49.333 0 -92 -12.5 -128 -37.5s-63.5 -59 -82.5 -102
s-28.5 -91.5 -28.5 -145.5z" />
    <glyph glyph-name="P" unicode="P" horiz-adv-x="552" 
d="M183 2l-130 -7c-19.333 0 -29 4 -29 12c0 7.33301 12 13.333 36 18c24 4 41.667 11.5 53 22.5s17 28.5 17 52.5v422c0 32 -4 55.667 -12 71s-23.667 25 -47 29s-35 10.667 -35 20c0 7.33301 9.66699 11 29 11l98 -1l111 6c50.667 0 95.167 -7.16699 133.5 -21.5
s68.5 -34.666 90.5 -60.999s33 -57.5 33 -93.5c0 -43.333 -8.83301 -82.333 -26.5 -117s-43.334 -61.834 -77.001 -81.501s-75.167 -29.5 -124.5 -29.5c-13.333 0 -24 2 -32 6c-8.66699 4 -13 8.33301 -13 13c0 2.66699 1.83301 5.16699 5.5 7.5s7.16699 3.5 10.5 3.5l15 -2
l31 -3c80.667 0 121 59.667 121 179c0 58.667 -15 102 -45 130s-70.667 42 -122 42c-42.667 0 -64 -14 -64 -42v-477c0 -50 22.333 -79 67 -87c22 -4 33 -9.66699 33 -17c0 -8 -9.66699 -12 -29 -12c-9.33301 0 -18.666 0.333008 -27.999 1s-18.333 1.66699 -27 3
c-16.667 2 -31 3 -43 3z" />
    <glyph glyph-name="Q" unicode="Q" horiz-adv-x="806" 
d="M870 -215c-38 -22 -78.3301 -33.001 -120.997 -33.001c-28 0 -54 2.66699 -78 8s-47.667 14 -71 26s-49 28 -77 48l-68.5 50l-80.5 62c-6.66699 5.33301 -18.167 12.833 -34.5 22.5s-33 18.834 -50 27.501s-30.167 14.334 -39.5 17.001c-14 3.33301 -32.833 13 -56.5 29
s-46.834 36.333 -69.501 61s-41.5 55 -56.5 91s-22.5 73.667 -22.5 113c0 50 8.83301 96.5 26.5 139.5s42.667 80.667 75 113s70.166 57.5 113.499 75.5s90.666 27 141.999 27c60 0 116.833 -11.5 170.5 -34.5s98.5 -58.833 134.5 -107.5s54 -105.334 54 -170.001
c0 -45.333 -6.16699 -87.333 -18.5 -126s-27.5 -70.667 -45.5 -96c-18.667 -25.333 -44.667 -51 -78 -77s-74 -45.667 -122 -59c-9.33301 -3.33301 -14 -6.33301 -14 -9c0 -3.33301 1.33301 -6.33301 4 -9c21.333 -22 44.833 -43.5 70.5 -64.5s51.167 -39.333 76.5 -55
s47.333 -26.5 66 -32.5c30 -9.33301 61 -14 93 -14c33.333 0 54.333 2 63 6c10 3.33301 17.667 5 23 5c6 0 9 -3.66699 9 -11c0 -8 -6 -15.667 -18 -23zM139.003 353.999c0 -44.667 7.5 -87.5 22.5 -128.5s35.833 -77.5 62.5 -109.5s57.667 -57.333 93 -76s73 -28 113 -28
c32 0 61.667 7.66699 89 23s51.333 35.833 72 61.5s37 53.834 49 84.501c17.333 48 26 95.667 26 143c0 40 -7.33301 78 -22 114s-34.667 68.167 -60 96.5s-54.666 50.666 -87.999 66.999s-69 24.5 -107 24.5c-50 0 -93.833 -12.667 -131.5 -38s-66.834 -58.5 -87.501 -99.5
s-31 -85.833 -31 -134.5z" />
    <glyph glyph-name="R" unicode="R" horiz-adv-x="689" 
d="M718 14c0 -12.667 -8.83496 -21.667 -26.502 -27s-35.834 -8 -54.501 -8c-31.333 0 -59.833 7 -85.5 21s-48.5 31.333 -68.5 52s-37.333 41.5 -52 62.5l-36 52.5l-25.5 39c-7.66699 12 -14.167 22.667 -19.5 32c-23.333 36 -65 57.333 -125 64h-2
c-8.66699 0 -13 -6.66699 -13 -20v-172c0 -49.333 22.333 -78 67 -86c22 -4 33 -9.66699 33 -17c0 -8 -9.66699 -12 -29 -12c-9.33301 0 -18.666 0.333008 -27.999 1s-18.333 1.66699 -27 3c-16.667 2 -31 3 -43 3l-130 -7c-19.333 0 -29 4 -29 12
c0 7.33301 12 13.333 36 18c24 4 41.667 11.5 53 22.5s17 28.5 17 52.5v422c0 32 -4 55.667 -12 71s-23.667 25 -47 29s-35 10.667 -35 20c0 7.33301 9.66699 11 29 11l98 -1l115 5c150 0 225 -54.667 225 -164c0 -72 -39.333 -128 -118 -168c-2.66699 -1.33301 -4 -3 -4 -5
c0 -0.666992 0.5 -1.66699 1.5 -3s1.83301 -3 2.5 -5l37 -55.5l25.5 -38c7.66699 -11 15.834 -21.833 24.501 -32.5l33 -40c13.333 -16 26.833 -31.333 40.5 -46s27.834 -28.667 42.501 -42c16 -14 32.333 -23 49 -27s38.667 -6 66 -6c10 0 15 -3.66699 15 -11zM209.998 364
c0 -15.333 3.99902 -24.999 11.999 -28.999s21.667 -6 41 -6c30 0 56.167 6.66699 78.5 20s39.833 31.666 52.5 54.999s19 49.333 19 78c0 43.333 -9.5 78.333 -28.5 105s-54.5 40 -106.5 40c-25.333 0 -42.166 -4.66699 -50.499 -14s-12.833 -22.666 -13.5 -39.999
c-1.33301 -32.667 -2.33301 -66.334 -3 -101.001s-1 -70.667 -1 -108z" />
    <glyph glyph-name="S" unicode="S" horiz-adv-x="465" 
d="M422 160c0 -30.667 -7.66797 -59.3291 -23.001 -85.9961s-38.333 -48.334 -69 -65.001s-69.334 -25 -116.001 -25c-55.333 0 -100 8 -134 24c-10.667 4.66699 -17.667 10.334 -21 17.001c-12 25.333 -18 63.666 -18 114.999c0 5.33301 2.16699 11.5 6.5 18.5
s9.5 10.5 15.5 10.5c5.33301 0 15 -22 29 -66c19.333 -57.333 64.333 -86 135 -86c34 0 61 10.333 81 31s30 48.667 30 84c0 56 -50.667 118 -152 186c-40.667 27.333 -72 55 -94 83s-33 62.333 -33 103c0 27.333 8.66699 53.166 26 77.499s41.166 44.166 71.499 59.499
s64.833 23 103.5 23c34.667 0 62.334 -3.33301 83.001 -10s32.667 -10 36 -10c6.66699 0 11.834 -6.33301 15.501 -19s6.33398 -27.167 8.00098 -43.5s2.5 -30.5 2.5 -42.5c0 -18 -2.33301 -27 -7 -27c-19.333 0 -31 9.33301 -35 28c-4.66699 28.667 -17.334 51 -38.001 67
s-46 24 -76 24c-30.667 0 -57.167 -9.83301 -79.5 -29.5s-33.5 -45.834 -33.5 -78.501c0 -20 7.33301 -39.167 22 -57.5s32.334 -35 53.001 -50l58 -40.5c102 -66 153 -137.667 153 -215z" />
    <glyph glyph-name="T" unicode="T" horiz-adv-x="670" 
d="M342 0l-128.002 -5.00098c-19.333 0 -29 4 -29 12c0 7.33301 12 13 36 17c50 9.33301 75 35.333 75 78v455c0 21.333 -4 34.5 -12 39.5s-23 7.5 -45 7.5h-82c-17.333 0 -33.666 -3.33301 -48.999 -10s-25.666 -15 -30.999 -25
c-5.33301 -10.667 -12.166 -20.334 -20.499 -29.001s-15.833 -13 -22.5 -13c-4.66699 0 -7 4 -7 12c0 6 1.66699 13 5 21c14.667 30 25 67 31 111c2 15.333 7.66699 23 17 23c5.33301 0 13.666 -10.667 24.999 -32c7.33301 -13.333 30.666 -20 69.999 -20h381
c25.333 0 44.666 4.66699 57.999 14c5.33301 3.33301 11.333 8.33301 18 15c7.33301 6.66699 13.333 11.834 18 15.501s9.33398 5.5 14.001 5.5s7 -7.66699 7 -23l-1 -9c-5.33301 -22 -9.33301 -41.167 -12 -57.5s-4 -30.166 -4 -41.499v-12
c0 -6.66699 -1.5 -13.667 -4.5 -21s-6.83301 -11 -11.5 -11c-7.33301 0 -13.666 13.667 -18.999 41c-4.66699 30.667 -37.667 46 -99 46c-30.667 0 -56.667 -0.333008 -78 -1s-38 -1.66699 -50 -3c-10.667 -0.666992 -16 -15 -16 -43v-455c0 -43.333 26.333 -69.333 79 -78
c22 -4 33 -9.66699 33 -17c0 -8 -9.66699 -12 -29 -12z" />
    <glyph glyph-name="U" unicode="U" horiz-adv-x="738" 
d="M635 250c-1.33301 -51.333 -13.3359 -96.999 -36.0029 -136.999s-52.834 -71.167 -90.501 -93.5s-80.5 -33.5 -128.5 -33.5c-94.667 0 -164.5 24.5 -209.5 73.5s-67.5 122.833 -67.5 221.5v266c0 40 -15.333 64.333 -46 73c-22 6 -33 13.333 -33 22
c0 7.33301 9.66699 11 29 11l96 -3l80 2c19.333 0 29 -3.66699 29 -11c0 -6 -11 -12.667 -33 -20c-9.33301 -2.66699 -18.666 -10.834 -27.999 -24.501s-14 -29.5 -14 -47.5v-296c0 -40 9.83301 -76.5 29.5 -109.5s46.334 -59.167 80.001 -78.5s70.834 -29 111.501 -29
c61.333 0 108 23.167 140 69.5s48 109.833 48 190.5c0 20.667 -0.333008 48.834 -1 84.501s-1.66699 79.167 -3 130.5c-1.33301 65.333 -15 101.666 -41 108.999c-22 6 -33 12.667 -33 20s9.66699 11 29 11l75 -1l81 3c19.333 0 29 -3.66699 29 -11
c0 -8 -11 -14.667 -33 -20c-31.333 -6 -48 -31 -50 -75c-0.666992 -3.33301 -1.66699 -29.833 -3 -79.5s-3.66602 -122.167 -6.99902 -217.5z" />
    <glyph glyph-name="V" unicode="V" horiz-adv-x="672" 
d="M336 14c-7.33301 -19.333 -14.001 -29 -20.001 -29c-2.66699 0 -12.667 23.667 -30 71l-183 491c-15.333 40 -38.666 64.333 -69.999 73c-22 7.33301 -33 14.666 -33 21.999s9.66699 11 29 11l122 -3l102 2c19.333 0 29 -3.66699 29 -11c0 -10 -9.33301 -16.333 -28 -19
c-18.667 -4 -34.667 -9.66699 -48 -17s-20 -16.666 -20 -27.999s3 -26 9 -44l127 -336c6.66699 -18.667 12.667 -28 18 -28c4 0 10 9.33301 18 28l141 350c5.33301 12 8 22.667 8 32c0 14.667 -22.333 28.334 -67 41.001c-22 6 -33 12.667 -33 20s9.66699 11 29 11l99 -1
l114 3c19.333 0 29 -3.66699 29 -11c0 -8 -11 -14.667 -33 -20c-22.667 -4.66699 -42.5 -15.334 -59.5 -32.001s-29.833 -35 -38.5 -55l-188 -456c-0.666992 -0.666992 -1.33398 -2.16699 -2.00098 -4.5s-1.66699 -5.5 -3 -9.5c-1.33301 -4.66699 -2.66602 -9 -3.99902 -13
l-4 -12c-1.33301 -4 -3 -8.16699 -5 -12.5s-3.66699 -8.83301 -5 -13.5z" />
    <glyph glyph-name="W" unicode="W" horiz-adv-x="916" 
d="M357 15c-6.66699 -20.667 -13.9971 -31 -21.9971 -31c-2.66699 0 -7.33398 9.33301 -14.001 28l-216 542c-16 35.333 -40 57.333 -72 66c-22 7.33301 -33 14.666 -33 21.999s9.66699 11 29 11l89 -3l93 2c19.333 0 29 -3.66699 29 -11s-11 -14 -33 -20
c-13.333 -3.33301 -20 -14.333 -20 -33c0 -11.333 2.66699 -25.666 8 -42.999l79.5 -196.5l84.5 -196.5c2.66699 -6.66699 5.33398 -10 8.00098 -10s5 3 7 9l78 193c4 10 6 17.667 6 23c0 4.66699 -2.66699 14.334 -8 29.001l-57 142c-8 20 -21 37.333 -39 52
s-37.333 25 -58 31s-31 13 -31 21c0 7.33301 9.66699 11 29 11l94 -3l77 2c19.333 0 29 -3.66699 29 -11c0 -5.33301 -6.66699 -11.666 -20 -18.999c-14 -6.66699 -21 -14.334 -21 -23.001l11 -35c7.33301 -22.667 16.333 -44.667 27 -66c10 -22 16 -33 18 -33
c1.33301 0 6.66602 9.66699 15.999 29c6 13.333 11.5 27.666 16.5 42.999s9.16699 29 12.5 41s5 18.667 5 20c0 9.33301 -6 17.333 -18 24c-12.667 6.66699 -19 13 -19 19c0 7.33301 9.66699 11 29 11l52 -2l59 3c19.333 0 29 -3.66699 29 -11
c0 -8.66699 -10.333 -15.334 -31 -20.001c-14 -2.66699 -24.833 -5.66699 -32.5 -9s-14.334 -8.33301 -20.001 -15s-12.5 -16.667 -20.5 -30c-6 -10 -12.167 -22.333 -18.5 -37s-12.5 -29.667 -18.5 -45s-10.833 -28.666 -14.5 -39.999s-5.5 -18.666 -5.5 -21.999
c0 -6.66699 0.333008 -10.334 1 -11.001l103 -265c0.666992 -2.66699 2 -4 4 -4s4.33301 3.33301 7 10c12.667 33.333 29.167 82.333 49.5 147l72.5 240c4 12 6 24 6 36c0 23.333 -10.333 38 -31 44c-21.333 5.33301 -32 11.666 -32 18.999s9.66699 11 29 11l72 -1l90 3
c19.333 0 29 -3.66699 29 -11c0 -8 -11 -14.667 -33 -20c-36 -8 -63.333 -37.333 -82 -88l-161 -476c-16.667 -46.667 -27.334 -70 -32.001 -70c-6.66699 0 -12.334 6.33301 -17.001 19c-20.667 47.333 -44.667 106.333 -72 177c-26.667 71.333 -43.667 115.333 -51 132
c-1.33301 3.33301 -2.66602 5 -3.99902 5c-2 0 -3.5 -1.5 -4.5 -4.5s-1.83301 -5.16699 -2.5 -6.5c-18.667 -43.333 -37.5 -89.666 -56.5 -138.999z" />
    <glyph glyph-name="X" unicode="X" horiz-adv-x="707" 
d="M150 1l-125.999 -5.99902c-19.333 0 -29 4 -29 12c0 6.66699 10.667 13.667 32 21c21.333 6 46 17.667 74 35s51.333 37.666 70 60.999l125 156c12 17.333 18 28.666 18 33.999c0 6 -0.666992 9.66699 -2 11l-145 204c-30.667 41.333 -57.667 68 -81 80
c-8.66699 4.66699 -22.334 9.66699 -41.001 15c-18 5.33301 -27 12 -27 20c0 7.33301 9.66699 11 29 11l143 -5l99 2c19.333 0 29 -3.33301 29 -10s-8 -12.667 -24 -18c-8.66699 -2.66699 -15.5 -4.83398 -20.5 -6.50098l-10.5 -3.5
c-4.66699 -1.33301 -10.667 -3.66602 -18 -6.99902s-11 -9.66602 -11 -18.999c0 -8.66699 11 -28.667 33 -60l91 -128c7.33301 -10 12.666 -15 15.999 -15s8 4 14 12l107 141c17.333 21.333 26 38.333 26 51c0 16 -15 26.333 -45 31c-22 5.33301 -33 12 -33 20
c0 7.33301 9.66699 11 29 11l81 -1l114 6c19.333 0 29 -3.66699 29 -11s-11 -14 -33 -20c-26.667 -6.66699 -70 -45 -130 -115l-115 -136c-12 -14 -18 -22.667 -18 -26c0 -4.66699 1.33301 -9.33398 4 -14.001l155 -223c30.667 -45.333 66.334 -73.666 107.001 -84.999
c22 -6 33 -12.667 33 -20s-9.66699 -11 -29 -11l-143 6l-103 -1c-19.333 0 -29 3.66699 -29 11s8.33301 13.333 25 18c34.667 9.33301 52 25.666 52 48.999c0 11.333 -4 22.333 -12 33l-104 151c-4.66699 6.66699 -9 10 -13 10c-2.66699 0 -5.66699 -1.66699 -9 -5
l-135 -174c-6 -8 -9 -15.667 -9 -23c0 -19.333 15 -32.666 45 -39.999c22 -6 33 -12.667 33 -20s-9.66699 -11 -29 -11z" />
    <glyph glyph-name="Y" unicode="Y" horiz-adv-x="578" 
d="M310 0l-128 -5.00098c-19.333 0 -29 4 -29 12c0 7.33301 11 13 33 17c52 9.33301 78 37.333 78 84v148c0 20 -8.33301 44.667 -25 74l-117 192c-36.667 58 -66 90.667 -88 98c-22.667 6.66699 -34 14 -34 22c0 7.33301 9.66699 11 29 11l117 -3l80 2
c19.333 0 29 -3.66699 29 -11c0 -8 -10.667 -14.667 -32 -20c-22 -4.66699 -33 -13 -33 -25c0 -9.33301 4.33301 -21.333 13 -36l92 -165c15.333 -25.333 24.666 -38 27.999 -38c11.333 0 50.333 59 117 177c12 20 18 37 18 51c0 19.333 -13.667 31 -41 35
c-7.33301 1.33301 -14.666 4 -21.999 8s-11 8 -11 12c0 7.33301 9.66699 11 29 11l75 -1l104 3c19.333 0 29 -3.33301 29 -10c0 -7.33301 -17.667 -16 -53 -26c-16 -4.66699 -29.333 -13 -40 -25c-26.667 -28.667 -79.667 -110.667 -159 -246
c-8 -13.333 -13.667 -24.166 -17 -32.499s-5.5 -16.5 -6.5 -24.5s-1.5 -19 -1.5 -33v-148c0 -22.667 6.83301 -41.167 20.5 -55.5s32.5 -23.5 56.5 -27.5c23.333 -5.33301 35 -11.333 35 -18c0 -8 -9.66699 -12 -29 -12z" />
    <glyph glyph-name="Z" unicode="Z" horiz-adv-x="603" 
d="M551 12c-6 -11.333 -11.999 -17.002 -17.999 -17.002l-302 3l-196 -1c-4.66699 0 -7 3.66699 -7 11v3c0 10.667 19.333 41.667 58 93l203.5 281.5c57 80.333 103.167 147.833 138.5 202.5c2.66699 3.33301 4 6 4 8c0 4.66699 -6.33301 7.33398 -19 8.00098
c-24 0.666992 -48.167 1.16699 -72.5 1.5s-49.166 0.5 -74.499 0.5s-46.5 -0.166992 -63.5 -0.5s-29.833 -0.833008 -38.5 -1.5c-18 -1.33301 -35.667 -7.5 -53 -18.5s-30 -27.5 -38 -49.5c-8.66699 -22 -18 -33 -28 -33c-6 0 -9 3.33301 -9 10s5 24.334 15 53.001
c5.33301 14.667 9.5 29.167 12.5 43.5s5.16699 28.5 6.5 42.5c1.33301 11.333 6.33301 17 15 17c4 0 12.333 -4.66699 25 -14c7.33301 -5.33301 30 -8 68 -8c19.333 -0.666992 42.666 -1 69.999 -1h94c70.667 0 143 1 217 3c3.33301 0 6.5 -2.33301 9.5 -7
s3.5 -8.33398 1.5 -11.001l-61 -81l-192.5 -265c-56.333 -80 -104.833 -151.667 -145.5 -215c-2 -2.66699 -3 -8 -3 -16c0 -7.33301 3.66699 -11.666 11 -12.999c16 -1.33301 33.333 -2.5 52 -3.5s38.667 -1.5 60 -1.5c10 0 20.5 -0.166992 31.5 -0.5s22.167 -0.5 33.5 -0.5
c25.333 0 50.833 2.33301 76.5 7s49.5 14.5 71.5 29.5s39.667 38.5 53 70.5c5.33301 14 12.666 21 21.999 21c6 0 9 -3.66699 9 -11c0 -4 -1.33301 -12.167 -4 -24.5s-6 -26.5 -10 -42.5s-8.16699 -30.667 -12.5 -44s-7.83301 -23 -10.5 -29z" />
    <glyph glyph-name="bracketleft" unicode="[" horiz-adv-x="373" 
d="M307 -200h-164c-12.667 0 -21 1.33301 -25 4s-6 9.66699 -6 21v843c0 16 2 25.667 6 29s14.667 5 32 5l165 -1c12 0 18 -4.33301 18 -13s-8.66699 -13.667 -26 -15l-108 -6c-8 0 -16.5 -4.83301 -25.5 -14.5s-13.5 -19.167 -13.5 -28.5v-729
c0 -13.333 3.5 -24.5 10.5 -33.5s15.167 -14.167 24.5 -15.5l112 -13c17.333 -3.33301 26 -9.33301 26 -18c0 -10 -8.66699 -15 -26 -15z" />
    <glyph glyph-name="backslash" unicode="\" horiz-adv-x="399" 
d="M379 -50c0 -8 -7.66699 -12 -23 -12c-16 0 -26 5 -30 15l-297 695l-1 2v2c0 3.33301 1.5 6.33301 4.5 9s6.16699 4 9.5 4c20.667 0 33.667 -5.66699 39 -17l297 -695v-1z" />
    <glyph glyph-name="bracketright" unicode="]" horiz-adv-x="373" 
d="M226 -200h-164c-17.333 0 -26 5 -26 15c0 8.66699 8.66699 14.667 26 18l112 13c9.33301 1.33301 17.5 6.5 24.5 15.5s10.5 20.167 10.5 33.5v729c0 9.33301 -4.5 18.833 -13.5 28.5s-17.5 14.5 -25.5 14.5l-108 6c-17.333 1.33301 -26 6.33301 -26 15s6 13 18 13l165 1
c16.667 0 27.167 -1.66699 31.5 -5s6.5 -13 6.5 -29v-843c0 -11.333 -2 -18.333 -6 -21s-12.333 -4 -25 -4z" />
    <glyph glyph-name="asciicircum" unicode="^" horiz-adv-x="500" 
d="M59 284l-2 0.00292969c-6 0 -9 3.66699 -9 11c0 2.66699 4 10.834 12 24.501s18.667 30.667 32 51l43 65l46 68l41.5 60l27.5 39.5c134.667 -190.667 202 -293.334 202 -308.001c0 -7.33301 -3 -11 -9 -11h-2c-12 3.33301 -21.333 7.16602 -28 11.499
s-13 10.666 -19 18.999s-14.333 19.166 -25 32.499l-41 57l-45.5 67.5l-28.5 42.5c-4 4.66699 -7.33301 4.66699 -10 0c-88.667 -130.667 -137.667 -200.667 -147 -210s-22 -16 -38 -20z" />
    <glyph glyph-name="underscore" unicode="_" horiz-adv-x="500" 
d="M469 -182l-455 0.000976562c-3.33301 0 -6.5 1.5 -9.5 4.5s-4.5 6.83301 -4.5 11.5c0 5.33301 2 12.333 6 21s10 13 18 13h463c3.33301 0 6.5 -1.16699 9.5 -3.5s4.5 -4.16602 4.5 -5.49902c0 -0.666992 -0.166992 -1.83398 -0.5 -3.50098
s-0.833008 -3.83398 -1.5 -6.50098s-1.5 -5 -2.5 -7s-1.83301 -4 -2.5 -6c-6 -12 -14.333 -18 -25 -18z" />
    <glyph glyph-name="grave" unicode="`" horiz-adv-x="257" 
d="M126 631c54 -94 81 -146.668 81 -158.001s-3 -17 -9 -17c-6.66699 0 -18.334 9.33301 -35.001 28l-32 35.5l-37.5 44.5c-12.333 15.333 -22.666 28.833 -30.999 40.5s-12.5 18.834 -12.5 21.501c0 15.333 16.333 23 49 23c11.333 0 20.333 -6 27 -18z" />
    <glyph glyph-name="a" unicode="a" horiz-adv-x="399" 
d="M226 25c-9.33301 -8.66699 -23.1641 -17.335 -41.4971 -26.002s-38.5 -13 -60.5 -13c-14.667 0 -28.834 3.83301 -42.501 11.5s-24.834 17.667 -33.501 30s-13 24.833 -13 37.5c0 40 24.333 70 73 90l102 42c12.667 5.33301 20.334 10 23.001 14
s4.33398 12.667 5.00098 26l2 62v2c0 17.333 -5.5 32.333 -16.5 45s-23.5 19 -37.5 19c-14.667 0 -28.334 -3.5 -41.001 -10.5s-20.667 -13.5 -24 -19.5c-3.33301 -6.66699 -5 -13.667 -5 -21l1 -14c0 -4 -4.66699 -8.66699 -14 -14s-19.333 -10.166 -30 -14.499
s-18.334 -6.5 -23.001 -6.5c-6.66699 0 -10 3 -10 9c0 15.333 5.33301 30 16 44s24.5 27.333 41.5 40s34.833 24 53.5 34c27.333 14.667 53.333 22 78 22c23.333 0 43 -8.66699 59 -26s23.667 -38.333 23 -63l-5 -216v-6c0 -47.333 12 -71 36 -71c16 0 29.333 4.66699 40 14
c1.33301 1.33301 3 2 5 2c2.66699 0 5.16699 -1 7.5 -3s3.5 -4.66699 3.5 -8v-1c-2.66699 -5.33301 -8.33398 -12 -17.001 -20s-18.667 -15 -30 -21s-22.333 -9 -33 -9c-16.667 0 -30.5 4.33301 -41.5 13s-18.833 17.334 -23.5 26.001s-7.66699 13 -9 13
c-3.33301 0 -9.33301 -4.33301 -18 -13zM115.002 86.999c0 -17.333 5.33301 -30.833 16 -40.5s23.667 -14.5 39 -14.5s30 6 44 18s21.333 28.333 22 49l2 49v5c0 10.667 -3 16 -9 16c-4 0 -8.66699 -1 -14 -3c-66.667 -22.667 -100 -49 -100 -79z" />
    <glyph glyph-name="b" unicode="b" horiz-adv-x="515" 
d="M480 210c0 -39.333 -8.49707 -76.167 -25.4971 -110.5s-41.833 -61.833 -74.5 -82.5s-73 -31 -121 -31c-24.667 0 -55 5 -91 15l-41.5 10.5c-9.66699 2.33301 -15.167 3.5 -16.5 3.5c-2 0 -6.66699 -3 -14 -9c-6.66699 -6 -11.334 -9 -14.001 -9s-5.66699 1.16699 -9 3.5
s-5 5.16602 -5 8.49902v5c0 2 0.166992 4.33301 0.5 7s0.833008 5.33398 1.5 8.00098l3 19c0.666992 8 1.16699 16.833 1.5 26.5s0.5 19.834 0.5 30.501v461c0 41.333 -15.667 65.666 -47 72.999c-5.33301 1.33301 -8 5.66602 -8 12.999s2.33301 11.333 7 12
c22.667 4.66699 46 12.334 70 23.001l43 17l2 1c4 0 6 -2.33301 6 -7l-3 -105v-205c0 -20.667 3 -31.667 9 -33c23.333 19.333 48.666 34 75.999 44s50.666 15 69.999 15c34.667 0 65.5 -8.66699 92.5 -26s48.333 -41.333 64 -72s23.5 -66 23.5 -106zM145.003 131.999
c0 -22.667 6.33301 -42.667 19 -60s29.5 -30.833 50.5 -40.5s43.833 -14.5 68.5 -14.5s46.167 7.83301 64.5 23.5s32.5 36.5 42.5 62.5s15 55 15 87s-5.5 61.833 -16.5 89.5s-27 50.167 -48 67.5s-46.167 26 -75.5 26c-16 0 -34 -3 -54 -9s-35 -14.667 -45 -26
c-14 -14.667 -21 -43 -21 -85v-121z" />
    <glyph glyph-name="c" unicode="c" horiz-adv-x="377" 
d="M372 79c0 -13.333 -8.00098 -27.165 -24.001 -41.498s-37.167 -26.5 -63.5 -36.5s-54.5 -15 -84.5 -15s-57.5 8.83301 -82.5 26.5s-45 41.667 -60 72s-22.5 64.833 -22.5 103.5s9.33301 75.167 28 109.5s43.667 62.166 75 83.499s66 32 104 32c56.667 0 98 -16 124 -48
c3.33301 -5.33301 5 -10.333 5 -15c0 -6 -4.83301 -12.667 -14.5 -20s-18.5 -11 -26.5 -11s-15.333 3.33301 -22 10c-12 13.333 -22 23.333 -30 30s-16.667 11.167 -26 13.5s-22 3.5 -38 3.5c-34.667 0 -61.667 -14.833 -81 -44.5s-29 -67.167 -29 -112.5
c0 -30 6.83301 -58.833 20.5 -86.5s32.5 -50.334 56.5 -68.001s51.333 -26.5 82 -26.5c20 0 36.167 3.83301 48.5 11.5s25.5 20.5 39.5 38.5c3.33301 3.33301 6.33301 5 9 5s5.33398 -1.5 8.00098 -4.5s4 -6.16699 4 -9.5z" />
    <glyph glyph-name="d" unicode="d" horiz-adv-x="506" 
d="M400 -2c-26.667 -11.333 -41.999 -17 -45.999 -17c-5.33301 0 -8 1.33301 -8 4l5 66v6c-12 -18.667 -29.333 -35.167 -52 -49.5s-49 -21.5 -79 -21.5c-36 0 -68 9.66699 -96 29s-49.833 44.833 -65.5 76.5s-23.5 66.5 -23.5 104.5s9.33301 73.667 28 107
s45 60.166 79 80.499s73.333 30.5 118 30.5c9.33301 0 19.5 -1.16699 30.5 -3.5s21.167 -5.16602 30.5 -8.49902s15.333 -6.66602 18 -9.99902c4 -5.33301 7.33301 -8 10 -8c2 0 3 8 3 24v158c0 25.333 -3.83301 42.833 -11.5 52.5s-20.834 16.5 -39.501 20.5
c-5.33301 1.33301 -8 5.66602 -8 12.999s2.33301 11.333 7 12c13.333 3.33301 26.5 7 39.5 11s25.833 8.66699 38.5 14c26 10 41 15 45 15c3.33301 0 5.33301 -1.33301 6 -4v-7c0 -3.33301 -0.333008 -7.66602 -1 -12.999c-4 -38 -6 -77.333 -6 -118v-452
c0 -43.333 7 -65 21 -65c20.667 0 36 1 46 3h3c8 0 12 -4 12 -12c0 -10 -4.66699 -15 -14 -15c-17.333 -2.66699 -33.5 -5.83398 -48.5 -9.50098s-28.833 -8.16699 -41.5 -13.5zM167.001 65c30.667 -22.667 60.332 -34.002 88.999 -34.002c28 0 51 8.66699 69 26
s27 38.333 27 63v135c0 20.667 -5.16699 40.334 -15.5 59.001s-24.666 34.167 -42.999 46.5s-39.833 18.5 -64.5 18.5c-24 0 -45.667 -8.16699 -65 -24.5s-33.333 -36.166 -42 -59.499c-8.66699 -22 -13 -50.333 -13 -85c0 -33.333 5.5 -62.833 16.5 -88.5
s24.833 -44.5 41.5 -56.5z" />
    <glyph glyph-name="e" unicode="e" horiz-adv-x="388" 
d="M352 71c-2.66699 -11.333 -11 -23.667 -25 -37s-32.333 -24.666 -55 -33.999s-48.667 -14 -78 -14s-56.5 9.16699 -81.5 27.5s-45 43.5 -60 75.5s-22.5 68.333 -22.5 109s8.83301 77.334 26.5 110.001s41.5 58.5 71.5 77.5s63.667 28.5 101 28.5
c40 0 71.5 -8.33301 94.5 -25s34.5 -39.334 34.5 -68.001s-7.16699 -46.5 -21.5 -53.5s-32.833 -10.5 -55.5 -10.5h-164c-9.33301 0 -15.833 -2.16699 -19.5 -6.5s-5.5 -14.5 -5.5 -30.5c0 -30.667 6.66699 -59.334 20 -86.001s31.166 -48 53.499 -64s47.5 -24 75.5 -24
c40.667 0 72.667 14.667 96 44c4.66699 4.66699 8.33398 7 11.001 7c4.66699 0 7 -3.33301 7 -10c0 -4.66699 -1 -10 -3 -16zM111 302.999c0 -10 6.33398 -15.001 19.001 -15.001h82c15.333 0 29.166 0.5 41.499 1.5s22.833 2.16699 31.5 3.5
c6.66699 0.666992 10 10.334 10 29.001c0 18 -8.33301 32.667 -25 44s-36.667 17 -60 17c-16 0 -31.5 -4.5 -46.5 -13.5s-27.5 -19.667 -37.5 -32s-15 -23.833 -15 -34.5z" />
    <glyph glyph-name="f" unicode="f" horiz-adv-x="305" 
d="M127 2l-83 -4.99902c-13.333 0 -20 3.33301 -20 10c0 6 7.66699 11.667 23 17c28.667 8.66699 43 23.334 43 44.001v282c-10.667 0 -20.167 0.166992 -28.5 0.5s-16.166 0.833008 -23.499 1.5c-2 0.666992 -4.83301 3 -8.5 7s-5.5 7.33301 -5.5 10
c0 2 2.33301 4.33301 7 7c5.33301 1.33301 12.833 4.16602 22.5 8.49902s21.834 10.166 36.501 17.499c0 54.667 7.16699 102.667 21.5 144s33.166 73 56.499 95c45.333 43.333 92.666 65 141.999 65c73.333 0 110 -20 110 -60c0 -10.667 -3.33301 -20 -10 -28
s-13.667 -12 -21 -12s-14.666 3 -21.999 9s-14.333 13 -21 21c-6.66699 7.33301 -17 14 -31 20s-29.667 9 -47 9c-32.667 0 -58.5 -15.5 -77.5 -46.5s-28.5 -78.833 -28.5 -143.5v-53c0 -14.667 8.33301 -22 25 -22h118c2.66699 0 4 -3.66699 4 -11
c0 -8 -1.33301 -16.167 -4 -24.5s-5.66699 -12.5 -9 -12.5h-94c-16.667 0 -27.334 -1.33301 -32.001 -4c-5.33301 -3.33301 -8 -7.66602 -8 -12.999v-267c0.666992 -20.667 15 -35.334 43 -44.001c15.333 -5.33301 23 -11 23 -17c0 -6.66699 -6.66699 -10 -20 -10z" />
    <glyph glyph-name="g" unicode="g" horiz-adv-x="435" 
d="M418 -77c0 -26.667 -6.66504 -52.6699 -19.998 -78.0029s-30.833 -48.166 -52.5 -68.499s-45.5 -36.5 -71.5 -48.5s-51.667 -18 -77 -18c-34 0 -65 4 -93 12s-50.5 20.333 -67.5 37s-25.5 38.334 -25.5 65.001c0 20.667 5.16699 38.5 15.5 53.5s27.833 30.167 52.5 45.5
c23.333 14.667 40.333 30 51 46c-22.667 4.66699 -43.334 13.167 -62.001 25.5s-28 28.833 -28 49.5c0 12.667 7.66699 25 23 37c4.66699 4 11 8 19 12c18 10.667 31.333 22 40 34c-8.66699 2 -21.334 10.667 -38.001 26c-32.667 30.667 -49 67.667 -49 111
c0 29.333 8.33301 55.333 25 78s38.667 40.667 66 54s56.333 20 87 20c8.66699 0 17.834 -1 27.501 -3s20.167 -4.66699 31.5 -8c43.333 -13.333 77 -20 101 -20l32 1h12c5.33301 0 9.66602 -1 12.999 -3s5 -7.33301 5 -16c0 -12 -3 -18 -9 -18c-24 0 -38 -0.666992 -42 -2
l-8 -3c-2.66699 -1.33301 -5 -2.33301 -7 -3c-2.66699 -6 -4 -21.333 -4 -46c0 -33.333 -7.33301 -64.333 -22 -93s-34.667 -51.834 -60 -69.501s-54 -26.5 -86 -26.5c-20.667 0 -38.667 4 -54 12c-29.333 -23.333 -44 -39.666 -44 -48.999c0 -21.333 32 -35 96 -41
c88 -8 139 -15.333 153 -22c10 -4 20.5 -8.83301 31.5 -14.5s20.167 -13.667 27.5 -24s11 -25.166 11 -44.499zM113.002 265.997c0 -20 3.99707 -39.5 11.9971 -58.5s19 -34.833 33 -47.5s29.667 -19 47 -19s32.833 5.66699 46.5 17s24.334 26.5 32.001 45.5
s11.5 39.167 11.5 60.5s-4.16699 41.333 -12.5 60s-19.5 33.667 -33.5 45s-30 17 -48 17c-17.333 0 -32.666 -5.83301 -45.999 -17.5s-23.666 -26.667 -30.999 -45s-11 -37.5 -11 -57.5zM81.999 -134.003c0 -34 11.5 -61.8311 34.5 -83.498s54.167 -32.5 93.5 -32.5
c26.667 0 51 6.16699 73 18.5s39.833 29.166 53.5 50.499s20.5 45.333 20.5 72c0 16.667 -8.16699 30.667 -24.5 42s-35.833 19.333 -58.5 24c-23.333 4 -55 7 -95 9h-23c-4 -2.66699 -10.167 -7.83398 -18.5 -15.501l-31.5 -30.5c-16 -18.667 -24 -36.667 -24 -54z" />
    <glyph glyph-name="h" unicode="h" horiz-adv-x="515" 
d="M120 2l-80.998 -4.99805c-13.333 0 -20 3.33301 -20 10c0 6 6 11 18 15s23 8.33301 33 13s15 14.667 15 30v501c0 42.667 -15 67 -45 73c-5.33301 1.33301 -8 5.66602 -8 12.999s2.33301 11.333 7 12c17.333 4 56 17.333 116 40l2 1c4 0 6 -4 6 -12
c0 -4 -0.333008 -7 -1 -9c-2.66699 -14.667 -4.5 -32.167 -5.5 -52.5s-1.5 -43.5 -1.5 -69.5v-174c0 -17.333 2.66699 -29.666 8 -36.999c57.333 42 107.666 63 150.999 63c32.667 0 59.834 -13 81.501 -39s32.5 -58.333 32.5 -97v-210c0 -21.333 13.667 -36 41 -44
c15.333 -5.33301 23 -11 23 -17c0 -6.66699 -6.66699 -10 -20 -10l-78 5l-78 -5c-13.333 0 -20 3.33301 -20 10c0 6 7.66699 11.667 23 17c26 8 39 22.667 39 44v204c0 16 -4.66699 30.833 -14 44.5s-21 24.667 -35 33s-28.667 12.5 -44 12.5
c-36.667 0 -64.334 -7.33301 -83.001 -22c-10.667 -8.66699 -17.834 -17.834 -21.501 -27.501s-5.5 -24.5 -5.5 -44.5v-203c1.33301 -20.667 14 -34.334 38 -41.001c15.333 -5.33301 23 -11 23 -17c0 -6.66699 -6.66699 -10 -20 -10z" />
    <glyph glyph-name="i" unicode="i" horiz-adv-x="245" 
d="M169 563c-0.666992 -14 -5.66699 -25.668 -15 -35.001s-21.333 -14.333 -36 -15c-14.667 0.666992 -26.667 5.66699 -36 15s-14 21.333 -14 36s4.66699 26.667 14 36s21.333 14 36 14s26.667 -4.66699 36 -14s14.333 -21.666 15 -36.999zM125 1.99902l-81 -4.99902
c-13.333 0 -20 3.33301 -20 10c0 6 9.33301 12 28 18c19.333 6 30.333 12.333 33 19c3.33301 6.66699 5 12.667 5 18v217c0 41.333 -15.667 65.666 -47 72.999c-5.33301 1.33301 -8 5.66602 -8 12.999s2.33301 11.333 7 12c32 8 66 23.667 102 47
c10.667 6.66699 16.667 10 18 10c4.66699 0 7 -1.66699 7 -5c-6 -60.667 -9 -105.667 -9 -135v-232c0 -13.333 4.16699 -22 12.5 -26s19.5 -8.33301 33.5 -13c13.333 -5.33301 20 -10.666 20 -15.999c0 -6.66699 -6.66699 -10 -20 -10z" />
    <glyph glyph-name="j" unicode="j" horiz-adv-x="213" 
d="M152 564c0 -14.667 -4.66797 -26.666 -14.001 -35.999s-21.666 -14.333 -36.999 -15c-14 0.666992 -25.667 5.66699 -35 15s-14.333 21 -15 35c0.666992 15.333 5.66699 27.666 15 36.999s21.333 14 36 14s26.667 -4.66699 36 -14s14 -21.333 14 -36zM113.999 -151.999
c-8 -22.667 -19.667 -44.3311 -35 -64.998s-31 -37.5 -47 -50.5s-29.667 -19.5 -41 -19.5c-17.333 0 -26 3.66699 -26 11c0 6.66699 3.66699 12 11 16c27.333 7.33301 50 29.666 68 66.999c18 38 27 125.333 27 262v210c0 42.667 -15.333 67 -46 73
c-5.33301 1.33301 -8 5.66602 -8 12.999s2.33301 11.333 7 12c32 8 66 23.667 102 47c10.667 6.66699 16.667 10 18 10c4.66699 0 7 -1.66699 7 -5c-2.66699 -24 -4.5 -48.833 -5.5 -74.5s-1.5 -52.167 -1.5 -79.5v-184c0 -106.667 -10 -187.667 -30 -243z" />
    <glyph glyph-name="k" unicode="k" horiz-adv-x="469" 
d="M479 5c0 -6.66699 -6.66797 -9.99805 -20.001 -9.99805l-182 5c-15.333 0 -23 3 -23 9c0 8 7.33301 14.333 22 19s22 10.667 22 18c0 4 -2.33301 8.66699 -7 14l-126 145c-1.33301 1.33301 -2.66602 2 -3.99902 2c-4 0 -6 -4.66699 -6 -14
c-0.666992 -4.66699 -1 -11.834 -1 -21.501v-37.5c0 -9.33301 -0.166992 -18.333 -0.5 -27s-0.5 -16.667 -0.5 -24c0 -15.333 2.16699 -27.833 6.5 -37.5s14.5 -16.834 30.5 -21.501c15.333 -5.33301 23 -11 23 -17c0 -6.66699 -7.66699 -10 -23 -10l-17.5 1.5
c-11.667 1 -29.167 2.16699 -52.5 3.5l-19.5 -1.5c-13 -1 -32.5 -2.16699 -58.5 -3.5c-15.333 0 -23 3.33301 -23 10c0 6 6 11 18 15s23 8.33301 33 13s15 14.667 15 30v501c0 23.333 -3.5 40.5 -10.5 51.5s-18.833 18.167 -35.5 21.5
c-5.33301 1.33301 -8 5.66602 -8 12.999s2.33301 11.333 7 12c10 2.66699 24.833 7.33398 44.5 14.001l73.5 26h1l1 1c4 0 6 -2 6 -6c0 -2.66699 -0.166992 -5.83398 -0.5 -9.50098s-0.833008 -8.16699 -1.5 -13.5c-2.66699 -18.667 -4.5 -37.5 -5.5 -56.5
s-1.5 -38.167 -1.5 -57.5v-331c0 -4.66699 1.33301 -7 4 -7c8.66699 0 21 7 37 21c30 26.667 54.5 49.334 73.5 68.001s32.5 33.667 40.5 45c0.666992 0.666992 1 1.66699 1 3c0 7.33301 -8.66699 13 -26 17c-8 3.33301 -12 6 -12 8c0 9.33301 7.33301 14 22 14h49
c14 0 33 2 57 6s37 6 39 6c5.33301 0 8 -2 8 -6c0 -4.66699 -2.16699 -9.16699 -6.5 -13.5s-8.83301 -7.16602 -13.5 -8.49902c-9.33301 -2 -19.166 -5 -29.499 -9s-20.833 -9.33301 -31.5 -16s-27.334 -19.334 -50.001 -38.001l-87 -74
c-7.33301 -6 -8.33301 -11.667 -3 -17l53.5 -61.5l55.5 -60.5c17.333 -18 30 -30.667 38 -38c24 -23.333 51.333 -39.333 82 -48c15.333 -5.33301 23 -11 23 -17z" />
    <glyph glyph-name="l" unicode="l" horiz-adv-x="241" 
d="M120 2l-81 -4.99805c-13.333 0 -20 3.33301 -20 10c0 6 9.33301 12 28 18c19.333 6 30.333 12.333 33 19c3.33301 6.66699 5 12.667 5 18v504c0 42 -15.333 66.333 -46 73c-5.33301 1.33301 -8 5.66602 -8 12.999s2.33301 11.333 7 12c17.333 4 56 17.333 116 40h1l1 1
c4 0 6 -2.33301 6 -7l-2 -18c-1.33301 -12.667 -2.5 -28.834 -3.5 -48.501s-1.5 -42.834 -1.5 -69.501v-500c0 -13.333 4.16699 -22 12.5 -26s19.5 -8.33301 33.5 -13c13.333 -5.33301 20 -10.666 20 -15.999c0 -6.66699 -6.66699 -10 -20 -10z" />
    <glyph glyph-name="m" unicode="m" horiz-adv-x="778" 
d="M125 2l-81.0029 -4.99805c-13.333 0 -20 3.33301 -20 10c0 4 2.66699 7.5 8 10.5s11 5.5 17 7.5s9.66699 3 11 3s4.66602 1.33301 9.99902 4s8.66602 5 9.99902 7c6.66699 6.66699 10 14.334 10 23.001v215c0 20.667 -2.66699 37 -8 49s-15.666 19.667 -30.999 23
c-5.33301 1.33301 -8 5.66602 -8 12.999s2.33301 11.333 7 12c15.333 3.33301 30.833 9 46.5 17s31.834 17.667 48.501 29l15 9h1c2.66699 0 5 -2 7 -6l-5 -64c0 -6.66699 0.666992 -10.667 2 -12c47.333 44.667 100 67 158 67c47.333 0 78.333 -20 93 -60
c3.33301 -7.33301 7 -11 11 -11c3.33301 0 10.333 6.33301 21 19c10.667 12 29.334 23.667 56.001 35s55.334 17 86.001 17c20 0 37.5 -6.33301 52.5 -19s26.5 -29.5 34.5 -50.5s12 -44.167 12 -69.5v-213c0 -13.333 4.16699 -22 12.5 -26s19.5 -8.33301 33.5 -13
c13.333 -5.33301 20 -10.666 20 -15.999c0 -6.66699 -6.66699 -10 -20 -10l-79 5l-83 -5c-13.333 0 -20 3.33301 -20 10c0 6 7.66699 11.667 23 17c1.33301 0 2.66602 0.333008 3.99902 1c22.667 7.33301 35.334 16.333 38.001 27c0.666992 1.33301 1 3 1 5v5v210
c0 24.667 -8 46.667 -24 66s-34.667 29 -56 29c-35.333 0 -63.333 -8 -84 -24s-31 -41 -31 -75v-206c0 -7.33301 1 -12 3 -14l4 -6c1.33301 -2.66699 3 -4.33398 5 -5.00098c3.33301 -0.666992 5.33301 -1.66699 6 -3c1.33301 -1.33301 3.66602 -2.33301 6.99902 -3
s5.33301 -1.66699 6 -3c5.33301 -2.66699 10 -4 14 -4c15.333 -5.33301 23 -11 23 -17c0 -6.66699 -6.66699 -10 -20 -10l-82 5l-83 -5c-13.333 0 -20 3.33301 -20 10c0 6 9.33301 12 28 18s30 12.333 34 19c3.33301 6.66699 5 12.667 5 18v210c0 24.667 -8 46.667 -24 66
s-34.667 29 -56 29c-35.333 0 -63.166 -7.83301 -83.499 -23.5s-30.5 -40.834 -30.5 -75.501v-206c0 -12.667 3.83301 -21.167 11.5 -25.5s12.834 -6.83301 15.501 -7.5c26 -6.66699 39 -14.334 39 -23.001c0 -6 -6.66699 -9 -20 -9z" />
    <glyph glyph-name="n" unicode="n" horiz-adv-x="527" 
d="M125 2l-80.9971 -5.00098c-13.333 0 -20 3.33301 -20 10c0 4 2.66699 7.5 8 10.5s11 5.5 17 7.5s9.66699 3 11 3s4.66602 1.33301 9.99902 4s8.66602 5 9.99902 7c6.66699 6.66699 10 14.334 10 23.001v215c0 42.667 -13.667 66.667 -41 72
c-5.33301 1.33301 -8 5.66602 -8 12.999s2.33301 11.333 7 12c34.667 8 71.334 26.333 110.001 55c0.666992 0.666992 2 1 4 1c1.33301 0 3 -3 5 -9l-7 -65c0 -4.66699 0.333008 -7.33398 1 -8.00098c12.667 10.667 28.167 21 46.5 31s38.166 18.333 59.499 25s42 10 62 10
s38.333 -6.16699 55 -18.5s30 -28.833 40 -49.5s15 -44.334 15 -71.001v-213c0 -13.333 4.16699 -22 12.5 -26s19.5 -8.33301 33.5 -13c13.333 -5.33301 20 -10.666 20 -15.999c0 -6.66699 -6.66699 -10 -20 -10l-80 5l-82 -5c-13.333 0 -20 3.33301 -20 10
c0 6 7.66699 11.667 23 17c1.33301 0 2.66602 0.333008 3.99902 1c22.667 7.33301 35.334 16.333 38.001 27c0.666992 1.33301 1 3 1 5v5v210c0 28.667 -8.33301 51.334 -25 68.001s-41 25 -73 25c-32.667 0 -59.334 -7 -80.001 -21s-31 -39.333 -31 -76v-206
c0 -13.333 4.16699 -22 12.5 -26s19.5 -8.33301 33.5 -13c13.333 -5.33301 20 -10.666 20 -15.999c0 -6.66699 -6.66699 -10 -20 -10z" />
    <glyph glyph-name="o" unicode="o" horiz-adv-x="495" 
d="M460 207c0 -38.667 -8.83105 -74.832 -26.498 -108.499s-43.334 -60.834 -77.001 -81.501s-74.5 -31 -122.5 -31c-37.333 0 -71.166 8.66699 -101.499 26s-54.166 41.166 -71.499 71.499s-26 64.833 -26 103.5c0 28.667 5.66699 56.5 17 83.5s27.166 51.333 47.499 73
s43.5 38.834 69.5 51.501s53.667 19 83 19c39.333 0 74.666 -9.16699 105.999 -27.5s56.166 -43 74.499 -74s27.5 -66.167 27.5 -105.5zM117.002 210.002c0 -34 6.16602 -65.834 18.499 -95.501s29 -53.5 50 -71.5s44.167 -27 69.5 -27c33.333 0 58.833 7.16699 76.5 21.5
s29.834 34.333 36.501 60s10 55.5 10 89.5c0 34.667 -6.16699 66.834 -18.5 96.501s-29 53.667 -50 72s-45.167 27.5 -72.5 27.5c-80 0 -120 -57.667 -120 -173z" />
    <glyph glyph-name="p" unicode="p" horiz-adv-x="519" 
d="M120 -280l-79.998 -4.99707c-14 0 -21 3.33301 -21 10c0 6 9.33301 12 28 18c19.333 6 30.333 12.333 33 19c3.33301 6.66699 5 12.667 5 18v507c0 8 -1.83301 17.167 -5.5 27.5s-8.83398 20 -15.501 29s-15 14.5 -25 16.5c-5.33301 1.33301 -8 5.66602 -8 12.999
s2.33301 11.333 7 12c14 3.33301 30.667 8.33301 50 15s41.333 15 66 25l1 1h1c4 0 6 -3 6 -9l-5 -60c0 -5.33301 0.333008 -8.33301 1 -9c8.66699 8.66699 22.167 18 40.5 28s38.5 18.833 60.5 26.5s42.333 11.5 61 11.5c33.333 0 62.166 -8.83301 86.499 -26.5
s43.333 -40.834 57 -69.501s20.5 -59.667 20.5 -93c0 -30.667 -5.83301 -60.334 -17.5 -89.001s-27.834 -54.167 -48.501 -76.5s-44.667 -40.166 -72 -53.499s-56.333 -20 -87 -20c-9.33301 0 -20.666 1.5 -33.999 4.5s-26 7 -38 12s-21.333 10.167 -28 15.5
c-2.66699 0 -4 -17 -4 -51v-187c0 -10 3.83301 -17.167 11.5 -21.5s13.5 -7.16602 17.5 -8.49902c1.33301 -0.666992 3.5 -1.33398 6.5 -2.00098s6.16699 -1.33398 9.5 -2.00098c24 -6 36 -13.333 36 -22c0 -6 -7.33301 -9 -22 -9zM184.002 40.0029
c16.667 -15.333 46.667 -22.999 90 -22.999c25.333 0 48.5 9.33301 69.5 28s36.5 40.334 46.5 65.001c9.33301 24.667 14 53.667 14 87s-4.83301 62.666 -14.5 87.999s-22.167 43.666 -37.5 54.999c-29.333 19.333 -58.333 29 -87 29c-30 0 -55.167 -7.66699 -75.5 -23
s-31.5 -41 -33.5 -77l-1 -64v-31c0 -26.667 1.5 -52.5 4.5 -77.5s11.167 -43.833 24.5 -56.5z" />
    <glyph glyph-name="q" unicode="q" horiz-adv-x="522" 
d="M412 -280l-81.0039 -4.99902c-13.333 0 -20 3.33301 -20 10c0 6 7.66699 11.667 23 17c1.33301 0 2.66602 0.333008 3.99902 1c22.667 7.33301 35.334 16.333 38.001 27c0.666992 1.33301 1 3 1 5v5v215c0 20 -1.66699 30 -5 30s-6.66602 -1.66699 -9.99902 -5
c-25.333 -22.667 -66.666 -34 -123.999 -34c-38 0 -72.333 7.66699 -103 23s-55 38 -73 68s-27 66.667 -27 110s10.333 82.166 31 116.499s49.667 61.333 87 81s80.333 29.5 129 29.5c42 0 78.667 -5.33301 110 -16l18 -6c6.66699 0 11.667 1.83301 15 5.5s7 10.167 11 19.5
c2.66699 2.66699 5.33398 4 8.00098 4s5.83398 -1 9.50098 -3s5.5 -4.33301 5.5 -7l-1 -7c-7.33301 -32.667 -11 -69 -11 -109v-515c0 -13.333 6.33301 -22.333 19 -27l10 -5c11.333 -4 19 -6 23 -6c15.333 -5.33301 23 -11 23 -17c0 -6.66699 -6.66699 -10 -20 -10z
M116.996 201.001c0 -38 7.66992 -70.167 23.0029 -96.5s35 -46.333 59 -60s48.333 -20.5 73 -20.5c25.333 0 45.666 2.33301 60.999 7s26.666 16.167 33.999 34.5s11 48.5 11 90.5v76.5c0 19.667 -0.333008 33.834 -1 42.501c-1.33301 30 -13.5 55.333 -36.5 76
s-52.167 31 -87.5 31c-24 0 -46.333 -7.16699 -67 -21.5s-37.334 -34.833 -50.001 -61.5s-19 -59.334 -19 -98.001z" />
    <glyph glyph-name="r" unicode="r" horiz-adv-x="334" 
d="M130 2l-81.002 -5c-13.333 0 -20 3.33301 -20 10c0 6 6 11 18 15s20 6.83301 24 8.5s8.33301 5.16699 13 10.5c4 5.33301 6 12.333 6 21v215c0 42 -13.667 66 -41 72c-5.33301 1.33301 -8 5.66602 -8 12.999s2.33301 11.333 7 12
c24.667 4.66699 43.334 11.334 56.001 20.001l28.5 18c7.66699 4.66699 13.167 8.33398 16.5 11.001c7.33301 4 11 6.33301 11 7h3c2 0 3.33301 -2.33301 4 -7v-26c0 -8.66699 -0.333008 -17.334 -1 -26.001c-0.666992 -16.667 -0.666992 -25 0 -25l5 5
c9.33301 12 15.333 18.667 18 20c31.333 28.667 62 43 92 43c14 0 25.5 -3 34.5 -9s13.5 -14 13.5 -24s-4.16699 -21 -12.5 -33s-16.166 -18 -23.499 -18s-18 3 -32 9s-24.333 9 -31 9c-19.333 0 -35.833 -6.33301 -49.5 -19s-20.5 -34.334 -20.5 -65.001v-197
c0.666992 -17.333 18.667 -31.666 54 -42.999c15.333 -5.33301 23 -11 23 -17c0 -6.66699 -6.66699 -10 -20 -10z" />
    <glyph glyph-name="s" unicode="s" horiz-adv-x="323" 
d="M293 106c0 -80 -48.0029 -120.005 -144.003 -120.005c-24.667 0 -47.667 4.16699 -69 12.5s-33.666 16.166 -36.999 23.499c-8 16.667 -12.333 37 -13 61c0 6 5.33301 9 16 9c10 0 15.333 -2.33301 16 -7c2.66699 -11.333 8.83398 -22.666 18.501 -33.999
s21.334 -20.5 35.001 -27.5s27.834 -10.5 42.501 -10.5c21.333 0 37.833 6.33301 49.5 19s17.5 28.334 17.5 47.001s-6 34.5 -18 47.5s-32 29.5 -60 49.5c-28.667 20 -51.5 39.5 -68.5 58.5s-25.5 42.167 -25.5 69.5c0 18.667 5 36.334 15 53.001s24.333 30.334 43 41.001
s41.334 16 68.001 16c40 0 67.667 -7.66699 83 -23c11.333 -14.667 17 -40.667 17 -78c0 -2.66699 -2.33301 -4 -7 -4s-11.334 2.5 -20.001 7.5s-13 9.5 -13 13.5c-0.666992 14.667 -7.33398 28 -20.001 40s-27.667 18 -45 18c-18 0 -32.667 -6 -44 -18s-17 -26 -17 -42
s5.66699 -30.667 17 -44s21.333 -22.666 30 -27.999l15.5 -10.5c6.33301 -4.33301 13.833 -9.16602 22.5 -14.499c11.333 -6.66699 20.833 -12.667 28.5 -18s15.167 -11.5 22.5 -18.5s15.333 -16.833 24 -29.5c13.333 -19.333 20 -39 20 -59z" />
    <glyph glyph-name="t" unicode="t" horiz-adv-x="314" 
d="M290 27c-10.667 -10 -25.501 -19.335 -44.501 -28.002s-37.833 -13 -56.5 -13c-32.667 0 -58.167 9.83301 -76.5 29.5s-27.5 49.5 -27.5 89.5v232c0 6 -2.33301 10 -7 12s-15 3 -31 3c-2 0 -4.5 2.66699 -7.5 8s-4.5 9.33301 -4.5 12s1.66699 5 5 7
c15.333 4.66699 31 14.334 47 29.001s29 28.334 39 41.001s16 19 18 19c9.33301 0 14 -3.33301 14 -10l-2 -44c0 -9.33301 8 -14 24 -14h114c6.66699 0 10 -8 10 -24s-3.33301 -24 -10 -24h-99c-18 0 -29.167 -1.33301 -33.5 -4s-6.5 -10.667 -6.5 -24v-189
c0 -34 6.33301 -58.167 19 -72.5s28.334 -21.5 47.001 -21.5c33.333 0 58.333 6.33301 75 19c0.666992 0.666992 1.66699 1 3 1c4.66699 0 7 -4.33301 7 -13c0 -5.33301 -5.33301 -12.333 -16 -21z" />
    <glyph glyph-name="u" unicode="u" horiz-adv-x="527" 
d="M413 -2c-26.667 -11.333 -42.001 -16.998 -46.001 -16.998c-5.33301 0 -8 1.33301 -8 4l5 66v6c-48.667 -47.333 -103.667 -71 -165 -71c-34 0 -61.5 10.333 -82.5 31s-31.5 50 -31.5 88v203c0 27.333 -14.333 46.333 -43 57c-8.66699 2.66699 -13 8.33398 -13 17.001
c0 8 5 13 15 15c11.333 0.666992 25.666 2.33398 42.999 5.00098s37.333 6.66699 60 12h2c9.33301 0 13.333 -4.66699 12 -14c-4 -30.667 -6 -56.334 -6 -77.001v-195c0 -16 4 -30.833 12 -44.5s18.5 -24.834 31.5 -33.501s26.5 -13 40.5 -13
c38.667 0 69.834 8.83301 93.501 26.5s35.5 40.5 35.5 68.5v183c0 18 -7 30.667 -21 38s-28.667 11.333 -44 12c-15.333 0 -23 5.66699 -23 17c0 5.33301 3 9.33301 9 12c2.66699 1.33301 6.16699 2.16602 10.5 2.49902s9.5 0.833008 15.5 1.5c26 0 48.333 1.66699 67 5
c9.33301 1.33301 15.333 2.33301 18 3c4.66699 0 15.334 3 32.001 9h2c8.66699 0 13 -4 13 -12c0 -2.66699 -1 -6 -3 -10c-4 -6.66699 -6 -29 -6 -67v-212c0 -46 6 -69 18 -69c20.667 0 36 1 46 3h3c8 0 12 -4 12 -12c0 -10 -4.66699 -15 -14 -15
c-17.333 -2.66699 -33.5 -5.83398 -48.5 -9.50098s-28.833 -8.16699 -41.5 -13.5z" />
    <glyph glyph-name="v" unicode="v" horiz-adv-x="438" 
d="M243 23c-14.667 -30 -23.667 -45 -27 -45c-4 0 -10.667 13 -20 39l-122 312c-10.667 26.667 -26 43 -46 49c-15.333 5.33301 -23 11.333 -23 18c0 6 6.66699 9 20 9l73 -5l75 5c13.333 0 20 -3 20 -9c0 -6.66699 -7.66699 -12.667 -23 -18
c-13.333 -4 -20 -17.667 -20 -41c0 -12 1.33301 -21 4 -27l74 -199c3.33301 -7.33301 5.33301 -11 6 -11c1.33301 0 3.33301 3.33301 6 10l72 185c4.66699 11.333 7 23.333 7 36c0 26.667 -8.33301 42.334 -25 47.001c-15.333 5.33301 -23 11.333 -23 18c0 6 6.66699 9 20 9
l73 -5c13.333 0 25.333 1 36 3c5.33301 0.666992 10.5 1.16699 15.5 1.5s9.83301 0.5 14.5 0.5c8.66699 0 13 -3 13 -9c0 -6.66699 -6.33301 -12 -19 -16c-12.667 -4.66699 -25.167 -13.334 -37.5 -26.001s-21.833 -27 -28.5 -43l-78 -188z" />
    <glyph glyph-name="w" unicode="w" horiz-adv-x="685" 
d="M234 -16c-2.66699 -4.66699 -5.33496 -7 -8.00195 -7c-4 0 -6.33301 2.33301 -7 7l-139 345c-10.667 26 -28 42.333 -52 49c-15.333 5.33301 -23 11.333 -23 18c0 6 6.66699 9 20 9l73 -5c25.333 1.33301 45.5 2.5 60.5 3.5s24.833 1.5 29.5 1.5c8.66699 0 13 -3 13 -9
c0 -6.66699 -7.66699 -12.667 -23 -18c-14 -4 -21 -17.333 -21 -40c0 -4.66699 0.5 -9 1.5 -13s2.16699 -8.33301 3.5 -13l76 -196c2 -6 4.33301 -9 7 -9s5.33398 3.33301 8.00098 10l66 161c4 11.333 6 23.333 6 36c0 13.333 -5.33301 26.5 -16 39.5s-22.667 21.5 -36 25.5
c-14 3.33301 -21 9 -21 17c0 6 6.66699 9 20 9l75 -5l84 5c13.333 0 20 -3 20 -9c0 -6.66699 -7.66699 -12.667 -23 -18c-22.667 -6.66699 -34 -18.667 -34 -36c0 -10 2.33301 -20 7 -30l75 -193c2.66699 -6.66699 5.33398 -10 8.00098 -10c3.33301 0 6 3 8 9l76 177
c4.66699 9.33301 7 20.333 7 33c0 12 -3.66699 22.667 -11 32s-17 16 -29 20s-18 9.33301 -18 16c0 6 6.66699 9 20 9l75 -5l58 5c13.333 0 20 -3 20 -9c0 -6.66699 -7.66699 -12.667 -23 -18c-18 -4.66699 -35.667 -26.667 -53 -66l-137 -328
c-2 -4.66699 -4.66699 -7 -8 -7s-6.33301 2.33301 -9 7l-104 258c-2 4.66699 -4 7 -6 7s-4.33301 -2.66699 -7 -8z" />
    <glyph glyph-name="x" unicode="x" horiz-adv-x="430" 
d="M97 1l-67 -5c-13.333 0 -20 3 -20 9c0 8 8.33301 14.333 25 19c17.333 5.33301 39 24 65 56l85 106c3.33301 4.66699 5 9 5 13s-1 7.33301 -3 10l-81 126c-14 23.333 -29 37.333 -45 42c-16 4 -24 10 -24 18c0 6 7.66699 9 23 9l79 -4l51 2c15.333 0 23 -2.66699 23 -8
c0 -6 -6.33301 -11 -19 -15c-13.333 -5.33301 -20 -11 -20 -17c0 -8 4.33301 -18.667 13 -32l40 -62c3.33301 -6.66699 6 -8.33398 8 -5.00098l49 75c5.33301 7.33301 8 15 8 23c0 7.33301 -6 13 -18 17s-18 9.33301 -18 16c0 6 7.66699 9 23 9l50 -3c14 0 27 1 39 3
c6 0.666992 11.5 1.16699 16.5 1.5s9.83301 0.5 14.5 0.5c8.66699 0 13 -3 13 -9c0 -6.66699 -7.66699 -12.667 -23 -18c-32 -9.33301 -55.667 -25 -71 -47l-65 -92c-1.33301 -2.66699 -2 -4.33398 -2 -5.00098c0 -2 1 -4.66699 3 -8l97 -161c14 -23.333 29 -37 45 -41
c16 -4.66699 24 -11 24 -19c0 -6 -6.66699 -9 -20 -9l-84 4l-73 -1c-15.333 0 -23 3 -23 9c0 8 9.33301 15 28 21s28 13.667 28 23c0 5.33301 -2 11.333 -6 18l-54 92c-3.33301 5.33301 -6 6.33301 -8 3l-67 -98c-3.33301 -5.33301 -5 -12.666 -5 -21.999
s4.66699 -15.666 14 -18.999c15.333 -5.33301 23 -11 23 -17c0 -6.66699 -7.66699 -10 -23 -10z" />
    <glyph glyph-name="y" unicode="y" horiz-adv-x="438" 
d="M170 -146l-27.5 -69.002c-8.33301 -21.333 -18.166 -38.333 -29.499 -51s-27.666 -19 -48.999 -19c-12.667 0 -24.334 3.33301 -35.001 10s-16 15.334 -16 26.001c0 20 9 30 27 30l40 -6c7.33301 0 13.666 3.66699 18.999 11c15.333 26.667 30.666 56.5 45.999 89.5
s30.333 69.167 45 108.5c2 6 3 14.333 3 25c0 12 -1.33301 21 -4 27l-116 293c-11.333 28 -26.333 44.333 -45 49c-15.333 5.33301 -23 11.333 -23 18c0 6 6.66699 9 20 9l73 -5l76 5c13.333 0 20 -3.66699 20 -11c0 -9.33301 -9.66699 -16.666 -29 -21.999
c-13.333 -4 -20 -14.667 -20 -32c0 -4.66699 2.66699 -14 8 -28l79 -196c2 -6 4.33301 -9 7 -9s5.33398 3.33301 8.00098 10l67 178c5.33301 12.667 8 27 8 43c0 16.667 -8 28.334 -24 35.001c-16.667 6.66699 -25 13.667 -25 21s6.66699 11 20 11l71 -5l59 5
c13.333 0 20 -3 20 -9c0 -6.66699 -6.33301 -12 -19 -16c-12.667 -4.66699 -24.667 -13.334 -36 -26.001s-20.333 -27 -27 -43l-136 -324l-16 -40z" />
    <glyph glyph-name="z" unicode="z" horiz-adv-x="377" 
d="M119 0l-80.001 -5.00293c-2.66699 0 -5.66699 2.16699 -9 6.5s-5 8.5 -5 12.5c0 4.66699 12.333 23.334 37 56.001l83.5 124l102.5 160c1.33301 1.33301 2 3 2 5c0 3.33301 -3.66699 5 -11 5h-117c-9.33301 0 -19.333 -7.33301 -30 -22l-4.5 -6.5
c-1.66699 -2.33301 -3.83398 -5.16602 -6.50098 -8.49902c-5.33301 -8 -8.33301 -12.333 -9 -13l-7 -9.5c-2.66699 -3.66699 -5 -6.5 -7 -8.5c-6.66699 -6.66699 -11.667 -10 -15 -10c-5.33301 0 -8 4.33301 -8 13c0 2 0.666992 5 2 9c11.333 28 17 58 17 90
c0 4.66699 1.83301 8.83398 5.5 12.501s6.83398 5.5 9.50098 5.5c3.33301 0 7.66602 -2.33301 12.999 -7c6.66699 -5.33301 21.667 -8 45 -8l38 1c63.333 0 125.333 1 186 3c2.66699 0 4.83398 -1.5 6.50098 -4.5s1.83398 -5.5 0.500977 -7.5
c-14 -16.667 -26.667 -33.334 -38 -50.001l-193 -293c-0.666992 -0.666992 -1 -2 -1 -4c0 -2.66699 1.5 -5.16699 4.5 -7.5s5.83301 -3.5 8.5 -3.5h117c13.333 0 26.5 6.33301 39.5 19s28.5 32 46.5 58c8 16 15.333 24 22 24c5.33301 0 8 -6 8 -18
c0 -6 -1.33301 -15.167 -4 -27.5s-6 -25.166 -10 -38.499s-7.83301 -24.833 -11.5 -34.5s-6.16699 -15.5 -7.5 -17.5c-3.33301 -3.33301 -6.33301 -5 -9 -5l-75 3c-23.333 0.666992 -46.5 1.16699 -69.5 1.5s-45.167 0.5 -66.5 0.5z" />
    <glyph glyph-name="braceleft" unicode="{" horiz-adv-x="373" 
d="M338 -139c0 -10 -6 -15 -18 -15c-35.333 0 -68.5 5 -99.5 15s-55.833 25 -74.5 45s-28 44.333 -28 73c0 12 0.5 25.667 1.5 41s2.83301 32.333 5.5 51c4 37.333 6 66 6 86c0 54 -31.667 92.667 -95 116c-7.33301 3.33301 -11 6.33301 -11 9c0 3.33301 2 5 6 5
c2.66699 0 4.33398 0.333008 5.00098 1c63.333 23.333 95 62 95 116c0 20.667 -2 49.334 -6 86.001c-2.66699 18.667 -4.5 35.667 -5.5 51s-1.5 29 -1.5 41c0 29.333 9.33301 53.833 28 73.5s43.5 34.5 74.5 44.5s64.167 15 99.5 15c12 0 18 -5 18 -15
c0 -8 -8.66699 -12 -26 -12c-36 0 -66.5 -8.33301 -91.5 -25s-37.5 -42 -37.5 -76c0 -11.333 0.5 -24.5 1.5 -39.5s2.83301 -31.833 5.5 -50.5c4 -36.667 6 -64.334 6 -83.001c0 -20 -5.33301 -38.667 -16 -56s-24.334 -32.333 -41.001 -45s-33.667 -22.667 -51 -30
c-4 -1.33301 -3.33301 -2.66602 2 -3.99902c14 -3.33301 29.167 -11.833 45.5 -25.5s30.5 -29.834 42.5 -48.501s18 -38 18 -58c0 -18 -2 -45.667 -6 -83c-2.66699 -18.667 -4.5 -35.5 -5.5 -50.5s-1.5 -28.167 -1.5 -39.5c0 -34 12.5 -59.333 37.5 -76s55.5 -25 91.5 -25
c17.333 0 26 -4 26 -12z" />
    <glyph glyph-name="bar" unicode="|" horiz-adv-x="260" 
d="M160 -265c0 -8.66699 -5.66699 -14.833 -17 -18.5s-20 -5.5 -26 -5.5s-10.333 1.5 -13 4.5s-4 6.16699 -4 9.5v951c0 6.66699 3 12.167 9 16.5s12.5 7.83301 19.5 10.5s12.167 4 15.5 4c10.667 0 16 -4.33301 16 -13v-959z" />
    <glyph glyph-name="braceright" unicode="}" horiz-adv-x="373" 
d="M255 -21c0 -28.667 -9.33301 -53.001 -28 -73.001s-43.334 -35 -74.001 -45s-64 -15 -100 -15c-12 0 -18 5 -18 15c0 8 8.66699 12 26 12c36 0 66.5 8.33301 91.5 25s37.5 42 37.5 76c0 23.333 -2 53.333 -6 90c-2.66699 18.667 -4.5 34.834 -5.5 48.501
s-1.5 25.167 -1.5 34.5c0 20 6 39.333 18 58s26.333 34.834 43 48.501s31.667 22.167 45 25.5c4 1.33301 4.66699 2.66602 2 3.99902c-17.333 7.33301 -34.333 17.333 -51 30s-30.334 27.667 -41.001 45s-16 36 -16 56c0 9.33301 0.5 20.833 1.5 34.5
s2.83301 29.834 5.5 48.501c4 37.333 6 67.333 6 90c0 34 -12.5 59.333 -37.5 76s-55.5 25 -91.5 25c-17.333 0 -26 4 -26 12c0 10 6 15 18 15c36 0 69.333 -5 100 -15s55.334 -24.833 74.001 -44.5s28 -44.167 28 -73.5c0 -24 -2 -54.667 -6 -92
c-2.66699 -18.667 -4.5 -35.167 -5.5 -49.5s-1.5 -26.5 -1.5 -36.5c0 -54 31.667 -92.667 95 -116c0.666992 -0.666992 2.33398 -1 5.00098 -1c4 0 6 -1.66699 6 -5c0 -2.66699 -3.66699 -5.66699 -11 -9c-63.333 -23.333 -95 -62 -95 -116c0 -10 0.5 -22.167 1.5 -36.5
s2.83301 -30.833 5.5 -49.5c4 -36.667 6 -67.334 6 -92.001z" />
    <glyph glyph-name="asciitilde" unicode="~" horiz-adv-x="500" 
d="M450 362c0 -4.66699 -4.49805 -12.5 -13.498 -23.5s-20 -22.5 -33 -34.5s-26.167 -22.333 -39.5 -31s-24.666 -13 -33.999 -13c-18 0 -46.667 8 -86 24c-38.667 16 -66 24 -82 24s-31.333 -4 -46 -12s-26.667 -15.667 -36 -23c-8.66699 -8 -14.334 -12 -17.001 -12
s-5.5 2 -8.5 6s-4.5 8 -4.5 12s4.66699 11.5 14 22.5s20.666 22.5 33.999 34.5s26.833 22.5 40.5 31.5s24.5 13.5 32.5 13.5c17.333 0 43.333 -8 78 -24c35.333 -16 62.333 -24 81 -24c18 0 35.333 4.33301 52 13c17.333 8.66699 31 16.667 41 24c11.333 8 17.333 12 18 12
c1.33301 0 3.16602 -2.5 5.49902 -7.5s3.5 -9.16699 3.5 -12.5z" />
    <glyph glyph-name="uni00A0" unicode="&#xa0;" horiz-adv-x="240" 
 />
    <glyph glyph-name="exclamdown" unicode="&#xa1;" horiz-adv-x="270" 
d="M75 434c0 16.667 5.83203 30.833 17.499 42.5s25.834 17.5 42.501 17.5s30.834 -5.83301 42.501 -17.5s17.5 -25.834 17.5 -42.501s-6 -31 -18 -43c-11.333 -11.333 -25.333 -17 -42 -17s-30.834 5.83301 -42.501 17.5s-17.5 25.834 -17.5 42.501zM118.999 235.999
c3.33301 26 9.33301 39.002 18 39.002c9.33301 0 15 -11 17 -33l5.5 -46l8.5 -73c6.66699 -57.333 11.5 -103 14.5 -137s4.5 -61 4.5 -81s-4.5 -37.333 -13.5 -52s-21.833 -22 -38.5 -22s-29.5 7.33301 -38.5 22s-13.5 32 -13.5 52c0 14 0.666992 30.167 2 48.5
s3 36.666 5 54.999s3.66699 34.166 5 47.499c3.33301 21.333 7.33301 53.333 12 96z" />
    <glyph glyph-name="cent" unicode="&#xa2;" horiz-adv-x="412" 
d="M223 -65c-0.666992 -10 -7.00195 -14.9961 -19.002 -14.9961c-4.66699 0 -8.66699 1.33301 -12 4s-4.66602 6.33398 -3.99902 11.001l6 53c-28.667 5.33301 -55.167 17.666 -79.5 36.999s-43.666 43.666 -57.999 72.999s-21.5 61.666 -21.5 96.999
s8.83301 68.833 26.5 100.5s41.834 58.167 72.501 79.5s65.334 33.666 104.001 36.999l5 50c1.33301 11.333 8.66602 17 21.999 17c4 0 7.33301 -1.83301 10 -5.5s3.66699 -7.5 3 -11.5l-5 -49c47.333 -3.33301 83 -19.333 107 -48c2.66699 -2.66699 4 -7.66699 4 -15
c0 -6.66699 -8 -15.667 -24 -27c-4.66699 -2.66699 -10.667 -4 -18 -4c-8 0 -13.333 3.33301 -16 10c-15.333 27.333 -34.333 44 -57 50l-34 -333c2 -0.666992 7 -1 15 -1c58 0 96.333 14.333 115 43c2 3.33301 5 5 9 5c3.33301 0 6.33301 -1.16699 9 -3.5
s4 -4.83301 4 -7.5s-0.333008 -4.33398 -1 -5.00098c-34.667 -58.667 -87.334 -89 -158.001 -91zM101.998 221.004c0 -42 8.83301 -77.667 26.5 -107s41.5 -49.666 71.5 -60.999l35 331h-2c-25.333 0 -47.833 -7.83301 -67.5 -23.5s-35.167 -35.834 -46.5 -60.501
s-17 -51 -17 -79z" />
    <glyph glyph-name="sterling" unicode="&#xa3;" horiz-adv-x="490" 
d="M477 105c0 -25.333 -7.17188 -48.6689 -21.5049 -70.002s-32.5 -38.5 -54.5 -51.5s-45 -19.5 -69 -19.5s-44.5 2.16699 -61.5 6.5s-33.167 10.833 -48.5 19.5s-33 20 -53 34c-29.333 20.667 -52.333 31 -69 31c-3.33301 0 -9.66602 -5.16699 -18.999 -15.5
s-17.666 -21.833 -24.999 -34.5c-6.66699 -12.667 -16.667 -19 -30 -19c-24 0 -36 11 -36 33c0 6.66699 4.66699 15.167 14 25.5s21.333 20 36 29s30 14.833 46 17.5c3.33301 1.33301 7 5.33301 11 12c18.667 32.667 29.334 98 32.001 196l-84 -6
c-3.33301 0 -6.5 1.16699 -9.5 3.5s-4.5 5.5 -4.5 9.5s2.5 9 7.5 15s10.5 9.33301 16.5 10l75 5v5c0 105.333 32 186.333 96 243c34 30 74.333 45 121 45c67.333 0 101 -27.333 101 -82c0 -12.667 -5.16699 -25.167 -15.5 -37.5s-19.166 -18.5 -26.499 -18.5
c-8 0 -12 4.66699 -12 14l1 22c0 11.333 -3.5 22.5 -10.5 33.5s-15.667 20.333 -26 28s-21.166 11.5 -32.499 11.5c-32.667 0 -58.667 -22.667 -78 -68c-19.333 -46 -29.333 -109.333 -30 -190l133 9c8.66699 0 13 -4.33301 13 -13c0 -3.33301 -3.5 -8.33301 -10.5 -15
s-13.833 -10 -20.5 -10l-117 -8c-2.66699 -26.667 -8.83398 -54.167 -18.501 -82.5s-20.167 -53.5 -31.5 -75.5s-21.666 -37 -30.999 -45c-2 -1.33301 -2.66699 -3.16602 -2 -5.49902s2.66699 -3.5 6 -3.5c42.667 0 85.334 -10 128.001 -30c42 -20.667 78.667 -31 110 -31
c15.333 0 28.666 5.5 39.999 16.5s17 21.833 17 32.5s-2 21.334 -6 32.001c-4.66699 9.33301 -7 17 -7 23v10c0 8 3 12 9 12c14 -1.33301 25.333 -7 34 -17s13 -22 13 -36z" />
    <glyph glyph-name="currency" unicode="&#xa4;" horiz-adv-x="483" 
d="M76 70c-2 -2 -5.33496 -3 -10.002 -3s-10.5 3.5 -17.5 10.5s-10.5 12.833 -10.5 17.5s1 8 3 10l47 47c-26 34 -39 73.333 -39 118c0 45.333 13 84.333 39 117l-47 47c-2 2 -3 5.33301 -3 10s3.66699 10.5 11 17.5s13.333 10.5 18 10.5s8 -1 10 -3l45 -45
c36.667 27.333 77 41 121 41s82.667 -13.667 116 -41l46 46c2 2 5.33301 3 10 3s10.5 -3.33301 17.5 -10s10.5 -12.667 10.5 -18s-1.33301 -9.33301 -4 -12l-45 -45c26 -34 39 -73.333 39 -118s-13 -84 -39 -118l47 -47c2 -2 3 -5.33301 3 -10s-3.33301 -10.5 -10 -17.5
s-12.667 -10.5 -18 -10.5s-9 1 -11 3l-46 46c-33.333 -27.333 -72.666 -41 -117.999 -41s-84.666 13.667 -117.999 41zM98.998 270c0 -26.667 6.33301 -50.999 19 -72.999s29.834 -39.5 51.501 -52.5s45.5 -19.5 71.5 -19.5c26.667 0 50.667 6.5 72 19.5
s38.333 30.5 51 52.5s19 46.333 19 73c0 39.333 -13.667 73.666 -41 102.999c-28 28 -61.667 42 -101 42c-26 0 -49.833 -6.5 -71.5 -19.5s-38.834 -30.5 -51.501 -52.5s-19 -46.333 -19 -73z" />
    <glyph glyph-name="yen" unicode="&#xa5;" horiz-adv-x="619" 
d="M315 0l-127.999 -5c-19.333 0 -29 4 -29 12c0 7.33301 11 13 33 17c52 9.33301 78 37.333 78 84l1 89h-126c-3.33301 0 -6.5 1.16699 -9.5 3.5s-4.5 5.5 -4.5 9.5s2.5 8.66699 7.5 14s10.5 8 16.5 8h116v24c0 3.33301 -0.166992 7 -0.5 11s-0.833008 8.33301 -1.5 13
h-124c-3.33301 0 -6.5 1.33301 -9.5 4s-4.5 6 -4.5 10c0 3.33301 2.5 7.66602 7.5 12.999s10.5 8 16.5 8h106c-4.66699 9.33301 -7.66699 14.333 -9 15l-124 192c-38.667 59.333 -68.667 92.333 -90 99c-21.333 6 -32 13 -32 21c0 7.33301 9.66699 11 29 11l117 -3l80 2
c19.333 0 29 -3.66699 29 -11c0 -6 -11 -12.667 -33 -20c-18.667 -6.66699 -28 -17.667 -28 -33c0 -9.33301 3 -18.666 9 -27.999l93 -165c15.333 -26 25.666 -39 30.999 -39s15.333 13 30 39c18.667 27.333 35 52.666 49 75.999s25.333 44.333 34 63
c4.66699 9.33301 7 20.666 7 33.999c0 29.333 -10.333 47 -31 53c-21.333 5.33301 -32 11.666 -32 18.999s9.66699 11 29 11l75 -1l96 3c19.333 0 29 -3.66699 29 -11c0 -8 -12 -14.667 -36 -20c-24.667 -4.66699 -57 -36.667 -97 -96l-112 -180
c-10 -15.333 -16 -25.666 -18 -30.999h122c8.66699 0 13 -3.66699 13 -11c0 -5.33301 -3.33301 -10.666 -10 -15.999s-13.667 -8 -21 -8h-109v-48h126c8.66699 0 13 -3.66699 13 -11c0 -5.33301 -3.33301 -10.666 -10 -15.999s-13.667 -8 -21 -8h-108v-89
c0 -46.667 26 -74.667 78 -84c22 -4 33 -9.66699 33 -17c0 -8 -9.66699 -12 -29 -12z" />
    <glyph glyph-name="brokenbar" unicode="&#xa6;" horiz-adv-x="260" 
d="M160 297c0 -2.66699 -3.16699 -5.66797 -9.5 -9.00098s-13.166 -6.16602 -20.499 -8.49902s-12.333 -3.5 -15 -3.5c-4.66699 0 -8.33398 2.5 -11.001 7.5s-4 10.167 -4 15.5v375c0 6.66699 3 12.167 9 16.5s12.5 7.83301 19.5 10.5s12.167 4 15.5 4
c10.667 0 16 -4.33301 16 -13v-395zM160 -266.001c0 -8.66699 -5.66602 -14.832 -16.999 -18.499s-20 -5.5 -26 -5.5s-10.333 1.5 -13 4.5s-4 6.16699 -4 9.5v432c0 3.33301 3.16699 6.66602 9.5 9.99902s13.166 6.33301 20.499 9s12.333 4 15 4c4 0 7.5 -2.33301 10.5 -7
s4.5 -9.66699 4.5 -15v-423z" />
    <glyph glyph-name="section" unicode="&#xa7;" horiz-adv-x="400" 
d="M177 -137c-12.667 -7.33301 -28.998 -10.998 -48.998 -10.998c-20.667 0 -37 3 -49 9s-18 13.667 -18 23c0 20.667 9.33301 38 28 52c1.33301 0.666992 3 1 5 1c6 0 11.667 -2.33301 17 -7c18 -16 41 -24 69 -24c34.667 0 52 27.333 52 82c0 14.667 -3.66699 28 -11 40
s-13 21 -17 27c-2 3.33301 -4.66699 7 -8 11l-12 14c-4.66699 5.33301 -8.66699 9.66602 -12 12.999s-6 6.33301 -8 9c-6.66699 7.33301 -13.834 14.833 -21.501 22.5l-24.5 24.5c-62.667 63.333 -94 123.333 -94 180c0 41.333 5.5 75.833 16.5 103.5s27.5 54.5 49.5 80.5
c6 22 15.667 42.667 29 62s29.5 35 48.5 47s39.5 18 61.5 18c33.333 0 56.666 -6.33301 69.999 -19c8 -6.66699 12 -12.334 12 -17.001c0 -3.33301 -2 -8.83301 -6 -16.5s-8.66699 -14.834 -14 -21.501s-10.333 -10 -15 -10c-6.66699 0 -12 2 -16 6
c-24.667 22.667 -46 34 -64 34c-17.333 0 -31.5 -6.16699 -42.5 -18.5s-16.5 -27.166 -16.5 -44.499c0 -36.667 34.667 -86 104 -148c40 -36 67.5 -71 82.5 -105s22.5 -71 22.5 -111c0 -26.667 -1.66699 -49.5 -5 -68.5s-8.5 -36.833 -15.5 -53.5s-16.833 -36 -29.5 -58
c-32 -54.667 -71.667 -96.667 -119 -126zM285.002 55.002c2 -4.66699 4.16797 -6.99902 6.50098 -6.99902s3.83301 1 4.5 3c7.33301 29.333 11 57 11 83c0 51.333 -29.667 107.666 -89 168.999c-70.667 72.667 -111.667 123 -123 151c-2 5.33301 -4 8 -6 8
c-2.66699 -0.666992 -4.33398 -2 -5.00098 -4c-3.33301 -14 -6 -27.833 -8 -41.5s-3 -27.167 -3 -40.5c0 -52 29.667 -108.667 89 -170c60 -62 97.333 -105.333 112 -130l7 -12c2 -3.33301 3.33301 -6.33301 4 -9z" />
    <glyph glyph-name="dieresis" unicode="&#xa8;" horiz-adv-x="377" 
d="M243 578c10 10 21.333 14.999 34 14.999s24.167 -5.16699 34.5 -15.5s15.5 -21.833 15.5 -34.5s-5.16699 -24.167 -15.5 -34.5s-21.833 -15.5 -34.5 -15.5s-24.167 5.16699 -34.5 15.5s-15.5 21.833 -15.5 34.5s5.33301 24.334 16 35.001zM66 577.999
c10 10 21.333 14.999 34 14.999s24.167 -5.16699 34.5 -15.5s15.5 -21.833 15.5 -34.5s-5.16699 -24.167 -15.5 -34.5s-21.833 -15.5 -34.5 -15.5s-24.167 5.16699 -34.5 15.5s-15.5 21.833 -15.5 34.5s5.33301 24.334 16 35.001z" />
    <glyph glyph-name="copyright" unicode="&#xa9;" horiz-adv-x="665" 
d="M649 327c0 -42 -7.83105 -81.166 -23.498 -117.499s-37.5 -68.5 -65.5 -96.5s-60.333 -49.833 -97 -65.5s-76 -23.5 -118 -23.5s-81.167 7.83301 -117.5 23.5s-68.333 37.5 -96 65.5s-49.334 60.167 -65.001 96.5s-23.5 75.5 -23.5 117.5
c0 83.333 29.667 154.666 89 213.999s130.666 89 213.999 89c42 0 81.167 -7.83301 117.5 -23.5s68.5 -37.5 96.5 -65.5s49.833 -60.167 65.5 -96.5s23.5 -75.5 23.5 -117.5zM83.002 327.001c0 -36.667 6.83105 -71.1641 20.498 -103.497s32.5 -61 56.5 -86
s51.833 -44.5 83.5 -58.5s65.834 -21 102.501 -21s70.834 7 102.501 21s59.5 33.333 83.5 58s42.833 53.167 56.5 85.5s20.5 66.833 20.5 103.5c0 73.333 -25.667 135.666 -77 186.999s-113.333 77 -186 77c-48 0 -92 -11.833 -132 -35.5s-71.833 -55.334 -95.5 -95.001
s-35.5 -83.834 -35.5 -132.501zM464 176.004c-14.667 -14.667 -47.333 -22.002 -98 -22.002c-34 0 -64.5 8.16699 -91.5 24.5s-48.167 38 -63.5 65s-23 55.833 -23 86.5c0 31.333 8.83301 59.333 26.5 84s41.167 44.167 70.5 58.5s61 21.5 95 21.5c18 0 32 -1.33301 42 -4
c5.33301 -1.33301 10.5 -2.5 15.5 -3.5s9.83301 -2.16699 14.5 -3.5c6.66699 -1.33301 12 -2.33301 16 -3s6.83301 -3.16699 8.5 -7.5s2.5 -13.166 2.5 -26.499v-34c-0.666992 -4 -2.16699 -7.5 -4.5 -10.5s-4.5 -4.16699 -6.5 -3.5c-4 0 -8.33301 6.33301 -13 19
c-4.66699 12 -14.334 22.833 -29.001 32.5s-33 14.5 -55 14.5c-33.333 0 -60.5 -12.833 -81.5 -38.5s-31.5 -57.5 -31.5 -95.5c0 -25.333 4.66699 -49.166 14 -71.499s23.333 -40.333 42 -54s41.334 -20.5 68.001 -20.5c40 0 66.667 13.667 80 41c5.33301 10 11 15 17 15
c3.33301 0 5 -3.66699 5 -11s-2.33301 -17 -7 -29s-9 -20 -13 -24z" />
    <glyph glyph-name="ordfeminine" unicode="&#xaa;" horiz-adv-x="270" 
d="M234 308c7.33301 0 15.666 3.33105 24.999 9.99805c2 0 4 -1.5 6 -4.5s3 -6.16699 3 -9.5s-2.33301 -7.33301 -7 -12c-14.667 -16 -28 -24 -40 -24s-22.167 2.83301 -30.5 8.5s-14.5 10.834 -18.5 15.501c-4.66699 4.66699 -7.66699 7 -9 7
c-2 0 -5.66699 -2.33301 -11 -7c-18.667 -16 -41.334 -24 -68.001 -24c-8.66699 0 -17.667 3.33301 -27 10s-17 14.667 -23 24s-9 18 -9 26c0 12.667 2.5 23.167 7.5 31.5s15.167 15.166 30.5 20.499l79 28c8.66699 2.66699 13.834 5.33398 15.501 8.00098s2.5 8 2.5 16v23
c0 10.667 -3.33301 19.334 -10 26.001s-18.667 10 -36 10s-27.666 -2.66699 -30.999 -8s-5 -15.333 -5 -30c0 -2 -3.33301 -4.5 -10 -7.5s-13.5 -5.66699 -20.5 -8s-11.833 -3.5 -14.5 -3.5c-3.33301 0 -5 2 -5 6s2.5 10.5 7.5 19.5s12.167 17.5 21.5 25.5s24 16.5 44 25.5
s37.667 13.5 53 13.5s29.333 -5.33301 42 -16s19 -23 19 -37v-124c0 -26 6.33301 -39 19 -39zM80 341.998c0 -10.667 3.66797 -18.999 11.001 -24.999s15.333 -9 24 -9c9.33301 0 19.166 4.16699 29.499 12.5s15.5 18.166 15.5 29.499v29c0 8 -3 12 -9 12
c-2.66699 0 -4.66699 -0.333008 -6 -1c-43.333 -12 -65 -28 -65 -48zM255.001 195.999c3.33301 0 6.5 -1.16699 9.5 -3.5s4.5 -4.16602 4.5 -5.49902c0 -2.66699 -0.333008 -4.33398 -1 -5.00098c-6.66699 -14 -17 -21 -31 -21h-198c-3.33301 0 -6.5 1.16699 -9.5 3.5
s-4.5 5.5 -4.5 9.5s2.5 8.66699 7.5 14s10.5 8 16.5 8h206z" />
    <glyph glyph-name="guillemotleft" unicode="&#xab;" horiz-adv-x="676" 
d="M574 34c0 -10 -2.99902 -15.002 -8.99902 -15.002c-8 0 -18 6 -30 18c-62.667 62.667 -131 111 -205 145c-4.66699 2.66699 -8.83398 7 -12.501 13s-5.5 11 -5.5 15c0 4.66699 1 7.33398 3 8.00098c98 58.667 173.333 113.334 226 164.001c12 12 21.667 18 29 18
c4 0 6 -3 6 -9c0 -9.33301 -7.66699 -24 -23 -44s-35 -41.667 -59 -65s-49 -45 -75 -65c-4 -2.66699 -6 -5 -6 -7c0 -1.33301 2 -3.66602 6 -6.99902c18 -14 36.167 -29.667 54.5 -47s35 -34.333 50 -51s27.167 -31.334 36.5 -44.001s14 -21.667 14 -27zM362.001 33.998
c0 -10 -2.99902 -15.002 -8.99902 -15.002c-8 0 -18 6 -30 18c-62.667 62.667 -131 111 -205 145c-4.66699 2.66699 -8.83398 7 -12.501 13s-5.5 11 -5.5 15c0 4.66699 1 7.33398 3 8.00098c98 58.667 173.333 113.334 226 164.001c12 12 21.667 18 29 18c4 0 6 -3 6 -9
c0 -9.33301 -7.66699 -24 -23 -44s-35 -41.667 -59 -65s-49 -45 -75 -65c-4 -2.66699 -6 -5 -6 -7c0 -1.33301 2 -3.66602 6 -6.99902c18 -14 36.167 -29.667 54.5 -47s35 -34.333 50 -51s27.167 -31.334 36.5 -44.001s14 -21.667 14 -27z" />
    <glyph glyph-name="logicalnot" unicode="&#xac;" horiz-adv-x="600" 
d="M550 67c0 -8.66699 -5.66699 -14.834 -17 -18.501s-20 -5.5 -26 -5.5s-10.333 1.5 -13 4.5s-4 6.16699 -4 9.5v247c0 12 -4.66699 18 -14 18h-412c-3.33301 0 -6.5 1.5 -9.5 4.5s-4.5 5.83301 -4.5 8.5c0 6.66699 1.33301 15.334 4 26.001c3.33301 14 10 21 20 21h463
c3.33301 0 6.33301 -1.5 9 -4.5s4 -6.16699 4 -9.5v-301z" />
    <glyph glyph-name="uni00AD" unicode="&#xad;" horiz-adv-x="274" 
d="M39 170h-4c-4 0 -6 2 -6 6c2.66699 34.667 8 52.667 16 54c42.667 6 80 11 112 15l80 10c5.33301 0 8 -2 8 -6c-2.66699 -34.667 -9.66699 -52.667 -21 -54c-38.667 -6 -73.5 -11 -104.5 -15s-57.833 -7.33301 -80.5 -10z" />
    <glyph glyph-name="registered" unicode="&#xae;" horiz-adv-x="337" 
d="M267 543c0 -29.333 -10.5 -54.499 -31.5 -75.499s-46.167 -31.5 -75.5 -31.5s-54.5 10.5 -75.5 31.5s-31.5 46.167 -31.5 75.5s10.667 54.666 32 75.999c20.667 20.667 45.667 31 75 31s54.5 -10.5 75.5 -31.5s31.5 -46.167 31.5 -75.5zM73 543.001
c0 -24 8.50098 -44.501 25.501 -61.501s37.5 -25.5 61.5 -25.5s44.5 8.5 61.5 25.5s25.5 37.5 25.5 61.5c0 24.667 -8.33301 45.334 -25 62.001s-37.334 25 -62.001 25c-24 0 -44.5 -8.5 -61.5 -25.5s-25.5 -37.5 -25.5 -61.5zM219.001 487
c0 -1.33301 -3.99805 -1.99902 -11.998 -1.99902c-20 0 -34.333 14.333 -43 43c-0.666992 4 -3.66699 6 -9 6c-4.66699 0 -7 -1 -7 -3v-22c0 -5.33301 5 -9 15 -11c0.666992 -0.666992 1 -2.33398 1 -5.00098c0 -3.33301 -0.333008 -5 -1 -5h-56
c-0.666992 0 -1 1.66699 -1 5c0 2.66699 0.333008 4 1 4c10.667 4 16 8 16 12v62c0 6 -4 10.333 -12 13c-2 0 -3 1.66699 -3 5c0 5.33301 1 8 3 8c17.333 4 32.666 6 45.999 6c29.333 0 44 -11.333 44 -34c0 -12 -6.33301 -19.333 -19 -22c-0.666992 0 -1 -1 -1 -3
c0 -1.33301 1.5 -5 4.5 -11s6.66699 -12.333 11 -19s8.16602 -11.334 11.499 -14.001c7.33301 -7.33301 11 -11.666 11 -12.999zM148.003 557.001c0 -4 2.66699 -5.99902 8 -5.99902s10 1.66699 14 5s6 7.33301 6 12c0 5.33301 -1.66699 10.166 -5 14.499
s-7.33301 6.5 -12 6.5c-7.33301 0 -11 -3 -11 -9v-23z" />
    <glyph glyph-name="macron" unicode="&#xaf;" horiz-adv-x="340" 
d="M277 555c3.33301 0 6.33301 -1.33301 9 -4s4 -7.66699 4 -15s-2.66699 -15.166 -8 -23.499s-13 -12.5 -23 -12.5h-195c-3.33301 0 -6.5 1.33301 -9.5 4s-4.5 6.66699 -4.5 12s2 13.166 6 23.499s10 15.5 18 15.5h203z" />
    <glyph glyph-name="degree" unicode="&#xb0;" horiz-adv-x="290" 
d="M265 528c0 -21.333 -5.66699 -41.666 -17 -60.999s-26 -35 -44 -47s-37.667 -18 -59 -18c-20.667 0 -40.167 6 -58.5 18s-33.166 27.667 -44.499 47s-17 39.666 -17 60.999c0 32.667 12 60.334 36 83.001c23.333 22.667 51.333 34 84 34
c21.333 0 41.166 -5.33301 59.499 -16s33 -24.834 44 -42.501s16.5 -37.167 16.5 -58.5zM72 524c0 -20.667 7.16699 -38.334 21.5 -53.001s31.5 -22 51.5 -22s37.167 7.33301 51.5 22s21.5 32.334 21.5 53.001c0 20 -7.16699 37.167 -21.5 51.5s-31.5 21.5 -51.5 21.5
s-37.167 -7.16699 -51.5 -21.5s-21.5 -31.5 -21.5 -51.5z" />
    <glyph glyph-name="plusminus" unicode="&#xb1;" horiz-adv-x="590" 
d="M320 145c0 -8 -4.33301 -14 -13 -18s-15.667 -6 -21 -6c-4.66699 0 -8.5 1.5 -11.5 4.5s-4.5 6.16699 -4.5 9.5v211c0 3.33301 -1.33301 5 -4 5h-202c-3.33301 0 -6.5 1.16699 -9.5 3.5s-4.5 6.16602 -4.5 11.499s2 12.5 6 21.5s10 13.5 18 13.5h189
c4.66699 0 7 2.66699 7 8v171c0 8 4.83301 15.167 14.5 21.5s16.5 9.5 20.5 9.5c10 0 15 -4.33301 15 -13v-191c0 -3.33301 0.166992 -5.16602 0.5 -5.49902s1.5 -0.5 3.5 -0.5h203c3.33301 0 6.5 -1.16699 9.5 -3.5s4.5 -4.83301 4.5 -7.5l-1 -1v-2
c-8 -24 -18.333 -36 -31 -36h-185c-2.66699 0 -4 -1.33301 -4 -4v-202zM509 38l-445 0.000976562c-3.33301 0 -6.5 1.5 -9.5 4.5s-4.5 6.83301 -4.5 11.5c0 5.33301 2 12.333 6 21s10 13 18 13h453c3.33301 0 6.5 -1.16699 9.5 -3.5s4.5 -4.16602 4.5 -5.49902
c0 -0.666992 -0.166992 -1.83398 -0.5 -3.50098s-0.833008 -3.83398 -1.5 -6.50098s-1.5 -5 -2.5 -7s-1.83301 -4 -2.5 -6c-6 -12 -14.333 -18 -25 -18z" />
    <glyph glyph-name="twosuperior" unicode="&#xb2;" horiz-adv-x="300" 
d="M42 685c-2 -4 -4.33594 -6.00391 -7.00293 -6.00391c-2 0 -4 1 -6 3s-3 4.66699 -3 8c0 9.33301 5.5 20.833 16.5 34.5s25.167 25.834 42.5 36.501s35.333 16 54 16c28 0 50.833 -9.16699 68.5 -27.5s26.5 -40.166 26.5 -65.499c0 -17.333 -3 -30.666 -9 -39.999
c-2.66699 -4.66699 -5 -8.5 -7 -11.5s-3.33301 -5.16699 -4 -6.5c-0.666992 -0.666992 -1.66699 -2 -3 -4s-2.66602 -4.33301 -3.99902 -7c-3.33301 -6 -7 -11.333 -11 -16c-4 -6 -13.5 -17 -28.5 -33l-43.5 -46l-23 -22
c-1.33301 -1.33301 -0.666016 -2.66602 2.00098 -3.99902c4 -1.33301 7.33301 -2 10 -2h69c14.667 0 28.834 4.5 42.501 13.5s24.167 21.167 31.5 36.5c2 5.33301 5.66699 8 11 8s8 -1.66699 8 -5c0 -2 -3.33301 -12 -10 -30c-6.66699 -20 -11.667 -38 -15 -54
c-2.66699 -16 -6.66699 -24 -12 -24h-3c-28 1.33301 -51.5 2.33301 -70.5 3s-33.833 1 -44.5 1s-21.167 -0.166992 -31.5 -0.5s-20.833 -0.833008 -31.5 -1.5c-4.66699 0 -9 -0.166992 -13 -0.5s-7.33301 -0.5 -10 -0.5s-4.66699 0.166992 -6 0.5s-2.33301 0.5 -3 0.5
c-1.33301 1.33301 -2 3.33301 -2 6s1.66699 5.66699 5 9l39 40c0.666992 0.666992 1.83398 1.66699 3.50098 3s3.83398 3.33301 6.50098 6l14.5 14.5c4.33301 4.33301 10.166 10.5 17.499 18.5s13.833 15.5 19.5 22.5s11.834 15.167 18.501 24.5
c3.33301 4.66699 6.33301 9.16699 9 13.5s5 8.5 7 12.5c10 20 15 38 15 54s-5.5 30.5 -16.5 43.5s-24.5 19.5 -40.5 19.5c-16.667 0 -30.334 -2.83301 -41.001 -8.5s-23.334 -16.5 -38.001 -32.5z" />
    <glyph glyph-name="threesuperior" unicode="&#xb3;" horiz-adv-x="300" 
d="M112 434c-44 0 -66.001 10.999 -66.001 32.999c0 4.66699 2 10.5 6 17.5s8.33301 10.5 13 10.5s8.66699 -1.66699 12 -5c21.333 -14.667 43 -22 65 -22c7.33301 0 14.666 0.833008 21.999 2.5s15.333 7.83398 24 18.501c8.66699 9.33301 13 23.333 13 42
c0 17.333 -6.5 32.333 -19.5 45s-28.833 19 -47.5 19c-3.33301 0 -8.16602 -0.5 -14.499 -1.5s-13.833 -2.83301 -22.5 -5.5c-3.33301 -0.666992 -6.66602 0.166016 -9.99902 2.49902s-5 4.5 -5 6.5c0 0.666992 0.333008 1.33398 1 2.00098
c6.66699 4.66699 17.334 9.66699 32.001 15c14.667 4 27 9.33301 37 16c24 16 36 37 36 63c0 10 -5.33301 18.667 -16 26s-21 11 -31 11h-2c-18.667 -0.666992 -42.334 -13 -71.001 -37c-4 -4 -7.66699 -6 -11 -6c-4 0 -6 2 -6 6c0 2 0.333008 3.66699 1 5
c26.667 52.667 61.667 79 105 79c22.667 0 42.667 -6.16699 60 -18.5s26 -29.833 26 -52.5c0 -12.667 -5.33301 -26 -16 -40s-25 -25.333 -43 -34c-2 -0.666992 -3 -1.66699 -3 -3s1 -2 3 -2c18.667 0 34.834 -6.5 48.501 -19.5s20.5 -28.5 20.5 -46.5
c0 -24.667 -7.33301 -46.667 -22 -66s-32.834 -34.333 -54.501 -45s-43.167 -16 -64.5 -16z" />
    <glyph glyph-name="acute" unicode="&#xb4;" horiz-adv-x="257" 
d="M207 626c0 -2.66699 -4.16699 -9.83301 -12.5 -21.5s-18.666 -25.167 -30.999 -40.5l-37 -44.5l-31.5 -35.5c-16.667 -18.667 -28.334 -28 -35.001 -28s-10 5.66699 -10 17s27 64 81 158c7.33301 12 16.333 18 27 18c32.667 0 49 -7.66699 49 -23z" />
    <glyph glyph-name="uni00B5" unicode="&#xb5;" horiz-adv-x="510" 
d="M137 -254c0 -20.667 -9.33301 -31.002 -28 -31.002c-28.667 0 -47.167 11.5 -55.5 34.5s-14.166 59.833 -17.499 110.5c-1.33301 25.333 -2.5 49.666 -3.5 72.999s-1.5 45.666 -1.5 66.999l7 92l-7 240c0 24 4.16699 44.333 12.5 61s21.5 25 39.5 25c26 0 39 -25 39 -75
c0 -13.333 -5 -48.666 -15 -105.999c-5.33301 -28.667 -9.33301 -51.667 -12 -69s-4 -29.666 -4 -36.999c0 -9.33301 3.66699 -20.5 11 -33.5s17 -24.167 29 -33.5s24.667 -14 38 -14c24 0 44.5 5.5 61.5 16.5s31 25.167 42 42.5s19.5 35.166 25.5 53.499s10 34.5 12 48.5
c2.66699 14 4.5 29.5 5.5 46.5s1.5 35.5 1.5 55.5v19c0 22 4.16699 41.333 12.5 58s20.5 25 36.5 25c26 0 39 -21 39 -63c0 -10 -8 -39.667 -24 -89c-16 -48.667 -24 -83.334 -24 -104.001c0 -13.333 2.5 -27.5 7.5 -42.5s12.167 -27.5 21.5 -37.5s20.666 -15 33.999 -15
c30.667 0 52.334 13.333 65.001 40c2 3.33301 4.66699 5 8 5s6 -1.16699 8 -3.5s3 -4.16602 3 -5.49902v-6c0 -22.667 -5 -41 -15 -55c-14 -22.667 -26.667 -37.334 -38 -44.001s-25.666 -10 -42.999 -10c-16.667 0 -29.834 4.33301 -39.501 13s-19.5 25.334 -29.5 50.001
c-2.66699 9.33301 -5.16699 19.5 -7.5 30.5s-4.16602 22.833 -5.49902 35.5c-12.667 -31.333 -34.667 -63.666 -66 -96.999c-18.667 -20 -35.334 -30 -50.001 -30s-28.667 2.33301 -42 7s-24 10 -32 16c-8.66699 5.33301 -17.834 11.833 -27.501 19.5
s-16.5 13.834 -20.5 18.501c-9.33301 9.33301 -15.333 14 -18 14c-6.66699 0 -10 -11.667 -10 -35c0 -15.333 1.33301 -33.666 4 -54.999s6.66699 -43 12 -65s11.333 -41.667 18 -59c5.33301 -13.333 10.5 -25.5 15.5 -36.5l14.5 -30.5c8.66699 -18 13 -29.667 13 -35z" />
    <glyph glyph-name="paragraph" unicode="&#xb6;" horiz-adv-x="586" 
d="M433 -166c0 -17.333 -4.99805 -35.332 -14.998 -53.999s-23 -34.5 -39 -47.5s-33.333 -19.5 -52 -19.5c-28.667 0 -51.667 7.83301 -69 23.5s-26 33.834 -26 54.501c0 21.333 6.83301 38.166 20.5 50.499s28.834 18.5 45.501 18.5s30.5 -4.16699 41.5 -12.5
s16.5 -18.5 16.5 -30.5s-3.66699 -22.333 -11 -31s-15 -13 -23 -13c-8.66699 0 -18.334 3.33301 -29.001 10c-10.667 6 -17.667 9 -21 9c-2.66699 0 -4 -4.66699 -4 -14c0 -10 4.66699 -19.167 14 -27.5s23 -12.5 41 -12.5s34.333 7.83301 49 23.5s22 35.167 22 58.5v274
c0 16.667 -4.33301 25 -13 25c-56 0 -108.833 9 -158.5 27s-91.167 46.333 -124.5 85c-34 39.333 -51 82.333 -51 129c0 47.333 10.667 89 32 125s49.666 65.667 84.999 89c72.667 47.333 156.334 71 251.001 71c21.333 0 41.166 -0.166992 59.499 -0.5
s35.5 -0.833008 51.5 -1.5c10 0 15 -7 15 -21c0 -4.66699 -2 -9.5 -6 -14.5s-8 -7.5 -12 -7.5l-72 7c-4.66699 0 -8.83398 -1.83301 -12.501 -5.5s-5.5 -7.83398 -5.5 -12.501v-755z" />
    <glyph glyph-name="periodcentered" unicode="&#xb7;" horiz-adv-x="200" 
d="M155 205c0 -15.333 -5.50098 -28.333 -16.501 -39s-23.833 -16 -38.5 -16s-27.5 5.33301 -38.5 16s-16.5 23.667 -16.5 39c0 14.667 5.66699 27.667 17 39c10.667 10.667 23.334 16 38.001 16s27.5 -5.33301 38.5 -16s16.5 -23.667 16.5 -39z" />
    <glyph glyph-name="cedilla" unicode="&#xb8;" horiz-adv-x="255" 
d="M180 12l-43.002 -54.998c-2.66699 -2.66699 -4 -5.33398 -4 -8.00098c0 -6 6.33301 -11.333 19 -16c12 -4.66699 23.833 -13.834 35.5 -27.501s17.5 -28.5 17.5 -44.5c0 -24 -7.33301 -46.167 -22 -66.5s-31.667 -36.833 -51 -49.5s-36.666 -19 -51.999 -19
c-20 0 -30 13.667 -30 41c0 6 1.5 10.667 4.5 14s5.83301 5 8.5 5l16 -6c4 -1.33301 9 -2.83301 15 -4.5s12.333 -2.5 19 -2.5c10.667 0 20.334 3.16699 29.001 9.5s13 18.833 13 37.5c0 18 -5.33301 32 -16 42s-25 15 -43 15l-26 -6c-4 0 -8 1.66699 -12 5s-6 6.33301 -6 9
c0 2 1.66699 5.66699 5 11l71 90l20 27z" />
    <glyph glyph-name="onesuperior" unicode="&#xb9;" horiz-adv-x="300" 
d="M70 735c28 3.33301 55.667 14.6641 83 33.9971c11.333 8.66699 19 13 23 13c6 0 9 -3.66699 9 -11v-3c-2.66699 -22.667 -4.5 -43.5 -5.5 -62.5s-1.5 -41.5 -1.5 -67.5v-43v-50.5c0 -14.333 0.333008 -25.833 1 -34.5c0.666992 -17.333 4 -28.166 10 -32.499
s20.667 -8.16602 44 -11.499c8 -0.666992 12 -5.66699 12 -15s-4 -14 -12 -14c-21.333 0 -38 1 -50 3c-6.66699 0.666992 -12.5 1.16699 -17.5 1.5s-9.83301 0.5 -14.5 0.5s-9.5 -0.166992 -14.5 -0.5s-10.833 -0.833008 -17.5 -1.5c-12.667 -2 -29.334 -3 -50.001 -3
c-7.33301 0 -11 5 -11 15c0 9.33301 3.66699 14 11 14c12 0.666992 21.333 2 28 4s13.334 6.33301 20.001 13s10 16.334 10 29.001v149c0 18 -18.667 33.667 -56 47c-7.33301 3.33301 -11 8.33301 -11 15c0 7.33301 3.33301 11.333 10 12z" />
    <glyph glyph-name="ordmasculine" unicode="&#xba;" horiz-adv-x="309" 
d="M25 390c0 24 6.16699 46.167 18.5 66.5s28.666 36.666 48.999 48.999s41.833 18.5 64.5 18.5c23.333 0 44.5 -5.5 63.5 -16.5s34.333 -25.833 46 -44.5s17.5 -39.667 17.5 -63c0 -22.667 -5.5 -44.167 -16.5 -64.5s-26.167 -36.666 -45.5 -48.999
s-41.666 -18.5 -66.999 -18.5c-38.667 0 -70 11.167 -94 33.5s-36 51.833 -36 88.5zM223 390c0 26.667 -6.83203 50.167 -20.499 70.5s-31.167 30.5 -52.5 30.5c-22 0 -38.167 -8.5 -48.5 -25.5s-15.5 -38.833 -15.5 -65.5s7.16699 -50.167 21.5 -70.5
s31.833 -30.5 52.5 -30.5c21.333 0 37.166 8.5 47.499 25.5s15.5 38.833 15.5 65.5zM271.001 196c3.33301 0 6.5 -1.16699 9.5 -3.5s4.5 -4.16602 4.5 -5.49902c0 -2.66699 -0.333008 -4.33398 -1 -5.00098c-6.66699 -14 -17 -21 -31 -21h-214
c-3.33301 0 -6.5 1.16699 -9.5 3.5s-4.5 5.5 -4.5 9.5s2.5 8.66699 7.5 14s10.5 8 16.5 8h222z" />
    <glyph glyph-name="guillemotright" unicode="&#xbb;" horiz-adv-x="676" 
d="M353 37c-12 -12 -22.001 -17.998 -30.001 -17.998c-6 0 -9 5 -9 15c0 5.33301 4.66699 14.333 14 27s21.5 27.334 36.5 44.001s31.667 33.667 50 51s36.5 33 54.5 47c4 3.33301 6 5.66602 6 6.99902c0 2 -2 4.33301 -6 7c-25.333 20 -50.166 41.667 -74.499 65
s-44.166 45 -59.499 65s-23 34.667 -23 44c0 6 2 9 6 9c7.33301 0 17 -6 29 -18c52.667 -50.667 128 -105.334 226 -164.001c2 -0.666992 3 -3.33398 3 -8.00098c0 -4 -1.83301 -9 -5.5 -15s-7.83398 -10.333 -12.501 -13c-74 -34 -142.333 -82.333 -205 -145z
M140.999 37.002c-12 -12 -22.001 -17.998 -30.001 -17.998c-6 0 -9 5 -9 15c0 5.33301 4.66699 14.333 14 27s21.5 27.334 36.5 44.001s31.667 33.667 50 51s36.5 33 54.5 47c4 3.33301 6 5.66602 6 6.99902c0 2 -2 4.33301 -6 7c-25.333 20 -50.166 41.667 -74.499 65
s-44.166 45 -59.499 65s-23 34.667 -23 44c0 6 2 9 6 9c7.33301 0 17 -6 29 -18c52.667 -50.667 128 -105.334 226 -164.001c2 -0.666992 3 -3.33398 3 -8.00098c0 -4 -1.83301 -9 -5.5 -15s-7.83398 -10.333 -12.501 -13c-74 -34 -142.333 -82.333 -205 -145z" />
    <glyph glyph-name="onequarter" unicode="&#xbc;" horiz-adv-x="641" 
d="M533 638c7.33301 11.333 20.333 16.999 39 16.999c3.33301 0 6.5 -1.33301 9.5 -4s4.5 -5.66699 4.5 -9c0 -2 -0.333008 -3.33301 -1 -4l-412 -649c-6 -10 -18 -15 -36 -15c-4 0 -7.83301 1.33301 -11.5 4s-5.5 5.33398 -5.5 8.00098c0 1.33301 0.333008 2.33301 1 3z
M165 432.999l1.00391 -78.999c0.666992 -12 2 -20.833 4 -26.5s6.5 -9.66699 13.5 -12s17.833 -4.83301 32.5 -7.5c8 -0.666992 12 -5 12 -13s-4 -12 -12 -12c-21.333 0 -38 1 -50 3c-6.66699 0.666992 -12.5 1.16699 -17.5 1.5s-9.83301 0.5 -14.5 0.5
s-9.5 -0.166992 -14.5 -0.5s-10.833 -0.833008 -17.5 -1.5c-12.667 -2 -29.334 -3 -50.001 -3c-7.33301 0 -11 4.33301 -11 13c0 7.33301 4.66699 11.666 14 12.999c9.33301 0 17.166 1 23.499 3s12.5 6.33301 18.5 13c6 7.33301 9 17 9 29v153
c0 18.667 -18 34.334 -54 47.001c-7.33301 3.33301 -11 8.33301 -11 15c0 7.33301 3.33301 11.333 10 12c23.333 2.66699 42.166 8.16699 56.499 16.5s25.166 15.166 32.499 20.499c10.667 6.66699 17.667 10 21 10c6 0 9 -3.66699 9 -11v-3
c-1.33301 -9.33301 -2.33301 -19.833 -3 -31.5s-1 -24.5 -1 -38.5zM584.004 108c-14.667 0 -21.999 -1.66699 -21.999 -5v-84c0 -4 -3 -8.33301 -9 -13s-12.5 -8.5 -19.5 -11.5s-11.833 -4.5 -14.5 -4.5c-6 0 -9 2.66699 -9 8v102c0 3.33301 -3 5 -9 5l-146 -4
c-4.66699 0 -7 2 -7 6c0 0.666992 0.333008 1.33398 1 2.00098l34.5 45l49.5 62l52.5 63l44 50c12.333 13.333 20.166 20.333 23.499 21c2 0.666992 3.66699 0 5 -2s2 -4 2 -6c0 -38.667 0.166992 -74 0.5 -106s0.833008 -60.333 1.5 -85c0 -2.66699 1 -4 3 -4h18h22
c6 0 11 0.333008 15 1c7.33301 0 11 -1.66699 11 -5c0 -6.66699 -1.66699 -14.334 -5 -23.001s-6 -13 -8 -13zM502.005 148c5.33301 0 8 1.66602 8 4.99902v111c0 1.33301 -0.666992 2 -2 2c-2 0 -3.33301 -0.333008 -4 -1l-42.5 -49.5
c-15.667 -18.333 -32.5 -39.166 -50.5 -62.499c-2 -3.33301 -2 -5 0 -5h91z" />
    <glyph glyph-name="onehalf" unicode="&#xbd;" horiz-adv-x="699" 
d="M533 638c7.33301 11.333 20.333 17.001 39 17.001c3.33301 0 6.5 -1.33301 9.5 -4s4.5 -5.33398 4.5 -8.00098s-0.333008 -4.33398 -1 -5.00098l-412 -649c-6 -10 -18 -15 -36 -15c-4 0 -7.83301 1.33301 -11.5 4s-5.5 5.33398 -5.5 8.00098
c0 1.33301 0.333008 2.33301 1 3zM165 433.001l1.00391 -78.999c0.666992 -12 2 -20.833 4 -26.5s6.5 -9.66699 13.5 -12s17.833 -4.83301 32.5 -7.5c8 -0.666992 12 -5 12 -13s-4 -12 -12 -12c-21.333 0 -38 1 -50 3c-6.66699 0.666992 -12.5 1.16699 -17.5 1.5
s-9.83301 0.5 -14.5 0.5s-9.5 -0.166992 -14.5 -0.5s-10.833 -0.833008 -17.5 -1.5c-12.667 -2 -29.334 -3 -50.001 -3c-7.33301 0 -11 4.33301 -11 13c0 7.33301 4.66699 11.666 14 12.999c9.33301 0 17.166 1 23.499 3s12.5 6.33301 18.5 13c6 7.33301 9 17 9 29v153
c0 18.667 -18 34.334 -54 47.001c-7.33301 3.33301 -11 8.33301 -11 15c0 7.33301 3.33301 11.333 10 12c23.333 2.66699 42.166 8.16699 56.499 16.5s25.166 15.166 32.499 20.499c10.667 6.66699 17.667 10 21 10c6 0 9 -3.66699 9 -11v-3
c-1.33301 -9.33301 -2.33301 -19.833 -3 -31.5s-1 -24.5 -1 -38.5zM675.004 95.002c-6.66699 -18.667 -12.0049 -34.334 -16.0049 -47.001s-6.66699 -22.334 -8 -29.001c-2.66699 -14 -4.66699 -22 -6 -24c-0.666992 -2.66699 -2.33398 -4 -5.00098 -4h-4
c-34 2 -68.333 3 -103 3c-17.333 0 -34.666 -0.166992 -51.999 -0.5s-34.666 -0.833008 -51.999 -1.5c-1.33301 -0.666992 -2.66602 0.666016 -3.99902 3.99902c-0.666992 3.33301 0.666016 7.33301 3.99902 12l39 40l4 4c2 2 5.33301 5 10 9l22.5 21
c7 6.66699 15.5 15.667 25.5 27c9.33301 11.333 19.833 25.666 31.5 42.999s17.5 35.333 17.5 54s-5.66699 34 -17 46s-25.333 18 -42 18s-30.167 -2.5 -40.5 -7.5s-22.5 -15.167 -36.5 -30.5c-2 -4 -4.33301 -6 -7 -6c-2 0 -4 1 -6 3s-3 4.66699 -3 8
c0 9.33301 5.5 20.833 16.5 34.5s25.167 25.834 42.5 36.501s35.333 16 54 16c28 0 50.833 -9.16699 68.5 -27.5s26.5 -40.166 26.5 -65.499c0 -17.333 -3 -30.666 -9 -39.999c-2.66699 -4.66699 -5 -8.5 -7 -11.5s-3.33301 -5.16699 -4 -6.5
c-0.666992 -0.666992 -1.66699 -2 -3 -4s-2.66602 -4.33301 -3.99902 -7c-3.33301 -6 -7 -11.333 -11 -16c-4 -6 -13.5 -16.5 -28.5 -31.5s-29.5 -28.833 -43.5 -41.5c-6.66699 -6.66699 -12 -11.667 -16 -15s-6.33301 -5.33301 -7 -6
c-1.33301 -1.33301 -0.666016 -2.66602 2.00098 -3.99902c4 -1.33301 7.33301 -2 10 -2h69c14.667 0 28.834 4.5 42.501 13.5s24.167 21.167 31.5 36.5c2.66699 6 6.33398 9 11.001 9c5.33301 0 8 -2 8 -6z" />
    <glyph glyph-name="threequarters" unicode="&#xbe;" horiz-adv-x="641" 
d="M533 638c7.33301 11.333 20.333 17 39 17c3.33301 0 6.5 -1.33301 9.5 -4s4.5 -5.66699 4.5 -9c0 -2 -0.333008 -3.33301 -1 -4l-412 -649c-6 -10 -18 -15 -36 -15c-4 0 -7.83301 1.33301 -11.5 4s-5.5 5 -5.5 7s0.333008 3.33301 1 4zM121 274
c-45.333 0 -68 11.001 -68 33.001c0 4.66699 2 10.5 6 17.5s8.33301 10.5 13 10.5s8.66699 -1.66699 12 -5c21.333 -14.667 43.666 -22 66.999 -22c11.333 0 24 5.83301 38 17.5s21 28.834 21 51.501s-6.5 41.667 -19.5 57s-28.833 23 -47.5 23
c-3.33301 0 -7.16602 -0.333008 -11.499 -1s-8.83301 -1.66699 -13.5 -3c-6 -2 -10.667 -3 -14 -3c-0.666992 0 -1.5 0.166992 -2.5 0.5s-1.83301 0.5 -2.5 0.5c-4.66699 1.33301 -7 3.66602 -7 6.99902c0 2 1.33301 4.33301 4 7s10.334 6.66699 23.001 12
c12.667 4 20.334 7 23.001 9c1.33301 1.33301 3.16602 2.66602 5.49902 3.99902l8.5 5c6 4 10.333 7 13 9s6.33398 5 11.001 9c4.66699 3.33301 7.33398 6.33301 8.00098 9c5.33301 9.33301 8 18.666 8 27.999s-5.33301 17.5 -16 24.5s-21 10.5 -31 10.5
c-24 0 -48 -10 -72 -30c-2.66699 -2.66699 -5.66699 -4 -9 -4c-5.33301 0 -8 2 -8 6c0 1.33301 0.333008 2.33301 1 3c12 24 28.667 41.833 50 53.5s42.333 17.5 63 17.5c21.333 0 39.666 -5.83301 54.999 -17.5s23 -29.167 23 -52.5c0 -24.667 -19.667 -47 -59 -67
c-2 -0.666992 -3 -1.66699 -3 -3s1 -2 3 -2c21.333 -0.666992 38.166 -9.66699 50.499 -27s18.5 -37.666 18.5 -60.999c0 -24.667 -7.33301 -46.667 -22 -66s-32.834 -34.333 -54.501 -45s-43.167 -16 -64.5 -16zM584 108.001c-14.667 0 -21.999 -1.66602 -21.999 -4.99902
v-84c0 -4 -3 -8.33301 -9 -13s-12.5 -8.5 -19.5 -11.5s-11.833 -4.5 -14.5 -4.5c-6 0 -9 2.66699 -9 8v102c0 3.33301 -3 5 -9 5l-146 -4c-4.66699 0 -7 2.33301 -7 7l1 1l34.5 45l49.5 62l52.5 63l44 50c12.333 13.333 20.166 20.333 23.499 21h1c4 0 6 -2.66699 6 -8
c0 -38.667 0.166992 -74 0.5 -106s0.833008 -60.333 1.5 -85c0 -2.66699 1 -4 3 -4h18h22c6 0 11 0.333008 15 1c7.33301 0 11 -1.66699 11 -5c0 -6.66699 -1.66699 -14.334 -5 -23.001s-6 -13 -8 -13zM502.001 148.002c5.33301 0 8 1.66602 8 4.99902v111
c0 1.33301 -0.666992 2 -2 2c-2 0 -3.33301 -0.333008 -4 -1l-42.5 -49.5c-15.667 -18.333 -32.5 -39.166 -50.5 -62.499c-2 -3.33301 -2 -5 0 -5h91z" />
    <glyph glyph-name="questiondown" unicode="&#xbf;" horiz-adv-x="355" 
d="M276 392c-12 -12 -26.334 -18.001 -43.001 -18.001s-30.834 5.83301 -42.501 17.5s-17.5 25.834 -17.5 42.501s5.83301 30.834 17.5 42.501s25.834 17.5 42.501 17.5s30.834 -5.83301 42.501 -17.5s17.5 -25.834 17.5 -42.501s-5.66699 -30.667 -17 -42z
M312.999 -142.001c0 -11.333 -4.50098 -20.667 -13.501 -28s-17.833 -11 -26.5 -11c-25.333 0 -49.166 7 -71.499 21s-42.333 32.5 -60 55.5s-32.834 47.167 -45.501 72.5c-18.667 38 -28 69.667 -28 95c0 24 4.5 44.667 13.5 62s19.167 29 30.5 35
c71.333 39.333 109.333 65.333 114 78c3.33301 7.33301 5.33301 19.333 6 36c0 16.667 5 25 15 25c2.66699 0 6.66699 -2.66699 12 -8c3.33301 -4 7 -12 11 -24s7.5 -25.333 10.5 -40s4.5 -28 4.5 -40c0 -18.667 -8 -34.5 -24 -47.5s-37 -26.167 -63 -39.5
c-50 -24.667 -75 -50.667 -75 -78c0 -34 8.66699 -61.5 26 -82.5s42.333 -31.833 75 -32.5l47 4c10.667 0 20.334 -6 29.001 -18s13 -23.667 13 -35z" />
    <glyph glyph-name="Agrave" unicode="&#xc0;" 
d="M147 1l-119.999 -6c-19.333 0 -29 4.33301 -29 13s11 16.334 33 23.001c40 12 68.667 37.667 86 77c63.333 146 125.666 302.667 186.999 470c8.66699 21.333 13 36.666 13 45.999c0 8 0.333008 12 1 12c23.333 8 37.333 14.667 42 20l5 6.5
c1.33301 1.66699 2.33301 3.16699 3 4.5c3.33301 6 5.66602 9 6.99902 9c3.33301 0 6.66602 -4.66699 9.99902 -14l81.5 -249.5l96.5 -284.5c12.667 -36.667 26.834 -61.5 42.501 -74.5s34.834 -21.5 57.501 -25.5s34 -11.667 34 -23c0 -6.66699 -9.66699 -10 -29 -10
l-139 6l-105 -1c-19.333 0 -29 4 -29 12c0 10 11 16.333 33 19c40.667 6.66699 61 21.667 61 45c0 18.667 -12.667 71 -38 157c-2 7.33301 -11 11 -27 11h-191c-7.33301 0 -13 -6 -17 -18c-26.667 -76 -40 -122 -40 -138c0 -14.667 5.5 -26.834 16.5 -36.501
s26.167 -17.167 45.5 -22.5s29 -11.666 29 -18.999s-9.66699 -11 -29 -11zM241.001 294c0 -4.66699 7 -7 21 -7h155c9.33301 0 14 1.66699 14 5l-2 10l-79 239c-4 12 -6.66699 18 -8 18c-2 0 -5 -5.66699 -9 -17l-90 -240zM402.001 703
c0 -4 -2.00098 -5.99902 -6.00098 -5.99902s-10 3 -18 9l-75 57.5l-55 44.5c-8.66699 8 -13 14.667 -13 20c0 4 3.5 7.66699 10.5 11s15.333 6 25 8s17.834 3 24.501 3c10.667 0 19 -4.33301 25 -13c54.667 -78.667 82 -123.334 82 -134.001z" />
    <glyph glyph-name="Aacute" unicode="&#xc1;" 
d="M147 1l-119.999 -6c-19.333 0 -29 4.33301 -29 13s11 16.334 33 23.001c40 12 68.667 37.667 86 77c63.333 146 125.666 302.667 186.999 470c8.66699 21.333 13 36.666 13 45.999c0 8 0.333008 12 1 12c23.333 8 37.333 14.667 42 20l5 6.5
c1.33301 1.66699 2.33301 3.16699 3 4.5c3.33301 6 5.66602 9 6.99902 9c3.33301 0 6.66602 -4.66699 9.99902 -14l81.5 -249.5l96.5 -284.5c12.667 -36.667 26.834 -61.5 42.501 -74.5s34.834 -21.5 57.501 -25.5s34 -11.667 34 -23c0 -6.66699 -9.66699 -10 -29 -10
l-139 6l-105 -1c-19.333 0 -29 4 -29 12c0 10 11 16.333 33 19c40.667 6.66699 61 21.667 61 45c0 18.667 -12.667 71 -38 157c-2 7.33301 -11 11 -27 11h-191c-7.33301 0 -13 -6 -17 -18c-26.667 -76 -40 -122 -40 -138c0 -14.667 5.5 -26.834 16.5 -36.501
s26.167 -17.167 45.5 -22.5s29 -11.666 29 -18.999s-9.66699 -11 -29 -11zM241.001 294c0 -4.66699 7 -7 21 -7h155c9.33301 0 14 1.66699 14 5l-2 10l-79 239c-4 12 -6.66699 18 -8 18c-2 0 -5 -5.66699 -9 -17l-90 -240zM348.001 706c-8 -6 -13.998 -9 -17.998 -9
s-6 2.33301 -6 7c0 10 27.333 54.333 82 133c6 8.66699 14.333 13 25 13c7.33301 0 15.666 -1 24.999 -3s17.5 -4.66699 24.5 -8s10.5 -7 10.5 -11c0 -5.33301 -4.33301 -12 -13 -20c-14.667 -12.667 -32.834 -27.5 -54.501 -44.5z" />
    <glyph glyph-name="Acircumflex" unicode="&#xc2;" 
d="M147 1l-119.999 -6c-19.333 0 -29 4.33301 -29 13s11 16.334 33 23.001c40 12 68.667 37.667 86 77c63.333 146 125.666 302.667 186.999 470c8.66699 21.333 13 36.666 13 45.999c0 8 0.333008 12 1 12c23.333 8 37.333 14.667 42 20l5 6.5
c1.33301 1.66699 2.33301 3.16699 3 4.5c3.33301 6 5.66602 9 6.99902 9c3.33301 0 6.66602 -4.66699 9.99902 -14l81.5 -249.5l96.5 -284.5c12.667 -36.667 26.834 -61.5 42.501 -74.5s34.834 -21.5 57.501 -25.5s34 -11.667 34 -23c0 -6.66699 -9.66699 -10 -29 -10
l-139 6l-105 -1c-19.333 0 -29 4 -29 12c0 10 11 16.333 33 19c40.667 6.66699 61 21.667 61 45c0 18.667 -12.667 71 -38 157c-2 7.33301 -11 11 -27 11h-191c-7.33301 0 -13 -6 -17 -18c-26.667 -76 -40 -122 -40 -138c0 -14.667 5.5 -26.834 16.5 -36.501
s26.167 -17.167 45.5 -22.5s29 -11.666 29 -18.999s-9.66699 -11 -29 -11zM241.001 294c0 -4.66699 7 -7 21 -7h155c9.33301 0 14 1.66699 14 5l-2 10l-79 239c-4 12 -6.66699 18 -8 18c-2 0 -5 -5.66699 -9 -17l-90 -240zM353.001 756l-41.502 -21.5
c-17.667 -9 -34.5 -16.833 -50.5 -23.5s-26.667 -10 -32 -10c-8 0 -12 3.33301 -12 10c0 4 2.33301 8 7 12l98 88c16.667 14.667 30.334 22 41.001 22s24.334 -7.33301 41.001 -22l98 -88c4 -2.66699 6 -6.66699 6 -12c0 -7.33301 -3.66699 -11 -11 -11
c-4 0 -11.167 2 -21.5 6s-21.833 9 -34.5 15l-35.5 17.5l-25.5 13.5c-6.66699 4 -12.667 6 -18 6c-4 0 -7 -0.666992 -9 -2z" />
    <glyph glyph-name="Atilde" unicode="&#xc3;" 
d="M147 1l-119.999 -6c-19.333 0 -29 4.33301 -29 13s11 16.334 33 23.001c40 12 68.667 37.667 86 77c63.333 146 125.666 302.667 186.999 470c8.66699 21.333 13 36.666 13 45.999c0 8 0.333008 12 1 12c23.333 8 37.333 14.667 42 20l5 6.5
c1.33301 1.66699 2.33301 3.16699 3 4.5c3.33301 6 5.66602 9 6.99902 9c3.33301 0 6.66602 -4.66699 9.99902 -14l81.5 -249.5l96.5 -284.5c12.667 -36.667 26.834 -61.5 42.501 -74.5s34.834 -21.5 57.501 -25.5s34 -11.667 34 -23c0 -6.66699 -9.66699 -10 -29 -10
l-139 6l-105 -1c-19.333 0 -29 4 -29 12c0 10 11 16.333 33 19c40.667 6.66699 61 21.667 61 45c0 18.667 -12.667 71 -38 157c-2 7.33301 -11 11 -27 11h-191c-7.33301 0 -13 -6 -17 -18c-26.667 -76 -40 -122 -40 -138c0 -14.667 5.5 -26.834 16.5 -36.501
s26.167 -17.167 45.5 -22.5s29 -11.666 29 -18.999s-9.66699 -11 -29 -11zM241.001 294c0 -4.66699 7 -7 21 -7h155c9.33301 0 14 1.66699 14 5l-2 10l-79 239c-4 12 -6.66699 18 -8 18c-2 0 -5 -5.66699 -9 -17l-90 -240zM429.001 790c12.667 0 25.666 6.66699 38.999 20
c12 12.667 19 19 21 19c11.333 0 17 -6.66699 17 -20c0 -9.33301 -4.33301 -20.5 -13 -33.5s-19.5 -24.333 -32.5 -34s-25.5 -14.5 -37.5 -14.5l-121 9c-13.333 0 -25.666 -6.66699 -36.999 -20c-12 -14 -18.667 -21 -20 -21c-4.66699 0 -9 1.66699 -13 5s-6 7.33301 -6 12
c0 12 4.83301 24.833 14.5 38.5s21.167 25.5 34.5 35.5s26 15 38 15z" />
    <glyph glyph-name="Adieresis" unicode="&#xc4;" 
d="M147 1l-119.999 -6c-19.333 0 -29 4.33301 -29 13s11 16.334 33 23.001c40 12 68.667 37.667 86 77c63.333 146 125.666 302.667 186.999 470c8.66699 21.333 13 36.666 13 45.999c0 8 0.333008 12 1 12c23.333 8 37.333 14.667 42 20l5 6.5
c1.33301 1.66699 2.33301 3.16699 3 4.5c3.33301 6 5.66602 9 6.99902 9c3.33301 0 6.66602 -4.66699 9.99902 -14l81.5 -249.5l96.5 -284.5c12.667 -36.667 26.834 -61.5 42.501 -74.5s34.834 -21.5 57.501 -25.5s34 -11.667 34 -23c0 -6.66699 -9.66699 -10 -29 -10
l-139 6l-105 -1c-19.333 0 -29 4 -29 12c0 10 11 16.333 33 19c40.667 6.66699 61 21.667 61 45c0 18.667 -12.667 71 -38 157c-2 7.33301 -11 11 -27 11h-191c-7.33301 0 -13 -6 -17 -18c-26.667 -76 -40 -122 -40 -138c0 -14.667 5.5 -26.834 16.5 -36.501
s26.167 -17.167 45.5 -22.5s29 -11.666 29 -18.999s-9.66699 -11 -29 -11zM241.001 294c0 -4.66699 7 -7 21 -7h155c9.33301 0 14 1.66699 14 5l-2 10l-79 239c-4 12 -6.66699 18 -8 18c-2 0 -5 -5.66699 -9 -17l-90 -240zM423.001 787c9.33301 9.33301 21 14 35 14
s25.833 -4.83301 35.5 -14.5s14.5 -21.5 14.5 -35.5s-4.83301 -25.833 -14.5 -35.5s-21.5 -14.5 -35.5 -14.5s-25.833 4.83301 -35.5 14.5s-14.5 21.5 -14.5 35.5s5 26 15 36zM228.001 787c9.33301 9.33301 21 14 35 14s25.833 -4.83301 35.5 -14.5s14.5 -21.5 14.5 -35.5
s-4.83301 -25.833 -14.5 -35.5s-21.5 -14.5 -35.5 -14.5s-25.833 4.83301 -35.5 14.5s-14.5 21.5 -14.5 35.5s5 26 15 36z" />
    <glyph glyph-name="Aring" unicode="&#xc5;" 
d="M147 1l-119.999 -6c-19.333 0 -29 4.33301 -29 13s11 16.334 33 23.001c40 12 68.667 37.667 86 77c63.333 146 125.666 302.667 186.999 470c8.66699 21.333 13 36.666 13 45.999c0 8 0.333008 12 1 12c23.333 8 37.333 14.667 42 20l5 6.5
c1.33301 1.66699 2.33301 3.16699 3 4.5c3.33301 6 5.66602 9 6.99902 9c3.33301 0 6.66602 -4.66699 9.99902 -14l81.5 -249.5l96.5 -284.5c12.667 -36.667 26.834 -61.5 42.501 -74.5s34.834 -21.5 57.501 -25.5s34 -11.667 34 -23c0 -6.66699 -9.66699 -10 -29 -10
l-139 6l-105 -1c-19.333 0 -29 4 -29 12c0 10 11 16.333 33 19c40.667 6.66699 61 21.667 61 45c0 18.667 -12.667 71 -38 157c-2 7.33301 -11 11 -27 11h-191c-7.33301 0 -13 -6 -17 -18c-26.667 -76 -40 -122 -40 -138c0 -14.667 5.5 -26.834 16.5 -36.501
s26.167 -17.167 45.5 -22.5s29 -11.666 29 -18.999s-9.66699 -11 -29 -11zM241.001 294c0 -4.66699 7 -7 21 -7h155c9.33301 0 14 1.66699 14 5l-2 10l-79 239c-4 12 -6.66699 18 -8 18c-2 0 -5 -5.66699 -9 -17l-90 -240zM273.001 779c0 24 9.33301 44.167 28 60.5
s40.334 24.5 65.001 24.5c25.333 0 45.833 -7 61.5 -21s23.5 -33 23.5 -57s-9.16699 -44.333 -27.5 -61s-39.5 -25 -63.5 -25c-24.667 0 -45.334 7.16699 -62.001 21.5s-25 33.5 -25 57.5zM360.001 841c-14.667 0 -26.5 -6 -35.5 -18s-13.5 -25.667 -13.5 -41
c0 -16 5.5 -30 16.5 -42s23.833 -18 38.5 -18c15.333 0 27 6.16699 35 18.5s12 26.5 12 42.5c0 15.333 -5.16699 28.833 -15.5 40.5s-22.833 17.5 -37.5 17.5z" />
    <glyph glyph-name="AE" unicode="&#xc6;" horiz-adv-x="866" 
d="M475 648l301.003 4.99805h8c11.333 0 17.333 -3 18 -9c7.33301 -39.333 11.333 -73.666 12 -102.999c0 -6 -3.66699 -9 -11 -9s-12 3.33301 -14 10c-8 24 -17.833 42.667 -29.5 56s-31.834 20 -60.501 20h-131c-7.33301 0 -15 -2.33301 -23 -7s-12 -11 -12 -19v-238
c0 -6 1.66699 -11.167 5 -15.5s7.33301 -6.5 12 -6.5c32 0 61.333 0.833008 88 2.5s44 5.83398 52 12.501c7.33301 7.33301 12.333 13.666 15 18.999c2.66699 6 6.16699 11.167 10.5 15.5s7.83301 6.5 10.5 6.5c2 0 4.66699 -1.66699 8 -5c2 -2 3 -7.33301 3 -16v-9
c-0.666992 -6.66699 -1.16699 -14 -1.5 -22s-0.5 -16.333 -0.5 -25c0 -18 1 -41.667 3 -71c0 -11.333 -3 -17 -9 -17c-10 0 -17.667 7.66699 -23 23c-6 18.667 -17 30.167 -33 34.5s-36.667 6.5 -62 6.5h-55c-15.333 0 -23 -7.66699 -23 -23v-153
c0 -20.667 5.5 -38.5 16.5 -53.5s27.167 -22.5 48.5 -22.5h104c4 0 11.333 1 22 3s21.5 4.33301 32.5 7s18.167 5.33398 21.5 8.00098c13.333 10 27.333 31 42 63c4 6.66699 9 10 15 10c8 0 12 -3.66699 12 -11c0 -12.667 -1.5 -27.5 -4.5 -44.5s-7.16699 -36.5 -12.5 -58.5
c-3.33301 -11.333 -8 -17 -14 -17l-304 6h-20l-115 -6c-19.333 0 -29 4 -29 12c0 7.33301 12 13.333 36 18c23.333 4 40.833 11.333 52.5 22s17.5 27 17.5 49v171c0 6 -1.33301 10.5 -4 13.5s-8.66699 4.5 -18 4.5h-141c-12 0 -22 -7.66699 -30 -23l-38.5 -68.5l-43.5 -81.5
c-6 -10.667 -9 -20.667 -9 -30c0 -23.333 21.667 -40.666 65 -51.999c22 -6 33 -12.667 33 -20s-9.66699 -11 -29 -11l-89 2l-126 -6c-19.333 0 -29 4 -29 12c0 7.33301 9.66699 14 29 20c19.333 5.33301 38.666 17.166 57.999 35.499s36 39.5 50 63.5l273 468
c2.66699 4 2.16699 7.66699 -1.5 11s-8.83398 5.33301 -15.501 6l-88 15c-6.66699 2.66699 -10 7.66699 -10 15c0 6.66699 3.33301 10 10 10zM302.003 342.998c-2.66699 -4.66699 -4 -8.33203 -4 -10.999s5.33301 -4 16 -4h124c8 0 12.667 0.666992 14 2s2 5.66602 2 12.999
v237c0 12 -1 18 -3 18c-2.66699 0 -7 -5.66699 -13 -17z" />
    <glyph glyph-name="Ccedilla" unicode="&#xc7;" horiz-adv-x="640" 
d="M528 2c-38 -11.333 -91.0078 -17.001 -159.008 -17.001c-44.667 0 -86.667 8.83301 -126 26.5s-73.666 42.167 -102.999 73.5s-52.333 67.666 -69 108.999s-25 85.333 -25 132s9.66699 90.334 29 131.001s45.833 76.5 79.5 107.5s72.334 55.167 116.001 72.5
s90.167 26 139.5 26c46.667 0 82 -4 106 -12s49.333 -14 76 -18c5.33301 0 9.33301 -6.66699 12 -20s4.83398 -29 6.50098 -47s2.5 -34 2.5 -48v-17v-14c0 -4 -0.333008 -7 -1 -9c-2 -5.33301 -5.33301 -7.66602 -10 -6.99902c-13.333 1.33301 -22 13.666 -26 36.999
c-4 30 -15.667 54.333 -35 73c-34 34 -84.667 51 -152 51c-34 0 -65.667 -7.66699 -95 -23s-55.166 -36.166 -77.499 -62.499s-39.666 -56.666 -51.999 -90.999s-18.5 -70.5 -18.5 -108.5c0 -55.333 10 -108 30 -158s50 -91.333 90 -124
c38.667 -32.667 83.334 -49 134.001 -49c83.333 0 145.333 40.333 186 121c3.33301 5.33301 8 9.66602 14 12.999c6 2.66699 9.66699 4.66699 11 6c0.666992 0.666992 1.33398 1 2.00098 1c4.66699 0 7 -6.33301 7 -19c-6 -50 -17.333 -87.333 -34 -112
c-3.33301 -5.33301 -22.666 -13.333 -57.999 -24zM351.992 -132.001c-8 0 -14.335 2 -19.002 6s-7 8 -7 12c0 4.66699 2 9.33398 6 14.001l80 108h31l-41 -62c-4.66699 -6 0.333008 -12 15 -18c14 -6 27.667 -16.667 41 -32s20 -33.666 20 -54.999
c0 -20.667 -7.16699 -39.834 -21.5 -57.501s-31.666 -31.834 -51.999 -42.501s-39.833 -16 -58.5 -16c-28 0 -42 10.667 -42 32c0 22.667 5.33301 34 16 34c1.33301 0 4 -1 8 -3c10.667 -6.66699 25.334 -10 44.001 -10c35.333 0 53 13 53 39c0 14 -3.83301 26.5 -11.5 37.5
s-19.5 16.5 -35.5 16.5z" />
    <glyph glyph-name="Egrave" unicode="&#xc8;" horiz-adv-x="535" 
d="M167 1l-115 -6c-19.333 0 -29 4 -29 12c0 7.33301 12 13.333 36 18c24 4 41.833 11.5 53.5 22.5s17.5 28.167 17.5 51.5v450c0 23.333 -4.83301 40.166 -14.5 50.499s-26.167 17.833 -49.5 22.5c-24 4 -36 10.667 -36 20c0 7.33301 9.66699 11 29 11l177 -3l222 3
c11.333 0 17.333 -3 18 -9c10 -54 15 -87 15 -99c0 -12.667 -4.66699 -19 -14 -19c-5.33301 0 -9 3.33301 -11 10c-6.66699 21.333 -13.167 37.833 -19.5 49.5s-14.666 20 -24.999 25s-25.166 7.5 -44.499 7.5h-131c-6.66699 0 -14.334 -3.16699 -23.001 -9.5
s-13 -13.833 -13 -22.5v-212c0 -6 1.83301 -11.167 5.5 -15.5s7.83398 -6.5 12.501 -6.5h96c30 0 50.333 13 61 39c1.33301 2.66699 4.16602 6.16699 8.49902 10.5s7.83301 6.5 10.5 6.5c2 0 4.5 -1.5 7.5 -4.5s4.5 -6.83301 4.5 -11.5l-3 -55l2 -68
c0 -11.333 -3 -17 -9 -17c-10 0 -17.667 7.66699 -23 23c-10 30 -25.333 45 -46 45h-93c-12.667 0 -21.5 -1.66699 -26.5 -5s-7.5 -10.333 -7.5 -21v-192c0 -24.667 5.16699 -42 15.5 -52s27.166 -15 50.499 -15h104c24 0 42.667 2.33301 56 7s24.5 12.834 33.5 24.501
s18.5 28.167 28.5 49.5c4 6.66699 9 10 15 10c8 0 12 -3.66699 12 -11c0 -13.333 -1.5 -28.5 -4.5 -45.5s-7.16699 -36.167 -12.5 -57.5c-3.33301 -11.333 -8 -17 -14 -17zM326 703c0 -4 -2.00098 -5.99902 -6.00098 -5.99902s-10 3 -18 9l-75 57.5l-55 44.5
c-8.66699 8 -13 14.667 -13 20c0 4 3.5 7.66699 10.5 11s15.333 6 25 8s17.834 3 24.501 3c10.667 0 19 -4.33301 25 -13c54.667 -78.667 82 -123.334 82 -134.001z" />
    <glyph glyph-name="Eacute" unicode="&#xc9;" horiz-adv-x="535" 
d="M167 1l-115 -6c-19.333 0 -29 4 -29 12c0 7.33301 12 13.333 36 18c24 4 41.833 11.5 53.5 22.5s17.5 28.167 17.5 51.5v450c0 23.333 -4.83301 40.166 -14.5 50.499s-26.167 17.833 -49.5 22.5c-24 4 -36 10.667 -36 20c0 7.33301 9.66699 11 29 11l177 -3l222 3
c11.333 0 17.333 -3 18 -9c10 -54 15 -87 15 -99c0 -12.667 -4.66699 -19 -14 -19c-5.33301 0 -9 3.33301 -11 10c-6.66699 21.333 -13.167 37.833 -19.5 49.5s-14.666 20 -24.999 25s-25.166 7.5 -44.499 7.5h-131c-6.66699 0 -14.334 -3.16699 -23.001 -9.5
s-13 -13.833 -13 -22.5v-212c0 -6 1.83301 -11.167 5.5 -15.5s7.83398 -6.5 12.501 -6.5h96c30 0 50.333 13 61 39c1.33301 2.66699 4.16602 6.16699 8.49902 10.5s7.83301 6.5 10.5 6.5c2 0 4.5 -1.5 7.5 -4.5s4.5 -6.83301 4.5 -11.5l-3 -55l2 -68
c0 -11.333 -3 -17 -9 -17c-10 0 -17.667 7.66699 -23 23c-10 30 -25.333 45 -46 45h-93c-12.667 0 -21.5 -1.66699 -26.5 -5s-7.5 -10.333 -7.5 -21v-192c0 -24.667 5.16699 -42 15.5 -52s27.166 -15 50.499 -15h104c24 0 42.667 2.33301 56 7s24.5 12.834 33.5 24.501
s18.5 28.167 28.5 49.5c4 6.66699 9 10 15 10c8 0 12 -3.66699 12 -11c0 -13.333 -1.5 -28.5 -4.5 -45.5s-7.16699 -36.167 -12.5 -57.5c-3.33301 -11.333 -8 -17 -14 -17zM272 706c-8 -6 -13.998 -9 -17.998 -9s-6 2.33301 -6 7c0 10 27.333 54.333 82 133
c6 8.66699 14.333 13 25 13c7.33301 0 15.666 -1 24.999 -3s17.5 -4.66699 24.5 -8s10.5 -7 10.5 -11c0 -5.33301 -4.33301 -12 -13 -20c-14.667 -12.667 -32.834 -27.5 -54.501 -44.5z" />
    <glyph glyph-name="Ecircumflex" unicode="&#xca;" horiz-adv-x="535" 
d="M277 757l-41.502 -21.5c-17.667 -9 -34.5 -16.833 -50.5 -23.5s-26.667 -10 -32 -10c-8 0 -12 3.33301 -12 10c0 4 2.33301 8 7 12l98 88c16.667 14.667 30.334 22 41.001 22s24.334 -7.33301 41.001 -22l98 -88c4 -2.66699 6 -6.66699 6 -12
c0 -7.33301 -3.66699 -11 -11 -11c-4 0 -11.167 2 -21.5 6s-21.833 9 -34.5 15l-35.5 17.5l-25.5 13.5c-6.66699 4 -12.667 6 -18 6c-4 0 -7 -0.666992 -9 -2zM412.998 337l2 -68c0 -11.333 -3 -17 -9 -17c-10 0 -17.667 7.66699 -23 23c-10 30 -25.333 45 -46 45h-93
c-12.667 0 -21.5 -1.66699 -26.5 -5s-7.5 -10.333 -7.5 -21v-192c0 -24.667 5.16699 -42 15.5 -52s27.166 -15 50.499 -15h104c24 0 42.667 2.33301 56 7s24.5 12.834 33.5 24.501s18.5 28.167 28.5 49.5c4 6.66699 9 10 15 10c8 0 12 -3.66699 12 -11
c0 -13.333 -1.5 -28.5 -4.5 -45.5s-7.16699 -36.167 -12.5 -57.5c-3.33301 -11.333 -8 -17 -14 -17l-327 6l-115 -6c-19.333 0 -29 4 -29 12c0 7.33301 12 13.333 36 18c24 4 41.833 11.5 53.5 22.5s17.5 28.167 17.5 51.5v450c0 23.333 -4.83301 40.166 -14.5 50.499
s-26.167 17.833 -49.5 22.5c-24 4 -36 10.667 -36 20c0 7.33301 9.66699 11 29 11l177 -3l222 3c11.333 0 17.333 -3 18 -9c10 -54 15 -87 15 -99c0 -12.667 -4.66699 -19 -14 -19c-5.33301 0 -9 3.33301 -11 10c-6.66699 21.333 -13.167 37.833 -19.5 49.5
s-14.666 20 -24.999 25s-25.166 7.5 -44.499 7.5h-131c-6.66699 0 -14.334 -3.16699 -23.001 -9.5s-13 -13.833 -13 -22.5v-212c0 -6 1.83301 -11.167 5.5 -15.5s7.83398 -6.5 12.501 -6.5h96c30 0 50.333 13 61 39c1.33301 2.66699 4.16602 6.16699 8.49902 10.5
s7.83301 6.5 10.5 6.5c2 0 4.5 -1.5 7.5 -4.5s4.5 -6.83301 4.5 -11.5z" />
    <glyph glyph-name="Edieresis" unicode="&#xcb;" horiz-adv-x="535" 
d="M349 788c9.33301 9.33301 21 14 35 14s25.833 -4.83301 35.5 -14.5s14.5 -21.5 14.5 -35.5s-4.83301 -25.833 -14.5 -35.5s-21.5 -14.5 -35.5 -14.5s-25.833 4.83301 -35.5 14.5s-14.5 21.5 -14.5 35.5s5 26 15 36zM154 788c9.33301 9.33301 21 14 35 14
s25.833 -4.83301 35.5 -14.5s14.5 -21.5 14.5 -35.5s-4.83301 -25.833 -14.5 -35.5s-21.5 -14.5 -35.5 -14.5s-25.833 4.83301 -35.5 14.5s-14.5 21.5 -14.5 35.5s5 26 15 36zM413 337l2 -68c0 -11.333 -3 -17 -9 -17c-10 0 -17.667 7.66699 -23 23
c-10 30 -25.333 45 -46 45h-93c-12.667 0 -21.5 -1.66699 -26.5 -5s-7.5 -10.333 -7.5 -21v-192c0 -24.667 5.16699 -42 15.5 -52s27.166 -15 50.499 -15h104c24 0 42.667 2.33301 56 7s24.5 12.834 33.5 24.501s18.5 28.167 28.5 49.5c4 6.66699 9 10 15 10
c8 0 12 -3.66699 12 -11c0 -13.333 -1.5 -28.5 -4.5 -45.5s-7.16699 -36.167 -12.5 -57.5c-3.33301 -11.333 -8 -17 -14 -17l-327 6l-115 -6c-19.333 0 -29 4 -29 12c0 7.33301 12 13.333 36 18c24 4 41.833 11.5 53.5 22.5s17.5 28.167 17.5 51.5v450
c0 23.333 -4.83301 40.166 -14.5 50.499s-26.167 17.833 -49.5 22.5c-24 4 -36 10.667 -36 20c0 7.33301 9.66699 11 29 11l177 -3l222 3c11.333 0 17.333 -3 18 -9c10 -54 15 -87 15 -99c0 -12.667 -4.66699 -19 -14 -19c-5.33301 0 -9 3.33301 -11 10
c-6.66699 21.333 -13.167 37.833 -19.5 49.5s-14.666 20 -24.999 25s-25.166 7.5 -44.499 7.5h-131c-6.66699 0 -14.334 -3.16699 -23.001 -9.5s-13 -13.833 -13 -22.5v-212c0 -6 1.83301 -11.167 5.5 -15.5s7.83398 -6.5 12.501 -6.5h96c30 0 50.333 13 61 39
c1.33301 2.66699 4.16602 6.16699 8.49902 10.5s7.83301 6.5 10.5 6.5c2 0 4.5 -1.5 7.5 -4.5s4.5 -6.83301 4.5 -11.5z" />
    <glyph glyph-name="Igrave" unicode="&#xcc;" horiz-adv-x="340" 
d="M219 703c0 -4 -2.00098 -5.99902 -6.00098 -5.99902s-10 3 -18 9l-75 57.5l-55 44.5c-8.66699 8 -13 14.667 -13 20c0 4 3.5 7.66699 10.5 11s15.333 6 25 8s17.834 3 24.501 3c10.667 0 19 -4.33301 25 -13c54.667 -78.667 82 -123.334 82 -134.001z
M175.999 0.000976562l-128 -5c-19.333 0 -29 4 -29 12c0 7.33301 12.333 13.333 37 18c24 4 42.333 11.5 55 22.5s19 27.833 19 50.5v452c0 23.333 -4.83301 40 -14.5 50s-26.167 17.333 -49.5 22c-24 4 -36 10.667 -36 20c0 7.33301 9.66699 11 29 11l117 -3l109 3
c19.333 0 29 -3.66699 29 -11c0 -9.33301 -12 -16 -36 -20c-24 -4.66699 -41.333 -12.167 -52 -22.5s-16 -26.833 -16 -49.5v-452c0 -22.667 6.5 -39.5 19.5 -50.5s31.833 -18.5 56.5 -22.5c24 -4.66699 36 -10.667 36 -18c0 -8 -9.66699 -12 -29 -12z" />
    <glyph glyph-name="Iacute" unicode="&#xcd;" horiz-adv-x="340" 
d="M167 706c-8 -6 -13.998 -9 -17.998 -9s-6 2.33301 -6 7c0 10 27.333 54.333 82 133c6 8.66699 14.333 13 25 13c7.33301 0 15.666 -1 24.999 -3s17.5 -4.66699 24.5 -8s10.5 -7 10.5 -11c0 -5.33301 -4.33301 -12 -13 -20c-14.667 -12.667 -32.834 -27.5 -54.501 -44.5z
M176.002 0l-128 -5c-19.333 0 -29 4 -29 12c0 7.33301 12.333 13.333 37 18c24 4 42.333 11.5 55 22.5s19 27.833 19 50.5v452c0 23.333 -4.83301 40 -14.5 50s-26.167 17.333 -49.5 22c-24 4 -36 10.667 -36 20c0 7.33301 9.66699 11 29 11l117 -3l109 3
c19.333 0 29 -3.66699 29 -11c0 -9.33301 -12 -16 -36 -20c-24 -4.66699 -41.333 -12.167 -52 -22.5s-16 -26.833 -16 -49.5v-452c0 -22.667 6.5 -39.5 19.5 -50.5s31.833 -18.5 56.5 -22.5c24 -4.66699 36 -10.667 36 -18c0 -8 -9.66699 -12 -29 -12z" />
    <glyph glyph-name="Icircumflex" unicode="&#xce;" horiz-adv-x="340" 
d="M171 756l-41.502 -21.5c-17.667 -9 -34.5 -16.833 -50.5 -23.5s-26.667 -10 -32 -10c-8 0 -12 3.33301 -12 10c0 4 2.33301 8 7 12l98 88c16.667 14.667 30.334 22 41.001 22s24.334 -7.33301 41.001 -22l98 -88c4 -2.66699 6 -6.66699 6 -12
c0 -7.33301 -3.66699 -11 -11 -11c-4 0 -11.167 2 -21.5 6s-21.833 9 -34.5 15l-35.5 17.5l-25.5 13.5c-6.66699 4 -12.667 6 -18 6c-4 0 -7 -0.666992 -9 -2zM175.998 0l-128 -5c-19.333 0 -29 4 -29 12c0 7.33301 12.333 13.333 37 18c24 4 42.333 11.5 55 22.5
s19 27.833 19 50.5v452c0 23.333 -4.83301 40 -14.5 50s-26.167 17.333 -49.5 22c-24 4 -36 10.667 -36 20c0 7.33301 9.66699 11 29 11l117 -3l109 3c19.333 0 29 -3.66699 29 -11c0 -9.33301 -12 -16 -36 -20c-24 -4.66699 -41.333 -12.167 -52 -22.5
s-16 -26.833 -16 -49.5v-452c0 -22.667 6.5 -39.5 19.5 -50.5s31.833 -18.5 56.5 -22.5c24 -4.66699 36 -10.667 36 -18c0 -8 -9.66699 -12 -29 -12z" />
    <glyph glyph-name="Idieresis" unicode="&#xcf;" horiz-adv-x="340" 
d="M243 787c9.33301 9.33301 21 14 35 14s25.833 -4.83301 35.5 -14.5s14.5 -21.5 14.5 -35.5s-4.83301 -25.833 -14.5 -35.5s-21.5 -14.5 -35.5 -14.5s-25.833 4.83301 -35.5 14.5s-14.5 21.5 -14.5 35.5s5 26 15 36zM48 787c9.33301 9.33301 21 14 35 14
s25.833 -4.83301 35.5 -14.5s14.5 -21.5 14.5 -35.5s-4.83301 -25.833 -14.5 -35.5s-21.5 -14.5 -35.5 -14.5s-25.833 4.83301 -35.5 14.5s-14.5 21.5 -14.5 35.5s5 26 15 36zM176 0l-128 -5c-19.333 0 -29 4 -29 12c0 7.33301 12.333 13.333 37 18
c24 4 42.333 11.5 55 22.5s19 27.833 19 50.5v452c0 23.333 -4.83301 40 -14.5 50s-26.167 17.333 -49.5 22c-24 4 -36 10.667 -36 20c0 7.33301 9.66699 11 29 11l117 -3l109 3c19.333 0 29 -3.66699 29 -11c0 -9.33301 -12 -16 -36 -20
c-24 -4.66699 -41.333 -12.167 -52 -22.5s-16 -26.833 -16 -49.5v-452c0 -22.667 6.5 -39.5 19.5 -50.5s31.833 -18.5 56.5 -22.5c24 -4.66699 36 -10.667 36 -18c0 -8 -9.66699 -12 -29 -12z" />
    <glyph glyph-name="Eth" unicode="&#xd0;" horiz-adv-x="754" 
d="M169 651l170.999 8c86.667 0 156.667 -12.667 210 -38s92.333 -61.666 117 -108.999s37 -104 37 -170c0 -49.333 -8.33301 -95.166 -25 -137.499s-40.167 -79.333 -70.5 -111s-65.666 -56.334 -105.999 -74.001s-84.166 -26.5 -131.499 -26.5
c-0.666992 0 -7.83398 0.333008 -21.501 1l-60.5 3c-52.667 2 -94.667 3 -126 3l-105 -5c-19.333 0 -29 4 -29 12c0 7.33301 12 13.333 36 18c23.333 4 39.833 11.333 49.5 22s14.5 28 14.5 52v218h-69c-4 0 -7.33301 2 -10 6s-4 8.33301 -4 13c0 4 2.5 7.83301 7.5 11.5
s10.5 5.5 16.5 5.5h59v196c0 23.333 -4.83301 40.166 -14.5 50.499s-26.167 17.833 -49.5 22.5c-24 4 -36 10.667 -36 20c0 7.33301 9.66699 11 29 11l104 -2h7zM375.999 30c32.667 0 62.501 7.33398 89.501 22.001s50.667 34.667 71 60s36.166 53.666 47.499 84.999
c16.667 46 25 95.667 25 149s-11.167 101.333 -33.5 144s-53.333 76.334 -93 101.001s-85.5 37 -137.5 37c-62 0 -99.667 -4.66699 -113 -14c-14.667 -10 -22 -25.667 -22 -47v-214h167c3.33301 0 6.5 -1.16699 9.5 -3.5s4.5 -4.83301 4.5 -7.5l-1 -1v-2
c-8 -14.667 -18.333 -22 -31 -22h-149v-196c0 -18.667 2.83301 -32.834 8.5 -42.501s16.5 -20.5 32.5 -32.5c15.333 -12 37.333 -18 66 -18z" />
    <glyph glyph-name="Ntilde" unicode="&#xd1;" horiz-adv-x="770" 
d="M476 790c12.667 0 25.666 6.66699 38.999 20c12 12.667 19 19 21 19c11.333 0 17 -6.66699 17 -20c0 -9.33301 -4.33301 -20.5 -13 -33.5s-19.5 -24.333 -32.5 -34s-25.5 -14.5 -37.5 -14.5l-121 9c-13.333 0 -25.666 -6.66699 -36.999 -20c-12 -14 -18.667 -21 -20 -21
c-4.66699 0 -9 1.66699 -13 5s-6 7.33301 -6 12c0 12 4.83301 24.833 14.5 38.5s21.167 25.5 34.5 35.5s26 15 38 15zM178.999 653c6.66699 0 14.668 -5.66406 24.001 -16.9971l25 -32l53.5 -68l70.5 -89l76.5 -96.5l71.5 -90l55.5 -69l27.5 -33.5c12 -14.667 21 -22 27 -22
c5.33301 0 8.33301 7 9 21c0.666992 21.333 1.16699 58.666 1.5 111.999s0.5 122.666 0.5 207.999v87c-0.666992 12 -7.33398 23.833 -20.001 35.5s-27.667 18.834 -45 21.501c-17.333 3.33301 -26 9.33301 -26 18c0 7.33301 9.66699 11 29 11h57l115 3
c19.333 0 29 -3.66699 29 -11c0 -9.33301 -11.667 -16 -35 -20c-23.333 -4.66699 -39 -10.667 -47 -18s-12.667 -23 -14 -47c-0.666992 -12.667 -1.16699 -64.667 -1.5 -156s-0.5 -222.333 -0.5 -393c0 -16.667 -7 -25 -21 -25c-6.66699 0 -18.334 5.66699 -35.001 17
s-32.667 28 -48 50c-8.66699 11.333 -42.5 53.166 -101.5 125.499l-252.5 308.5c-8.66699 10.667 -15.667 16 -21 16c-6 0 -9 -7 -9 -21l-3.5 -217.5c-1 -62.333 -1.5 -114.833 -1.5 -157.5c0 -45.333 21.333 -72 64 -80c22 -4 33 -9.66699 33 -17
c0 -8 -9.66699 -12 -29 -12l-94 5l-91 -5c-19.333 0 -29 4 -29 12c0 7.33301 9.66699 12.666 29 15.999c12.667 2.66699 23.334 9 32.001 19s15.5 21.167 20.5 33.5s8.16699 22.833 9.5 31.5c12 100 18 233.333 18 400c0 32.667 -8 57 -24 73s-37.667 28.333 -65 37
c-27.333 9.33301 -41 18.333 -41 27c0 9.33301 7.66699 14 23 14z" />
    <glyph glyph-name="Ograve" unicode="&#xd2;" horiz-adv-x="763" 
d="M421 703c0 -4 -2.00098 -5.99902 -6.00098 -5.99902s-10 3 -18 9l-75 57.5l-55 44.5c-8.66699 8 -13 14.667 -13 20c0 4 3.5 7.66699 10.5 11s15.333 6 25 8s17.834 3 24.501 3c10.667 0 19 -4.33301 25 -13c54.667 -78.667 82 -123.334 82 -134.001zM44.999 320.001
c0 62 12.8311 118.5 38.498 169.5s65.167 92.833 118.5 125.5c52.667 32.667 115.334 49 188.001 49c44.667 0 86.834 -8 126.501 -24s74.5 -38.833 104.5 -68.5s53.667 -64.5 71 -104.5s26 -84 26 -132c0 -94 -28.667 -174.667 -86 -242
c-27.333 -32.667 -62.666 -58.667 -105.999 -78s-91.333 -29 -144 -29c-44.667 0 -87.334 8.5 -128.001 25.5s-76.667 40.833 -108 71.5s-56 66.167 -74 106.5s-27 83.833 -27 130.5zM620.997 313.001c0 61.333 -9.66797 115.501 -29.001 162.501s-46.833 83.667 -82.5 110
s-78.5 39.5 -128.5 39.5c-49.333 0 -92 -12.5 -128 -37.5s-63.5 -59 -82.5 -102s-28.5 -91.5 -28.5 -145.5c0 -40.667 6.33301 -79.834 19 -117.501s30.5 -71.334 53.5 -101.001s50 -53.167 81 -70.5s64.5 -26 100.5 -26c72.667 0 128.334 24.833 167.001 74.5
s58 120.834 58 213.501z" />
    <glyph glyph-name="Oacute" unicode="&#xd3;" horiz-adv-x="763" 
d="M369 706c-8 -6 -13.998 -9 -17.998 -9s-6 2.33301 -6 7c0 10 27.333 54.333 82 133c6 8.66699 14.333 13 25 13c7.33301 0 15.666 -1 24.999 -3s17.5 -4.66699 24.5 -8s10.5 -7 10.5 -11c0 -5.33301 -4.33301 -12 -13 -20c-14.667 -12.667 -32.834 -27.5 -54.501 -44.5z
M45.002 320c0 62 12.8311 118.5 38.498 169.5s65.167 92.833 118.5 125.5c52.667 32.667 115.334 49 188.001 49c44.667 0 86.834 -8 126.501 -24s74.5 -38.833 104.5 -68.5s53.667 -64.5 71 -104.5s26 -84 26 -132c0 -94 -28.667 -174.667 -86 -242
c-27.333 -32.667 -62.666 -58.667 -105.999 -78s-91.333 -29 -144 -29c-44.667 0 -87.334 8.5 -128.001 25.5s-76.667 40.833 -108 71.5s-56 66.167 -74 106.5s-27 83.833 -27 130.5zM621 313c0 61.333 -9.66797 115.501 -29.001 162.501s-46.833 83.667 -82.5 110
s-78.5 39.5 -128.5 39.5c-49.333 0 -92 -12.5 -128 -37.5s-63.5 -59 -82.5 -102s-28.5 -91.5 -28.5 -145.5c0 -40.667 6.33301 -79.834 19 -117.501s30.5 -71.334 53.5 -101.001s50 -53.167 81 -70.5s64.5 -26 100.5 -26c72.667 0 128.334 24.833 167.001 74.5
s58 120.834 58 213.501z" />
    <glyph glyph-name="Ocircumflex" unicode="&#xd4;" horiz-adv-x="763" 
d="M373 756l-41.502 -21.5c-17.667 -9 -34.5 -16.833 -50.5 -23.5s-26.667 -10 -32 -10c-8 0 -12 3.33301 -12 10c0 4 2.33301 8 7 12l98 88c16.667 14.667 30.334 22 41.001 22s24.334 -7.33301 41.001 -22l98 -88c4 -2.66699 6 -6.66699 6 -12
c0 -7.33301 -3.66699 -11 -11 -11c-4 0 -11.167 2 -21.5 6s-21.833 9 -34.5 15l-35.5 17.5l-25.5 13.5c-6.66699 4 -12.667 6 -18 6c-4 0 -7 -0.666992 -9 -2zM44.998 320c0 62 12.8311 118.5 38.498 169.5s65.167 92.833 118.5 125.5c52.667 32.667 115.334 49 188.001 49
c44.667 0 86.834 -8 126.501 -24s74.5 -38.833 104.5 -68.5s53.667 -64.5 71 -104.5s26 -84 26 -132c0 -94 -28.667 -174.667 -86 -242c-27.333 -32.667 -62.666 -58.667 -105.999 -78s-91.333 -29 -144 -29c-44.667 0 -87.334 8.5 -128.001 25.5s-76.667 40.833 -108 71.5
s-56 66.167 -74 106.5s-27 83.833 -27 130.5zM620.996 313c0 61.333 -9.66797 115.501 -29.001 162.501s-46.833 83.667 -82.5 110s-78.5 39.5 -128.5 39.5c-49.333 0 -92 -12.5 -128 -37.5s-63.5 -59 -82.5 -102s-28.5 -91.5 -28.5 -145.5
c0 -40.667 6.33301 -79.834 19 -117.501s30.5 -71.334 53.5 -101.001s50 -53.167 81 -70.5s64.5 -26 100.5 -26c72.667 0 128.334 24.833 167.001 74.5s58 120.834 58 213.501z" />
    <glyph glyph-name="Otilde" unicode="&#xd5;" horiz-adv-x="763" 
d="M448 790c12.667 0 25.666 6.66699 38.999 20c12 12.667 19 19 21 19c11.333 0 17 -6.66699 17 -20c0 -9.33301 -4.33301 -20.5 -13 -33.5s-19.5 -24.333 -32.5 -34s-25.5 -14.5 -37.5 -14.5l-121 9c-13.333 0 -25.666 -6.66699 -36.999 -20c-12 -14 -18.667 -21 -20 -21
c-4.66699 0 -9 1.66699 -13 5s-6 7.33301 -6 12c0 12 4.83301 24.833 14.5 38.5s21.167 25.5 34.5 35.5s26 15 38 15zM44.999 320c0 62 12.8311 118.5 38.498 169.5s65.167 92.833 118.5 125.5c52.667 32.667 115.334 49 188.001 49c44.667 0 86.834 -8 126.501 -24
s74.5 -38.833 104.5 -68.5s53.667 -64.5 71 -104.5s26 -84 26 -132c0 -94 -28.667 -174.667 -86 -242c-27.333 -32.667 -62.666 -58.667 -105.999 -78s-91.333 -29 -144 -29c-44.667 0 -87.334 8.5 -128.001 25.5s-76.667 40.833 -108 71.5s-56 66.167 -74 106.5
s-27 83.833 -27 130.5zM620.997 313c0 61.333 -9.66797 115.501 -29.001 162.501s-46.833 83.667 -82.5 110s-78.5 39.5 -128.5 39.5c-49.333 0 -92 -12.5 -128 -37.5s-63.5 -59 -82.5 -102s-28.5 -91.5 -28.5 -145.5c0 -40.667 6.33301 -79.834 19 -117.501
s30.5 -71.334 53.5 -101.001s50 -53.167 81 -70.5s64.5 -26 100.5 -26c72.667 0 128.334 24.833 167.001 74.5s58 120.834 58 213.501z" />
    <glyph glyph-name="Odieresis" unicode="&#xd6;" horiz-adv-x="763" 
d="M445 787c9.33301 9.33301 21 14 35 14s25.833 -4.83301 35.5 -14.5s14.5 -21.5 14.5 -35.5s-4.83301 -25.833 -14.5 -35.5s-21.5 -14.5 -35.5 -14.5s-25.833 4.83301 -35.5 14.5s-14.5 21.5 -14.5 35.5s5 26 15 36zM250 787c9.33301 9.33301 21 14 35 14
s25.833 -4.83301 35.5 -14.5s14.5 -21.5 14.5 -35.5s-4.83301 -25.833 -14.5 -35.5s-21.5 -14.5 -35.5 -14.5s-25.833 4.83301 -35.5 14.5s-14.5 21.5 -14.5 35.5s5 26 15 36zM45 320c0 62 12.8311 118.5 38.498 169.5s65.167 92.833 118.5 125.5
c52.667 32.667 115.334 49 188.001 49c44.667 0 86.834 -8 126.501 -24s74.5 -38.833 104.5 -68.5s53.667 -64.5 71 -104.5s26 -84 26 -132c0 -94 -28.667 -174.667 -86 -242c-27.333 -32.667 -62.666 -58.667 -105.999 -78s-91.333 -29 -144 -29
c-44.667 0 -87.334 8.5 -128.001 25.5s-76.667 40.833 -108 71.5s-56 66.167 -74 106.5s-27 83.833 -27 130.5zM620.998 313c0 61.333 -9.66797 115.501 -29.001 162.501s-46.833 83.667 -82.5 110s-78.5 39.5 -128.5 39.5c-49.333 0 -92 -12.5 -128 -37.5
s-63.5 -59 -82.5 -102s-28.5 -91.5 -28.5 -145.5c0 -40.667 6.33301 -79.834 19 -117.501s30.5 -71.334 53.5 -101.001s50 -53.167 81 -70.5s64.5 -26 100.5 -26c72.667 0 128.334 24.833 167.001 74.5s58 120.834 58 213.501z" />
    <glyph glyph-name="multiply" unicode="&#xd7;" horiz-adv-x="600" 
d="M487 92c0 -6.66699 -3.33203 -14.833 -9.99902 -24.5s-12.667 -14.5 -18 -14.5s-9.33301 1.33301 -12 4l-149 150c-2.66699 2 -5 2 -7 0l-143 -143c-2.66699 -2.66699 -5.66699 -4 -9 -4c-4 0 -7 1 -9 3c-14.667 14.667 -22 26 -22 34s1.66699 13.667 5 17l134 134
c3.33301 3.33301 3 6.66602 -1 9.99902l-121 121c-3.33301 3.33301 -5 10 -5 20s5.33301 21.667 16 35c3.33301 3.33301 6.66602 5 9.99902 5s6.33301 -1.66699 9 -5l135 -135c2.66699 -2.66699 5 -3 7 -1l144 143c3.33301 3.33301 7 5 11 5c3.33301 0 6 -1.66699 8 -5
c11.333 -21.333 17 -34.666 17 -39.999s-2.33301 -10.333 -7 -15l-131 -131c-2 -2 -2 -3.66699 0 -5l143 -143c3.33301 -3.33301 5 -8.33301 5 -15z" />
    <glyph glyph-name="Oslash" unicode="&#xd8;" horiz-adv-x="773" 
d="M86 -11c-2 -2 -5.66992 -2.99609 -11.0029 -2.99609c-6 0 -11.833 2.16699 -17.5 6.5s-8.5 9.5 -8.5 15.5c0 5.33301 3.33301 11.333 10 18l75 74c-56 63.333 -84 136.666 -84 219.999c0 62 12.833 118.5 38.5 169.5s65.167 92.833 118.5 125.5
c52.667 32.667 115.334 49 188.001 49c86.667 0 161.334 -28.333 224.001 -85l80 79c2.66699 2.66699 6.33398 4 11.001 4c4 0 7.66699 -1.33301 11 -4s5 -7.33398 5 -14.001c0 -10.667 -2.33301 -18.334 -7 -23.001l-72 -72c50.667 -58.667 76 -130 76 -214
c0 -94.667 -28.333 -175.334 -85 -242.001c-28 -32.667 -63.667 -58.667 -107 -78s-91.333 -29 -144 -29c-82 0 -155.667 27.667 -221 83zM379.997 625.004c-46.667 0 -87.499 -12.6699 -122.499 -38.0029s-62.167 -58.666 -81.5 -99.999s-29 -86.666 -29 -135.999
c0 -73.333 14.667 -136.666 44 -189.999l377 368c-42.667 64 -105.334 96 -188.001 96zM215.998 123.001c50 -65.333 111.668 -98 185.001 -98c48.667 0 89.667 11.333 123 34s58.666 54.334 75.999 95.001s26 88 26 142c0 81.333 -12.333 146.666 -37 195.999z" />
    <glyph glyph-name="Ugrave" unicode="&#xd9;" horiz-adv-x="738" 
d="M428 703c0 -4 -2.00098 -5.99902 -6.00098 -5.99902s-10 3 -18 9l-75 57.5l-55 44.5c-8.66699 8 -13 14.667 -13 20c0 4 3.5 7.66699 10.5 11s15.333 6 25 8s17.834 3 24.501 3c10.667 0 19 -4.33301 25 -13c54.667 -78.667 82 -123.334 82 -134.001zM617.999 650.001
l80.9971 3.00098c19.333 0 29 -3.66699 29 -11c0 -8 -11 -14.667 -33 -20c-31.333 -6 -48 -31 -50 -75c-0.666992 -3.33301 -1.66699 -29.833 -3 -79.5s-3.66602 -122.167 -6.99902 -217.5c-1.33301 -51.333 -13.333 -97 -36 -137s-52.834 -71.167 -90.501 -93.5
s-80.5 -33.5 -128.5 -33.5c-94.667 0 -164.5 24.5 -209.5 73.5s-67.5 122.833 -67.5 221.5v266c0 40 -15.333 64.333 -46 73c-22 6 -33 13.333 -33 22c0 7.33301 9.66699 11 29 11l96 -3l80 2c19.333 0 29 -3.66699 29 -11c0 -6 -11 -12.667 -33 -20
c-9.33301 -2.66699 -18.666 -10.834 -27.999 -24.501s-14 -29.5 -14 -47.5v-296c0 -40 9.83301 -76.5 29.5 -109.5s46.334 -59.167 80.001 -78.5s70.834 -29 111.501 -29c61.333 0 108 23.167 140 69.5s48 109.833 48 190.5c0 20.667 -0.333008 48.834 -1 84.501
s-1.66699 79.167 -3 130.5c-1.33301 65.333 -15 101.666 -41 108.999c-22 6 -33 12.667 -33 20s9.66699 11 29 11z" />
    <glyph glyph-name="Uacute" unicode="&#xda;" horiz-adv-x="738" 
d="M376 706c-8 -6 -13.998 -9 -17.998 -9s-6 2.33301 -6 7c0 10 27.333 54.333 82 133c6 8.66699 14.333 13 25 13c7.33301 0 15.666 -1 24.999 -3s17.5 -4.66699 24.5 -8s10.5 -7 10.5 -11c0 -5.33301 -4.33301 -12 -13 -20c-14.667 -12.667 -32.834 -27.5 -54.501 -44.5z
M618.002 650l80.9971 3.00098c19.333 0 29 -3.66699 29 -11c0 -8 -11 -14.667 -33 -20c-31.333 -6 -48 -31 -50 -75c-0.666992 -3.33301 -1.66699 -29.833 -3 -79.5s-3.66602 -122.167 -6.99902 -217.5c-1.33301 -51.333 -13.333 -97 -36 -137
s-52.834 -71.167 -90.501 -93.5s-80.5 -33.5 -128.5 -33.5c-94.667 0 -164.5 24.5 -209.5 73.5s-67.5 122.833 -67.5 221.5v266c0 40 -15.333 64.333 -46 73c-22 6 -33 13.333 -33 22c0 7.33301 9.66699 11 29 11l96 -3l80 2c19.333 0 29 -3.66699 29 -11
c0 -6 -11 -12.667 -33 -20c-9.33301 -2.66699 -18.666 -10.834 -27.999 -24.501s-14 -29.5 -14 -47.5v-296c0 -40 9.83301 -76.5 29.5 -109.5s46.334 -59.167 80.001 -78.5s70.834 -29 111.501 -29c61.333 0 108 23.167 140 69.5s48 109.833 48 190.5
c0 20.667 -0.333008 48.834 -1 84.501s-1.66699 79.167 -3 130.5c-1.33301 65.333 -15 101.666 -41 108.999c-22 6 -33 12.667 -33 20s9.66699 11 29 11z" />
    <glyph glyph-name="Ucircumflex" unicode="&#xdb;" horiz-adv-x="738" 
d="M380 756l-41.502 -21.5c-17.667 -9 -34.5 -16.833 -50.5 -23.5s-26.667 -10 -32 -10c-8 0 -12 3.33301 -12 10c0 4 2.33301 8 7 12l98 88c16.667 14.667 30.334 22 41.001 22s24.334 -7.33301 41.001 -22l98 -88c4 -2.66699 6 -6.66699 6 -12
c0 -7.33301 -3.66699 -11 -11 -11c-4 0 -11.167 2 -21.5 6s-21.833 9 -34.5 15l-35.5 17.5l-25.5 13.5c-6.66699 4 -12.667 6 -18 6c-4 0 -7 -0.666992 -9 -2zM617.998 650l80.9971 3.00098c19.333 0 29 -3.66699 29 -11c0 -8 -11 -14.667 -33 -20
c-31.333 -6 -48 -31 -50 -75c-0.666992 -3.33301 -1.66699 -29.833 -3 -79.5s-3.66602 -122.167 -6.99902 -217.5c-1.33301 -51.333 -13.333 -97 -36 -137s-52.834 -71.167 -90.501 -93.5s-80.5 -33.5 -128.5 -33.5c-94.667 0 -164.5 24.5 -209.5 73.5
s-67.5 122.833 -67.5 221.5v266c0 40 -15.333 64.333 -46 73c-22 6 -33 13.333 -33 22c0 7.33301 9.66699 11 29 11l96 -3l80 2c19.333 0 29 -3.66699 29 -11c0 -6 -11 -12.667 -33 -20c-9.33301 -2.66699 -18.666 -10.834 -27.999 -24.501s-14 -29.5 -14 -47.5v-296
c0 -40 9.83301 -76.5 29.5 -109.5s46.334 -59.167 80.001 -78.5s70.834 -29 111.501 -29c61.333 0 108 23.167 140 69.5s48 109.833 48 190.5c0 20.667 -0.333008 48.834 -1 84.501s-1.66699 79.167 -3 130.5c-1.33301 65.333 -15 101.666 -41 108.999
c-22 6 -33 12.667 -33 20s9.66699 11 29 11z" />
    <glyph glyph-name="Udieresis" unicode="&#xdc;" horiz-adv-x="738" 
d="M452 787c9.33301 9.33301 21 14 35 14s25.833 -4.83301 35.5 -14.5s14.5 -21.5 14.5 -35.5s-4.83301 -25.833 -14.5 -35.5s-21.5 -14.5 -35.5 -14.5s-25.833 4.83301 -35.5 14.5s-14.5 21.5 -14.5 35.5s5 26 15 36zM257 787c9.33301 9.33301 21 14 35 14
s25.833 -4.83301 35.5 -14.5s14.5 -21.5 14.5 -35.5s-4.83301 -25.833 -14.5 -35.5s-21.5 -14.5 -35.5 -14.5s-25.833 4.83301 -35.5 14.5s-14.5 21.5 -14.5 35.5s5 26 15 36zM618 650l80.9971 3.00098c19.333 0 29 -3.66699 29 -11c0 -8 -11 -14.667 -33 -20
c-31.333 -6 -48 -31 -50 -75c-0.666992 -3.33301 -1.66699 -29.833 -3 -79.5s-3.66602 -122.167 -6.99902 -217.5c-1.33301 -51.333 -13.333 -97 -36 -137s-52.834 -71.167 -90.501 -93.5s-80.5 -33.5 -128.5 -33.5c-94.667 0 -164.5 24.5 -209.5 73.5
s-67.5 122.833 -67.5 221.5v266c0 40 -15.333 64.333 -46 73c-22 6 -33 13.333 -33 22c0 7.33301 9.66699 11 29 11l96 -3l80 2c19.333 0 29 -3.66699 29 -11c0 -6 -11 -12.667 -33 -20c-9.33301 -2.66699 -18.666 -10.834 -27.999 -24.501s-14 -29.5 -14 -47.5v-296
c0 -40 9.83301 -76.5 29.5 -109.5s46.334 -59.167 80.001 -78.5s70.834 -29 111.501 -29c61.333 0 108 23.167 140 69.5s48 109.833 48 190.5c0 20.667 -0.333008 48.834 -1 84.501s-1.66699 79.167 -3 130.5c-1.33301 65.333 -15 101.666 -41 108.999
c-22 6 -33 12.667 -33 20s9.66699 11 29 11z" />
    <glyph glyph-name="Yacute" unicode="&#xdd;" horiz-adv-x="578" 
d="M306 706c-8 -6 -13.998 -9 -17.998 -9s-6 2.33301 -6 7c0 10 27.333 54.333 82 133c6 8.66699 14.333 13 25 13c7.33301 0 15.666 -1 24.999 -3s17.5 -4.66699 24.5 -8s10.5 -7 10.5 -11c0 -5.33301 -4.33301 -12 -13 -20c-14.667 -12.667 -32.834 -27.5 -54.501 -44.5z
M310.002 0l-128 -5.00098c-19.333 0 -29 4 -29 12c0 7.33301 11 13 33 17c52 9.33301 78 37.333 78 84v148c0 20 -8.33301 44.667 -25 74l-117 192c-36.667 58 -66 90.667 -88 98c-22.667 6.66699 -34 14 -34 22c0 7.33301 9.66699 11 29 11l117 -3l80 2
c19.333 0 29 -3.66699 29 -11c0 -8 -10.667 -14.667 -32 -20c-22 -4.66699 -33 -13 -33 -25c0 -9.33301 4.33301 -21.333 13 -36l92 -165c15.333 -25.333 24.666 -38 27.999 -38c11.333 0 50.333 59 117 177c12 20 18 37 18 51c0 19.333 -13.667 31 -41 35
c-7.33301 1.33301 -14.666 4 -21.999 8s-11 8 -11 12c0 7.33301 9.66699 11 29 11l75 -1l104 3c19.333 0 29 -3.33301 29 -10c0 -7.33301 -17.667 -16 -53 -26c-16 -4.66699 -29.333 -13 -40 -25c-26.667 -28.667 -79.667 -110.667 -159 -246
c-8 -13.333 -13.667 -24.166 -17 -32.499s-5.5 -16.5 -6.5 -24.5s-1.5 -19 -1.5 -33v-148c0 -22.667 6.83301 -41.167 20.5 -55.5s32.5 -23.5 56.5 -27.5c23.333 -5.33301 35 -11.333 35 -18c0 -8 -9.66699 -12 -29 -12z" />
    <glyph glyph-name="Thorn" unicode="&#xde;" horiz-adv-x="559" 
d="M177 650l119 3.00195c19.333 0 29 -3.66699 29 -11c0 -9.33301 -12 -16 -36 -20c-24.667 -4.66699 -43.334 -12.334 -56.001 -23.001s-19 -27.334 -19 -50.001v-17c0 -13.333 2 -20 6 -20c0.666992 0 2 0.166992 4 0.5s4.66699 0.833008 8 1.5l11 3
c16.667 4.66699 40.667 7 72 7c38.667 0 73.334 -6.83301 104.001 -20.5s54.834 -33.667 72.501 -60s26.5 -58.5 26.5 -96.5c0 -16 -3.66699 -34.5 -11 -55.5s-16.833 -41.167 -28.5 -60.5s-24.834 -34.333 -39.501 -45c-14 -10.667 -31.5 -20 -52.5 -28s-43 -14 -66 -18
s-44.5 -6 -64.5 -6l-34 3c-5.33301 0 -8 -3 -8 -9v-32c0 -39.333 26.333 -63.333 79 -72c22 -4 33 -9.66699 33 -17c0 -8 -9.66699 -12 -29 -12l-117 5l-129 -5c-19.333 0 -29 4 -29 12c0 7.33301 12.333 13.333 37 18c24 4 42.5 11.667 55.5 23s19.5 28.333 19.5 51v450
c0 22 -3.66699 38.667 -11 50s-22.333 19 -45 23s-34 10.667 -34 20c0 7.33301 9.66699 11 29 11zM213 183.002c0 -4 3.00488 -7.66602 9.00488 -10.999c9.33301 -6 23.666 -9 42.999 -9c28 0 54.167 5.16699 78.5 15.5s44.166 28 59.499 53s23 59.5 23 103.5
c0 27.333 -5.5 52.833 -16.5 76.5s-26 42.834 -45 57.501s-40.833 22 -65.5 22h-10c-14.667 0 -26.334 -0.333008 -35.001 -1s-17.334 -3.33398 -26.001 -8.00098s-13.334 -11.334 -14.001 -20.001c-0.666992 -40 -1.16699 -73.5 -1.5 -100.5s-0.5 -47.5 -0.5 -61.5z" />
    <glyph glyph-name="germandbls" unicode="&#xdf;" horiz-adv-x="505" 
d="M126 2l-78.0029 -5.00098c-15.333 0 -23 3.33301 -23 10c0 6 7.66699 11.667 23 17c28 9.33301 42 24.333 42 45v281c-10.667 0 -20.167 0.166992 -28.5 0.5s-16.166 0.833008 -23.499 1.5c-2 0.666992 -4.33301 2.83398 -7 6.50098s-4 7.16699 -4 10.5
c0 4 1.33301 6.33301 4 7c14.667 4 34.334 12.667 59.001 26c0 54.667 7.16699 102.667 21.5 144s32.833 73 55.5 95c45.333 43.333 90.666 65 135.999 65c30.667 0 57.334 -6.16699 80.001 -18.5s40.334 -28.666 53.001 -48.999s19 -42.5 19 -66.5
c0 -37.333 -15.333 -70.333 -46 -99l-33 -30l-6 -6c-2.66699 -2.66699 -6 -5.66699 -10 -9c-8 -6.66699 -14 -12.667 -18 -18c-11.333 -12.667 -17 -27 -17 -43c0 -17.333 6.33301 -32 19 -44l93 -90c25.333 -26.667 38 -56 38 -88c0 -22 -5.5 -42.667 -16.5 -62
s-24 -35.833 -39 -49.5s-28.833 -23.834 -41.5 -30.501c-18.667 -10 -44.667 -15 -78 -15c-6.66699 0 -14.5 2 -23.5 6s-17 9.16699 -24 15.5s-10.5 12.833 -10.5 19.5c0 10.667 2.83301 22.5 8.5 35.5s12.5 19.5 20.5 19.5c2.66699 0 5.66699 -1.33301 9 -4
c31.333 -24 60 -36 86 -36c15.333 0 28.666 4.5 39.999 13.5s17 20.833 17 35.5c0 15.333 -2.83301 28.333 -8.5 39s-12.167 20 -19.5 28l-14.5 14l-23.5 22l-70 68c-27.333 25.333 -41 49.333 -41 72c0 14 4.83301 27 14.5 39s24.834 26.333 45.501 43
c14 11.333 27.5 23 40.5 35s23.833 25.833 32.5 41.5s13 34.167 13 55.5c0 32.667 -8.66699 60 -26 82s-48.333 33 -93 33c-33.333 0 -60.5 -15.667 -81.5 -47s-31.5 -79 -31.5 -143v-406c0 -20.667 14 -35.667 42 -45c15.333 -5.33301 23 -11 23 -17
c0 -6.66699 -7.66699 -10 -23 -10z" />
    <glyph glyph-name="agrave" unicode="&#xe0;" horiz-adv-x="399" 
d="M142 631c54 -94 81 -146.668 81 -158.001s-3 -17 -9 -17c-6.66699 0 -18.334 9.33301 -35.001 28l-32 35.5l-37.5 44.5c-12.333 15.333 -22.666 28.833 -30.999 40.5s-12.5 18.834 -12.5 21.501c0 15.333 16.333 23 49 23c11.333 0 20.333 -6 27 -18zM117 299.999
c0 -4 -4.66504 -8.66895 -13.998 -14.002s-19.333 -10.166 -30 -14.499s-18.334 -6.5 -23.001 -6.5c-6.66699 0 -10 3 -10 9c0 15.333 5.33301 30 16 44s24.5 27.333 41.5 40s34.833 24 53.5 34c27.333 14.667 53.333 22 78 22c23.333 0 43 -8.66699 59 -26
s23.667 -38.333 23 -63l-5 -216v-6c0 -47.333 12 -71 36 -71c16 0 29.333 4.66699 40 14c2.66699 2.66699 6 2.83398 10 0.500977s6 -5.5 6 -9.5v-1c-2.66699 -5.33301 -8.33398 -12 -17.001 -20s-18.667 -15 -30 -21s-22.333 -9 -33 -9c-16.667 0 -30.5 4.33301 -41.5 13
s-18.833 17.334 -23.5 26.001s-7.66699 13 -9 13c-3.33301 0 -9.33301 -4.33301 -18 -13c-9.33301 -8.66699 -23.166 -17.334 -41.499 -26.001s-38.5 -13 -60.5 -13c-14.667 0 -28.834 3.83301 -42.501 11.5s-24.834 17.667 -33.501 30s-13 24.833 -13 37.5
c0 40 24.333 70 73 90l102 42c12.667 5.33301 20.334 10 23.001 14s4.33398 12.667 5.00098 26l2 62v2c0 17.333 -5.5 32.333 -16.5 45s-23.5 19 -37.5 19c-14.667 0 -28.334 -3.5 -41.001 -10.5s-20.667 -13.5 -24 -19.5c-3.33301 -6.66699 -5 -13.667 -5 -21z
M115.002 86.9971c0 -17.333 5.33301 -30.833 16 -40.5s23.667 -14.5 39 -14.5s30 6 44 18s21.333 28.333 22 49l2 49c1.33301 14 -1.66699 21 -9 21c-4 0 -8.66699 -1 -14 -3c-66.667 -22.667 -100 -49 -100 -79z" />
    <glyph glyph-name="aacute" unicode="&#xe1;" horiz-adv-x="399" 
d="M316 626c0 -2.66699 -4.16699 -9.83301 -12.5 -21.5s-18.666 -25.167 -30.999 -40.5l-37 -44.5l-31.5 -35.5c-16.667 -18.667 -28.334 -28 -35.001 -28s-10 5.66699 -10 17s27 64 81 158c7.33301 12 16.333 18 27 18c32.667 0 49 -7.66699 49 -23zM117 300.001
c0 -4 -4.66504 -8.66895 -13.998 -14.002s-19.333 -10.166 -30 -14.499s-18.334 -6.5 -23.001 -6.5c-6.66699 0 -10 3 -10 9c0 15.333 5.33301 30 16 44s24.5 27.333 41.5 40s34.833 24 53.5 34c27.333 14.667 53.333 22 78 22c23.333 0 43 -8.66699 59 -26
s23.667 -38.333 23 -63l-5 -216v-6c0 -47.333 12 -71 36 -71c16 0 29.333 4.66699 40 14c2.66699 2.66699 6 2.83398 10 0.500977s6 -5.5 6 -9.5v-1c-2.66699 -5.33301 -8.33398 -12 -17.001 -20s-18.667 -15 -30 -21s-22.333 -9 -33 -9c-16.667 0 -30.5 4.33301 -41.5 13
s-18.833 17.334 -23.5 26.001s-7.66699 13 -9 13c-3.33301 0 -9.33301 -4.33301 -18 -13c-9.33301 -8.66699 -23.166 -17.334 -41.499 -26.001s-38.5 -13 -60.5 -13c-14.667 0 -28.834 3.83301 -42.501 11.5s-24.834 17.667 -33.501 30s-13 24.833 -13 37.5
c0 40 24.333 70 73 90l102 42c12.667 5.33301 20.334 10 23.001 14s4.33398 12.667 5.00098 26l2 62v2c0 17.333 -5.5 32.333 -16.5 45s-23.5 19 -37.5 19c-14.667 0 -28.334 -3.5 -41.001 -10.5s-20.667 -13.5 -24 -19.5c-3.33301 -6.66699 -5 -13.667 -5 -21z
M115.002 86.999c0 -17.333 5.33301 -30.833 16 -40.5s23.667 -14.5 39 -14.5s30 6 44 18s21.333 28.333 22 49l2 49c1.33301 14 -1.66699 21 -9 21c-4 0 -8.66699 -1 -14 -3c-66.667 -22.667 -100 -49 -100 -79z" />
    <glyph glyph-name="acircumflex" unicode="&#xe2;" horiz-adv-x="399" 
d="M188 553c-20 -24 -42.001 -52.001 -66.001 -84.001c-10.667 -14.667 -20.667 -22 -30 -22c-6 0 -9 4 -9 12c0 4 3.16699 12.833 9.5 26.5s14.333 29.334 24 47.001l28 51.5c9 16.667 16.167 29.334 21.5 38.001c10 17.333 18.333 26 25 26s15.334 -9 26.001 -27
c5.33301 -8.66699 12.5 -21.167 21.5 -37.5l28 -51c9.66699 -17.667 17.667 -33.334 24 -47.001s9.5 -22.5 9.5 -26.5c0 -8 -4 -12 -12 -12s-17 7.33301 -27 22l-66 84c-2.66699 2.66699 -5 2.66699 -7 0zM116.999 299.999c0 -4 -4.66504 -8.66895 -13.998 -14.002
s-19.333 -10.166 -30 -14.499s-18.334 -6.5 -23.001 -6.5c-6.66699 0 -10 3 -10 9c0 15.333 5.33301 30 16 44s24.5 27.333 41.5 40s34.833 24 53.5 34c27.333 14.667 53.333 22 78 22c23.333 0 43 -8.66699 59 -26s23.667 -38.333 23 -63l-5 -216v-6
c0 -47.333 12 -71 36 -71c16 0 29.333 4.66699 40 14c2.66699 2.66699 6 2.83398 10 0.500977s6 -5.5 6 -9.5v-1c-2.66699 -5.33301 -8.33398 -12 -17.001 -20s-18.667 -15 -30 -21s-22.333 -9 -33 -9c-16.667 0 -30.5 4.33301 -41.5 13s-18.833 17.334 -23.5 26.001
s-7.66699 13 -9 13c-3.33301 0 -9.33301 -4.33301 -18 -13c-9.33301 -8.66699 -23.166 -17.334 -41.499 -26.001s-38.5 -13 -60.5 -13c-14.667 0 -28.834 3.83301 -42.501 11.5s-24.834 17.667 -33.501 30s-13 24.833 -13 37.5c0 40 24.333 70 73 90l102 42
c12.667 5.33301 20.334 10 23.001 14s4.33398 12.667 5.00098 26l2 62v2c0 17.333 -5.5 32.333 -16.5 45s-23.5 19 -37.5 19c-14.667 0 -28.334 -3.5 -41.001 -10.5s-20.667 -13.5 -24 -19.5c-3.33301 -6.66699 -5 -13.667 -5 -21zM115.001 86.9971
c0 -17.333 5.33301 -30.833 16 -40.5s23.667 -14.5 39 -14.5s30 6 44 18s21.333 28.333 22 49l2 49c1.33301 14 -1.66699 21 -9 21c-4 0 -8.66699 -1 -14 -3c-66.667 -22.667 -100 -49 -100 -79z" />
    <glyph glyph-name="atilde" unicode="&#xe3;" horiz-adv-x="399" 
d="M136 507c-10 0 -21.668 -6 -35.001 -18c-12.667 -12.667 -20 -19 -22 -19c-9.33301 0 -14 6.66699 -14 20c0 3.33301 3.33301 9.5 10 18.5s15 18.5 25 28.5s19.833 18.667 29.5 26s17.5 11 23.5 11l107 -8c13.333 0 26.333 5.66699 39 17c11.333 11.333 17.333 17 18 17
c10.667 0 16 -5.66699 16 -17c0 -3.33301 -3.33301 -9.33301 -10 -18s-14.667 -18 -24 -28s-18.666 -18.667 -27.999 -26s-17 -11 -23 -11zM116.999 300c0 -4 -4.66504 -8.66895 -13.998 -14.002s-19.333 -10.166 -30 -14.499s-18.334 -6.5 -23.001 -6.5
c-6.66699 0 -10 3 -10 9c0 15.333 5.33301 30 16 44s24.5 27.333 41.5 40s34.833 24 53.5 34c27.333 14.667 53.333 22 78 22c23.333 0 43 -8.66699 59 -26s23.667 -38.333 23 -63l-5 -216v-6c0 -47.333 12 -71 36 -71c16 0 29.333 4.66699 40 14
c2.66699 2.66699 6 2.83398 10 0.500977s6 -5.5 6 -9.5v-1c-2.66699 -5.33301 -8.33398 -12 -17.001 -20s-18.667 -15 -30 -21s-22.333 -9 -33 -9c-16.667 0 -30.5 4.33301 -41.5 13s-18.833 17.334 -23.5 26.001s-7.66699 13 -9 13c-3.33301 0 -9.33301 -4.33301 -18 -13
c-9.33301 -8.66699 -23.166 -17.334 -41.499 -26.001s-38.5 -13 -60.5 -13c-14.667 0 -28.834 3.83301 -42.501 11.5s-24.834 17.667 -33.501 30s-13 24.833 -13 37.5c0 40 24.333 70 73 90l102 42c12.667 5.33301 20.334 10 23.001 14s4.33398 12.667 5.00098 26l2 62v2
c0 17.333 -5.5 32.333 -16.5 45s-23.5 19 -37.5 19c-14.667 0 -28.334 -3.5 -41.001 -10.5s-20.667 -13.5 -24 -19.5c-3.33301 -6.66699 -5 -13.667 -5 -21zM115.001 86.998c0 -17.333 5.33301 -30.833 16 -40.5s23.667 -14.5 39 -14.5s30 6 44 18s21.333 28.333 22 49l2 49
c1.33301 14 -1.66699 21 -9 21c-4 0 -8.66699 -1 -14 -3c-66.667 -22.667 -100 -49 -100 -79z" />
    <glyph glyph-name="adieresis" unicode="&#xe4;" horiz-adv-x="399" 
d="M250 578c10 10 21.333 14.999 34 14.999s24.167 -5.16699 34.5 -15.5s15.5 -21.833 15.5 -34.5s-5.16699 -24.167 -15.5 -34.5s-21.833 -15.5 -34.5 -15.5s-24.167 5.16699 -34.5 15.5s-15.5 21.833 -15.5 34.5s5.33301 24.334 16 35.001zM73 577.999
c10 10 21.333 14.999 34 14.999s24.167 -5.16699 34.5 -15.5s15.5 -21.833 15.5 -34.5s-5.16699 -24.167 -15.5 -34.5s-21.833 -15.5 -34.5 -15.5s-24.167 5.16699 -34.5 15.5s-15.5 21.833 -15.5 34.5s5.33301 24.334 16 35.001zM117 299.998
c0 -4 -4.66504 -8.66895 -13.998 -14.002s-19.333 -10.166 -30 -14.499s-18.334 -6.5 -23.001 -6.5c-6.66699 0 -10 3 -10 9c0 15.333 5.33301 30 16 44s24.5 27.333 41.5 40s34.833 24 53.5 34c27.333 14.667 53.333 22 78 22c23.333 0 43 -8.66699 59 -26
s23.667 -38.333 23 -63l-5 -216v-6c0 -47.333 12 -71 36 -71c16 0 29.333 4.66699 40 14c2.66699 2.66699 6 2.83398 10 0.500977s6 -5.5 6 -9.5v-1c-2.66699 -5.33301 -8.33398 -12 -17.001 -20s-18.667 -15 -30 -21s-22.333 -9 -33 -9c-16.667 0 -30.5 4.33301 -41.5 13
s-18.833 17.334 -23.5 26.001s-7.66699 13 -9 13c-3.33301 0 -9.33301 -4.33301 -18 -13c-9.33301 -8.66699 -23.166 -17.334 -41.499 -26.001s-38.5 -13 -60.5 -13c-14.667 0 -28.834 3.83301 -42.501 11.5s-24.834 17.667 -33.501 30s-13 24.833 -13 37.5
c0 40 24.333 70 73 90l102 42c12.667 5.33301 20.334 10 23.001 14s4.33398 12.667 5.00098 26l2 62v2c0 17.333 -5.5 32.333 -16.5 45s-23.5 19 -37.5 19c-14.667 0 -28.334 -3.5 -41.001 -10.5s-20.667 -13.5 -24 -19.5c-3.33301 -6.66699 -5 -13.667 -5 -21z
M115.002 86.9961c0 -17.333 5.33301 -30.833 16 -40.5s23.667 -14.5 39 -14.5s30 6 44 18s21.333 28.333 22 49l2 49c1.33301 14 -1.66699 21 -9 21c-4 0 -8.66699 -1 -14 -3c-66.667 -22.667 -100 -49 -100 -79z" />
    <glyph glyph-name="aring" unicode="&#xe5;" horiz-adv-x="399" 
d="M135 622c17.333 16.667 37.333 24.999 60 24.999c22 0 41 -7.5 57 -22.5s24 -34.167 24 -57.5c0 -24 -8.83301 -44.5 -26.5 -61.5s-37.5 -25.5 -59.5 -25.5c-22.667 0 -42 8.33301 -58 25s-24 36 -24 58c0 22.667 9 42.334 27 59.001zM149 567.999
c0 -16.667 4.5 -31.167 13.5 -43.5s20.167 -18.5 33.5 -18.5c26 0 39 18.667 39 56c0 14.667 -4.83301 28 -14.5 40s-21.167 18 -34.5 18c-24.667 0 -37 -17.333 -37 -52zM117 299.999c0 -4 -4.66504 -8.66895 -13.998 -14.002s-19.333 -10.166 -30 -14.499
s-18.334 -6.5 -23.001 -6.5c-6.66699 0 -10 3 -10 9c0 15.333 5.33301 30 16 44s24.5 27.333 41.5 40s34.833 24 53.5 34c27.333 14.667 53.333 22 78 22c23.333 0 43 -8.66699 59 -26s23.667 -38.333 23 -63l-5 -216v-6c0 -47.333 12 -71 36 -71c16 0 29.333 4.66699 40 14
c2.66699 2.66699 6 2.83398 10 0.500977s6 -5.5 6 -9.5v-1c-2.66699 -5.33301 -8.33398 -12 -17.001 -20s-18.667 -15 -30 -21s-22.333 -9 -33 -9c-16.667 0 -30.5 4.33301 -41.5 13s-18.833 17.334 -23.5 26.001s-7.66699 13 -9 13c-3.33301 0 -9.33301 -4.33301 -18 -13
c-9.33301 -8.66699 -23.166 -17.334 -41.499 -26.001s-38.5 -13 -60.5 -13c-14.667 0 -28.834 3.83301 -42.501 11.5s-24.834 17.667 -33.501 30s-13 24.833 -13 37.5c0 40 24.333 70 73 90l102 42c12.667 5.33301 20.334 10 23.001 14s4.33398 12.667 5.00098 26l2 62v2
c0 17.333 -5.5 32.333 -16.5 45s-23.5 19 -37.5 19c-14.667 0 -28.334 -3.5 -41.001 -10.5s-20.667 -13.5 -24 -19.5c-3.33301 -6.66699 -5 -13.667 -5 -21zM115.002 86.9971c0 -17.333 5.33301 -30.833 16 -40.5s23.667 -14.5 39 -14.5s30 6 44 18s21.333 28.333 22 49
l2 49c1.33301 14 -1.66699 21 -9 21c-4 0 -8.66699 -1 -14 -3c-66.667 -22.667 -100 -49 -100 -79z" />
    <glyph glyph-name="ae" unicode="&#xe6;" horiz-adv-x="544" 
d="M117 299c0 -4 -4.66699 -8.67188 -14 -14.0049s-19.333 -10.166 -30 -14.499s-18.334 -6.5 -23.001 -6.5c-6.66699 0 -10 3 -10 9c0 15.333 5.33301 30 16 44s24.5 27.333 41.5 40s34.833 24 53.5 34c28.667 15.333 54.667 23 78 23c10 0 22 -3.66699 36 -11
s22.667 -14 26 -20c2 -3.33301 4.33301 -5 7 -5s4.66699 0.666992 6 2c12 8.66699 28.833 16.334 50.5 23.001s43.834 10 66.501 10c15.333 0 31.166 -3.66699 47.499 -11s30.333 -18.166 42 -32.499s17.5 -31.5 17.5 -51.5c0 -10 -1.83301 -17 -5.5 -21
s-8.5 -7.66699 -14.5 -11c-3.33301 -1.33301 -8.83301 -3.83301 -16.5 -7.5s-17.834 -8.16699 -30.501 -13.5l-40 -17.5l-44 -19.5l-38.5 -16.5c-9.66699 -4.33301 -16.167 -7.16602 -19.5 -8.49902c-6.66699 -2.66699 -10 -8.66699 -10 -18v-56
c0 -55.333 29.333 -83 88 -83c46 0 83 16 111 48c2.66699 2.66699 5.66699 4 9 4c8.66699 0 13 -3.66699 13 -11c0 -2 -0.333008 -3.33301 -1 -4c-23.333 -34 -47.166 -58.667 -71.499 -74s-55.833 -23 -94.5 -23c-39.333 0 -74.666 13.333 -105.999 40
c-8 8 -12.667 12 -14 12c-2 0 -3.66699 -0.666992 -5 -2c-2 -2 -6.16699 -5.66699 -12.5 -11s-12.166 -9.66602 -17.499 -12.999l-21 -12c-17.333 -9.33301 -37.666 -14 -60.999 -14c-16 0 -30.833 3.83301 -44.5 11.5s-24.834 17.667 -33.501 30s-13 24.833 -13 37.5
c0 38 24.333 68 73 90l104 47c13.333 6 21.5 10.667 24.5 14s4.5 9 4.5 17v66c0 18 -5.5 33.5 -16.5 46.5s-23.833 19.5 -38.5 19.5s-28.334 -3.66699 -41.001 -11s-20.667 -14 -24 -20c-3.33301 -6.66699 -5 -13.667 -5 -21zM310 253.995c0 -4.66699 1.66699 -7.66699 5 -9
c3.33301 -2.66699 10.666 -1.33398 21.999 3.99902l25.5 9.5l37 13.5c13 4.66699 24.5 9 34.5 13s16 6.33301 18 7c4.66699 0.666992 7 5 7 13s-1.33301 15.667 -4 23c-13.333 33.333 -36.666 50 -69.999 50c-8 0 -17.833 -2.66699 -29.5 -8s-22 -12.166 -31 -20.499
s-13.833 -17.833 -14.5 -28.5v-67zM195 161.995c-11.333 -4 -23.168 -9.99902 -35.501 -17.999s-22.666 -17 -30.999 -27s-12.5 -20.333 -12.5 -31c-0.666992 -16.667 4.33301 -29.834 15 -39.501s24 -14.5 40 -14.5s31.5 6.5 46.5 19.5s22.5 27.833 22.5 44.5v52
c0 16 -2.66699 24 -8 24c-8.66699 0 -21 -3.33301 -37 -10z" />
    <glyph glyph-name="ccedilla" unicode="&#xe7;" horiz-adv-x="377" 
d="M151 -129c-4 0 -8.00391 1.67188 -12.0039 5.00488s-6 6.33301 -6 9c0 2 1.66699 5.66699 5 11l71 90h-3c-32.667 0 -62 8.83301 -88 26.5s-46.333 41.667 -61 72s-22 64.833 -22 103.5s9.33301 75.167 28 109.5s43.667 62.166 75 83.499s66 32 104 32
c56.667 0 98 -16 124 -48c3.33301 -5.33301 5 -10.333 5 -15c0 -6 -4.83301 -12.667 -14.5 -20s-18.5 -11 -26.5 -11s-15.333 3.33301 -22 10c-12 13.333 -22 23.333 -30 30s-16.667 11.167 -26 13.5s-22 3.5 -38 3.5c-34.667 0 -61.667 -14.833 -81 -44.5
s-29 -67.167 -29 -112.5c0 -30 6.83301 -58.833 20.5 -86.5s32.5 -50.334 56.5 -68.001s51.333 -26.5 82 -26.5c20 0 36.167 3.83301 48.5 11.5s25.5 20.5 39.5 38.5c3.33301 3.33301 6.33301 5 9 5s5.33398 -1.5 8.00098 -4.5s4 -6.16699 4 -9.5
c0 -10.667 -6 -22.334 -18 -35.001s-27.667 -24 -47 -34s-40.666 -17 -63.999 -21l-25 -32c-2.66699 -2.66699 -4 -5.33398 -4 -8.00098c0 -6 6.33301 -11.333 19 -16c12 -4.66699 23.833 -13.834 35.5 -27.501s17.5 -28.5 17.5 -44.5c0 -24 -7.33301 -46.167 -22 -66.5
s-31.667 -36.833 -51 -49.5s-36.666 -19 -51.999 -19c-20 0 -30 13.667 -30 41c0 6 1.5 10.667 4.5 14s5.83301 5 8.5 5l16 -6c4 -1.33301 9 -2.83301 15 -4.5s12.333 -2.5 19 -2.5c10.667 0 20.334 3.16699 29.001 9.5s13 18.833 13 37.5c0 18 -5.33301 32 -16 42
s-25 15 -43 15z" />
    <glyph glyph-name="egrave" unicode="&#xe8;" horiz-adv-x="388" 
d="M170 631c54 -94 81 -146.668 81 -158.001s-3 -17 -9 -17c-6.66699 0 -18.334 9.33301 -35.001 28l-32 35.5l-37.5 44.5c-12.333 15.333 -22.666 28.833 -30.999 40.5s-12.5 18.834 -12.5 21.501c0 15.333 16.333 23 49 23c11.333 0 20.333 -6 27 -18zM229 413.999
c40 0 71.5 -8.33398 94.5 -25.001s34.5 -39.334 34.5 -68.001s-7.16699 -46.5 -21.5 -53.5s-32.833 -10.5 -55.5 -10.5h-164c-9.33301 0 -15.833 -2.16699 -19.5 -6.5s-5.5 -14.5 -5.5 -30.5c0 -30.667 6.66699 -59.334 20 -86.001s31.166 -48 53.499 -64s47.5 -24 75.5 -24
c40.667 0 72.667 14.667 96 44c4.66699 4.66699 8.33398 7 11.001 7c4.66699 0 7 -3.33301 7 -10c0 -4.66699 -1 -10 -3 -16c-2.66699 -11.333 -11 -23.666 -25 -36.999s-32.333 -24.666 -55 -33.999s-48.667 -14 -78 -14s-56.5 9.16699 -81.5 27.5s-45 43.5 -60 75.5
s-22.5 68.333 -22.5 109s8.83301 77.334 26.5 110.001s41.5 58.5 71.5 77.5s63.667 28.5 101 28.5zM295 321.998c0 18 -8.33203 32.666 -24.999 43.999s-36.667 17 -60 17c-16 0 -31.5 -4.5 -46.5 -13.5s-27.5 -19.667 -37.5 -32s-15 -23.833 -15 -34.5
c0 -10 6.33301 -15 19 -15h82c15.333 0 29.166 0.5 41.499 1.5s22.833 2.16699 31.5 3.5c6.66699 0.666992 10 10.334 10 29.001z" />
    <glyph glyph-name="eacute" unicode="&#xe9;" horiz-adv-x="388" 
d="M344 626c0 -2.66699 -4.16699 -9.83301 -12.5 -21.5s-18.666 -25.167 -30.999 -40.5l-37 -44.5l-31.5 -35.5c-16.667 -18.667 -28.334 -28 -35.001 -28s-10 5.66699 -10 17s27 64 81 158c7.33301 12 16.333 18 27 18c32.667 0 49 -7.66699 49 -23zM229 414.001
c40 0 71.5 -8.33398 94.5 -25.001s34.5 -39.334 34.5 -68.001s-7.16699 -46.5 -21.5 -53.5s-32.833 -10.5 -55.5 -10.5h-164c-9.33301 0 -15.833 -2.16699 -19.5 -6.5s-5.5 -14.5 -5.5 -30.5c0 -30.667 6.66699 -59.334 20 -86.001s31.166 -48 53.499 -64s47.5 -24 75.5 -24
c40.667 0 72.667 14.667 96 44c4.66699 4.66699 8.33398 7 11.001 7c4.66699 0 7 -3.33301 7 -10c0 -4.66699 -1 -10 -3 -16c-2.66699 -11.333 -11 -23.666 -25 -36.999s-32.333 -24.666 -55 -33.999s-48.667 -14 -78 -14s-56.5 9.16699 -81.5 27.5s-45 43.5 -60 75.5
s-22.5 68.333 -22.5 109s8.83301 77.334 26.5 110.001s41.5 58.5 71.5 77.5s63.667 28.5 101 28.5zM295 322c0 18 -8.33203 32.666 -24.999 43.999s-36.667 17 -60 17c-16 0 -31.5 -4.5 -46.5 -13.5s-27.5 -19.667 -37.5 -32s-15 -23.833 -15 -34.5
c0 -10 6.33301 -15 19 -15h82c15.333 0 29.166 0.5 41.499 1.5s22.833 2.16699 31.5 3.5c6.66699 0.666992 10 10.334 10 29.001z" />
    <glyph glyph-name="ecircumflex" unicode="&#xea;" horiz-adv-x="388" 
d="M216 553c-20 -24 -42.001 -52.001 -66.001 -84.001c-10.667 -14.667 -20.667 -22 -30 -22c-6 0 -9 4 -9 12c0 4 3.16699 12.833 9.5 26.5s14.333 29.334 24 47.001l28 51.5c9 16.667 16.167 29.334 21.5 38.001c10 17.333 18.333 26 25 26s15.334 -9 26.001 -27
c5.33301 -8.66699 12.5 -21.167 21.5 -37.5l28 -51c9.66699 -17.667 17.667 -33.334 24 -47.001s9.5 -22.5 9.5 -26.5c0 -8 -4 -12 -12 -12s-17 7.33301 -27 22l-66 84c-2.66699 2.66699 -5 2.66699 -7 0zM228.999 413.999c40 0 71.5 -8.33398 94.5 -25.001
s34.5 -39.334 34.5 -68.001s-7.16699 -46.5 -21.5 -53.5s-32.833 -10.5 -55.5 -10.5h-164c-9.33301 0 -15.833 -2.16699 -19.5 -6.5s-5.5 -14.5 -5.5 -30.5c0 -30.667 6.66699 -59.334 20 -86.001s31.166 -48 53.499 -64s47.5 -24 75.5 -24c40.667 0 72.667 14.667 96 44
c4.66699 4.66699 8.33398 7 11.001 7c4.66699 0 7 -3.33301 7 -10c0 -4.66699 -1 -10 -3 -16c-2.66699 -11.333 -11 -23.666 -25 -36.999s-32.333 -24.666 -55 -33.999s-48.667 -14 -78 -14s-56.5 9.16699 -81.5 27.5s-45 43.5 -60 75.5s-22.5 68.333 -22.5 109
s8.83301 77.334 26.5 110.001s41.5 58.5 71.5 77.5s63.667 28.5 101 28.5zM294.999 321.998c0 18 -8.33203 32.666 -24.999 43.999s-36.667 17 -60 17c-16 0 -31.5 -4.5 -46.5 -13.5s-27.5 -19.667 -37.5 -32s-15 -23.833 -15 -34.5c0 -10 6.33301 -15 19 -15h82
c15.333 0 29.166 0.5 41.499 1.5s22.833 2.16699 31.5 3.5c6.66699 0.666992 10 10.334 10 29.001z" />
    <glyph glyph-name="edieresis" unicode="&#xeb;" horiz-adv-x="388" 
d="M278 578c10 10 21.333 14.999 34 14.999s24.167 -5.16699 34.5 -15.5s15.5 -21.833 15.5 -34.5s-5.16699 -24.167 -15.5 -34.5s-21.833 -15.5 -34.5 -15.5s-24.167 5.16699 -34.5 15.5s-15.5 21.833 -15.5 34.5s5.33301 24.334 16 35.001zM101 577.999
c10 10 21.333 14.999 34 14.999s24.167 -5.16699 34.5 -15.5s15.5 -21.833 15.5 -34.5s-5.16699 -24.167 -15.5 -34.5s-21.833 -15.5 -34.5 -15.5s-24.167 5.16699 -34.5 15.5s-15.5 21.833 -15.5 34.5s5.33301 24.334 16 35.001zM229 413.998
c40 0 71.5 -8.33398 94.5 -25.001s34.5 -39.334 34.5 -68.001s-7.16699 -46.5 -21.5 -53.5s-32.833 -10.5 -55.5 -10.5h-164c-9.33301 0 -15.833 -2.16699 -19.5 -6.5s-5.5 -14.5 -5.5 -30.5c0 -30.667 6.66699 -59.334 20 -86.001s31.166 -48 53.499 -64s47.5 -24 75.5 -24
c40.667 0 72.667 14.667 96 44c4.66699 4.66699 8.33398 7 11.001 7c4.66699 0 7 -3.33301 7 -10c0 -4.66699 -1 -10 -3 -16c-2.66699 -11.333 -11 -23.666 -25 -36.999s-32.333 -24.666 -55 -33.999s-48.667 -14 -78 -14s-56.5 9.16699 -81.5 27.5s-45 43.5 -60 75.5
s-22.5 68.333 -22.5 109s8.83301 77.334 26.5 110.001s41.5 58.5 71.5 77.5s63.667 28.5 101 28.5zM295 321.997c0 18 -8.33203 32.666 -24.999 43.999s-36.667 17 -60 17c-16 0 -31.5 -4.5 -46.5 -13.5s-27.5 -19.667 -37.5 -32s-15 -23.833 -15 -34.5
c0 -10 6.33301 -15 19 -15h82c15.333 0 29.166 0.5 41.499 1.5s22.833 2.16699 31.5 3.5c6.66699 0.666992 10 10.334 10 29.001z" />
    <glyph glyph-name="igrave" unicode="&#xec;" horiz-adv-x="245" 
d="M66 631c54 -94 81 -146.668 81 -158.001s-3 -17 -9 -17c-6.66699 0 -18.334 9.33301 -35.001 28l-32 35.5l-37.5 44.5c-12.333 15.333 -22.666 28.833 -30.999 40.5s-12.5 18.834 -12.5 21.501c0 15.333 16.333 23 49 23c11.333 0 20.333 -6 27 -18zM125 1.99902
l-81 -4.99902c-13.333 0 -20 3.33301 -20 10c0 6 9.33301 12 28 18c19.333 6 30.333 12.333 33 19c3.33301 6.66699 5 12.667 5 18v217c0 41.333 -15.667 65.666 -47 72.999c-5.33301 1.33301 -8 5.66602 -8 12.999s2.33301 11.333 7 12c32 8 66 23.667 102 47
c10.667 6.66699 16.667 10 18 10c4.66699 0 7 -1.66699 7 -5c-6 -60.667 -9 -105.667 -9 -135v-232c0 -13.333 4.16699 -22 12.5 -26s19.5 -8.33301 33.5 -13c13.333 -5.33301 20 -10.666 20 -15.999c0 -6.66699 -6.66699 -10 -20 -10z" />
    <glyph glyph-name="iacute" unicode="&#xed;" horiz-adv-x="245" 
d="M240 626c0 -2.66699 -4.16699 -9.83301 -12.5 -21.5s-18.666 -25.167 -30.999 -40.5l-37 -44.5l-31.5 -35.5c-16.667 -18.667 -28.334 -28 -35.001 -28s-10 5.66699 -10 17s27 64 81 158c7.33301 12 16.333 18 27 18c32.667 0 49 -7.66699 49 -23zM125 2.00098
l-81 -4.99902c-13.333 0 -20 3.33301 -20 10c0 6 9.33301 12 28 18c19.333 6 30.333 12.333 33 19c3.33301 6.66699 5 12.667 5 18v217c0 41.333 -15.667 65.666 -47 72.999c-5.33301 1.33301 -8 5.66602 -8 12.999s2.33301 11.333 7 12c32 8 66 23.667 102 47
c10.667 6.66699 16.667 10 18 10c4.66699 0 7 -1.66699 7 -5c-6 -60.667 -9 -105.667 -9 -135v-232c0 -13.333 4.16699 -22 12.5 -26s19.5 -8.33301 33.5 -13c13.333 -5.33301 20 -10.666 20 -15.999c0 -6.66699 -6.66699 -10 -20 -10z" />
    <glyph glyph-name="icircumflex" unicode="&#xee;" horiz-adv-x="245" 
d="M112 553c-20 -24 -42.001 -52.001 -66.001 -84.001c-10.667 -14.667 -20.667 -22 -30 -22c-6 0 -9 4 -9 12c0 4 3.16699 12.833 9.5 26.5s14.333 29.334 24 47.001l28 51.5c9 16.667 16.167 29.334 21.5 38.001c10 17.333 18.333 26 25 26s15.334 -9 26.001 -27
c5.33301 -8.66699 12.5 -21.167 21.5 -37.5l28 -51c9.66699 -17.667 17.667 -33.334 24 -47.001s9.5 -22.5 9.5 -26.5c0 -8 -4 -12 -12 -12s-17 7.33301 -27 22l-66 84c-2.66699 2.66699 -5 2.66699 -7 0zM124.999 1.99902l-81 -4.99902c-13.333 0 -20 3.33301 -20 10
c0 6 9.33301 12 28 18c19.333 6 30.333 12.333 33 19c3.33301 6.66699 5 12.667 5 18v217c0 41.333 -15.667 65.666 -47 72.999c-5.33301 1.33301 -8 5.66602 -8 12.999s2.33301 11.333 7 12c32 8 66 23.667 102 47c10.667 6.66699 16.667 10 18 10
c4.66699 0 7 -1.66699 7 -5c-6 -60.667 -9 -105.667 -9 -135v-232c0 -13.333 4.16699 -22 12.5 -26s19.5 -8.33301 33.5 -13c13.333 -5.33301 20 -10.666 20 -15.999c0 -6.66699 -6.66699 -10 -20 -10z" />
    <glyph glyph-name="idieresis" unicode="&#xef;" horiz-adv-x="245" 
d="M174 578c10 10 21.333 14.999 34 14.999s24.167 -5.16699 34.5 -15.5s15.5 -21.833 15.5 -34.5s-5.16699 -24.167 -15.5 -34.5s-21.833 -15.5 -34.5 -15.5s-24.167 5.16699 -34.5 15.5s-15.5 21.833 -15.5 34.5s5.33301 24.334 16 35.001zM-3 577.999
c10 10 21.333 14.999 34 14.999s24.167 -5.16699 34.5 -15.5s15.5 -21.833 15.5 -34.5s-5.16699 -24.167 -15.5 -34.5s-21.833 -15.5 -34.5 -15.5s-24.167 5.16699 -34.5 15.5s-15.5 21.833 -15.5 34.5s5.33301 24.334 16 35.001zM125 1.99805l-81 -4.99902
c-13.333 0 -20 3.33301 -20 10c0 6 9.33301 12 28 18c19.333 6 30.333 12.333 33 19c3.33301 6.66699 5 12.667 5 18v217c0 41.333 -15.667 65.666 -47 72.999c-5.33301 1.33301 -8 5.66602 -8 12.999s2.33301 11.333 7 12c32 8 66 23.667 102 47
c10.667 6.66699 16.667 10 18 10c4.66699 0 7 -1.66699 7 -5c-6 -60.667 -9 -105.667 -9 -135v-232c0 -13.333 4.16699 -22 12.5 -26s19.5 -8.33301 33.5 -13c13.333 -5.33301 20 -10.666 20 -15.999c0 -6.66699 -6.66699 -10 -20 -10z" />
    <glyph glyph-name="eth" unicode="&#xf0;" horiz-adv-x="487" 
d="M456 250c0 -41.333 -7.99805 -81.498 -23.998 -120.498s-41.667 -72.5 -77 -100.5c-34.667 -28.667 -78.334 -43 -131.001 -43c-34.667 0 -67.167 8.5 -97.5 25.5s-54.833 40.833 -73.5 71.5s-28 66 -28 106s10.333 77.167 31 111.5s48.167 61.833 82.5 82.5
s71.833 31 112.5 31c32 0 62.667 -7.66699 92 -23c6 -2.66699 9 -2 9 2v3c0 1.33301 -0.333008 2.66602 -1 3.99902c-9.33301 34.667 -19.666 64.667 -30.999 90s-23.666 46 -36.999 62l-155 -80c-4 -2 -7.33301 -1.83301 -10 0.5s-4 4.83301 -4 7.5
c0 20 2.66699 31.667 8 35l132 69c-52.667 50 -109.334 81.333 -170.001 94c-13.333 3.33301 -20 8.33301 -20 15c0 8 8.66699 12 26 12c31.333 0 66.666 -8.33301 105.999 -25s77 -39.334 113 -68.001l101 53c5.33301 4 10.666 6 15.999 6c6 0 9 -2.33301 9 -7
c0 -22 -6 -36 -18 -42l-75 -39c76 -80.667 114 -191.667 114 -333zM378.002 220.002c0 49.333 -13.333 88.334 -40 117.001s-60.667 43 -102 43c-27.333 0 -50.5 -7.83301 -69.5 -23.5s-33.5 -36.667 -43.5 -63s-15 -55.5 -15 -87.5s6.5 -62.5 19.5 -91.5
s30.5 -52.667 52.5 -71s45.667 -27.5 71 -27.5s47.5 10 66.5 30s33.833 45.667 44.5 77s16 63.666 16 96.999z" />
    <glyph glyph-name="ntilde" unicode="&#xf1;" horiz-adv-x="527" 
d="M203 507c-10 0 -21.668 -6 -35.001 -18c-12.667 -12.667 -20 -19 -22 -19c-9.33301 0 -14 6.66699 -14 20c0 3.33301 3.33301 9.5 10 18.5s15 18.5 25 28.5s19.833 18.667 29.5 26s17.5 11 23.5 11l107 -8c13.333 0 26.333 5.66699 39 17c11.333 11.333 17.333 17 18 17
c10.667 0 16 -5.66699 16 -17c0 -3.33301 -3.33301 -9.33301 -10 -18s-14.667 -18 -24 -28s-18.666 -18.667 -27.999 -26s-17 -11 -23 -11zM404.999 2l-81.9971 -5.00098c-13.333 0 -20 3.33301 -20 10c0 6 7.66699 11.667 23 17c1.33301 0 2.66602 0.333008 3.99902 1
c22.667 7.33301 35.334 16.333 38.001 27c0.666992 1.33301 1 3 1 5v5v210c0 28.667 -8.33301 51.334 -25 68.001s-41 25 -73 25c-32.667 0 -59.334 -7 -80.001 -21s-31 -39.333 -31 -76v-206c0 -13.333 4.16699 -22 12.5 -26s19.5 -8.33301 33.5 -13
c13.333 -5.33301 20 -10.666 20 -15.999c0 -6.66699 -6.66699 -10 -20 -10l-81 5l-81 -5c-13.333 0 -20 3.33301 -20 10c0 4 2.66699 7.5 8 10.5s11 5.5 17 7.5s9.66699 3 11 3s4.66602 1.33301 9.99902 4s8.66602 5 9.99902 7c6.66699 6.66699 10 14.334 10 23.001v215
c0 42.667 -13.667 66.667 -41 72c-5.33301 1.33301 -8 5.66602 -8 12.999s2.33301 11.333 7 12c34.667 8 71.334 26.333 110.001 55c0.666992 0.666992 2 1 4 1c1.33301 0 3 -3 5 -9l-7 -65c0 -4.66699 0.333008 -7.33398 1 -8.00098c12.667 10.667 28.167 21 46.5 31
s38.166 18.333 59.499 25s42 10 62 10s38.333 -6.16699 55 -18.5s30 -28.833 40 -49.5s15 -44.334 15 -71.001v-213c0 -13.333 4.16699 -22 12.5 -26s19.5 -8.33301 33.5 -13c13.333 -5.33301 20 -10.666 20 -15.999c0 -6.66699 -6.66699 -10 -20 -10z" />
    <glyph glyph-name="ograve" unicode="&#xf2;" horiz-adv-x="495" 
d="M197 631c54 -94 81 -146.668 81 -158.001s-3 -17 -9 -17c-6.66699 0 -18.334 9.33301 -35.001 28l-32 35.5l-37.5 44.5c-12.333 15.333 -22.666 28.833 -30.999 40.5s-12.5 18.834 -12.5 21.501c0 15.333 16.333 23 49 23c11.333 0 20.333 -6 27 -18zM35 186.999
c0 28.667 5.66895 56.502 17.002 83.502s27.166 51.333 47.499 73s43.5 38.834 69.5 51.501s53.667 19 83 19c39.333 0 74.666 -9.16699 105.999 -27.5s56.166 -43 74.499 -74s27.5 -66.167 27.5 -105.5c0 -38.667 -8.83301 -74.834 -26.5 -108.501
s-43.334 -60.834 -77.001 -81.501s-74.5 -31 -122.5 -31c-37.333 0 -71.166 8.66699 -101.499 26s-54.166 41.166 -71.499 71.499s-26 64.833 -26 103.5zM237.002 383.001c-80 0 -120.001 -57.668 -120.001 -173.001c0 -34 6.16699 -65.833 18.5 -95.5s29 -53.5 50 -71.5
s44.167 -27 69.5 -27c33.333 0 58.833 7.16699 76.5 21.5s29.834 34.333 36.501 60s10 55.5 10 89.5c0 34.667 -6.16699 66.834 -18.5 96.501s-29 53.667 -50 72s-45.167 27.5 -72.5 27.5z" />
    <glyph glyph-name="oacute" unicode="&#xf3;" horiz-adv-x="495" 
d="M371 626c0 -2.66699 -4.16699 -9.83301 -12.5 -21.5s-18.666 -25.167 -30.999 -40.5l-37 -44.5l-31.5 -35.5c-16.667 -18.667 -28.334 -28 -35.001 -28s-10 5.66699 -10 17s27 64 81 158c7.33301 12 16.333 18 27 18c32.667 0 49 -7.66699 49 -23zM35 187.001
c0 28.667 5.66895 56.502 17.002 83.502s27.166 51.333 47.499 73s43.5 38.834 69.5 51.501s53.667 19 83 19c39.333 0 74.666 -9.16699 105.999 -27.5s56.166 -43 74.499 -74s27.5 -66.167 27.5 -105.5c0 -38.667 -8.83301 -74.834 -26.5 -108.501
s-43.334 -60.834 -77.001 -81.501s-74.5 -31 -122.5 -31c-37.333 0 -71.166 8.66699 -101.499 26s-54.166 41.166 -71.499 71.499s-26 64.833 -26 103.5zM237.002 383.003c-80 0 -120.001 -57.668 -120.001 -173.001c0 -34 6.16699 -65.833 18.5 -95.5s29 -53.5 50 -71.5
s44.167 -27 69.5 -27c33.333 0 58.833 7.16699 76.5 21.5s29.834 34.333 36.501 60s10 55.5 10 89.5c0 34.667 -6.16699 66.834 -18.5 96.501s-29 53.667 -50 72s-45.167 27.5 -72.5 27.5z" />
    <glyph glyph-name="ocircumflex" unicode="&#xf4;" horiz-adv-x="495" 
d="M243 553c-20 -24 -42.001 -52.001 -66.001 -84.001c-10.667 -14.667 -20.667 -22 -30 -22c-6 0 -9 4 -9 12c0 4 3.16699 12.833 9.5 26.5s14.333 29.334 24 47.001l28 51.5c9 16.667 16.167 29.334 21.5 38.001c10 17.333 18.333 26 25 26s15.334 -9 26.001 -27
c5.33301 -8.66699 12.5 -21.167 21.5 -37.5l28 -51c9.66699 -17.667 17.667 -33.334 24 -47.001s9.5 -22.5 9.5 -26.5c0 -8 -4 -12 -12 -12s-17 7.33301 -27 22l-66 84c-2.66699 2.66699 -5 2.66699 -7 0zM34.999 186.999c0 28.667 5.66895 56.502 17.002 83.502
s27.166 51.333 47.499 73s43.5 38.834 69.5 51.501s53.667 19 83 19c39.333 0 74.666 -9.16699 105.999 -27.5s56.166 -43 74.499 -74s27.5 -66.167 27.5 -105.5c0 -38.667 -8.83301 -74.834 -26.5 -108.501s-43.334 -60.834 -77.001 -81.501s-74.5 -31 -122.5 -31
c-37.333 0 -71.166 8.66699 -101.499 26s-54.166 41.166 -71.499 71.499s-26 64.833 -26 103.5zM237.001 383.001c-80 0 -120.001 -57.668 -120.001 -173.001c0 -34 6.16699 -65.833 18.5 -95.5s29 -53.5 50 -71.5s44.167 -27 69.5 -27c33.333 0 58.833 7.16699 76.5 21.5
s29.834 34.333 36.501 60s10 55.5 10 89.5c0 34.667 -6.16699 66.834 -18.5 96.501s-29 53.667 -50 72s-45.167 27.5 -72.5 27.5z" />
    <glyph glyph-name="otilde" unicode="&#xf5;" horiz-adv-x="495" 
d="M191 507c-10 0 -21.668 -6 -35.001 -18c-12.667 -12.667 -20 -19 -22 -19c-9.33301 0 -14 6.66699 -14 20c0 3.33301 3.33301 9.5 10 18.5s15 18.5 25 28.5s19.833 18.667 29.5 26s17.5 11 23.5 11l107 -8c13.333 0 26.333 5.66699 39 17c11.333 11.333 17.333 17 18 17
c10.667 0 16 -5.66699 16 -17c0 -3.33301 -3.33301 -9.33301 -10 -18s-14.667 -18 -24 -28s-18.666 -18.667 -27.999 -26s-17 -11 -23 -11zM34.999 187c0 28.667 5.66895 56.502 17.002 83.502s27.166 51.333 47.499 73s43.5 38.834 69.5 51.501s53.667 19 83 19
c39.333 0 74.666 -9.16699 105.999 -27.5s56.166 -43 74.499 -74s27.5 -66.167 27.5 -105.5c0 -38.667 -8.83301 -74.834 -26.5 -108.501s-43.334 -60.834 -77.001 -81.501s-74.5 -31 -122.5 -31c-37.333 0 -71.166 8.66699 -101.499 26s-54.166 41.166 -71.499 71.499
s-26 64.833 -26 103.5zM237.001 383.002c-80 0 -120.001 -57.668 -120.001 -173.001c0 -34 6.16699 -65.833 18.5 -95.5s29 -53.5 50 -71.5s44.167 -27 69.5 -27c33.333 0 58.833 7.16699 76.5 21.5s29.834 34.333 36.501 60s10 55.5 10 89.5
c0 34.667 -6.16699 66.834 -18.5 96.501s-29 53.667 -50 72s-45.167 27.5 -72.5 27.5z" />
    <glyph glyph-name="odieresis" unicode="&#xf6;" horiz-adv-x="495" 
d="M305 578c10 10 21.333 14.999 34 14.999s24.167 -5.16699 34.5 -15.5s15.5 -21.833 15.5 -34.5s-5.16699 -24.167 -15.5 -34.5s-21.833 -15.5 -34.5 -15.5s-24.167 5.16699 -34.5 15.5s-15.5 21.833 -15.5 34.5s5.33301 24.334 16 35.001zM128 577.999
c10 10 21.333 14.999 34 14.999s24.167 -5.16699 34.5 -15.5s15.5 -21.833 15.5 -34.5s-5.16699 -24.167 -15.5 -34.5s-21.833 -15.5 -34.5 -15.5s-24.167 5.16699 -34.5 15.5s-15.5 21.833 -15.5 34.5s5.33301 24.334 16 35.001zM35 186.998
c0 28.667 5.66895 56.502 17.002 83.502s27.166 51.333 47.499 73s43.5 38.834 69.5 51.501s53.667 19 83 19c39.333 0 74.666 -9.16699 105.999 -27.5s56.166 -43 74.499 -74s27.5 -66.167 27.5 -105.5c0 -38.667 -8.83301 -74.834 -26.5 -108.501
s-43.334 -60.834 -77.001 -81.501s-74.5 -31 -122.5 -31c-37.333 0 -71.166 8.66699 -101.499 26s-54.166 41.166 -71.499 71.499s-26 64.833 -26 103.5zM237.002 383c-80 0 -120.001 -57.668 -120.001 -173.001c0 -34 6.16699 -65.833 18.5 -95.5s29 -53.5 50 -71.5
s44.167 -27 69.5 -27c33.333 0 58.833 7.16699 76.5 21.5s29.834 34.333 36.501 60s10 55.5 10 89.5c0 34.667 -6.16699 66.834 -18.5 96.501s-29 53.667 -50 72s-45.167 27.5 -72.5 27.5z" />
    <glyph glyph-name="divide" unicode="&#xf7;" horiz-adv-x="590" 
d="M340 399c0 -12.667 -4.49902 -23.5 -13.499 -32.5s-19.833 -13.5 -32.5 -13.5s-23.5 4.5 -32.5 13.5s-13.5 19.833 -13.5 32.5s4.66699 23.5 14 32.5s20.333 13.5 33 13.5c13.333 0 24.166 -4.5 32.499 -13.5s12.5 -19.833 12.5 -32.5zM509.001 232l-445 0.000976562
c-3.33301 0 -6.5 1.5 -9.5 4.5s-4.5 6.83301 -4.5 11.5c0 5.33301 2 12.333 6 21s10 13 18 13h453c3.33301 0 6.5 -1.16699 9.5 -3.5s4.5 -4.16602 4.5 -5.49902c0 -0.666992 -0.166992 -1.83398 -0.5 -3.50098s-0.833008 -3.83398 -1.5 -6.50098s-1.5 -5 -2.5 -7
s-1.83301 -4 -2.5 -6c-6 -12 -14.333 -18 -25 -18zM341.001 115.001c0 -12.667 -4.50098 -23.5 -13.501 -32.5s-19.833 -13.5 -32.5 -13.5s-23.5 4.5 -32.5 13.5s-13.5 19.833 -13.5 32.5s4.66699 23.667 14 33c8.66699 8.66699 19.334 13 32.001 13s23.5 -4.5 32.5 -13.5
s13.5 -19.833 13.5 -32.5z" />
    <glyph glyph-name="oslash" unicode="&#xf8;" horiz-adv-x="485" 
d="M56 -12c-2 -2 -5.00098 -3 -9.00098 -3c-4.66699 0 -9.5 2.16699 -14.5 6.5s-7.5 9.83301 -7.5 16.5s3.33301 12.334 10 17.001l40 38c-30 39.333 -45 80.333 -45 123c0 42 9.83301 80.167 29.5 114.5s45.667 61.833 78 82.5s67.166 31 104.499 31
c56 0 103.667 -17.667 143 -53l52 50c2.66699 2.66699 6.33398 4 11.001 4c9.33301 0 14 -5.33301 14 -16s-3.66699 -19 -11 -25l-40 -39c29.333 -38.667 44 -79.334 44 -122.001c0 -41.333 -8.83301 -79.333 -26.5 -114s-43.167 -62.167 -76.5 -82.5s-74 -30.5 -122 -30.5
c-45.333 0 -87.666 16 -126.999 48zM337.999 316c-28 42.667 -61.667 64 -101 64s-69.833 -13.667 -91.5 -41s-32.5 -70.333 -32.5 -129c0 -34 6 -65 18 -93zM149.999 79c27.333 -42 61.001 -63 101.001 -63c33.333 0 58.666 7.16699 75.999 21.5s29.333 33.5 36 57.5
s10 50 10 78c0 41.333 -5.66699 77.333 -17 108z" />
    <glyph glyph-name="ugrave" unicode="&#xf9;" horiz-adv-x="527" 
d="M202 631c54 -94 81 -146.668 81 -158.001s-3 -17 -9 -17c-6.66699 0 -18.334 9.33301 -35.001 28l-32 35.5l-37.5 44.5c-12.333 15.333 -22.666 28.833 -30.999 40.5s-12.5 18.834 -12.5 21.501c0 15.333 16.333 23 49 23c11.333 0 20.333 -6 27 -18zM364 50.999
l-0.000976562 6.00195c-48.667 -47.333 -103.667 -71 -165 -71c-34 0 -61.5 10.333 -82.5 31s-31.5 50 -31.5 88v203c0 27.333 -14.333 46.333 -43 57c-8.66699 2.66699 -13 8.33398 -13 17.001c0 8 5 13 15 15c11.333 0.666992 25.666 2.33398 42.999 5.00098
s37.333 6.66699 60 12c9.33301 1.33301 14 -2.66699 14 -12v-2c-4 -30.667 -6 -56.334 -6 -77.001v-195c0 -16 4 -30.833 12 -44.5s18.5 -24.834 31.5 -33.501s26.5 -13 40.5 -13c38.667 0 69.834 8.83301 93.501 26.5s35.5 40.5 35.5 68.5v183c0 18 -7 30.667 -21 38
s-28.667 11.333 -44 12c-15.333 0 -23 5.66699 -23 17c0 5.33301 3 9.33301 9 12c2.66699 1.33301 6.16699 2.16602 10.5 2.49902s9.5 0.833008 15.5 1.5c26 0 48.333 1.66699 67 5c9.33301 1.33301 15.333 2.33301 18 3c4.66699 0 15.334 3 32.001 9h2
c8.66699 0 13 -4 13 -12c0 -2.66699 -1 -6 -3 -10c-4 -6.66699 -6 -29 -6 -67v-212c0 -46 6 -69 18 -69c20.667 0 36 1 46 3s15 -2 15 -12s-4.66699 -15 -14 -15c-17.333 -2.66699 -33.5 -5.83398 -48.5 -9.50098s-28.833 -8.16699 -41.5 -13.5
c-26.667 -11.333 -42 -17 -46 -17c-5.33301 0 -8 1.33301 -8 4z" />
    <glyph glyph-name="uacute" unicode="&#xfa;" horiz-adv-x="527" 
d="M376 626c0 -2.66699 -4.16699 -9.83301 -12.5 -21.5s-18.666 -25.167 -30.999 -40.5l-37 -44.5l-31.5 -35.5c-16.667 -18.667 -28.334 -28 -35.001 -28s-10 5.66699 -10 17s27 64 81 158c7.33301 12 16.333 18 27 18c32.667 0 49 -7.66699 49 -23zM364 51.001
l-0.000976562 6.00195c-48.667 -47.333 -103.667 -71 -165 -71c-34 0 -61.5 10.333 -82.5 31s-31.5 50 -31.5 88v203c0 27.333 -14.333 46.333 -43 57c-8.66699 2.66699 -13 8.33398 -13 17.001c0 8 5 13 15 15c11.333 0.666992 25.666 2.33398 42.999 5.00098
s37.333 6.66699 60 12c9.33301 1.33301 14 -2.66699 14 -12v-2c-4 -30.667 -6 -56.334 -6 -77.001v-195c0 -16 4 -30.833 12 -44.5s18.5 -24.834 31.5 -33.501s26.5 -13 40.5 -13c38.667 0 69.834 8.83301 93.501 26.5s35.5 40.5 35.5 68.5v183c0 18 -7 30.667 -21 38
s-28.667 11.333 -44 12c-15.333 0 -23 5.66699 -23 17c0 5.33301 3 9.33301 9 12c2.66699 1.33301 6.16699 2.16602 10.5 2.49902s9.5 0.833008 15.5 1.5c26 0 48.333 1.66699 67 5c9.33301 1.33301 15.333 2.33301 18 3c4.66699 0 15.334 3 32.001 9h2
c8.66699 0 13 -4 13 -12c0 -2.66699 -1 -6 -3 -10c-4 -6.66699 -6 -29 -6 -67v-212c0 -46 6 -69 18 -69c20.667 0 36 1 46 3s15 -2 15 -12s-4.66699 -15 -14 -15c-17.333 -2.66699 -33.5 -5.83398 -48.5 -9.50098s-28.833 -8.16699 -41.5 -13.5
c-26.667 -11.333 -42 -17 -46 -17c-5.33301 0 -8 1.33301 -8 4z" />
    <glyph glyph-name="ucircumflex" unicode="&#xfb;" horiz-adv-x="527" 
d="M248 553c-20 -24 -42.001 -52.001 -66.001 -84.001c-10.667 -14.667 -20.667 -22 -30 -22c-6 0 -9 4 -9 12c0 4 3.16699 12.833 9.5 26.5s14.333 29.334 24 47.001l28 51.5c9 16.667 16.167 29.334 21.5 38.001c10 17.333 18.333 26 25 26s15.334 -9 26.001 -27
c5.33301 -8.66699 12.5 -21.167 21.5 -37.5l28 -51c9.66699 -17.667 17.667 -33.334 24 -47.001s9.5 -22.5 9.5 -26.5c0 -8 -4 -12 -12 -12s-17 7.33301 -27 22l-66 84c-2.66699 2.66699 -5 2.66699 -7 0zM363.999 50.999l-0.000976562 6.00195
c-48.667 -47.333 -103.667 -71 -165 -71c-34 0 -61.5 10.333 -82.5 31s-31.5 50 -31.5 88v203c0 27.333 -14.333 46.333 -43 57c-8.66699 2.66699 -13 8.33398 -13 17.001c0 8 5 13 15 15c11.333 0.666992 25.666 2.33398 42.999 5.00098s37.333 6.66699 60 12
c9.33301 1.33301 14 -2.66699 14 -12v-2c-4 -30.667 -6 -56.334 -6 -77.001v-195c0 -16 4 -30.833 12 -44.5s18.5 -24.834 31.5 -33.501s26.5 -13 40.5 -13c38.667 0 69.834 8.83301 93.501 26.5s35.5 40.5 35.5 68.5v183c0 18 -7 30.667 -21 38s-28.667 11.333 -44 12
c-15.333 0 -23 5.66699 -23 17c0 5.33301 3 9.33301 9 12c2.66699 1.33301 6.16699 2.16602 10.5 2.49902s9.5 0.833008 15.5 1.5c26 0 48.333 1.66699 67 5c9.33301 1.33301 15.333 2.33301 18 3c4.66699 0 15.334 3 32.001 9h2c8.66699 0 13 -4 13 -12
c0 -2.66699 -1 -6 -3 -10c-4 -6.66699 -6 -29 -6 -67v-212c0 -46 6 -69 18 -69c20.667 0 36 1 46 3s15 -2 15 -12s-4.66699 -15 -14 -15c-17.333 -2.66699 -33.5 -5.83398 -48.5 -9.50098s-28.833 -8.16699 -41.5 -13.5c-26.667 -11.333 -42 -17 -46 -17
c-5.33301 0 -8 1.33301 -8 4z" />
    <glyph glyph-name="udieresis" unicode="&#xfc;" horiz-adv-x="527" 
d="M310 578c10 10 21.333 14.999 34 14.999s24.167 -5.16699 34.5 -15.5s15.5 -21.833 15.5 -34.5s-5.16699 -24.167 -15.5 -34.5s-21.833 -15.5 -34.5 -15.5s-24.167 5.16699 -34.5 15.5s-15.5 21.833 -15.5 34.5s5.33301 24.334 16 35.001zM133 577.999
c10 10 21.333 14.999 34 14.999s24.167 -5.16699 34.5 -15.5s15.5 -21.833 15.5 -34.5s-5.16699 -24.167 -15.5 -34.5s-21.833 -15.5 -34.5 -15.5s-24.167 5.16699 -34.5 15.5s-15.5 21.833 -15.5 34.5s5.33301 24.334 16 35.001zM364 50.998l-0.000976562 6.00195
c-48.667 -47.333 -103.667 -71 -165 -71c-34 0 -61.5 10.333 -82.5 31s-31.5 50 -31.5 88v203c0 27.333 -14.333 46.333 -43 57c-8.66699 2.66699 -13 8.33398 -13 17.001c0 8 5 13 15 15c11.333 0.666992 25.666 2.33398 42.999 5.00098s37.333 6.66699 60 12
c9.33301 1.33301 14 -2.66699 14 -12v-2c-4 -30.667 -6 -56.334 -6 -77.001v-195c0 -16 4 -30.833 12 -44.5s18.5 -24.834 31.5 -33.501s26.5 -13 40.5 -13c38.667 0 69.834 8.83301 93.501 26.5s35.5 40.5 35.5 68.5v183c0 18 -7 30.667 -21 38s-28.667 11.333 -44 12
c-15.333 0 -23 5.66699 -23 17c0 5.33301 3 9.33301 9 12c2.66699 1.33301 6.16699 2.16602 10.5 2.49902s9.5 0.833008 15.5 1.5c26 0 48.333 1.66699 67 5c9.33301 1.33301 15.333 2.33301 18 3c4.66699 0 15.334 3 32.001 9h2c8.66699 0 13 -4 13 -12
c0 -2.66699 -1 -6 -3 -10c-4 -6.66699 -6 -29 -6 -67v-212c0 -46 6 -69 18 -69c20.667 0 36 1 46 3s15 -2 15 -12s-4.66699 -15 -14 -15c-17.333 -2.66699 -33.5 -5.83398 -48.5 -9.50098s-28.833 -8.16699 -41.5 -13.5c-26.667 -11.333 -42 -17 -46 -17
c-5.33301 0 -8 1.33301 -8 4z" />
    </font>
</defs>
</svg>
