<svg xmlns="http://www.w3.org/2000/svg">
<defs>
<font id="Comfortaa-Medium" horiz-adv-x="676" >
  <font-face 
    font-family="Comfortaa Medium"
    font-weight="500"
    font-stretch="normal"
    units-per-em="1000"
    panose-1="0 0 0 0 0 0 0 0 0 0"
    ascent="800"
    descent="-200"
    x-height="545.001"
    cap-height="781"
    bbox="-211.004 -303.999 1276 1270"
    underline-thickness="50"
    underline-position="-75"
    unicode-range="U+000D-U+FB02"
  />
<missing-glyph horiz-adv-x="625" 
d="M72 0c-9.33301 0 -17.333 3.33301 -24 10s-10 14.334 -10 23.001v715c0 8.66699 3.33301 16.334 10 23.001s14.667 10 24 10h483c9.33301 0 17.166 -3.33301 23.499 -10s9.5 -14.334 9.5 -23.001v-715c0 -8.66699 -3.16699 -16.334 -9.5 -23.001s-14.166 -10 -23.499 -10
h-483zM313 130c-12.667 0 -23.499 4.33203 -32.499 12.999s-13.5 19.334 -13.5 32.001s4.5 23.5 13.5 32.5s19.833 13.5 32.5 13.5c12 0 22.5 -4.5 31.5 -13.5s13.5 -19.833 13.5 -32.5c0 -12 -4.33301 -22.5 -13 -31.5s-19.334 -13.5 -32.001 -13.5zM99.001 60.999h428v659
h-428v-659zM313.001 253.999c-10 0 -18.1689 3.16992 -24.502 9.50293s-9.5 14.166 -9.5 23.499c0 19.333 4.66699 39 14 59s21.666 37.333 36.999 52l35 32.5c10.667 10.333 19.5 22 26.5 35s10.5 29.167 10.5 48.5c0 23.333 -8.16699 42.666 -24.5 57.999
s-36.833 23 -61.5 23c-28 0 -50.333 -8.33301 -67 -25s-25 -39.334 -25 -68.001c0 -9.33301 -3.16699 -17 -9.5 -23s-14.166 -9 -23.499 -9s-17.333 3 -24 9s-10 13.667 -10 23c0 30.667 6.83301 57.667 20.5 81s32.334 41.5 56.001 54.5s51.167 19.5 82.5 19.5
c29.333 0 55.333 -6.16699 78 -18.5s40.5 -29.333 53.5 -51s19.5 -46.5 19.5 -74.5c0 -24.667 -4.16699 -45.834 -12.5 -63.501s-19.5 -33.5 -33.5 -47.5s-29.333 -28.333 -46 -43c-9.33301 -8 -16.5 -18.5 -21.5 -31.5s-7.5 -26.5 -7.5 -40.5
c0 -9.33301 -3.16699 -17.166 -9.5 -23.499s-14.166 -9.5 -23.499 -9.5z" />
    <glyph glyph-name="fi" unicode="fi" horiz-adv-x="614" 
d="M156 0c-12 0 -22.001 4.16602 -30.001 12.499s-12 18.5 -12 30.5v506c0 46.667 8.5 87.667 25.5 123s44.167 63 81.5 83s86.333 30 147 30c28.667 0 55 -3.16699 79 -9.5s43.167 -15.333 57.5 -27s21.5 -25.5 21.5 -41.5c0 -29.333 -17 -44 -51 -44c-12 0 -23 3 -33 9
s-20 12.833 -30 20.5s-20.667 14.334 -32 20.001s-25 8.5 -41 8.5c-26 0 -49.667 -5.16699 -71 -15.5s-38.166 -28 -50.499 -53s-18.5 -59.5 -18.5 -103.5v-506c0 -12 -4 -22.167 -12 -30.5s-18.333 -12.5 -31 -12.5zM56.999 453.999c-12 0 -21.5 3.33301 -28.5 10
s-10.5 15.334 -10.5 26.001s3.5 19.5 10.5 26.5s16.5 10.5 28.5 10.5h257c11.333 0 20.666 -3.5 27.999 -10.5s11 -15.833 11 -26.5s-3.66699 -19.334 -11 -26.001s-16.666 -10 -27.999 -10h-257zM473.999 -0.000976562c-12.667 0 -23 4 -31 12s-12 18.333 -12 31v461
c0 13.333 4 23.833 12 31.5s18.333 11.5 31 11.5s22.834 -3.83301 30.501 -11.5s11.5 -18.167 11.5 -31.5v-461c0 -12.667 -3.83301 -23 -11.5 -31s-17.834 -12 -30.501 -12z" />
    <glyph glyph-name="fl" unicode="fl" horiz-adv-x="644" 
d="M156 0c-12 0 -22.001 4.16602 -30.001 12.499s-12 18.5 -12 30.5v514c0 42 8.16699 80 24.5 114s40.833 61 73.5 81s73.334 29.667 122.001 29c14.667 0 30.334 -1.16699 47.001 -3.5s34 -6.16602 52 -11.499c17.333 -4.66699 30.166 -10.667 38.499 -18
s12.5 -17.333 12.5 -30c0 -14 -4.5 -23.5 -13.5 -28.5s-21.5 -5.16699 -37.5 -0.5c-18.667 5.33301 -36 9 -52 11s-31 3 -45 3c-42.667 0 -76.167 -12 -100.5 -36s-36.5 -60 -36.5 -108v-516c0 -12 -4 -22.167 -12 -30.5s-18.333 -12.5 -31 -12.5zM56.999 453.999
c-12 0 -21.5 3.33301 -28.5 10s-10.5 15.334 -10.5 26.001s3.5 19.5 10.5 26.5s16.5 10.5 28.5 10.5h244c12 0 21.5 -3.5 28.5 -10.5s10.5 -15.833 10.5 -26.5s-3.5 -19.334 -10.5 -26.001s-16.5 -10 -28.5 -10h-244zM567.999 -0.000976562c-28 0 -52.668 7.5 -74.001 22.5
s-38.166 35.833 -50.499 62.5s-18.5 57.334 -18.5 92.001v562c0 12.667 4 22.834 12 30.501s18.333 11.5 31 11.5c12 0 22 -3.83301 30 -11.5s12 -17.834 12 -30.501v-562c0 -27.333 5.33301 -49.666 16 -66.999s24.667 -26 42 -26h25c10.667 0 19.5 -3.83301 26.5 -11.5
s10.5 -17.834 10.5 -30.501s-5 -22.834 -15 -30.501s-23 -11.5 -39 -11.5h-8z" />
    <glyph glyph-name="f_f" unicode="ff" horiz-adv-x="733" 
d="M155 0c-10.667 0 -20.167 3.83301 -28.5 11.5s-12.5 18.167 -12.5 31.5v502c0 47.333 8.5 88.666 25.5 123.999s41.667 62.833 74 82.5s70.833 29.5 115.5 29.5c12.667 0 23 -3.66699 31 -11s12 -16.666 12 -27.999c0 -10.667 -4 -19.667 -12 -27s-18.333 -11 -31 -11
c-28 0 -51.667 -6.5 -71 -19.5s-34 -31 -44 -54s-15 -49.5 -15 -79.5v-508c0 -13.333 -3.83301 -23.833 -11.5 -31.5s-18.5 -11.5 -32.5 -11.5zM57 454c-12 0 -21.5 3.33301 -28.5 10s-10.5 15.334 -10.5 26.001s3.5 19.5 10.5 26.5s16.5 10.5 28.5 10.5h256
c12 0 21.5 -3.5 28.5 -10.5s10.5 -15.833 10.5 -26.5s-3.5 -19.334 -10.5 -26.001s-16.5 -10 -28.5 -10h-256zM521 0c-10.667 0 -20.167 3.83301 -28.5 11.5s-12.5 18.167 -12.5 31.5v502c0 47.333 8.5 88.666 25.5 123.999s41.667 62.833 74 82.5s70.833 29.5 115.5 29.5
c12.667 0 23 -3.66699 31 -11s12 -16.666 12 -27.999c0 -10.667 -4 -19.667 -12 -27s-18.333 -11 -31 -11c-28 0 -51.667 -6.5 -71 -19.5s-34 -31 -44 -54s-15 -49.5 -15 -79.5v-508c0 -13.333 -3.83301 -23.833 -11.5 -31.5s-18.5 -11.5 -32.5 -11.5zM423 454
c-12 0 -21.5 3.33301 -28.5 10s-10.5 15.334 -10.5 26.001s3.5 19.5 10.5 26.5s16.5 10.5 28.5 10.5h256c12 0 21.5 -3.5 28.5 -10.5s10.5 -15.833 10.5 -26.5s-3.5 -19.334 -10.5 -26.001s-16.5 -10 -28.5 -10h-256z" />
    <glyph glyph-name="f_f_i" unicode="ffi" horiz-adv-x="1026" 
d="M155 0c-10.667 0 -20.167 3.83301 -28.5 11.5s-12.5 18.167 -12.5 31.5v502c0 47.333 8.5 88.666 25.5 123.999s41.667 62.833 74 82.5s70.833 29.5 115.5 29.5c12.667 0 23 -3.66699 31 -11s12 -16.666 12 -27.999c0 -10.667 -4 -19.667 -12 -27s-18.333 -11 -31 -11
c-28 0 -51.667 -6.5 -71 -19.5s-34 -31 -44 -54s-15 -49.5 -15 -79.5v-508c0 -13.333 -3.83301 -23.833 -11.5 -31.5s-18.5 -11.5 -32.5 -11.5zM57 454c-12 0 -21.5 3.33301 -28.5 10s-10.5 15.334 -10.5 26.001s3.5 19.5 10.5 26.5s16.5 10.5 28.5 10.5h256
c12 0 21.5 -3.5 28.5 -10.5s10.5 -15.833 10.5 -26.5s-3.5 -19.334 -10.5 -26.001s-16.5 -10 -28.5 -10h-256zM521 0c-10.667 0 -20.167 3.83301 -28.5 11.5s-12.5 18.167 -12.5 31.5v502c0 47.333 8.5 88.666 25.5 123.999s41.667 62.833 74 82.5s70.833 29.5 115.5 29.5
c12.667 0 23 -3.66699 31 -11s12 -16.666 12 -27.999c0 -10.667 -4 -19.667 -12 -27s-18.333 -11 -31 -11c-28 0 -51.667 -6.5 -71 -19.5s-34 -31 -44 -54s-15 -49.5 -15 -79.5v-508c0 -13.333 -3.83301 -23.833 -11.5 -31.5s-18.5 -11.5 -32.5 -11.5zM423 454
c-12 0 -21.5 3.33301 -28.5 10s-10.5 15.334 -10.5 26.001s3.5 19.5 10.5 26.5s16.5 10.5 28.5 10.5h256c12 0 21.5 -3.5 28.5 -10.5s10.5 -15.833 10.5 -26.5s-3.5 -19.334 -10.5 -26.001s-16.5 -10 -28.5 -10h-256zM880 0c-12.667 0 -23 4 -31 12s-12 18.333 -12 31v461
c0 13.333 4 23.833 12 31.5s18.333 11.5 31 11.5s22.834 -3.83301 30.501 -11.5s11.5 -18.167 11.5 -31.5v-461c0 -12.667 -3.83301 -23 -11.5 -31s-17.834 -12 -30.501 -12zM879 646c-16 0 -29.667 5.66699 -41 17s-17 25.333 -17 42s5.83301 30.5 17.5 41.5
s25.5 16.5 41.5 16.5c15.333 0 28.833 -5.5 40.5 -16.5s17.5 -24.833 17.5 -41.5s-5.83301 -30.667 -17.5 -42s-25.5 -17 -41.5 -17z" />
    <glyph glyph-name="f_f_l" unicode="ffl" horiz-adv-x="1021" 
d="M155 0c-10.667 0 -20.167 3.83301 -28.5 11.5s-12.5 18.167 -12.5 31.5v502c0 47.333 8.5 88.666 25.5 123.999s41.667 62.833 74 82.5s70.833 29.5 115.5 29.5c12.667 0 23 -3.66699 31 -11s12 -16.666 12 -27.999c0 -10.667 -4 -19.667 -12 -27s-18.333 -11 -31 -11
c-28 0 -51.667 -6.5 -71 -19.5s-34 -31 -44 -54s-15 -49.5 -15 -79.5v-508c0 -13.333 -3.83301 -23.833 -11.5 -31.5s-18.5 -11.5 -32.5 -11.5zM57 454c-12 0 -21.5 3.33301 -28.5 10s-10.5 15.334 -10.5 26.001s3.5 19.5 10.5 26.5s16.5 10.5 28.5 10.5h256
c12 0 21.5 -3.5 28.5 -10.5s10.5 -15.833 10.5 -26.5s-3.5 -19.334 -10.5 -26.001s-16.5 -10 -28.5 -10h-256zM521 0c-10.667 0 -20.167 3.83301 -28.5 11.5s-12.5 18.167 -12.5 31.5v502c0 47.333 8.5 88.666 25.5 123.999s41.667 62.833 74 82.5s70.833 29.5 115.5 29.5
c12.667 0 23 -3.66699 31 -11s12 -16.666 12 -27.999c0 -10.667 -4 -19.667 -12 -27s-18.333 -11 -31 -11c-28 0 -51.667 -6.5 -71 -19.5s-34 -31 -44 -54s-15 -49.5 -15 -79.5v-508c0 -13.333 -3.83301 -23.833 -11.5 -31.5s-18.5 -11.5 -32.5 -11.5zM423 454
c-12 0 -21.5 3.33301 -28.5 10s-10.5 15.334 -10.5 26.001s3.5 19.5 10.5 26.5s16.5 10.5 28.5 10.5h256c12 0 21.5 -3.5 28.5 -10.5s10.5 -15.833 10.5 -26.5s-3.5 -19.334 -10.5 -26.001s-16.5 -10 -28.5 -10h-256zM945 0c-27.333 0 -51.835 7.5 -73.502 22.5
s-38.5 35.833 -50.5 62.5s-18 57.334 -18 92.001v562c0 12.667 3.83301 22.834 11.5 30.501s17.834 11.5 30.501 11.5s22.834 -3.83301 30.501 -11.5s11.5 -17.834 11.5 -30.501v-562c0 -27.333 5.5 -49.666 16.5 -66.999s24.833 -26 41.5 -26h25
c11.333 0 20.333 -3.83301 27 -11.5s10 -17.834 10 -30.501s-4.83301 -22.834 -14.5 -30.501s-22.5 -11.5 -38.5 -11.5h-9z" />
    <glyph glyph-name=".notdef" horiz-adv-x="625" 
d="M72 0c-9.33301 0 -17.333 3.33301 -24 10s-10 14.334 -10 23.001v715c0 8.66699 3.33301 16.334 10 23.001s14.667 10 24 10h483c9.33301 0 17.166 -3.33301 23.499 -10s9.5 -14.334 9.5 -23.001v-715c0 -8.66699 -3.16699 -16.334 -9.5 -23.001s-14.166 -10 -23.499 -10
h-483zM313 130c-12.667 0 -23.499 4.33203 -32.499 12.999s-13.5 19.334 -13.5 32.001s4.5 23.5 13.5 32.5s19.833 13.5 32.5 13.5c12 0 22.5 -4.5 31.5 -13.5s13.5 -19.833 13.5 -32.5c0 -12 -4.33301 -22.5 -13 -31.5s-19.334 -13.5 -32.001 -13.5zM99.001 60.999h428v659
h-428v-659zM313.001 253.999c-10 0 -18.1689 3.16992 -24.502 9.50293s-9.5 14.166 -9.5 23.499c0 19.333 4.66699 39 14 59s21.666 37.333 36.999 52l35 32.5c10.667 10.333 19.5 22 26.5 35s10.5 29.167 10.5 48.5c0 23.333 -8.16699 42.666 -24.5 57.999
s-36.833 23 -61.5 23c-28 0 -50.333 -8.33301 -67 -25s-25 -39.334 -25 -68.001c0 -9.33301 -3.16699 -17 -9.5 -23s-14.166 -9 -23.499 -9s-17.333 3 -24 9s-10 13.667 -10 23c0 30.667 6.83301 57.667 20.5 81s32.334 41.5 56.001 54.5s51.167 19.5 82.5 19.5
c29.333 0 55.333 -6.16699 78 -18.5s40.5 -29.333 53.5 -51s19.5 -46.5 19.5 -74.5c0 -24.667 -4.16699 -45.834 -12.5 -63.501s-19.5 -33.5 -33.5 -47.5s-29.333 -28.333 -46 -43c-9.33301 -8 -16.5 -18.5 -21.5 -31.5s-7.5 -26.5 -7.5 -40.5
c0 -9.33301 -3.16699 -17.166 -9.5 -23.499s-14.166 -9.5 -23.499 -9.5z" />
    <glyph glyph-name="NULL" horiz-adv-x="0" 
 />
    <glyph glyph-name="NULL" horiz-adv-x="0" 
 />
    <glyph glyph-name="CR" unicode="&#xd;" horiz-adv-x="293" 
 />
    <glyph glyph-name="space" unicode=" " horiz-adv-x="293" 
 />
    <glyph glyph-name="exclam" unicode="!" horiz-adv-x="273" 
d="M112 180c-12 0 -22.167 4.16699 -30.5 12.5s-12.5 18.5 -12.5 30.5v515c0 12 4.16699 22.333 12.5 31s18.5 13 30.5 13s22.167 -4.33301 30.5 -13s12.5 -19 12.5 -31v-515c0 -12 -4.5 -22.167 -13.5 -30.5s-18.833 -12.5 -29.5 -12.5zM112 0c-17.333 0 -32 6 -44 18
s-18 26.667 -18 44s6 32 18 44s26.667 18 44 18c16.667 0 31 -6.16699 43 -18.5s18 -26.833 18 -43.5c0 -17.333 -6 -32 -18 -44s-26.333 -18 -43 -18z" />
    <glyph glyph-name="quotedbl" unicode="&#x22;" horiz-adv-x="273" 
d="M200 561c-8.66699 0 -16.168 3.16699 -22.501 9.5s-9.5 13.833 -9.5 22.5l-11 145c0 12 4.33301 22.333 13 31s18.667 13 30 13c12.667 0 23 -4.33301 31 -13s12 -19 12 -31l-9 -145c-0.666992 -8.66699 -4.16699 -16.167 -10.5 -22.5s-14.166 -9.5 -23.499 -9.5z
M79.999 561c-9.33301 0 -17.168 3.16699 -23.501 9.5s-9.83301 13.833 -10.5 22.5l-9 145c0 12 4.33301 22.167 13 30.5s18.667 12.5 30 12.5c12 0 22 -4.16699 30 -12.5s12 -18.5 12 -30.5l-9 -145c0 -8.66699 -3.16699 -16.167 -9.5 -22.5s-14.166 -9.5 -23.499 -9.5z" />
    <glyph glyph-name="numbersign" unicode="#" horiz-adv-x="722" 
d="M639 548c12 0 21.5 -3.00391 28.5 -9.00391s9.83301 -14.667 8.5 -26c-0.666992 -11.333 -5.5 -20.166 -14.5 -26.499s-20.5 -9.5 -34.5 -9.5h-75l-28 -162h75c12.667 0 22 -3.16699 28 -9.5s9 -14.166 9 -23.499s-4.33301 -18 -13 -26s-21 -12 -37 -12h-79l-35 -201
c-2.66699 -13.333 -8 -23.833 -16 -31.5s-18.667 -11.5 -32 -11.5c-12 0 -21 4.16699 -27 12.5s-7.66699 18.833 -5 31.5l34 200h-181l-35 -201c-2 -12 -7.33301 -22.167 -16 -30.5s-19 -12.5 -31 -12.5s-21.167 3.66699 -27.5 11s-8.16602 18.333 -5.49902 33l34 200h-79
c-11.333 0 -20.333 3 -27 9s-9.66699 13.667 -9 23c0.666992 12.667 5.5 22.334 14.5 29.001s20.167 10 33.5 10h84l27 162h-80c-12.667 0 -22.5 2.83301 -29.5 8.5s-10.5 13.5 -10.5 23.5c0 12.667 4.5 22.334 13.5 29.001s21.167 10 36.5 10h86l35 194
c2 12.667 7.16699 23 15.5 31s18.833 12 31.5 12c12 0 21.167 -4 27.5 -12s8.16602 -18.667 5.49902 -32l-34 -193h181l35 194c2 12 7.33301 22.167 16 30.5s19 12.5 31 12.5c14 0 23.5 -4.16699 28.5 -12.5s6.5 -18.833 4.5 -31.5l-34 -193h72zM442 314.996l28 162h-181
l-27 -162h180z" />
    <glyph glyph-name="dollar" unicode="$" horiz-adv-x="611" 
d="M311 -10c-40.667 0 -78.502 5.66992 -113.502 17.0029s-65.5 27.833 -91.5 49.5s-45.333 47.5 -58 77.5c-4.66699 12 -4.5 22.833 0.5 32.5s13.833 16.167 26.5 19.5c9.33301 2.66699 18.666 1.5 27.999 -3.5s16 -12.833 20 -23.5c12.667 -27.333 36 -49.333 70 -66
s73.333 -25 118 -25c32 0 60.667 5.33301 86 16s45.5 26.167 60.5 46.5s22.5 45.5 22.5 75.5c0.666992 38.667 -12.666 72.5 -39.999 101.5s-71 47.167 -131 54.5c-48 6 -89.833 18.667 -125.5 38s-63 44.166 -82 74.499s-28.5 64.833 -28.5 103.5
c0 41.333 10.833 76.666 32.5 105.999s51.334 51.833 89.001 67.5s79.5 23.5 125.5 23.5c37.333 0 70.5 -5.5 99.5 -16.5s53.833 -26 74.5 -45s38 -40.5 52 -64.5c6.66699 -12 9.16699 -23.333 7.5 -34s-7.5 -18.667 -17.5 -24c-8.66699 -6.66699 -18.5 -8.16699 -29.5 -4.5
s-19.5 10.5 -25.5 20.5c-14 25.333 -33.667 46.833 -59 64.5s-59.666 26.5 -102.999 26.5c-48.667 0.666992 -88 -9.16602 -118 -29.499s-45 -50.833 -45 -91.5c0 -21.333 4.66699 -41.833 14 -61.5s26.5 -36.834 51.5 -51.501s60.167 -25.334 105.5 -32.001
c76 -10 134.667 -34.167 176 -72.5s62 -88.833 62 -151.5c0 -35.333 -6.83301 -66.5 -20.5 -93.5s-32.167 -49.833 -55.5 -68.5s-50.333 -32.667 -81 -42s-63 -14 -97 -14zM316.998 -99.9971c-7.33301 0 -13.666 2.66699 -18.999 8s-8 12.333 -8 21v893
c0 9.33301 2.66699 16.5 8 21.5s11.666 7.5 18.999 7.5c8 0 14.5 -2.5 19.5 -7.5s7.5 -12.167 7.5 -21.5v-893c0 -8.66699 -2.5 -15.667 -7.5 -21s-11.5 -8 -19.5 -8z" />
    <glyph glyph-name="percent" unicode="%" horiz-adv-x="859" 
d="M162 0c-12 0 -22.168 4.16797 -30.501 12.501s-12.5 18.5 -12.5 30.5c0 11.333 3.33301 21 10 29l542 692c4.66699 5.33301 9.83398 9.66602 15.501 12.999s11.834 5 18.501 5c12.667 0 23 -4.33301 31 -13s12 -19 12 -31c0 -9.33301 -2.66699 -18 -8 -26l-546 -698
c-8.66699 -9.33301 -19.334 -14 -32.001 -14zM229.999 388.001c-36 0 -69 9 -99 27s-53.833 41.833 -71.5 71.5s-26.5 62.167 -26.5 97.5c0 36 8.83301 68.833 26.5 98.5s41.5 53.667 71.5 72s63 27.5 99 27.5s68.833 -9.16699 98.5 -27.5s53.5 -42.333 71.5 -72
s27 -62.5 27 -98.5c0 -35.333 -9 -67.833 -27 -97.5s-41.833 -53.5 -71.5 -71.5s-62.5 -27 -98.5 -27zM229.999 473.001c20.667 0 39.333 5 56 15s30.167 23.5 40.5 40.5s15.5 35.5 15.5 55.5c0 20.667 -5.16699 39.5 -15.5 56.5s-24 30.667 -41 41s-35.5 15.5 -55.5 15.5
s-38.667 -5.16699 -56 -15.5s-31 -24 -41 -41s-15 -35.833 -15 -56.5c0 -20 5 -38.5 15 -55.5s23.5 -30.5 40.5 -40.5s35.833 -15 56.5 -15zM635.998 0.000976562c-36 0 -68.833 8.83496 -98.5 26.502s-53.5 41.334 -71.5 71.001s-27 62.5 -27 98.5s9 68.833 27 98.5
s41.667 53.5 71 71.5s62.333 27 99 27c36 0 68.833 -8.83301 98.5 -26.5s53.5 -41.334 71.5 -71.001s27 -62.834 27 -99.501c0 -36 -9 -68.833 -27 -98.5s-41.833 -53.334 -71.5 -71.001s-62.5 -26.5 -98.5 -26.5zM635.998 85.0029c20.667 0 39.5 4.99902 56.5 14.999
s30.5 23.5 40.5 40.5s15 35.5 15 55.5c0 20.667 -5 39.334 -15 56.001s-23.667 30.167 -41 40.5s-36 15.5 -56 15.5s-38.667 -5 -56 -15s-31 -23.5 -41 -40.5s-15 -35.833 -15 -56.5c0 -20 5 -38.5 15 -55.5s23.667 -30.5 41 -40.5s36 -15 56 -15z" />
    <glyph glyph-name="ampersand" unicode="&#x26;" horiz-adv-x="724" 
d="M256 -9c-42.667 0 -79.8359 7.83691 -111.503 23.5039s-56.167 37.667 -73.5 66s-26 61.5 -26 99.5c0 43.333 14 83.166 42 119.499s68.333 75.166 121 116.499l84 66c30.667 24.667 52.5 48.5 65.5 71.5s19.5 46.5 19.5 70.5c0 26.667 -9 50 -27 70s-43.667 30 -77 30
c-30 0 -54.5 -9.33301 -73.5 -28s-28.5 -40.334 -28.5 -65.001c0 -19.333 4 -37.666 12 -54.999s20.667 -34.666 38 -51.999l451 -450c8.66699 -9.33301 13.667 -18 15 -26s-2.33398 -16.667 -11.001 -26c-18.667 -18.667 -37 -18.667 -55 0l-456 456
c-22 22 -39.167 45.833 -51.5 71.5s-18.5 52.5 -18.5 80.5c0 31.333 7.83301 59.166 23.5 83.499s36.834 43.666 63.501 57.999s57 21.5 91 21.5c34.667 0 65.5 -7.5 92.5 -22.5s48.167 -35.167 63.5 -60.5s23 -54.333 23 -87c0 -25.333 -4.83301 -48.833 -14.5 -70.5
s-23.5 -42.5 -41.5 -62.5s-40.667 -40.667 -68 -62l-81 -63c-26.667 -21.333 -49 -42.166 -67 -62.499s-31.5 -40.333 -40.5 -60s-13.5 -40.167 -13.5 -61.5c0 -36.667 11.333 -65.334 34 -86.001s55.334 -31 98.001 -31c36 0 68.333 8.83301 97 26.5s58 42.5 88 74.5
l150 159c8.66699 8.66699 17 14 25 16s16.667 -1.33301 26 -10c8.66699 -8 13.334 -16.667 14.001 -26s-3.66602 -19 -12.999 -29l-150 -158c-34.667 -38.667 -71.167 -69.334 -109.5 -92.001s-81.5 -34 -129.5 -34z" />
    <glyph glyph-name="quotesingle" unicode="'" horiz-adv-x="156" 
d="M80 561c-8.66699 0 -16.334 3.16699 -23.001 9.5s-10 14.166 -10 23.499l-10 144c0 12 4.33301 22.167 13 30.5s18.667 12.5 30 12.5c12 0 22.167 -4.16699 30.5 -12.5s12.5 -18.5 12.5 -30.5l-10 -144c0 -9.33301 -3.16699 -17.166 -9.5 -23.499
s-14.166 -9.5 -23.499 -9.5z" />
    <glyph glyph-name="parenleft" unicode="(" horiz-adv-x="262" 
d="M203 -234c-8.66699 0 -16.332 2.16699 -22.999 6.5s-12.334 11.833 -17.001 22.5c-38.667 80 -67.667 159.833 -87 239.5s-29 159.834 -29 240.501c0 80 9.5 159.833 28.5 239.5s48.167 158.834 87.5 237.501c8.66699 19.333 22 29 40 29
c12 0 22.167 -4.16699 30.5 -12.5s12.5 -18.5 12.5 -30.5c-0.666992 -8.66699 -3 -16.334 -7 -23.001c-72 -146.667 -108 -293.667 -108 -441c0 -73.333 9.33301 -147.333 28 -222s45.667 -148.334 81 -221.001c4 -8 6 -15.333 6 -22c0 -12 -4 -22.167 -12 -30.5
s-18.333 -12.5 -31 -12.5z" />
    <glyph glyph-name="parenright" unicode=")" horiz-adv-x="262" 
d="M58 -234c-12 0 -22 4.16699 -30 12.5s-12 18.5 -12 30.5c0 6.66699 1.66699 14 5 22c36 72.667 63.333 146.334 82 221.001s28 148.667 28 222c0 147.333 -36.333 294.333 -109 441c-3.33301 6.66699 -5.33301 14.334 -6 23.001c0 12 4.16699 22.167 12.5 30.5
s18.166 12.5 29.499 12.5c19.333 0 33.333 -9.66699 42 -29c38.667 -78.667 67.5 -157.834 86.5 -237.501s28.5 -159.5 28.5 -239.5c0 -80.667 -9.66699 -160.834 -29 -240.501s-48 -159.5 -86 -239.5c-6 -10.667 -12.167 -18.167 -18.5 -22.5s-14.166 -6.5 -23.499 -6.5z
" />
    <glyph glyph-name="asterisk" unicode="*" horiz-adv-x="381" 
d="M122 489c-12.667 0 -22.834 4.49902 -30.501 13.499s-11.5 18.833 -11.5 29.5c0 6.66699 1.33301 12.834 4 18.501s7 10.5 13 14.5l59 48l-71 5c-12 1.33301 -22 6 -30 14s-12 17.667 -12 29c0 13.333 4.5 23.833 13.5 31.5s18.833 11.5 29.5 11.5
c4 0 8.5 -0.833008 13.5 -2.5s9.5 -4.16699 13.5 -7.5l57 -36l-16 66c-0.666992 2.66699 -1.33398 5 -2.00098 7s-1 4.33301 -1 7c0 12 4.16699 22.333 12.5 31s18.5 13 30.5 13s22.167 -4.33301 30.5 -13s12.5 -19 12.5 -31c0 -2.66699 -0.166992 -5 -0.5 -7
s-0.833008 -4.33301 -1.5 -7l-17 -67l62 39c6.66699 5.33301 14.334 8 23.001 8c10 0 19.667 -4 29 -12s14 -18.333 14 -31c0 -12 -3.83301 -22 -11.5 -30s-17.834 -12.333 -30.501 -13l-71 -5l56 -45c13.333 -10 20 -22 20 -36c0 -11.333 -4.16699 -21.333 -12.5 -30
s-20.166 -13 -35.499 -13c-8.66699 1.33301 -16 4.5 -22 9.5s-10.667 11.5 -14 19.5l-30 69l-31 -68c-3.33301 -10 -8.66602 -17.5 -15.999 -22.5s-16 -7.5 -26 -7.5z" />
    <glyph glyph-name="plus" unicode="+" horiz-adv-x="547" 
d="M273 153c-12 0 -22.167 4.16699 -30.5 12.5s-12.5 18.5 -12.5 30.5v150h-149c-12 0 -22 4 -30 12s-12 18.333 -12 31c0 12 4 22.167 12 30.5s18 12.5 30 12.5h149v149c0 12 4.16699 22.167 12.5 30.5s18.5 12.5 30.5 12.5c12.667 0 23 -4.16699 31 -12.5
s12 -18.5 12 -30.5v-149h149c12 0 22.167 -4.16699 30.5 -12.5s12.5 -18.5 12.5 -30.5c0 -12.667 -4.16699 -23 -12.5 -31s-18.5 -12 -30.5 -12h-149v-150c0 -12 -4 -22.167 -12 -30.5s-18.333 -12.5 -31 -12.5z" />
    <glyph glyph-name="comma" unicode="," horiz-adv-x="232" 
d="M81 -166c-7.33301 0 -12.833 2.16699 -16.5 6.5s-5.5 9.5 -5.5 15.5c0 11.333 3.16699 21.333 9.5 30l20 28c7 10 10.5 22.333 10.5 37c0 11.333 -2.5 21 -7.5 29s-10.667 15.167 -17 21.5s-12 13.333 -17 21s-7.5 17.167 -7.5 28.5c0 17.333 5.66699 31.333 17 42
s26 16 44 16c22 0 39.333 -8.16699 52 -24.5s19 -38.5 19 -66.5c0 -20 -2.83301 -40.667 -8.5 -62s-13.667 -41.333 -24 -60s-21.5 -33.667 -33.5 -45s-23.667 -17 -35 -17z" />
    <glyph glyph-name="hyphen" unicode="-" horiz-adv-x="391" 
d="M80 231c-12 0 -22.167 4 -30.5 12s-12.5 18 -12.5 30c0 12.667 4.16699 23 12.5 31s18.5 12 30.5 12h231c12 0 22 -4 30 -12s12 -18.333 12 -31c0 -12 -4 -22 -12 -30s-18 -12 -30 -12h-231z" />
    <glyph glyph-name="period" unicode="." horiz-adv-x="223" 
d="M112 -16c-17.333 0 -32 6 -44 18s-18 26.667 -18 44s6.16699 32 18.5 44s26.833 18 43.5 18s31 -6.16699 43 -18.5s18 -26.833 18 -43.5s-5.83301 -31.167 -17.5 -43.5s-26.167 -18.5 -43.5 -18.5z" />
    <glyph glyph-name="slash" unicode="/" horiz-adv-x="469" 
d="M81 -77c-16 0 -28.1699 6.16602 -36.5029 18.499s-9.16602 26.5 -2.49902 42.5l310 773c2.66699 8 7.66699 14.167 15 18.5s15.333 6.5 24 6.5c16 0 27.833 -6.16699 35.5 -18.5s8.83398 -26.166 3.50098 -41.499l-310 -774c-3.33301 -8.66699 -8.66602 -15 -15.999 -19
s-15 -6 -23 -6z" />
    <glyph glyph-name="zero" unicode="0" horiz-adv-x="573" 
d="M286 0c-49.333 0 -91.833 15.667 -127.5 47s-62.667 76.166 -81 134.499s-27.5 128.5 -27.5 210.5c0 80.667 9.16699 150.334 27.5 209.001s45.333 103.667 81 135s78.167 47 127.5 47c50.667 0 93.667 -15.833 129 -47.5s62.166 -76.834 80.499 -135.501
s27.5 -128 27.5 -208c0 -81.333 -9.16699 -151.166 -27.5 -209.499s-45.166 -103.333 -80.499 -135s-78.333 -47.5 -129 -47.5zM286 87c34.667 0 63 13.166 85 39.499s38.5 62.5 49.5 108.5s16.5 98.333 16.5 157c0 58 -5.5 109.833 -16.5 155.5s-27.667 81.834 -50 108.501
s-50.5 40 -84.5 40c-33.333 0 -61 -13.167 -83 -39.5s-38.667 -62.5 -50 -108.5s-17 -98 -17 -156c0 -59.333 5.66699 -112 17 -158s28 -82 50 -108s49.667 -39 83 -39z" />
    <glyph glyph-name="one" unicode="1" horiz-adv-x="383" 
d="M240 0c-12 0 -22.1689 4.16895 -30.502 12.502s-12.5 18.5 -12.5 30.5v637l-91 -34c-8.66699 -4 -16.667 -6 -24 -6c-12.667 0 -23 4 -31 12s-12 18 -12 30c0 9.33301 2.16699 17.666 6.5 24.999s11.5 12.666 21.5 15.999l154 54c3.33301 1.33301 6.83301 2.5 10.5 3.5
s6.83398 1.5 9.50098 1.5c12.667 0 22.834 -4.16699 30.501 -12.5s11.5 -18.833 11.5 -31.5v-695c0 -12 -4.16699 -22.167 -12.5 -30.5s-18.5 -12.5 -30.5 -12.5z" />
    <glyph glyph-name="two" unicode="2" horiz-adv-x="583" 
d="M112 0c-12 0 -22.167 4.16602 -30.5 12.499s-12.5 18.5 -12.5 30.5c0 11.333 4 21.333 12 30l297 349c17.333 20 31.166 40.833 41.499 62.5s15.5 42.167 15.5 61.5c0 30.667 -5.66699 57.5 -17 80.5s-27.666 41 -48.999 54s-45.666 19.5 -72.999 19.5
s-52 -6.83301 -74 -20.5s-39.333 -32.167 -52 -55.5s-19 -49.333 -19 -78c0 -11.333 -4 -21.166 -12 -29.499s-18.333 -12.5 -31 -12.5c-12 0 -22.167 4.16699 -30.5 12.5s-12.5 18.166 -12.5 29.499c0 44.667 10.167 84.834 30.5 120.501s47.833 63.834 82.5 84.501
s74 31 118 31s82.667 -10 116 -30s59.5 -47.667 78.5 -83s28.5 -76.333 28.5 -123c0 -22 -3.83301 -43.333 -11.5 -64s-17.834 -40.334 -30.501 -59.001s-26 -36 -40 -52l-247 -285h302c12 0 22.167 -4.33301 30.5 -13s12.5 -18.667 12.5 -30
c0 -12 -4.16699 -22.167 -12.5 -30.5s-18.5 -12.5 -30.5 -12.5h-380z" />
    <glyph glyph-name="three" unicode="3" horiz-adv-x="590" 
d="M304 -3c-48 0 -90.6641 10.167 -127.997 30.5s-66.833 48.333 -88.5 84s-32.5 76.167 -32.5 121.5c0 12.667 3.66699 23.167 11 31.5s17 12.5 29 12.5s21.667 -4.16699 29 -12.5s11 -18.833 11 -31.5c0 -30 7.16699 -56.833 21.5 -80.5s34.166 -42.667 59.499 -57
s53.333 -21.5 84 -21.5c49.333 0 88.333 13.833 117 41.5s43 64.167 43 109.5c0 30.667 -6.66699 57.834 -20 81.501s-31.5 42.334 -54.5 56.001s-48.833 20.5 -77.5 20.5c-12 0 -22 4.16699 -30 12.5s-12 18.5 -12 30.5s4 22.167 12 30.5s18 12.5 30 12.5
c22 0 42.333 5.5 61 16.5s34 25.667 46 44s18 38.5 18 60.5c0 33.333 -11.667 61.333 -35 84s-53.666 34 -90.999 34c-27.333 0 -51.833 -5.33301 -73.5 -16s-38.667 -25 -51 -43s-18.5 -38 -18.5 -60c0 -12.667 -3.83301 -23.334 -11.5 -32.001s-17.167 -13 -28.5 -13
c-12 0 -21.667 4.16699 -29 12.5s-11 18.5 -11 30.5c0 37.333 9.66699 71 29 101s45.666 53.667 78.999 71s71.333 26 114 26c38.667 0 73.667 -8.5 105 -25.5s56.166 -40.333 74.499 -70s27.5 -62.834 27.5 -99.501c0 -23.333 -5.66699 -45.5 -17 -66.5
s-26 -39.5 -44 -55.5s-37.333 -28.667 -58 -38c34.667 -10.667 63.167 -26.334 85.5 -47.001s38.833 -44.667 49.5 -72s16 -56.333 16 -87c0 -43.333 -10.667 -82.166 -32 -116.499s-50.333 -61.333 -87 -81s-77.334 -29.5 -122.001 -29.5z" />
    <glyph glyph-name="four" unicode="4" horiz-adv-x="649" 
d="M449 0c-10.667 0 -20.001 4.16895 -28.001 12.502s-12 18.5 -12 30.5v141h-350c-12 0 -21.833 3.83301 -29.5 11.5s-12 16.667 -13 27s1.83301 19.833 8.5 28.5l391 513c4 5.33301 8.83301 9.66602 14.5 12.999s12.834 5 21.501 5c11.333 0 20.833 -4.33301 28.5 -13
s11.5 -19 11.5 -31v-477h73c11.333 0 21.166 -2.83301 29.499 -8.5s12.5 -15.834 12.5 -30.501c0 -10 -4.16699 -18.833 -12.5 -26.5s-18.166 -11.5 -29.499 -11.5h-73v-141c0 -12 -4 -22.167 -12 -30.5s-18.333 -12.5 -31 -12.5zM106.999 232.002l-18 29h320v423l23 -27z
" />
    <glyph glyph-name="five" unicode="5" horiz-adv-x="628" 
d="M318 0c-48 0 -90.999 11.1641 -128.999 33.4971s-68.167 52.666 -90.5 90.999s-33.5 81.5 -33.5 129.5c0 12.667 4 23 12 31s18 12 30 12c12.667 0 23.167 -4 31.5 -12s12.5 -18.333 12.5 -31c0 -31.333 7.33301 -59.833 22 -85.5s34.667 -45.834 60 -60.501
s53.666 -22 84.999 -22c32 0 60.833 7.33301 86.5 22s45.834 34.834 60.501 60.501s22 54.167 22 85.5c0 32 -7.33301 60.833 -22 86.5s-34.834 45.834 -60.501 60.501s-54.5 22 -86.5 22h-172c-12.667 0 -23 4.16699 -31 12.5s-12 18.5 -12 30.5v272c0 12 4 22.333 12 31
s18.333 13 31 13h345c12 0 22.167 -4.33301 30.5 -13s12.5 -19 12.5 -31c0 -11.333 -4 -21.166 -12 -29.499s-18.333 -12.5 -31 -12.5h-303v-187h130c48.667 0 92.167 -11.167 130.5 -33.5s68.666 -52.666 90.999 -90.999s33.5 -81.833 33.5 -130.5
c0 -48 -11.167 -91.167 -33.5 -129.5s-52.666 -68.666 -90.999 -90.999s-81.833 -33.5 -130.5 -33.5z" />
    <glyph glyph-name="six" unicode="6" horiz-adv-x="580" 
d="M300 0c-45.333 0 -85.666 10.167 -120.999 30.5s-63.166 48.166 -83.499 83.499s-30.5 76 -30.5 122c0 45.333 10.167 85.833 30.5 121.5s48.166 63.667 83.499 84s75.666 30.5 120.999 30.5s85.666 -10.167 120.999 -30.5s63.166 -48.333 83.499 -84
s30.5 -76.167 30.5 -121.5c0 -46 -10.167 -86.667 -30.5 -122s-48.166 -63.166 -83.499 -83.499s-75.666 -30.5 -120.999 -30.5zM299 78c30 0 56.5 6.66699 79.5 20s41.167 32 54.5 56s20 51.333 20 82s-6.66699 57.834 -20 81.501s-31.5 42.334 -54.5 56.001
s-49.5 20.5 -79.5 20.5c-29.333 0 -55.5 -6.83301 -78.5 -20.5s-41.167 -32.334 -54.5 -56.001s-20 -50.834 -20 -81.501s6.66699 -58 20 -82s31.5 -42.667 54.5 -56s49.167 -20 78.5 -20zM95 358l242 399c10 16 23 24 39 24c11.333 0 21 -3.33301 29 -10
s13 -15.167 15 -25.5s0 -20.5 -6 -30.5l-158 -258z" />
    <glyph glyph-name="seven" unicode="7" horiz-adv-x="561" 
d="M156 0c-11.333 0 -21.168 4.16797 -29.501 12.501s-12.5 18.5 -12.5 30.5c0 4 0.666992 8.16699 2 12.5s3.33301 9.16602 6 14.499l294 626h-330c-12.667 0 -23.167 4.16699 -31.5 12.5s-12.5 18.5 -12.5 30.5s4.16699 22.167 12.5 30.5s18.833 12.5 31.5 12.5h398
c12 0 22 -4.33301 30 -13s12 -18.667 12 -30c0 -4 -0.666992 -8 -2 -12s-2.66602 -7.66699 -3.99902 -11l-325 -692c-8 -16 -21 -24 -39 -24z" />
    <glyph glyph-name="eight" unicode="8" horiz-adv-x="589" 
d="M295 -2c-44.667 0 -84.5 10.5 -119.5 31.5s-62.667 49.5 -83 85.5s-30.5 76.667 -30.5 122c0 44 10.167 83.333 30.5 118s48 62 83 82s74.833 30 119.5 30s84.5 -10 119.5 -30s62.5 -47.333 82.5 -82s30 -74 30 -118c-0.666992 -45.333 -11.167 -86 -31.5 -122
s-47.833 -64.5 -82.5 -85.5s-74 -31.5 -118 -31.5zM295 75c28 0 53 7.16699 75 21.5s39.5 33.666 52.5 57.999s19.5 51.833 19.5 82.5c0 29.333 -6.33301 55.666 -19 78.999s-30 41.666 -52 54.999s-47.333 20 -76 20c-28 0 -53.167 -6.66699 -75.5 -20
s-40 -31.666 -53 -54.999s-19.5 -49.666 -19.5 -78.999c0 -30.667 6.33301 -58.167 19 -82.5s30.167 -43.666 52.5 -57.999s47.833 -21.5 76.5 -21.5zM295 402c-37.333 0 -70.665 8.33301 -99.998 25s-52.5 39.167 -69.5 67.5s-25.5 60.833 -25.5 97.5
c0 36 8.5 68.5 25.5 97.5s40.167 52 69.5 69s62.666 25.5 99.999 25.5c37.333 0.666992 70.666 -7.33301 99.999 -24s52.5 -39.667 69.5 -69s25.167 -62.333 24.5 -99c0 -36.667 -8.66699 -69.167 -26 -97.5s-40.5 -50.833 -69.5 -67.5s-61.833 -25 -98.5 -25zM295.001 474
c20.667 0 39.334 5.33301 56.001 16s30 25 40 43s15 38.333 15 61c0.666992 21.333 -3.83301 40.5 -13.5 57.5s-23 30.333 -40 40s-36.167 14.5 -57.5 14.5c-32 0 -58.5 -10.667 -79.5 -32s-31.833 -48 -32.5 -80c-0.666992 -34 9.66602 -62.5 30.999 -85.5
s48.333 -34.5 81 -34.5z" />
    <glyph glyph-name="nine" unicode="9" horiz-adv-x="580" 
d="M280 782c45.333 0 85.666 -10.167 120.999 -30.5s63.166 -48.166 83.499 -83.499s30.5 -76 30.5 -122c0 -45.333 -10.167 -85.833 -30.5 -121.5s-48.166 -63.667 -83.499 -84s-75.666 -30.5 -120.999 -30.5s-85.666 10.167 -120.999 30.5s-63.166 48.333 -83.499 84
s-30.5 76.167 -30.5 121.5c0 46 10.167 86.667 30.5 122s48.166 63.166 83.499 83.499s75.666 30.5 120.999 30.5zM281 704c-30 0 -56.5 -6.66699 -79.5 -20s-41.167 -32 -54.5 -56s-20 -51.333 -20 -82s6.66699 -57.834 20 -81.501s31.5 -42.334 54.5 -56.001
s49.5 -20.5 79.5 -20.5c29.333 0 55.5 6.83301 78.5 20.5s41.167 32.334 54.5 56.001s20 50.834 20 81.501s-6.66699 58 -20 82s-31.5 42.667 -54.5 56s-49.167 20 -78.5 20zM485 424l-242 -399c-10 -16 -23 -24 -39 -24c-11.333 0 -21 3.33301 -29 10s-13 15.167 -15 25.5
s0 20.5 6 30.5l158 258z" />
    <glyph glyph-name="colon" unicode=":" horiz-adv-x="195" 
d="M91 419c-17.333 0 -32.166 5.83203 -44.499 17.499s-18.5 26.5 -18.5 44.5c0 17.333 6.16699 32 18.5 44s27.166 18 44.499 18c16.667 0 31 -6.16699 43 -18.5s18 -27.166 18 -44.499c0 -16.667 -6 -31 -18 -43s-26.333 -18 -43 -18zM96 -16.001c-17.333 0 -32 6 -44 18
s-18 26.667 -18 44s6.16699 32 18.5 44s26.833 18 43.5 18s31 -6.16699 43 -18.5s18 -26.833 18 -43.5s-5.83301 -31.167 -17.5 -43.5s-26.167 -18.5 -43.5 -18.5z" />
    <glyph glyph-name="semicolon" unicode=";" horiz-adv-x="198" 
d="M81 -166c-7.33301 0 -12.833 2.16699 -16.5 6.5s-5.5 9.5 -5.5 15.5c0 11.333 3.16699 21.333 9.5 30l20 28c7 10 10.5 22.333 10.5 37c0 11.333 -2.5 21 -7.5 29s-10.667 15.167 -17 21.5s-12 13.333 -17 21s-7.5 17.167 -7.5 28.5c0 17.333 5.66699 31.333 17 42
s26 16 44 16c22 0 39.333 -8.16699 52 -24.5s19 -38.5 19 -66.5c0 -20 -2.83301 -40.667 -8.5 -62s-13.667 -41.333 -24 -60s-21.5 -33.667 -33.5 -45s-23.667 -17 -35 -17zM94 419c-17.333 0 -32.166 5.83203 -44.499 17.499s-18.5 26.5 -18.5 44.5
c0 17.333 6.16699 32 18.5 44s27.166 18 44.499 18c16.667 0 31 -6.16699 43 -18.5s18 -27.166 18 -44.499c0 -16.667 -6 -31 -18 -43s-26.333 -18 -43 -18z" />
    <glyph glyph-name="less" unicode="&#x3c;" horiz-adv-x="547" 
d="M444 82l-382 230c-15.333 9.33301 -23 22.333 -23 39c0 14 7.66699 26.667 23 38l382 230c14.667 7.33301 29 7.5 43 0.5s21 -18.833 21 -35.5s-7 -29.334 -21 -38.001l-361 -215v43l361 -217c14 -9.33301 21 -21.666 21 -36.999c0 -12 -3.5 -21.667 -10.5 -29
s-15.5 -12 -25.5 -14s-19.333 -0.333008 -28 5z" />
    <glyph glyph-name="equal" unicode="=" horiz-adv-x="508" 
d="M81 423c-12 0 -22 4.16699 -30 12.5s-12 18.5 -12 30.5s4 22.167 12 30.5s18 12.5 30 12.5h346c12 0 22.167 -4.33301 30.5 -13s12.5 -18.667 12.5 -30c0 -12 -4.16699 -22.167 -12.5 -30.5s-18.5 -12.5 -30.5 -12.5h-346zM81 192c-12 0 -22 4.16699 -30 12.5
s-12 18.5 -12 30.5c0 12.667 4 23 12 31s18 12 30 12h346c12 0 22.167 -4.33301 30.5 -13s12.5 -18.667 12.5 -30c0 -12 -4.16699 -22.167 -12.5 -30.5s-18.5 -12.5 -30.5 -12.5h-346z" />
    <glyph glyph-name="greater" unicode="&#x3e;" horiz-adv-x="547" 
d="M103 82c-8.66699 -5.33301 -18 -7 -28 -5s-18.5 6.66699 -25.5 14s-10.5 17 -10.5 29c0 15.333 7 27.666 21 36.999l362 217v-43l-362 215c-14 8.66699 -21 21.334 -21 38.001s7 28.5 21 35.5s28.333 6.83301 43 -0.5l382 -230c15.333 -11.333 23 -24 23 -38
c0 -16.667 -7.66699 -29.667 -23 -39z" />
    <glyph glyph-name="question" unicode="?" horiz-adv-x="547" 
d="M273 180c-12 0 -22.165 3.99707 -30.498 11.9971s-12.5 18.333 -12.5 31c0 26.667 6.66699 55.334 20 86.001s32.333 57.334 57 80.001l56.5 53.5c17.667 17 32 36.333 43 58s16.5 48.5 16.5 80.5c0 24 -5.83301 46.333 -17.5 67s-28.334 37.167 -50.001 49.5
s-47.167 18.5 -76.5 18.5c-32.667 0 -60.667 -6.5 -84 -19.5s-41 -31 -53 -54s-18 -49.833 -18 -80.5c0 -12.667 -3.83301 -22.834 -11.5 -30.501s-17.834 -11.5 -30.501 -11.5s-23 3.83301 -31 11.5s-12 17.834 -12 30.501c0 46 10 86.667 30 122s48 63 84 83s78 30 126 30
c44 0 83.167 -9.33301 117.5 -28s61.5 -44.5 81.5 -77.5s30 -70.833 30 -113.5c0 -37.333 -6.5 -69.166 -19.5 -95.499s-30.167 -50.333 -51.5 -72s-45 -44.167 -71 -67.5c-20 -17.333 -33.333 -37.5 -40 -60.5s-10 -42.833 -10 -59.5c0 -12.667 -4 -23 -12 -31
s-18.333 -12 -31 -12zM273.002 -0.00292969c-17.333 0 -31.833 6 -43.5 18s-17.5 26.667 -17.5 44s6 32 18 44s26.333 18 43 18c17.333 0 32.166 -6 44.499 -18s18.5 -26.667 18.5 -44s-6.16699 -32 -18.5 -44s-27.166 -18 -44.499 -18z" />
    <glyph glyph-name="at" unicode="@" horiz-adv-x="1094" 
d="M548 -233c-74.667 0 -142.833 12.332 -204.5 36.999s-115.167 59.667 -160.5 105s-80.333 98.833 -105 160.5s-37 129.834 -37 204.501c0 74 12.333 142 37 204s59.667 115.667 105 161s98.833 80.333 160.5 105s129.834 37 204.501 37c74 0 142 -12.333 204 -37
s115.667 -59.667 161 -105s80.333 -99 105 -161s37 -130 37 -204c0 -62 -8.5 -116.5 -25.5 -163.5s-40.167 -84 -69.5 -111s-63.666 -40.5 -102.999 -40.5c-34.667 0 -63.167 10 -85.5 30s-33.5 46.667 -33.5 80v41c-12.667 -22 -29.667 -41.5 -51 -58.5
s-44.5 -30.167 -69.5 -39.5s-50.167 -14 -75.5 -14c-52.667 0 -99.334 11.667 -140.001 35s-72.334 55.833 -95.001 97.5s-34 89.5 -34 143.5c0 53.333 11.667 100.666 35 141.999s55.666 74 96.999 98s89 36 143 36c53.333 0 100.666 -12 141.999 -36
s73.833 -56.667 97.5 -98s35.5 -88.666 35.5 -141.999v-168c0 -20 3.5 -35 10.5 -45s17.167 -15 30.5 -15c19.333 0 37 9.66699 53 29s28.5 46.166 37.5 80.499s13.5 73.833 13.5 118.5c0 61.333 -10.333 117.666 -31 168.999s-49.667 95.666 -87 132.999
s-81.666 66.333 -132.999 87s-107.666 31 -168.999 31c-62 0 -118.667 -10.333 -170 -31s-95.833 -49.667 -133.5 -87s-66.667 -81.666 -87 -132.999s-30.5 -107.666 -30.5 -168.999c0 -62 10.167 -118.667 30.5 -170s49.333 -95.833 87 -133.5s82.167 -66.667 133.5 -87
s108 -30.5 170 -30.5c28 0 58.167 3.33301 90.5 10s59.5 15.334 81.5 26.001c19.333 8.66699 35 9.66699 47 3s18 -19.667 18 -39c0 -15.333 -10 -29.5 -30 -42.5s-48 -23.5 -84 -31.5s-77 -12 -123 -12zM548.001 84.999c36.667 0 69.167 8 97.5 24s50.5 38.167 66.5 66.5
s24 61.166 24 98.499c0 36.667 -8 69.167 -24 97.5s-38.167 50.5 -66.5 66.5s-60.833 24 -97.5 24c-37.333 0 -70.166 -8 -98.499 -24s-50.5 -38.167 -66.5 -66.5s-24 -60.833 -24 -97.5c0 -37.333 8 -70.166 24 -98.499s38.167 -50.5 66.5 -66.5s61.166 -24 98.499 -24z
" />
    <glyph glyph-name="A" unicode="A" horiz-adv-x="703" 
d="M61 0c-16.667 0 -28.834 6.83105 -36.501 20.498s-8.5 27.5 -2.5 41.5l290 689c8 20 22 30 42 30c19.333 0 33 -10 41 -30l290 -690c6.66699 -14.667 5.83398 -28.5 -2.49902 -41.5s-20.5 -19.5 -36.5 -19.5c-8.66699 0 -16.5 2.33301 -23.5 7s-12.5 11.334 -16.5 20.001
l-266 650h30l-269 -650c-4 -9.33301 -9.5 -16.166 -16.5 -20.499s-14.833 -6.5 -23.5 -6.5zM123 180.998l33 74h401l34 -74h-468z" />
    <glyph glyph-name="B" unicode="B" horiz-adv-x="704" 
d="M147 0c-13.333 0 -24.5 3.99805 -33.5 11.998s-13.5 18.333 -13.5 31v695c0 12.667 4.16699 23 12.5 31s18.5 12 30.5 12h242c42 0 79.5 -8.66699 112.5 -26s59 -41 78 -71s28.5 -64.667 28.5 -104c0 -34.667 -9.33301 -65.667 -28 -93s-43.667 -48.666 -75 -63.999
c44.667 -11.333 80.5 -33.166 107.5 -65.499s40.5 -73.833 40.5 -124.5c0 -46 -10.5 -86.333 -31.5 -121s-50 -62 -87 -82s-79.5 -30 -127.5 -30h-256zM187 81.998h216c32 0 60 6 84 18s43 29.167 57 51.5s21 49.5 21 81.5c0 29.333 -7 54.5 -21 75.5s-33 37.333 -57 49
s-52 17.5 -84 17.5h-216v-293zM187 456.998l198 0.000976562c39.333 0 71.666 10.667 96.999 32s38 51.666 38 90.999s-12.667 69 -38 89s-57.666 30 -96.999 30h-198v-242z" />
    <glyph glyph-name="C" unicode="C" horiz-adv-x="773" 
d="M451 -10c-54 0 -104.5 10.334 -151.5 31.001s-88.333 49.334 -124 86.001s-63.334 79.167 -83.001 127.5s-29.5 100.5 -29.5 156.5c0 55.333 9.83301 107.166 29.5 155.499s47.167 90.666 82.5 126.999s76.5 65 123.5 86s97.833 31.5 152.5 31.5
c48.667 0 92.334 -6.83301 131.001 -20.5s76.334 -35.834 113.001 -66.501c6 -4.66699 9.83301 -9.83398 11.5 -15.501s1.83398 -11.167 0.500977 -16.5s-4 -9.66602 -8 -12.999c-0.666992 -8 -4.33398 -14.333 -11.001 -19s-14.334 -6.83398 -23.001 -6.50098
s-17.334 3.83301 -26.001 10.5c-25.333 22 -52.666 38.5 -81.999 49.5s-64.666 16.5 -105.999 16.5c-42 0 -81.333 -8.33301 -118 -25s-69 -39.667 -97 -69s-49.833 -63.333 -65.5 -102s-23.5 -79.667 -23.5 -123c0 -44.667 7.83301 -86.167 23.5 -124.5
s37.5 -72.166 65.5 -101.499s60.333 -52.333 97 -69s76 -25 118 -25c35.333 0 69 6 101 18s62.333 29 91 51c9.33301 7.33301 19 10.333 29 9s18.5 -5.66602 25.5 -12.999s10.5 -17 10.5 -29c0 -5.33301 -1 -10.5 -3 -15.5s-5 -10.167 -9 -15.5
c-34.667 -30 -72.834 -51.833 -114.501 -65.5s-85.167 -20.5 -130.5 -20.5z" />
    <glyph glyph-name="D" unicode="D" horiz-adv-x="774" 
d="M143 0c-12 0 -22.167 4.16602 -30.5 12.499s-12.5 18.5 -12.5 30.5v695c0 12.667 4.16699 23 12.5 31s18.5 12 30.5 12h181c57.333 0 109.666 -9.5 156.999 -28.5s88.333 -46 123 -81s61.5 -76.167 80.5 -123.5s28.5 -99.666 28.5 -156.999s-9.5 -109.833 -28.5 -157.5
s-45.833 -89 -80.5 -124s-75.667 -62 -123 -81s-99.666 -28.5 -156.999 -28.5h-181zM187 76.999h137c59.333 0 111.833 13.5 157.5 40.5s81.5 64.167 107.5 111.5s39 101.333 39 162s-13 114.667 -39 162s-61.833 84.333 -107.5 111s-98.167 40 -157.5 40h-137v-627z" />
    <glyph glyph-name="E" unicode="E" horiz-adv-x="695" 
d="M143 0c-12 0 -22.167 4.16895 -30.5 12.502s-12.5 18.5 -12.5 30.5v695c0 12.667 4.16699 23 12.5 31s18.5 12 30.5 12h464c12 0 22.167 -3.83301 30.5 -11.5s12.5 -17.834 12.5 -30.501c0 -11.333 -4.16699 -20.833 -12.5 -28.5s-18.5 -11.5 -30.5 -11.5h-420v-265h304
c12.667 0 23 -4 31 -12s12 -17.667 12 -29c0 -12 -4 -22 -12 -30s-18.333 -12 -31 -12h-304v-269h420c12 0 22.167 -3.83301 30.5 -11.5s12.5 -17.167 12.5 -28.5c0 -12.667 -4.16699 -22.834 -12.5 -30.501s-18.5 -11.5 -30.5 -11.5h-464z" />
    <glyph glyph-name="F" unicode="F" horiz-adv-x="625" 
d="M81 0c-12 0 -22.167 4.16797 -30.5 12.501s-12.5 18.5 -12.5 30.5v695c0 12.667 4 23 12 31s18.333 12 31 12h463c12.667 0 23 -3.83301 31 -11.5s12 -17.834 12 -30.501c0 -11.333 -4 -20.833 -12 -28.5s-18.333 -11.5 -31 -11.5h-420v-265h305c12.667 0 23 -4 31 -12
s12 -17.667 12 -29c0 -12 -4 -22 -12 -30s-18.333 -12 -31 -12h-305v-308c0 -12 -4 -22.167 -12 -30.5s-18.333 -12.5 -31 -12.5z" />
    <glyph glyph-name="G" unicode="G" horiz-adv-x="773" 
d="M451 -10c-54 0 -104.501 10.334 -151.501 31.001s-88.333 49.334 -124 86.001s-63.334 79.167 -83.001 127.5s-29.5 100.5 -29.5 156.5c0 55.333 9.83301 107.166 29.5 155.499s47.167 90.666 82.5 126.999s76.5 65 123.5 86s97.833 31.5 152.5 31.5
c48.667 0 92.334 -6.83301 131.001 -20.5s76.334 -35.834 113.001 -66.501c6 -4.66699 9.83301 -9.83398 11.5 -15.501s1.83398 -11.167 0.500977 -16.5s-4 -9.66602 -8 -12.999c-0.666992 -8 -4.33398 -14.333 -11.001 -19s-14.5 -6.83398 -23.5 -6.50098
s-17.5 3.83301 -25.5 10.5c-25.333 22 -52.666 38.5 -81.999 49.5s-64.666 16.5 -105.999 16.5c-42 0 -81.333 -8.33301 -118 -25s-69 -39.667 -97 -69s-49.833 -63.333 -65.5 -102s-23.5 -79.667 -23.5 -123c0 -44.667 7.83301 -86.167 23.5 -124.5
s37.5 -72.166 65.5 -101.499s60.333 -52.333 97 -69s76 -25 118 -25c35.333 0 69 6 101 18s62.333 29 91 51c9.33301 7.33301 19 10.333 29 9s18.5 -5.66602 25.5 -12.999s10.5 -17 10.5 -29c0 -5.33301 -0.833008 -10.5 -2.5 -15.5s-4.83398 -10.167 -9.50098 -15.5
c-34.667 -30.667 -72.834 -52.667 -114.501 -66s-85.167 -20 -130.5 -20zM707.999 107.001l-84 18.001v193h-150c-12 0 -22.167 3.66699 -30.5 11s-12.5 16.666 -12.5 27.999s4.16699 20.5 12.5 27.5s18.5 10.5 30.5 10.5h191c12.667 0 23 -4 31 -12s12 -18.333 12 -31v-245
z" />
    <glyph glyph-name="H" unicode="H" horiz-adv-x="853" 
d="M143 0c-12 0 -22.167 4.16699 -30.5 12.5s-12.5 18.5 -12.5 30.5v695c0 12.667 4.16699 23 12.5 31s18.5 12 30.5 12c12.667 0 23.167 -4 31.5 -12s12.5 -18.333 12.5 -31v-304h480v304c0 12.667 4 23 12 31s18.333 12 31 12s23 -4 31 -12s12 -18.333 12 -31v-695
c0 -12 -4 -22.167 -12 -30.5s-18.333 -12.5 -31 -12.5s-23 4.16699 -31 12.5s-12 18.5 -12 30.5v314h-480v-314c0 -12 -4.16699 -22.167 -12.5 -30.5s-18.833 -12.5 -31.5 -12.5z" />
    <glyph glyph-name="I" unicode="I" horiz-adv-x="287" 
d="M143 0c-12 0 -22.167 4.16699 -30.5 12.5s-12.5 18.5 -12.5 30.5v695c0 12.667 4.16699 23 12.5 31s18.5 12 30.5 12c12.667 0 23.167 -4 31.5 -12s12.5 -18.333 12.5 -31v-695c0 -12 -4.16699 -22.167 -12.5 -30.5s-18.833 -12.5 -31.5 -12.5z" />
    <glyph glyph-name="J" unicode="J" horiz-adv-x="618" 
d="M282 -10c-45.333 0 -85.8311 10.334 -121.498 31.001s-63.834 48.834 -84.501 84.501s-31 75.834 -31 120.501c0 12.667 4.16699 23 12.5 31s18.5 12 30.5 12c12.667 0 23.167 -4 31.5 -12s12.5 -18.333 12.5 -31c0 -29.333 6.5 -55.833 19.5 -79.5
s30.833 -42.167 53.5 -55.5s48.334 -20 77.001 -20c28 0 53.333 6.83301 76 20.5s40.5 32.167 53.5 55.5s19.5 49.666 19.5 78.999v512c0 12.667 4.16699 23 12.5 31s18.5 12 30.5 12c12.667 0 23.167 -4 31.5 -12s12.5 -18.333 12.5 -31v-512
c0 -44.667 -10.333 -84.834 -31 -120.501s-48.834 -63.834 -84.501 -84.501s-75.834 -31 -120.501 -31z" />
    <glyph glyph-name="K" unicode="K" horiz-adv-x="659" 
d="M143 0c-11.333 0 -21.334 4.16602 -30.001 12.499s-13 18.5 -13 30.5v695c0 12 4.33301 22.167 13 30.5s18.667 12.5 30 12.5c12 0 22.333 -4.16699 31 -12.5s13 -18.5 13 -30.5v-327l353 354c6.66699 6 12.667 10.167 18 12.5s11 3.5 17 3.5
c14 0 24.167 -4.16699 30.5 -12.5s9 -18.166 8 -29.499s-5.83301 -22 -14.5 -32l-268 -268l272 -370c6.66699 -9.33301 9.33398 -19.5 8.00098 -30.5s-5.5 -20.167 -12.5 -27.5s-15.833 -11 -26.5 -11c-16 -0 -28 6.33301 -36 19l-266 359l-83 -84v-251
c0 -12 -4.33301 -22.167 -13 -30.5s-19 -12.5 -31 -12.5z" />
    <glyph glyph-name="L" unicode="L" horiz-adv-x="636" 
d="M143 0c-12 0 -22.167 4.16699 -30.5 12.5s-12.5 18.5 -12.5 30.5v695c0 12 4.16699 22.167 12.5 30.5s18.5 12.5 30.5 12.5s22.167 -4.16699 30.5 -12.5s12.5 -18.5 12.5 -30.5v-654h382c12 0 22.167 -4 30.5 -12s12.5 -18 12.5 -30s-4.16699 -22 -12.5 -30
s-18.5 -12 -30.5 -12h-425z" />
    <glyph glyph-name="M" unicode="M" horiz-adv-x="981" 
d="M143 0c-12 0 -22.167 4.16699 -30.5 12.5s-12.5 18.5 -12.5 30.5v695c0 12.667 4.16699 23 12.5 31s18.5 12 30.5 12c17.333 0 30.333 -7.66699 39 -23l329 -655h-33l322 655c8.66699 15.333 21.667 23 39 23c12 0 22 -4 30 -12s12 -18.333 12 -31v-695
c0 -12 -4.16699 -22.167 -12.5 -30.5s-18.166 -12.5 -29.499 -12.5c-12.667 0 -23.167 4.16699 -31.5 12.5s-12.5 18.5 -12.5 30.5v579l18 1l-284 -580c-8.66699 -14 -21.334 -21 -38.001 -21c-18.667 0 -32 8.66699 -40 26l-284 569l20 5v-579
c0 -12 -4.33301 -22.167 -13 -30.5s-19 -12.5 -31 -12.5z" />
    <glyph glyph-name="N" unicode="N" horiz-adv-x="827" 
d="M143 0c-12.667 0 -23 4.16797 -31 12.501s-12 18.5 -12 30.5v695c0 12.667 4 23 12 31s18.333 12 31 12c13.333 0 24.333 -5.33301 33 -16l464 -612v585c0 12.667 4.16699 23 12.5 31s18.833 12 31.5 12c12 0 22.167 -4 30.5 -12s12.5 -18.333 12.5 -31v-695
c0 -12 -4.16699 -22.167 -12.5 -30.5s-18.5 -12.5 -30.5 -12.5c-6 0 -12 1.16699 -18 3.5s-11 6.16602 -15 11.499l-465 612v-584c0 -12 -4.16699 -22.167 -12.5 -30.5s-18.5 -12.5 -30.5 -12.5z" />
    <glyph glyph-name="O" unicode="O" horiz-adv-x="921" 
d="M461 -10c-58 0 -111.333 10 -160 30s-90.834 47.833 -126.501 83.5s-63.167 78 -82.5 127s-29 102.5 -29 160.5s9.66699 111.333 29 160s46.833 90.834 82.5 126.501s77.834 63.5 126.501 83.5s102 30 160 30s111.167 -10 159.5 -30s90.5 -47.833 126.5 -83.5
s63.667 -77.834 83 -126.501s29 -102 29 -160s-9.66699 -111.5 -29 -160.5s-47 -91.333 -83 -127s-78.167 -63.5 -126.5 -83.5s-101.5 -30 -159.5 -30zM461 71c45.333 0 87.166 8 125.499 24s71.5 38.5 99.5 67.5s49.833 63 65.5 102s23.5 81.167 23.5 126.5
s-7.83301 87.333 -23.5 126s-37.5 72.5 -65.5 101.5s-61.167 51.5 -99.5 67.5s-80.166 24 -125.499 24s-87.166 -8 -125.499 -24s-71.666 -38.5 -99.999 -67.5s-50.166 -62.833 -65.499 -101.5s-23 -80.667 -23 -126s7.66699 -87.5 23 -126.5s37.166 -73 65.499 -102
s61.666 -51.5 99.999 -67.5s80.166 -24 125.499 -24z" />
    <glyph glyph-name="P" unicode="P" horiz-adv-x="616" 
d="M143 0c-12 0 -22.167 4.16895 -30.5 12.502s-12.5 18.5 -12.5 30.5v695c0 12.667 4.16699 23 12.5 31s18.5 12 30.5 12h200c50 0 94 -10.833 132 -32.5s67.833 -51.667 89.5 -90s32.5 -82.833 32.5 -133.5c0 -48.667 -10.833 -91.834 -32.5 -129.501
s-51.5 -67.334 -89.5 -89.001s-82 -32.5 -132 -32.5h-156v-231c0 -12 -4.16699 -22.167 -12.5 -30.5s-18.833 -12.5 -31.5 -12.5zM187 356.002l156 -0.000976562c33.333 0 62.666 7.33301 87.999 22s45.333 34.667 60 60s22 54.333 22 87
c0 34.667 -7.33301 64.834 -22 90.501s-34.667 46 -60 61s-54.666 22.5 -87.999 22.5h-156v-343z" />
    <glyph glyph-name="Q" unicode="Q" horiz-adv-x="921" 
d="M748 13l-214 213.001c-8.66699 9.33301 -13 19.5 -13 30.5s4.33301 20.833 13 29.5s18.5 13 29.5 13s20.833 -4.33301 29.5 -13l215 -214c8 -8.66699 12 -18.334 12 -29.001s-4 -20.667 -12 -30c-9.33301 -8.66699 -19.5 -13 -30.5 -13s-20.833 4.33301 -29.5 13z
M461 -9.99902c-58 0 -111.333 10 -160 30s-90.834 47.833 -126.501 83.5s-63.167 78 -82.5 127s-29 102.5 -29 160.5s9.66699 111.333 29 160s46.833 90.834 82.5 126.501s77.834 63.5 126.501 83.5s102 30 160 30s111.167 -10 159.5 -30s90.5 -47.833 126.5 -83.5
s63.667 -77.834 83 -126.501s29 -102 29 -160s-9.66699 -111.5 -29 -160.5s-47 -91.333 -83 -127s-78.167 -63.5 -126.5 -83.5s-101.5 -30 -159.5 -30zM461 71.001c45.333 0 87.166 8 125.499 24s71.5 38.5 99.5 67.5s49.833 63 65.5 102s23.5 81.167 23.5 126.5
s-7.83301 87.333 -23.5 126s-37.5 72.5 -65.5 101.5s-61.167 51.5 -99.5 67.5s-80.166 24 -125.499 24s-87.166 -8 -125.499 -24s-71.666 -38.5 -99.999 -67.5s-50.166 -62.833 -65.499 -101.5s-23 -80.667 -23 -126s7.66699 -87.5 23 -126.5s37.166 -73 65.499 -102
s61.666 -51.5 99.999 -67.5s80.166 -24 125.499 -24z" />
    <glyph glyph-name="R" unicode="R" horiz-adv-x="623" 
d="M143 0c-12 0 -22.167 4.16602 -30.5 12.499s-12.5 18.5 -12.5 30.5v695c0 12.667 4.16699 23 12.5 31s18.5 12 30.5 12h185c49.333 0 93 -10.333 131 -31s67.833 -49.167 89.5 -85.5s32.5 -78.5 32.5 -126.5c0 -45.333 -10.833 -85.666 -32.5 -120.999
s-51.5 -63 -89.5 -83s-81.667 -30 -131 -30h-141v-261c0 -12 -4.16699 -22.167 -12.5 -30.5s-18.833 -12.5 -31.5 -12.5zM560 -0.000976562c-8.66699 0 -16 1.83301 -22 5.5s-11 9.16699 -15 16.5l-188 300l85 23l174 -278c10.667 -17.333 12.5 -32.833 5.5 -46.5
s-20.167 -20.5 -39.5 -20.5zM187 385.999h141c32.667 0 61.667 6.5 87 19.5s45.333 31 60 54s22 49.167 22 78.5c0 32 -7.33301 60 -22 84s-34.667 42.833 -60 56.5s-54.333 20.5 -87 20.5h-141v-313z" />
    <glyph glyph-name="S" unicode="S" horiz-adv-x="671" 
d="M343 -10c-42.667 0 -82.6689 6.3291 -120.002 18.9961s-69.666 30.5 -96.999 53.5s-47.666 49.833 -60.999 80.5c-6 12 -6.16699 23 -0.5 33s15.167 16.667 28.5 20c10.667 2.66699 20.834 1.33398 30.501 -3.99902s17.167 -13.333 22.5 -24
c9.33301 -18 23.5 -34.5 42.5 -49.5s41.667 -26.667 68 -35s55.166 -12.5 86.499 -12.5c34 0 64.667 5.5 92 16.5s49 27.167 65 48.5s24 47.333 24 78c0 38.667 -14.667 72.5 -44 101.5s-76 47.167 -140 54.5c-79.333 8.66699 -141.5 32.834 -186.5 72.501
s-67.5 88.5 -67.5 146.5c0 41.333 11.333 77.166 34 107.499s53.667 53.666 93 69.999s84 24.5 134 24.5c38 0 72.167 -5.83301 102.5 -17.5s56.666 -27.167 78.999 -46.5s40.833 -41 55.5 -65c8 -12 10.833 -23.5 8.5 -34.5s-8.5 -19.5 -18.5 -25.5
c-10.667 -6 -21.834 -7.16699 -33.501 -3.5s-20.5 10.834 -26.5 21.501c-10.667 16.667 -23.5 31.834 -38.5 45.501s-33 24.334 -54 32.001s-46.167 11.834 -75.5 12.501c-52 0 -94.167 -10.5 -126.5 -31.5s-48.5 -52.5 -48.5 -94.5c0 -21.333 5.66699 -41.5 17 -60.5
s30.833 -35.167 58.5 -48.5s65.834 -23.333 114.501 -30c82 -10.667 143.833 -35.667 185.5 -75s62.5 -91 62.5 -155c0 -36.667 -7 -69 -21 -97s-33.167 -51.5 -57.5 -70.5s-52.666 -33.333 -84.999 -43s-66.5 -14.5 -102.5 -14.5z" />
    <glyph glyph-name="T" unicode="T" horiz-adv-x="657" 
d="M328 0c-12 0 -22.167 4.16699 -30.5 12.5s-12.5 18.5 -12.5 30.5v738h87v-738c0 -12 -4.16699 -22.167 -12.5 -30.5s-18.833 -12.5 -31.5 -12.5zM55 702c-12 0 -21.667 3.66699 -29 11s-11 16.666 -11 27.999c0 12 3.66699 21.667 11 29s17 11 29 11h547
c12 0 21.667 -3.66699 29 -11s11 -17 11 -29c0 -11.333 -3.66699 -20.666 -11 -27.999s-17 -11 -29 -11h-547z" />
    <glyph glyph-name="U" unicode="U" horiz-adv-x="828" 
d="M416 -16c-61.333 0 -116.001 11.667 -164.001 35s-85.333 55.833 -112 97.5s-40 89.167 -40 142.5v479c0 12.667 4.16699 23 12.5 31s18.5 12 30.5 12c12.667 0 23.167 -4 31.5 -12s12.5 -18.333 12.5 -31v-479c0 -38 9.66699 -71.667 29 -101s46.333 -52.166 81 -68.499
s74.334 -24.5 119.001 -24.5c44 0 83 8.16699 117 24.5s60.5 39.166 79.5 68.499s28.5 63 28.5 101v479c0 12.667 4.16699 23 12.5 31s18.833 12 31.5 12s23 -4 31 -12s12 -18.333 12 -31v-479c0 -53.333 -13.333 -100.833 -40 -142.5s-63.5 -74.167 -110.5 -97.5
s-100.833 -35 -161.5 -35z" />
    <glyph glyph-name="V" unicode="V" horiz-adv-x="723" 
d="M362 0c-18 0 -31.332 9.33301 -39.999 28l-295 686c-8 20 -8.66699 36.167 -2 48.5s18.667 18.5 36 18.5c18.667 0 32 -9 40 -27l270 -646h-19l271 645c4.66699 10.667 10.167 18 16.5 22s14.833 6 25.5 6c16.667 0 28 -6.33301 34 -19s5.66699 -26.667 -1 -42l-297 -692
c-4 -10 -9.33301 -17.167 -16 -21.5s-14.334 -6.5 -23.001 -6.5z" />
    <glyph glyph-name="W" unicode="W" horiz-adv-x="938" 
d="M267 0c-10.667 0 -19.8301 3.16699 -27.4971 9.5s-13.167 14.833 -16.5 25.5l-203 685c-5.33301 18 -4.66602 32.667 2.00098 44s17.667 17 33 17c8.66699 0 17 -2.5 25 -7.5s13.667 -13.5 17 -25.5l182 -633h-23l171 620c2 8 6.83301 14.667 14.5 20s16.5 8 26.5 8
c8.66699 0 17.167 -2.33301 25.5 -7s13.5 -12 15.5 -22l172 -619h-22l182 637c5.33301 19.333 19.666 29 42.999 29c15.333 0 25.666 -6 30.999 -18s5.66602 -26.333 0.999023 -43l-203 -684c-3.33301 -11.333 -8.83301 -20.166 -16.5 -26.499s-16.834 -9.5 -27.501 -9.5
c-10 0 -18.833 3.33301 -26.5 10s-13.167 15 -16.5 25l-170 631h24l-169 -630c-4 -10.667 -9.83301 -19.334 -17.5 -26.001s-16.5 -10 -26.5 -10z" />
    <glyph glyph-name="X" unicode="X" horiz-adv-x="710" 
d="M88 0c-12.667 0 -22.332 3.83496 -28.999 11.502s-10.334 17 -11.001 28s2.66602 21.167 9.99902 30.5l258 349l39 33l233 315c8 9.33301 18.667 14 32 14c12 0 21.333 -3.83301 28 -11.5s10.334 -16.834 11.001 -27.501s-2 -20.334 -8 -29.001l-245 -331l-37 -31
l-250 -338c-8 -8.66699 -18.333 -13 -31 -13zM623.002 0.00195312c-6 0 -11.833 1.33105 -17.5 3.99805s-10.834 6.66699 -15.501 12l-244 337l-33 26l-240 334c-6.66699 8.66699 -9.5 18.334 -8.5 29.001s5 19.834 12 27.501s16.167 11.5 27.5 11.5
c14.667 0 25.667 -4.66699 33 -14l230 -320l32 -23l255 -354c6.66699 -8.66699 9.83398 -18.667 9.50098 -30s-4 -20.833 -11 -28.5s-16.833 -11.5 -29.5 -11.5z" />
    <glyph glyph-name="Y" unicode="Y" horiz-adv-x="655" 
d="M327 0c-11.333 0 -21.3369 4.16797 -30.0039 12.501s-13 18.5 -13 30.5v245l-270 425c-7.33301 11.333 -10.166 22.166 -8.49902 32.499s6.33398 18.833 14.001 25.5s17.167 10 28.5 10c8.66699 0 15.834 -2 21.501 -6s10.834 -9.33301 15.501 -16l265 -425h-42l266 425
c4.66699 7.33301 10.167 12.833 16.5 16.5s13.833 5.5 22.5 5.5c10 0 18.5 -3.5 25.5 -10.5s11 -15.667 12 -26s-1.83301 -20.833 -8.5 -31.5l-271 -425v-245c0 -12 -4.33301 -22.167 -13 -30.5s-19 -12.5 -31 -12.5z" />
    <glyph glyph-name="Z" unicode="Z" horiz-adv-x="730" 
d="M94 0c-12.667 0 -22.834 4.16504 -30.501 12.498s-11.834 17.833 -12.501 28.5s2.33301 20.334 9 29.001l507 634h-467c-13.333 0 -23.666 3.33301 -30.999 10s-11 15.667 -11 27s4.16699 20.833 12.5 28.5s18.5 11.5 30.5 11.5h534c12.667 0 22.834 -4 30.501 -12
s12 -17.333 13 -28s-1.83301 -20 -8.5 -28l-510 -636h475c12 0 22.167 -3.5 30.5 -10.5s12.5 -16.167 12.5 -27.5s-4.16699 -20.666 -12.5 -27.999s-18.5 -11 -30.5 -11h-541z" />
    <glyph glyph-name="bracketleft" unicode="[" horiz-adv-x="308" 
d="M108 -234c-12 0 -22.167 4.16699 -30.5 12.5s-12.5 18.5 -12.5 30.5v929c0 12.667 4.16699 23.167 12.5 31.5s18.5 12.5 30.5 12.5h156c12.667 0 23.167 -4.16699 31.5 -12.5s12.5 -18.833 12.5 -31.5c0 -12 -4.16699 -22.167 -12.5 -30.5s-18.833 -12.5 -31.5 -12.5
h-112v-842h112c12.667 0 23.167 -4.16699 31.5 -12.5s12.5 -18.833 12.5 -31.5c0 -12 -4.16699 -22.167 -12.5 -30.5s-18.833 -12.5 -31.5 -12.5h-156z" />
    <glyph glyph-name="backslash" unicode="\" horiz-adv-x="469" 
d="M391 -80c-8 0 -15.833 2.16699 -23.5 6.5s-13.167 10.833 -16.5 19.5l-312 774c-2 5.33301 -3 11.333 -3 18c0 12.667 4.16699 23.167 12.5 31.5s18.833 12.5 31.5 12.5c8.66699 0 16.5 -2.16699 23.5 -6.5s12.167 -10.833 15.5 -19.5l311 -775
c2.66699 -5.33301 4 -11 4 -17c0 -12.667 -4.16699 -23.167 -12.5 -31.5s-18.5 -12.5 -30.5 -12.5z" />
    <glyph glyph-name="bracketright" unicode="]" horiz-adv-x="308" 
d="M44 -234c-12.667 0 -23.167 4.16699 -31.5 12.5s-12.5 18.5 -12.5 30.5c0 12.667 4.16699 23.167 12.5 31.5s18.833 12.5 31.5 12.5h113v842h-113c-12.667 0 -23.167 4.16699 -31.5 12.5s-12.5 18.5 -12.5 30.5c0 12.667 4.16699 23.167 12.5 31.5s18.833 12.5 31.5 12.5
h156c12 0 22.167 -4.16699 30.5 -12.5s12.5 -18.833 12.5 -31.5v-929c0 -12 -4.16699 -22.167 -12.5 -30.5s-18.5 -12.5 -30.5 -12.5h-156z" />
    <glyph glyph-name="asciicircum" unicode="^" horiz-adv-x="469" 
d="M84 465c-12.667 0 -23.167 4.16602 -31.5 12.499s-12.5 18.5 -12.5 30.5c0 4 0.666992 8 2 12s3 7.33301 5 10l155 234c8.66699 12 20.334 18 35.001 18c7.33301 0 14 -1.66699 20 -5s11 -7.66602 15 -12.999l155 -234c4.66699 -6.66699 7 -14 7 -22
c0 -12 -4.16699 -22.167 -12.5 -30.5s-18.5 -12.5 -30.5 -12.5c-14.667 0 -26.334 5.33301 -35.001 16l-119 179l-119 -179c-8.66699 -10.667 -20 -16 -34 -16z" />
    <glyph glyph-name="underscore" unicode="_" horiz-adv-x="469" 
d="M3 -86c-12 0 -22.167 4.16699 -30.5 12.5s-12.5 18.5 -12.5 30.5s4.16699 22.167 12.5 30.5s18.5 12.5 30.5 12.5h476c11.333 -0 21.166 -4.16699 29.499 -12.5s12.5 -18.5 12.5 -30.5s-4.16699 -22.167 -12.5 -30.5s-18.166 -12.5 -29.499 -12.5h-476z" />
    <glyph glyph-name="grave" unicode="`" horiz-adv-x="273" 
d="M188 589c-11.333 0 -21 3.99902 -29 11.999l-108 107c-7.33301 7.33301 -11 17.333 -11 30c0 12 4 22.333 12 31s18 13 30 13s22.333 -4.33301 31 -13l107 -108c7.33301 -7.33301 11 -16.666 11 -27.999c0 -12.667 -4 -23.167 -12 -31.5s-18.333 -12.5 -31 -12.5z" />
    <glyph glyph-name="a" unicode="a" 
d="M327 -5c-50.667 0 -96.001 12.167 -136.001 36.5s-71.667 57.5 -95 99.5s-35 89.333 -35 142c0 53.333 12.167 101 36.5 143s57.5 75.167 99.5 99.5s89.333 36.5 142 36.5c52 0 98.833 -12.167 140.5 -36.5s74.667 -57.5 99 -99.5s36.833 -89.667 37.5 -143l-34 -16
c0 -49.333 -11.167 -93.833 -33.5 -133.5s-52.666 -71 -90.999 -94s-81.833 -34.5 -130.5 -34.5zM338.999 72c36.667 0 69.667 8.66699 99 26s52.333 41.333 69 72s25 65 25 103c0 38.667 -8.33301 73.167 -25 103.5s-39.667 54.333 -69 72s-62.333 26.5 -99 26.5
s-69.667 -8.83301 -99 -26.5s-52.666 -41.667 -69.999 -72s-26 -64.833 -26 -103.5c0 -38 8.66699 -72.333 26 -103s40.666 -54.667 69.999 -72s62.333 -26 99 -26zM572.999 0c-12.667 0 -23 3.83301 -31 11.5s-12 17.834 -12 30.501v165l19 88l67 -22v-231
c0 -12.667 -4.16699 -22.834 -12.5 -30.501s-18.5 -11.5 -30.5 -11.5z" />
    <glyph glyph-name="b" unicode="b" horiz-adv-x="706" 
d="M366 -5c-52 0 -98.6689 12.167 -140.002 36.5s-74.166 57.333 -98.499 99s-36.833 88.5 -37.5 140.5v467c0 13.333 4 23.833 12 31.5s18.333 11.5 31 11.5s22.834 -3.83301 30.501 -11.5s11.5 -18.167 11.5 -31.5v-286c22.667 30 51.667 54.167 87 72.5
s74.333 27.5 117 27.5c50.667 0 96 -12.167 136 -36.5s71.5 -57.5 94.5 -99.5s34.5 -89.333 34.5 -142c0 -53.333 -12.167 -101 -36.5 -143s-57.333 -75.167 -99 -99.5s-89.167 -36.5 -142.5 -36.5zM365.998 72c37.333 0 70.666 8.83301 99.999 26.5s52.5 41.667 69.5 72
s25.5 64.833 25.5 103.5c0 38 -8.5 72.333 -25.5 103s-40.167 54.667 -69.5 72s-62.666 26 -99.999 26c-36 0 -68.833 -8.66699 -98.5 -26s-52.834 -41.333 -69.501 -72s-25 -65 -25 -103c0 -38.667 8.33301 -73.167 25 -103.5s39.834 -54.333 69.501 -72
s62.5 -26.5 98.5 -26.5z" />
    <glyph glyph-name="c" unicode="c" horiz-adv-x="598" 
d="M335 -5c-52.667 0 -99.666 12.166 -140.999 36.499s-73.833 57.5 -97.5 99.5s-35.5 89.333 -35.5 142c0 53.333 11.5 101 34.5 143s54.333 75.167 94 99.5s85.5 36.5 137.5 36.5c40 0 77 -7.83301 111 -23.5s64 -39.167 90 -70.5c8 -9.33301 10.833 -18.833 8.5 -28.5
s-8.5 -18.167 -18.5 -25.5c-8 -6 -17 -8 -27 -6s-18.667 7.33301 -26 16c-36.667 40.667 -82.667 61 -138 61c-36 0 -67.833 -8.66699 -95.5 -26s-49.167 -41 -64.5 -71s-23 -65 -23 -105c0 -38.667 8 -73.167 24 -103.5s38.5 -54.166 67.5 -71.499s62.167 -26 99.5 -26
c25.333 0 48.166 3.33301 68.499 10s38.5 16.667 54.5 30c8.66699 7.33301 17.834 11.5 27.501 12.5s18.5 -1.83301 26.5 -8.5c8.66699 -8 13.667 -17 15 -27s-2 -19 -10 -27c-48.667 -44.667 -109.334 -67 -182.001 -67z" />
    <glyph glyph-name="d" unicode="d" horiz-adv-x="706" 
d="M339 -5c-52.667 0 -100.002 12.167 -142.002 36.5s-75.167 57.5 -99.5 99.5s-36.5 89.667 -36.5 143c0 52.667 11.667 100 35 142s55 75.167 95 99.5s85.333 36.5 136 36.5c42.667 0 81.5 -9.16699 116.5 -27.5s63.833 -42.5 86.5 -72.5v286c0 13.333 4 23.833 12 31.5
s18.333 11.5 31 11.5s23 -3.83301 31 -11.5s12 -18.167 12 -31.5v-467c-1.33301 -52 -14.166 -98.833 -38.499 -140.5s-57.166 -74.667 -98.499 -99s-88 -36.5 -140 -36.5zM338.998 72c36.667 0 69.667 8.83301 99 26.5s52.333 41.667 69 72s25 64.833 25 103.5
c0 38 -8.33301 72.333 -25 103s-39.667 54.667 -69 72s-62.333 26 -99 26s-69.667 -8.66699 -99 -26s-52.666 -41.333 -69.999 -72s-26 -65 -26 -103c0 -38.667 8.66699 -73.167 26 -103.5s40.666 -54.333 69.999 -72s62.333 -26.5 99 -26.5z" />
    <glyph glyph-name="e" unicode="e" horiz-adv-x="616" 
d="M341 -5c-54.667 0 -102.995 11.8311 -144.995 35.498s-75 56.5 -99 98.5s-36 90 -36 144c0 54.667 11.333 102.834 34 144.501s53.834 74.5 93.501 98.5s85.5 36 137.5 36c51.333 0 95.666 -11.5 132.999 -34.5s66.166 -54.833 86.499 -95.5s30.5 -87 30.5 -139
c0 -11.333 -3.66699 -20.5 -11 -27.5s-16.666 -10.5 -27.999 -10.5h-418v69h422l-42 -30c0 36.667 -7 69.667 -21 99s-33.833 52.333 -59.5 69s-56.5 25 -92.5 25c-38 0 -71 -8.83301 -99 -26.5s-49.667 -41.834 -65 -72.501s-23 -65.667 -23 -105
s8.66699 -74.166 26 -104.499s41.166 -54.333 71.499 -72s65.166 -26.5 104.499 -26.5c22.667 0 45.834 4 69.501 12s42.5 18 56.5 30c8 6.66699 17.167 10.167 27.5 10.5s19.166 -2.5 26.499 -8.5c9.33301 -8.66699 14.166 -18.167 14.499 -28.5
s-3.83398 -19.166 -12.501 -26.499c-22.667 -18.667 -50.834 -34 -84.501 -46s-66.167 -18 -97.5 -18z" />
    <glyph glyph-name="f" unicode="f" horiz-adv-x="366" 
d="M155 0c-10.667 0 -20.167 3.83301 -28.5 11.5s-12.5 18.167 -12.5 31.5v502c0 47.333 8.5 88.666 25.5 123.999s41.667 62.833 74 82.5s70.833 29.5 115.5 29.5c12.667 0 23 -3.66699 31 -11s12 -16.666 12 -27.999c0 -10.667 -4 -19.667 -12 -27s-18.333 -11 -31 -11
c-28 0 -51.667 -6.5 -71 -19.5s-34 -31 -44 -54s-15 -49.5 -15 -79.5v-508c0 -13.333 -3.83301 -23.833 -11.5 -31.5s-18.5 -11.5 -32.5 -11.5zM57 454c-12 0 -21.5 3.33301 -28.5 10s-10.5 15.334 -10.5 26.001s3.5 19.5 10.5 26.5s16.5 10.5 28.5 10.5h256
c12 0 21.5 -3.5 28.5 -10.5s10.5 -15.833 10.5 -26.5s-3.5 -19.334 -10.5 -26.001s-16.5 -10 -28.5 -10h-256z" />
    <glyph glyph-name="g" unicode="g" 
d="M327 -5c-52 0 -98.002 11.834 -138.002 35.501s-71.333 56.5 -94 98.5s-34 90 -34 144c0 54.667 12 103 36 145s56.833 74.833 98.5 98.5s89.5 35.5 143.5 35.5c53.333 0 100.833 -11.833 142.5 -35.5s74.334 -56.5 98.001 -98.5s35.834 -90.333 36.501 -145l-50 -16
c0 -50.667 -10.333 -95.834 -31 -135.501s-49 -70.667 -85 -93s-77 -33.5 -123 -33.5zM338.998 -219.999c-50.667 0 -96.167 9.66797 -136.5 29.001s-74.166 46.333 -101.499 81c-7.33301 9.33301 -10.333 19.166 -9 29.499s6.66602 18.5 15.999 24.5
c10 6.66699 20.667 9 32 7s20.333 -7.66699 27 -17c18.667 -23.333 42.667 -42 72 -56s63.333 -21 102 -21c35.333 0 67.5 8.5 96.5 25.5s52 41.5 69 73.5s25.5 69.667 25.5 113v149l31 68l53 -13v-208c0 -53.333 -12 -101.5 -36 -144.5s-56.667 -77.167 -98 -102.5
s-89 -38 -143 -38zM338.998 72.002c37.333 0 70.666 8.5 99.999 25.5s52.166 40.667 68.499 71s24.5 65.166 24.5 104.499s-8.16699 74.333 -24.5 105s-39.166 54.5 -68.499 71.5s-62.666 25.5 -99.999 25.5c-38 0 -71.667 -8.5 -101 -25.5s-52.333 -40.833 -69 -71.5
s-25 -65.667 -25 -105s8.33301 -74.166 25 -104.499s39.667 -54 69 -71s63 -25.5 101 -25.5z" />
    <glyph glyph-name="h" unicode="h" horiz-adv-x="679" 
d="M557 0c-12.667 0 -22.999 3.99805 -30.999 11.998s-12 18 -12 30v255c0 40.667 -7.66699 73.834 -23 99.501s-35.833 44.834 -61.5 57.501s-55.167 19 -88.5 19c-30.667 0 -58.667 -6 -84 -18s-45.333 -28.5 -60 -49.5s-22 -45.167 -22 -72.5h-57
c0.666992 42 11.5 79.5 32.5 112.5s49.167 59.167 84.5 78.5s74.666 29 117.999 29c47.333 0 89.5 -9.83301 126.5 -29.5s66.167 -48.5 87.5 -86.5s32 -84.667 32 -140v-255c0 -12 -4 -22 -12 -30s-18 -12 -30 -12zM133.001 -0.00195312c-12.667 0 -23 3.83301 -31 11.5
s-12 17.834 -12 30.501v462c0 13.333 4 23.833 12 31.5s18.333 11.5 31 11.5s22.834 -3.83301 30.501 -11.5s11.5 -18.167 11.5 -31.5v-462c0 -12.667 -3.83301 -22.834 -11.5 -30.501s-17.834 -11.5 -30.501 -11.5zM133.001 214.998c-12.667 0 -23 4 -31 12
s-12 18.333 -12 31v480c0 13.333 4 23.833 12 31.5s18.333 11.5 31 11.5s22.834 -3.83301 30.501 -11.5s11.5 -18.167 11.5 -31.5v-480c0 -12.667 -3.83301 -23 -11.5 -31s-17.834 -12 -30.501 -12z" />
    <glyph glyph-name="i" unicode="i" horiz-adv-x="293" 
d="M147 0c-12.667 0 -23 4 -31 12s-12 18.333 -12 31v461c0 13.333 4 23.833 12 31.5s18.333 11.5 31 11.5s22.834 -3.83301 30.501 -11.5s11.5 -18.167 11.5 -31.5v-461c0 -12.667 -3.83301 -23 -11.5 -31s-17.834 -12 -30.501 -12zM146 646c-16 0 -29.667 5.66699 -41 17
s-17 25.333 -17 42s5.83301 30.5 17.5 41.5s25.5 16.5 41.5 16.5c15.333 0 28.833 -5.5 40.5 -16.5s17.5 -24.833 17.5 -41.5s-5.83301 -30.667 -17.5 -42s-25.5 -17 -41.5 -17z" />
    <glyph glyph-name="j" unicode="j" horiz-adv-x="286" 
d="M-53 -234c-12.667 0 -23.002 4.00098 -31.002 12.001s-12 18.333 -12 31s4 23 12 31s18.333 12 31 12c29.333 0 55 6.33301 77 19s39.5 30.167 52.5 52.5s19.5 48.166 19.5 77.499v503c0 13.333 4 23.833 12 31.5s18.333 11.5 31 11.5s23 -3.83301 31 -11.5
s12 -18.167 12 -31.5v-503c0 -46 -10.167 -86.667 -30.5 -122s-48.166 -63 -83.499 -83s-75.666 -30 -120.999 -30zM137.998 646.001c-16 0 -29.667 5.66699 -41 17s-17 25.333 -17 42s5.83301 30.5 17.5 41.5s25.5 16.5 41.5 16.5c15.333 0 28.833 -5.5 40.5 -16.5
s17.5 -24.833 17.5 -41.5s-5.83301 -30.667 -17.5 -42s-25.5 -17 -41.5 -17z" />
    <glyph glyph-name="k" unicode="k" horiz-adv-x="571" 
d="M164 189l-51.999 56.001l330 298c8.66699 8 18 11.667 28 11s19 -5.33398 27 -14.001s11.667 -18 11 -28s-5.33398 -18.667 -14.001 -26zM132.001 0.000976562c-12.667 0 -22.834 3.83301 -30.501 11.5s-11.5 17.834 -11.5 30.501v697
c0 12.667 3.83301 22.834 11.5 30.501s17.834 11.5 30.501 11.5c12 0 21.833 -3.83301 29.5 -11.5s11.5 -17.834 11.5 -30.501v-697c0 -12.667 -3.83301 -22.834 -11.5 -30.501s-17.5 -11.5 -29.5 -11.5zM497.001 5.00098c-9.33301 -8 -19.167 -11.5 -29.5 -10.5
s-19.166 6.16699 -26.499 15.5l-217 267l60 54l219 -270c7.33301 -9.33301 10.666 -19 9.99902 -29s-6 -19 -16 -27z" />
    <glyph glyph-name="l" unicode="l" horiz-adv-x="288" 
d="M212 0c-27.333 0 -51.835 7.5 -73.502 22.5s-38.5 35.833 -50.5 62.5s-18 57.334 -18 92.001v562c0 12.667 3.83301 22.834 11.5 30.501s17.834 11.5 30.501 11.5s22.834 -3.83301 30.501 -11.5s11.5 -17.834 11.5 -30.501v-562c0 -27.333 5.5 -49.666 16.5 -66.999
s24.833 -26 41.5 -26h25c11.333 0 20.333 -3.83301 27 -11.5s10 -17.834 10 -30.501s-4.83301 -22.834 -14.5 -30.501s-22.5 -11.5 -38.5 -11.5h-9z" />
    <glyph glyph-name="m" unicode="m" horiz-adv-x="944" 
d="M822 0c-12.667 0 -23 3.83008 -31 11.4971s-12 17.834 -12 30.501v287c0 46 -11.667 81.5 -35 106.5s-53.333 37.5 -90 37.5c-39.333 0 -71.5 -13.167 -96.5 -39.5s-37.167 -61.166 -36.5 -104.499h-74c0.666992 44.667 10.334 83.834 29.001 117.501
s44.5 59.834 77.5 78.501s70.5 28 112.5 28c38.667 0 73 -9 103 -27s53.333 -43.833 70 -77.5s25 -73.5 25 -119.5v-287c0 -12.667 -3.83301 -22.834 -11.5 -30.501s-17.834 -11.5 -30.501 -11.5zM133 -0.00292969c-12.667 0 -23 3.83301 -31 11.5s-12 17.834 -12 30.501
v462c0 12.667 4 23 12 31s18.333 12 31 12s22.834 -4 30.501 -12s11.5 -18.333 11.5 -31v-462c0 -12.667 -3.83301 -22.834 -11.5 -30.501s-17.834 -11.5 -30.501 -11.5zM478 -0.00292969c-12 0 -22.1709 3.83301 -30.5039 11.5s-12.5 17.834 -12.5 30.501v287
c0 46 -11.667 81.5 -35 106.5s-53.333 37.5 -90 37.5c-39.333 0 -71.666 -13 -96.999 -39s-38 -59.667 -38 -101h-57c0.666992 43.333 9.83398 81.5 27.501 114.5s41.834 58.833 72.501 77.5s65.334 28 104.001 28s73 -9 103 -27s53.5 -43.833 70.5 -77.5
s25.5 -73.5 25.5 -119.5v-287c0 -12.667 -4 -22.834 -12 -30.501s-18.333 -11.5 -31 -11.5z" />
    <glyph glyph-name="n" unicode="n" horiz-adv-x="679" 
d="M557 0c-12.667 0 -22.999 3.99805 -30.999 11.998s-12 18 -12 30v255c0 40.667 -7.66699 73.834 -23 99.501s-35.833 44.834 -61.5 57.501s-55.167 19 -88.5 19c-30.667 0 -58.667 -6 -84 -18s-45.333 -28.5 -60 -49.5s-22 -45.167 -22 -72.5h-57
c0.666992 42 11.5 79.5 32.5 112.5s49.167 59.167 84.5 78.5s74.666 29 117.999 29c47.333 0 89.5 -9.83301 126.5 -29.5s66.167 -48.5 87.5 -86.5s32 -84.667 32 -140v-255c0 -12 -4 -22 -12 -30s-18 -12 -30 -12zM133.001 -0.00195312c-12.667 0 -23 3.83301 -31 11.5
s-12 17.834 -12 30.501v462c0 13.333 4 23.833 12 31.5s18.333 11.5 31 11.5s22.834 -3.83301 30.501 -11.5s11.5 -18.167 11.5 -31.5v-462c0 -12.667 -3.83301 -22.834 -11.5 -30.501s-17.834 -11.5 -30.501 -11.5z" />
    <glyph glyph-name="o" unicode="o" 
d="M339 -5c-54 0 -101.832 12 -143.499 36s-74.5 57 -98.5 99s-36 89.667 -36 143c0 54 12 102 36 144s56.833 75 98.5 99s89.5 36 143.5 36c53.333 0 100.666 -12 141.999 -36s74 -57 98 -99s36.333 -90 37 -144c0 -53.333 -12 -101 -36 -143s-56.833 -75 -98.5 -99
s-89.167 -36 -142.5 -36zM339.001 72c37.333 0 70.666 8.66699 99.999 26s52.166 41.166 68.499 71.499s24.5 64.833 24.5 103.5s-8.16699 73.334 -24.5 104.001s-39.166 54.667 -68.499 72s-62.666 26 -99.999 26s-70.666 -8.66699 -99.999 -26s-52.5 -41.333 -69.5 -72
s-25.5 -65.334 -25.5 -104.001s8.5 -73.167 25.5 -103.5s40.167 -54.166 69.5 -71.499s62.666 -26 99.999 -26z" />
    <glyph glyph-name="p" unicode="p" horiz-adv-x="706" 
d="M133 -234c-12.667 0 -22.998 4 -30.998 12s-12 18.333 -12 31v467c0.666992 52 13.167 98.833 37.5 140.5s57.166 74.667 98.499 99s88 36.5 140 36.5c53.333 0 100.833 -12.167 142.5 -36.5s74.667 -57.5 99 -99.5s36.5 -89.667 36.5 -143
c0 -52.667 -11.5 -100 -34.5 -142s-54.5 -75.167 -94.5 -99.5s-85.333 -36.5 -136 -36.5c-42.667 0 -81.667 9.16699 -117 27.5s-64.333 42.5 -87 72.5v-286c0 -12.667 -3.83301 -23 -11.5 -31s-17.834 -12 -30.501 -12zM366.002 72c37.333 0 70.666 8.66699 99.999 26
s52.5 41.333 69.5 72s25.5 65 25.5 103c0 38.667 -8.5 73.167 -25.5 103.5s-40.167 54.333 -69.5 72s-62.666 26.5 -99.999 26.5c-36 0 -68.833 -8.83301 -98.5 -26.5s-52.834 -41.667 -69.501 -72s-25 -64.833 -25 -103.5c0 -38 8.33301 -72.333 25 -103
s39.834 -54.667 69.501 -72s62.5 -26 98.5 -26z" />
    <glyph glyph-name="q" unicode="q" horiz-adv-x="706" 
d="M573 -234c-12.667 0 -22.998 4 -30.998 12s-12 18.333 -12 31v286c-22.667 -30 -51.5 -54.167 -86.5 -72.5s-73.833 -27.5 -116.5 -27.5c-50.667 0 -96 12.167 -136 36.5s-71.667 57.5 -95 99.5s-35 89.333 -35 142c0 53.333 12.167 101 36.5 143s57.5 75.167 99.5 99.5
s89.333 36.5 142 36.5c52 0 98.667 -12.167 140 -36.5s74.166 -57.333 98.499 -99s37.166 -88.5 38.499 -140.5v-467c0 -12.667 -4 -23 -12 -31s-18.333 -12 -31 -12zM339.002 72c36.667 0 69.667 8.66699 99 26s52.333 41.333 69 72s25 65 25 103
c0 38.667 -8.33301 73.167 -25 103.5s-39.667 54.333 -69 72s-62.333 26.5 -99 26.5s-69.667 -8.83301 -99 -26.5s-52.666 -41.667 -69.999 -72s-26 -64.833 -26 -103.5c0 -38 8.66699 -72.333 26 -103s40.666 -54.667 69.999 -72s62.333 -26 99 -26z" />
    <glyph glyph-name="r" unicode="r" horiz-adv-x="467" 
d="M128 339c1.33301 40.667 11.833 77.168 31.5 109.501s45.5 57.833 77.5 76.5s67.667 28 107 28c34 0 59.833 -5 77.5 -15s24.167 -23.667 19.5 -41c-2 -10 -6.16699 -16.833 -12.5 -20.5s-13.666 -5.5 -21.999 -5.5s-17.833 0.333008 -28.5 1
c-38.667 5.33301 -73.334 3.16602 -104.001 -6.50098s-55 -25.5 -73 -47.5s-27 -48.333 -27 -79h-46zM132 0.000976562c-13.333 0 -23.666 3.66699 -30.999 11s-11 17.666 -11 30.999v463c0 13.333 3.66699 23.666 11 30.999s17.666 11 30.999 11
s23.666 -3.66699 30.999 -11s11 -17.666 11 -30.999v-463c0 -13.333 -3.66699 -23.666 -11 -30.999s-17.666 -11 -30.999 -11z" />
    <glyph glyph-name="s" unicode="s" horiz-adv-x="540" 
d="M284 -5c-42 0 -82.502 6.83105 -121.502 20.498s-70.167 33.167 -93.5 58.5c-8 8.66699 -11.333 18.667 -10 30s6.66602 21 15.999 29c10.667 8 21.5 11.167 32.5 9.5s20.5 -6.5 28.5 -14.5c14 -16.667 34 -30.167 60 -40.5s54.667 -15.5 86 -15.5
c46 0 79.667 7.83301 101 23.5s32.333 34.834 33 57.501s-9.83301 41.667 -31.5 57s-58.5 27.333 -110.5 36c-67.333 11.333 -116.5 30.333 -147.5 57s-46.5 58.667 -46.5 96c0 34 9.33301 62.333 28 85s43.167 39.667 73.5 51s63.166 17 98.499 17
c44.667 0 83.334 -7.5 116.001 -22.5s59 -35.167 79 -60.5c8 -9.33301 11.333 -19.166 10 -29.499s-6.66602 -18.833 -15.999 -25.5c-9.33301 -5.33301 -19.833 -7 -31.5 -5s-21.5 7.33301 -29.5 16c-16.667 18 -35.667 31 -57 39s-45.666 12 -72.999 12
c-34 0 -61.833 -6.66699 -83.5 -20s-32.5 -30.666 -32.5 -51.999c0 -14.667 3.83301 -27.334 11.5 -38.001s21.5 -20.167 41.5 -28.5s48 -15.833 84 -22.5c50 -8.66699 89.5 -20.667 118.5 -36s49.833 -33.5 62.5 -54.5s19 -44.167 19 -69.5
c0 -30.667 -8.83301 -58 -26.5 -82s-42.667 -43 -75 -57s-70.166 -21 -113.499 -21z" />
    <glyph glyph-name="t" unicode="t" horiz-adv-x="402" 
d="M299 0c-34.667 0 -65.667 8.33301 -93 25s-48.833 39.667 -64.5 69s-23.5 62.333 -23.5 99v485c0 12.667 3.83301 23 11.5 31s17.834 12 30.501 12c12 0 22 -4 30 -12s12 -18.333 12 -31v-485c0 -31.333 9.16699 -57.166 27.5 -77.499s41.5 -30.5 69.5 -30.5h29
c11.333 0 20.666 -4 27.999 -12s11 -18.333 11 -31s-4.5 -22.834 -13.5 -30.501s-20.5 -11.5 -34.5 -11.5h-20zM59 454c-11.333 0 -20.666 3.33301 -27.999 10s-11 15.334 -11 26.001s3.66699 19.5 11 26.5s16.666 10.5 27.999 10.5h247c11.333 0 20.666 -3.5 27.999 -10.5
s11 -15.833 11 -26.5s-3.66699 -19.334 -11 -26.001s-16.666 -10 -27.999 -10h-247z" />
    <glyph glyph-name="u" unicode="u" horiz-adv-x="679" 
d="M325 -6c-46.667 0 -88.5 9.83301 -125.5 29.5s-66.167 48.5 -87.5 86.5s-32 84.667 -32 140v255c0 12 4 22 12 30s18 12 30 12c12.667 0 23 -4 31 -12s12 -18 12 -30v-255c0 -40 7.5 -73 22.5 -99s35.5 -45.333 61.5 -58s55.333 -19 88 -19c31.333 0 59.5 6 84.5 18
s44.833 28.667 59.5 50s22 45.333 22 72h58c-1.33301 -42 -12.333 -79.5 -33 -112.5s-48.667 -59.167 -84 -78.5s-75 -29 -119 -29zM546 0c-12.667 0 -23 4 -31 12s-12 18.333 -12 31v462c0 12.667 4 22.834 12 30.501s18.333 11.5 31 11.5s23 -3.83301 31 -11.5
s12 -17.834 12 -30.501v-462c0 -12.667 -4 -23 -12 -31s-18.333 -12 -31 -12z" />
    <glyph glyph-name="v" unicode="v" horiz-adv-x="551" 
d="M276 0c-17.333 0 -30.668 9.6709 -40.001 29.0039l-218 463c-4.66699 9.33301 -5.16699 18.666 -1.5 27.999s10.834 16.666 21.501 21.999c10 5.33301 19.833 6.16602 29.5 2.49902s17.167 -10.167 22.5 -19.5l208 -450h-43l205 450c4.66699 10 12.334 16.667 23.001 20
s21 2.66602 31 -2.00098c10.667 -5.33301 17.667 -12.833 21 -22.5s3 -19.167 -1 -28.5l-217 -463c-8.66699 -19.333 -22.334 -29 -41.001 -29z" />
    <glyph glyph-name="w" unicode="w" horiz-adv-x="736" 
d="M215 0c-9.33301 0 -17.8301 2.66699 -25.4971 8s-12.834 12 -15.501 20l-153 460c-4.66699 18 -4.5 32.333 0.5 43s15.5 16 31.5 16c10 0 18.5 -2.66699 25.5 -8s12.5 -14.333 16.5 -27l135 -414h-26l125 416c3.33301 10 8.33301 18 15 24s15.667 9 27 9s20.5 -3 27.5 -9
s11.833 -14 14.5 -24l114 -402h-16l130 400c7.33301 23.333 21.333 35 42 35c16 0 26.833 -5.83301 32.5 -17.5s5.5 -25.5 -0.5 -41.5l-153 -460c-2.66699 -8 -7.5 -14.667 -14.5 -20s-15.5 -8 -25.5 -8c-9.33301 0 -17.833 2.66699 -25.5 8s-12.5 12 -14.5 20l-119 405h12
l-120 -405c-2.66699 -8.66699 -7.83398 -15.5 -15.501 -20.5s-15.834 -7.5 -24.501 -7.5z" />
    <glyph glyph-name="x" unicode="x" horiz-adv-x="551" 
d="M473 0c-8 0 -14.6699 1.16797 -20.0029 3.50098s-10.666 6.83301 -15.999 13.5l-173 217l-32 29l-174 216c-8 9.33301 -12 19.166 -12 29.499s3.16699 19.333 9.5 27s15.833 11.5 28.5 11.5s23.334 -4.66699 32.001 -14l169 -211l27 -23l186 -233
c9.33301 -11.333 13.5 -22 12.5 -32s-5.16699 -18.167 -12.5 -24.5s-15.666 -9.5 -24.999 -9.5zM80.9971 0.000976562c-11.333 0 -20.333 3.66699 -27 11s-10.167 16 -10.5 26s3.5 20 11.5 30l179 224l47 -63l-170 -215c-7.33301 -8.66699 -17.333 -13 -30 -13z
M319.997 259.001l-56.001 53l169 217c4.66699 6.66699 10 11.334 16 14.001s12 4 18 4c12.667 0 22.167 -3.83301 28.5 -11.5s9.33301 -16.834 9 -27.501s-4.16602 -21 -11.499 -31z" />
    <glyph glyph-name="y" unicode="y" horiz-adv-x="545" 
d="M185 -239c-5.33301 0 -12 1.66699 -20 5c-24.667 11.333 -31.334 29 -20.001 53l317 704c10.667 24 28.334 30.667 53.001 20c24.667 -10 31.667 -27.333 21 -52l-318 -704c-7.33301 -17.333 -18.333 -26 -33 -26zM299 19
c-11.333 -5.33301 -21.665 -6.16895 -30.998 -2.50195s-17 10.834 -23 21.501l-225 453c-5.33301 10.667 -6 20.834 -2 30.501s11.333 17.167 22 22.5c11.333 4.66699 21.666 5.33398 30.999 2.00098s16.666 -10.666 21.999 -21.999l219 -453c6 -10.667 8 -20.834 6 -30.501
s-8.33301 -16.834 -19 -21.501z" />
    <glyph glyph-name="z" unicode="z" horiz-adv-x="546" 
d="M137 24l-64 42l361 465l57 -49zM104 0c-26 0 -39 13 -39 39s13 39 39 39h361c26 0 39 -13 39 -39s-13 -39 -39 -39h-361zM98 469c-26 0 -39 13 -39 39s13 39 39 39h361c26 0 39 -13 39 -39s-13 -39 -39 -39h-361z" />
    <glyph glyph-name="braceleft" unicode="{" horiz-adv-x="382" 
d="M321 -234c-105.333 0 -158 52.667 -158 158v234c0 48.667 -24.333 73 -73 73c-12 0 -22.167 4 -30.5 12s-12.5 18 -12.5 30c0 12.667 4.16699 23 12.5 31s18.5 12 30.5 12c48.667 0 73 24.333 73 73v234c0 106 52.667 159 158 159c12 0 22 -4.33301 30 -13s12 -19 12 -31
s-4 -22 -12 -30s-18 -12 -30 -12c-48.667 0 -73 -24.333 -73 -73v-234c0 -24.667 -3 -46.5 -9 -65.5s-15 -35.833 -27 -50.5c24 -28 36 -66.333 36 -115v-234c0 -48 24.333 -72 73 -72c12 0 22 -4.16699 30 -12.5s12 -18.5 12 -30.5c0 -12.667 -4 -23 -12 -31
s-18 -12 -30 -12z" />
    <glyph glyph-name="bar" unicode="|" horiz-adv-x="391" 
d="M196 -234c-12 0 -22.167 4 -30.5 12s-12.5 18.333 -12.5 31v930c0 12 4.16699 22.167 12.5 30.5s18.5 12.5 30.5 12.5c12.667 0 23 -4.16699 31 -12.5s12 -18.5 12 -30.5v-930c0 -12.667 -4 -23 -12 -31s-18.333 -12 -31 -12z" />
    <glyph glyph-name="braceright" unicode="}" horiz-adv-x="382" 
d="M61 -234c-12 0 -22 4 -30 12s-12 18.333 -12 31c0 12 4 22.167 12 30.5s18 12.5 30 12.5c48.667 0 73 24 73 72v234c0 48.667 12.333 87 37 115c-12 14.667 -21.167 31.5 -27.5 50.5s-9.5 40.833 -9.5 65.5v234c0 48.667 -24.333 73 -73 73c-12 0 -22 4 -30 12
s-12 18 -12 30s4 22.333 12 31s18 13 30 13c105.333 0 158 -53 158 -159v-234c0 -48.667 24.333 -73 73 -73c12 0 22.167 -4 30.5 -12s12.5 -18.333 12.5 -31c0 -12 -4.16699 -22 -12.5 -30s-18.5 -12 -30.5 -12c-48.667 0 -73 -24.333 -73 -73v-234
c0 -105.333 -52.667 -158 -158 -158z" />
    <glyph glyph-name="asciitilde" unicode="~" horiz-adv-x="469" 
d="M329 305c-21.333 0 -40.1699 3.66699 -56.5029 11s-30.166 14.666 -41.499 21.999c-14.667 8 -26.667 13.833 -36 17.5s-18 5.5 -26 5.5c-11.333 0 -21.833 -2.5 -31.5 -7.5s-19.167 -13.5 -28.5 -25.5c-6.66699 -9.33301 -15 -15.666 -25 -18.999s-20 -2.33301 -30 3
c-9.33301 4.66699 -14.833 12.334 -16.5 23.001s0.833008 20.667 7.5 30c16 21.333 35 37.833 57 49.5s45.333 17.5 70 17.5c21.333 0 39.833 -3.66699 55.5 -11s28.834 -14 39.501 -20c13.333 -8.66699 24.333 -14.834 33 -18.501s18 -5.5 28 -5.5s18.667 1.83301 26 5.5
s14 8.16699 20 13.5c8 8 16 13.667 24 17s17 2 27 -4c9.33301 -5.33301 14.833 -13.5 16.5 -24.5s-1.16602 -21.167 -8.49902 -30.5c-26 -32.667 -60.667 -49 -104 -49z" />
    <glyph glyph-name="uni00A0" unicode="&#xa0;" horiz-adv-x="293" 
 />
    <glyph glyph-name="exclamdown" unicode="&#xa1;" horiz-adv-x="273" 
d="M162 368c-12 0 -22.167 -4.16699 -30.5 -12.5s-12.5 -18.5 -12.5 -30.5v-515c0 -12 4.16699 -22.333 12.5 -31s18.5 -13 30.5 -13s22.167 4.33301 30.5 13s12.5 19 12.5 31v515c0 12 -4.5 22.167 -13.5 30.5s-18.833 12.5 -29.5 12.5zM162 548c-17.333 0 -32 -6 -44 -18
s-18 -26.667 -18 -44s6 -32 18 -44s26.667 -18 44 -18c16.667 0 31 6.16699 43 18.5s18 26.833 18 43.5c0 17.333 -6 32 -18 44s-26.333 18 -43 18z" />
    <glyph glyph-name="cent" unicode="&#xa2;" horiz-adv-x="598" 
d="M183 -97c-10 0 -18 3.99902 -24 11.999s-6.66699 18.333 -2 31l257 683c5.33301 14 15 21 29 21c11.333 0 19.5 -4.16699 24.5 -12.5s5.83301 -17.166 2.5 -26.499l-257 -685c-6 -15.333 -16 -23 -30 -23zM335 -5.00098c-52.667 0 -99.666 12.166 -140.999 36.499
s-73.833 57.5 -97.5 99.5s-35.5 89.333 -35.5 142c0 53.333 11.5 101 34.5 143s54.333 75.167 94 99.5s85.5 36.5 137.5 36.5c40 0 77 -7.83301 111 -23.5s64 -39.167 90 -70.5c8 -9.33301 10.833 -18.833 8.5 -28.5s-8.5 -18.167 -18.5 -25.5c-8 -6 -17 -8 -27 -6
s-18.667 7.33301 -26 16c-36.667 40.667 -82.667 61 -138 61c-36 0 -67.833 -8.66699 -95.5 -26s-49.167 -41 -64.5 -71s-23 -65 -23 -105c0 -38.667 8 -73.167 24 -103.5s38.5 -54.166 67.5 -71.499s62.167 -26 99.5 -26c25.333 0 48.166 3.33301 68.499 10
s38.5 16.667 54.5 30c8.66699 7.33301 17.834 11.5 27.501 12.5s18.5 -1.83301 26.5 -8.5c8.66699 -8 13.667 -17 15 -27s-2 -19 -10 -27c-48.667 -44.667 -109.334 -67 -182.001 -67z" />
    <glyph glyph-name="sterling" unicode="&#xa3;" horiz-adv-x="508" 
d="M121 0c-13.333 0 -23.833 4.16699 -31.5 12.5s-11.5 18.5 -11.5 30.5c0 6.66699 0.666992 12.334 2 17.001c18.667 42.667 32.5 84.667 41.5 126s13.5 82 13.5 122h-53c-12.667 0 -23 4.33301 -31 13s-12 19 -12 31s4 22.167 12 30.5s18.333 12.5 31 12.5h45l-27 74
c-7.33301 20.667 -12.833 40.167 -16.5 58.5s-5.5 36.833 -5.5 55.5c0 36.667 8.83301 70 26.5 100s41.5 53.833 71.5 71.5s63.333 26.5 100 26.5c34 0 65.167 -6.33301 93.5 -19s52.833 -31.667 73.5 -57c4.66699 -5.33301 9 -11.5 13 -18.5s6 -13.833 6 -20.5
c0 -12 -4.16699 -22.167 -12.5 -30.5s-18.5 -12.5 -30.5 -12.5c-12.667 0 -22 4 -28 12c-16.667 18.667 -33.5 33.834 -50.5 45.501s-37.833 17.5 -62.5 17.5c-22.667 0 -42.5 -5.33301 -59.5 -16s-30.333 -24.834 -40 -42.501s-14.5 -37.5 -14.5 -59.5
c0 -18 2.16699 -36 6.5 -54s10.333 -37.833 18 -59.5l26.5 -71.5h139c12 0 22 -4.16699 30 -12.5s12 -18.5 12 -30.5s-4 -22.333 -12 -31s-18 -13 -30 -13h-133c0 -35.333 -3 -71.5 -9 -108.5s-15.667 -74.5 -29 -112.5h232c5.33301 9.33301 10.333 18.666 15 27.999l14 27
c4 6.66699 9 12 15 16s13.333 6 22 6c12.667 0 23 -4.33301 31 -13s12 -19 12 -31c0 -7.33301 -1.33301 -14 -4 -20l-38 -74c-4 -8.66699 -9.5 -15.167 -16.5 -19.5s-14.5 -6.5 -22.5 -6.5h-322z" />
    <glyph glyph-name="currency" unicode="&#xa4;" horiz-adv-x="511" 
d="M95 153c-14.667 0 -26.6641 4.83105 -35.9971 14.498s-14 21.834 -14 36.501c0 13.333 5 25 15 35l37 34c-16 28.667 -24.167 58.667 -24.5 90s7.5 61.333 23.5 90l-36 37c-10 10 -15 22 -15 36s4.66699 25.833 14 35.5s21.333 14.5 36 14.5c12.667 0 24 -4.33301 34 -13
l36 -39c29.333 17.333 60 25.5 92 24.5s61 -8.5 87 -22.5l37 36c6 4 11.5 7.33301 16.5 10s11.167 4 18.5 4c14.667 0 26.667 -4.83301 36 -14.5s14 -21.5 14 -35.5c0 -14.667 -4.66699 -27 -14 -37l-36 -33c15.333 -27.333 23.166 -57.166 23.499 -89.499
s-7.16699 -62.166 -22.5 -89.499l35 -38c9.33301 -10 14 -21.667 14 -35c0 -14.667 -4.66699 -26.834 -14 -36.501s-21 -14.5 -35 -14.5c-6.66699 0 -12.834 1.16699 -18.501 3.5s-11.167 5.5 -16.5 9.5l-35 39c-28.667 -16 -58.334 -24 -89.001 -24s-60.667 7.33301 -90 22
l-38 -36c-10 -9.33301 -21.667 -14 -35 -14zM256.003 268.998c17.333 0 33.168 4.50098 47.501 13.501s25.666 20.667 33.999 35s12.5 29.833 12.5 46.5c0 18 -4.33301 34.167 -13 48.5s-20 25.833 -34 34.5s-29.667 13 -47 13s-33.166 -4.33301 -47.499 -13
s-25.833 -20.334 -34.5 -35.001s-13 -30.667 -13 -48c0 -16 4.16699 -31.333 12.5 -46s19.666 -26.5 33.999 -35.5s30.5 -13.5 48.5 -13.5z" />
    <glyph glyph-name="yen" unicode="&#xa5;" horiz-adv-x="655" 
d="M168 288c-12.667 0 -22.834 3.33301 -30.501 10s-11.5 16 -11.5 28s3.83301 21.333 11.5 28s17.834 10 30.501 10h320c12 0 22 -3.33301 30 -10s12 -16 12 -28s-4 -21.333 -12 -28s-18 -10 -30 -10h-320zM168 156c-12.667 0 -22.834 3.33301 -30.501 10
s-11.5 16 -11.5 28s3.83301 21.333 11.5 28s17.834 10 30.501 10h320c12 0 22 -3.33301 30 -10s12 -16 12 -28s-4 -21.333 -12 -28s-18 -10 -30 -10h-320zM327 0c-11.333 0 -21.3369 4.16797 -30.0039 12.501s-13 18.5 -13 30.5v245l-270 425
c-7.33301 11.333 -10.166 22.166 -8.49902 32.499s6.33398 18.833 14.001 25.5s17.167 10 28.5 10c8.66699 0 15.834 -2 21.501 -6s10.834 -9.33301 15.501 -16l265 -425h-42l266 425c4.66699 7.33301 10.167 12.833 16.5 16.5s13.833 5.5 22.5 5.5
c10 0 18.5 -3.5 25.5 -10.5s11 -15.667 12 -26s-1.83301 -20.833 -8.5 -31.5l-271 -425v-245c0 -12 -4.33301 -22.167 -13 -30.5s-19 -12.5 -31 -12.5z" />
    <glyph glyph-name="brokenbar" unicode="&#xa6;" horiz-adv-x="234" 
d="M119 423c-12.667 0 -23 4.16699 -31 12.5s-12 18.5 -12 30.5v345c0 12.667 4 23 12 31s18.333 12 31 12c12 0 22.167 -4 30.5 -12s12.5 -18.333 12.5 -31v-345c0 -12 -4.16699 -22.167 -12.5 -30.5s-18.5 -12.5 -30.5 -12.5zM119 -234c-12.667 0 -23 4 -31 12
s-12 18.333 -12 31v343c0 12 4 22 12 30s18.333 12 31 12c12 0 22.167 -4 30.5 -12s12.5 -18 12.5 -30v-343c0 -12.667 -4.16699 -23 -12.5 -31s-18.5 -12 -30.5 -12z" />
    <glyph glyph-name="section" unicode="&#xa7;" horiz-adv-x="469" 
d="M238 -234c-36.667 0 -70.1689 9 -100.502 27s-54.5 42 -72.5 72s-27 63.333 -27 100c0 12 4.33301 22.167 13 30.5s19.334 12.5 32.001 12.5c12 0 22 -4.16699 30 -12.5s12 -18.5 12 -30.5c0 -20.667 5.16699 -39.5 15.5 -56.5s24.166 -30.5 41.499 -40.5s36 -15 56 -15
c19.333 0 37.666 5 54.999 15s31.166 23.5 41.499 40.5s15.5 35.833 15.5 56.5c0 19.333 -5.16699 37.5 -15.5 54.5s-24 30.5 -41 40.5s-35.5 15 -55.5 15c-36.667 0 -70 9 -100 27s-54.167 42 -72.5 72s-27.5 63 -27.5 99c0 30 6.33301 58.167 19 84.5
s31.334 50.166 56.001 71.499c-26 22 -45 45.833 -57 71.5s-18 53.167 -18 82.5c0 36.667 9 69.834 27 99.501s42.167 53.5 72.5 71.5s63.833 27 100.5 27c36 0 69.167 -9 99.5 -27s54.5 -41.833 72.5 -71.5s27 -62.834 27 -99.501c0 -12 -4 -22.167 -12 -30.5
s-18.333 -12.5 -31 -12.5s-23.167 4.16699 -31.5 12.5s-12.5 18.5 -12.5 30.5c0 20.667 -5.16699 39.5 -15.5 56.5s-24.166 30.5 -41.499 40.5s-35.666 15 -54.999 15c-20 0 -38.667 -5 -56 -15s-31.166 -23.5 -41.499 -40.5s-15.5 -35.833 -15.5 -56.5
c0 -20 5.16699 -38.5 15.5 -55.5s24 -30.5 41 -40.5s35.833 -15 56.5 -15c36 0 69.167 -9 99.5 -27s54.5 -42 72.5 -72s27 -63.333 27 -100c0 -29.333 -6.33301 -57.333 -19 -84s-31.334 -50 -56.001 -70c24.667 -20.667 43.334 -44.167 56.001 -70.5s19 -54.166 19 -83.499
c0 -36.667 -9 -70 -27 -100s-42.167 -54 -72.5 -72s-63.5 -27 -99.5 -27zM237.998 163c20 0 38.5 4.83301 55.5 14.5s30.667 23 41 40s15.5 35.5 15.5 55.5c0 21.333 -5.16699 40.333 -15.5 57s-24 30 -41 40s-35.5 15 -55.5 15c-20.667 0 -39.5 -5 -56.5 -15
s-30.667 -23.333 -41 -40s-15.5 -35.667 -15.5 -57c0 -20 5.16699 -38.5 15.5 -55.5s24 -30.333 41 -40s35.833 -14.5 56.5 -14.5z" />
    <glyph glyph-name="dieresis" unicode="&#xa8;" horiz-adv-x="469" 
d="M135 619c-16 0 -29.5 5.5 -40.5 16.5s-16.5 24.5 -16.5 40.5c0 15.333 5.5 28.666 16.5 39.999s24.5 17 40.5 17c15.333 0 28.666 -5.66699 39.999 -17s17 -24.666 17 -39.999c0 -16 -5.66699 -29.5 -17 -40.5s-24.666 -16.5 -39.999 -16.5zM348 619
c-15.333 0 -28.5 5.5 -39.5 16.5s-16.5 24.5 -16.5 40.5c0 15.333 5.5 28.666 16.5 39.999s24.167 17 39.5 17c16 0 29.5 -5.66699 40.5 -17s16.5 -24.666 16.5 -39.999c0 -16 -5.5 -29.5 -16.5 -40.5s-24.5 -16.5 -40.5 -16.5z" />
    <glyph glyph-name="copyright" unicode="&#xa9;" horiz-adv-x="859" 
d="M441 144c-45.333 0 -86.167 10.834 -122.5 32.501s-64.833 51.167 -85.5 88.5s-31 80 -31 128s9.83301 90.667 29.5 128s47 66.833 82 88.5s75.167 32.5 120.5 32.5c71.333 0 130 -28 176 -84c7.33301 -9.33301 10.166 -19 8.49902 -29s-7.83398 -18.333 -18.501 -25
c-8 -5.33301 -16.667 -7.33301 -26 -6s-17.666 6.33301 -24.999 15c-30.667 34.667 -69 52 -115 52c-30 0 -56.5 -7.33301 -79.5 -22s-40.833 -34.834 -53.5 -60.501s-19 -55.5 -19 -89.5s6.83301 -63.833 20.5 -89.5s32.334 -45.834 56.001 -60.501s51.167 -22 82.5 -22
c42 0 76 11.333 102 34c8.66699 7.33301 17.667 11.333 27 12s17.666 -2 24.999 -8c9.33301 -8.66699 14.333 -18.167 15 -28.5s-2.66602 -19.166 -9.99902 -26.499c-42.667 -40 -95.667 -60 -159 -60zM435.999 0.000976562c-54.667 0 -105.667 9.99902 -153 29.999
s-88.833 47.833 -124.5 83.5s-63.5 77.167 -83.5 124.5s-30 98.666 -30 153.999c0 53.333 10.167 103.5 30.5 150.5s48.333 88.5 84 124.5s77.167 64.167 124.5 84.5s98 30.5 152 30.5c53.333 0 103.666 -10.167 150.999 -30.5s88.833 -48.333 124.5 -84
s63.834 -77.167 84.501 -124.5s31 -97.666 31 -150.999c0 -55.333 -10.167 -106.666 -30.5 -153.999s-48.5 -88.833 -84.5 -124.5s-77.5 -63.5 -124.5 -83.5s-97.5 -30 -151.5 -30zM434.999 72c44.667 0 86.332 8.33203 124.999 24.999s72.5 39.834 101.5 69.501
s51.833 63.667 68.5 102s25 79.5 25 123.5s-8.33301 85.167 -25 123.5s-39.667 72.333 -69 102s-63.333 52.834 -102 69.501s-80 25 -124 25s-85.333 -8.33301 -124 -25s-72.667 -39.667 -102 -69s-52.333 -63.333 -69 -102s-25 -80 -25 -124s8.33301 -85.333 25 -124
s39.5 -72.834 68.5 -102.501s62.833 -52.667 101.5 -69s80.334 -24.5 125.001 -24.5z" />
    <glyph glyph-name="ordfeminine" unicode="&#xaa;" horiz-adv-x="477" 
d="M237 395c-37.333 0 -71.002 8.66699 -101.002 26s-53.5 40.833 -70.5 70.5s-25.5 63.5 -25.5 101.5c0 37.333 8.5 70.833 25.5 100.5s40.5 53 70.5 70s63.667 25.5 101 25.5s71 -8.5 101 -25.5s53.5 -40.333 70.5 -70s25.5 -63.5 25.5 -101.5l-42 -88
c-13.333 -31.333 -33.166 -57.333 -59.499 -78s-58.166 -31 -95.499 -31zM236.998 478c32.667 0 60 10.833 82 32.5s33 48.834 33 81.501c0 33.333 -11 60.833 -33 82.5s-49.333 32.5 -82 32.5s-60 -10.833 -82 -32.5s-33 -49.167 -33 -82.5
c0 -32.667 11 -59.834 33 -81.501s49.333 -32.5 82 -32.5zM393.998 392c-12.667 0 -22.5 4 -29.5 12s-10.167 18.333 -9.5 31l12 157h67v-157c0 -12.667 -3.83301 -23 -11.5 -31s-17.167 -12 -28.5 -12z" />
    <glyph glyph-name="guillemotleft" unicode="&#xab;" horiz-adv-x="469" 
d="M391 0c-8 0 -15.5 2.16699 -22.5 6.5s-12.5 10.833 -16.5 19.5l-113 224c-4 7.33301 -6 15 -6 23c0 6.66699 1.66699 13.667 5 21l114 226c7.33301 17.333 20.333 26 39 26c12.667 0 23 -4 31 -12s12 -18 12 -30c0 -6.66699 -1.33301 -13 -4 -19l-106 -212l106 -212
c2.66699 -5.33301 4 -11.333 4 -18c0 -12 -4 -22.167 -12 -30.5s-18.333 -12.5 -31 -12.5zM196 0c-8 0 -15.5 2.16504 -22.5 6.49805s-12.5 10.833 -16.5 19.5l-112 224c-2 4.66699 -3.66699 8.83398 -5 12.501s-2 7.16699 -2 10.5c0 6.66699 2 13.667 6 21l113 226
c8.66699 17.333 21.667 26 39 26c12.667 0 23 -4 31 -12s12 -18 12 -30c0 -7.33301 -1 -13.666 -3 -18.999l-106 -212l106 -212c2 -4.66699 3 -10.667 3 -18c0 -12 -4.16699 -22.167 -12.5 -30.5s-18.5 -12.5 -30.5 -12.5z" />
    <glyph glyph-name="logicalnot" unicode="&#xac;" horiz-adv-x="547" 
d="M465 307c-11.333 0 -21.167 4.16699 -29.5 12.5s-12.5 18.833 -12.5 31.5v110h-341c-12.667 0 -23 4.16699 -31 12.5s-12 18.5 -12 30.5s4 22.167 12 30.5s18.333 12.5 31 12.5h383c12.667 0 23 -4.16699 31 -12.5s12 -18.5 12 -30.5v-153
c0 -12.667 -4 -23.167 -12 -31.5s-18.333 -12.5 -31 -12.5z" />
    <glyph glyph-name="uni00AD" unicode="&#xad;" horiz-adv-x="391" 
d="M80 231c-12 0 -22.167 4 -30.5 12s-12.5 18 -12.5 30c0 12.667 4.16699 23 12.5 31s18.5 12 30.5 12h231c12 0 22 -4 30 -12s12 -18.333 12 -31c0 -12 -4 -22 -12 -30s-18 -12 -30 -12h-231z" />
    <glyph glyph-name="registered" unicode="&#xae;" horiz-adv-x="859" 
d="M324 159c-10.667 0 -19.333 3.33203 -26 9.99902s-10 15 -10 25v413c0 10.667 3.66699 19.167 11 25.5s16.333 9.5 27 9.5h108c32 0 60.5 -6.5 85.5 -19.5s44.667 -30.667 59 -53s21.5 -48.166 21.5 -77.499s-7.33301 -55.5 -22 -78.5s-34.667 -40.833 -60 -53.5
s-53.333 -19 -84 -19h-75v-147c0 -10 -3.16699 -18.333 -9.5 -25s-14.833 -10 -25.5 -10zM575.001 158.999c-14 0 -24.667 5.66699 -32 17l-115 188l68 21l105 -173c8.66699 -13.333 10.5 -25.5 5.5 -36.5s-15.5 -16.5 -31.5 -16.5zM359.001 404.999h79
c26.667 0 48.5 7.5 65.5 22.5s25.5 36.5 25.5 64.5c0 27.333 -8.5 48.5 -25.5 63.5s-38.833 22.5 -65.5 22.5h-79v-173zM436.001 -0.000976562c-54.667 0 -105.667 9.99902 -153 29.999s-88.833 47.833 -124.5 83.5s-63.5 77.167 -83.5 124.5s-30 98.666 -30 153.999
c0 53.333 10.167 103.5 30.5 150.5s48.333 88.5 84 124.5s77.167 64.167 124.5 84.5s98 30.5 152 30.5c53.333 0 103.666 -10.167 150.999 -30.5s88.833 -48.333 124.5 -84s63.834 -77.167 84.501 -124.5s31 -97.666 31 -150.999c0 -55.333 -10.167 -106.666 -30.5 -153.999
s-48.5 -88.833 -84.5 -124.5s-77.5 -63.5 -124.5 -83.5s-97.5 -30 -151.5 -30zM435.001 71.998c44.667 0 86.332 8.33203 124.999 24.999s72.5 39.834 101.5 69.501s51.833 63.667 68.5 102s25 79.5 25 123.5s-8.33301 85.167 -25 123.5s-39.667 72.333 -69 102
s-63.333 52.834 -102 69.501s-80 25 -124 25s-85.333 -8.33301 -124 -25s-72.667 -39.667 -102 -69s-52.333 -63.333 -69 -102s-25 -80 -25 -124s8.33301 -85.333 25 -124s39.5 -72.834 68.5 -102.501s62.833 -52.667 101.5 -69s80.334 -24.5 125.001 -24.5z" />
    <glyph glyph-name="macron" unicode="&#xaf;" horiz-adv-x="547" 
d="M146 641c-12.667 0 -23 3.5 -31 10.5s-12 16.5 -12 28.5c0 12.667 4 22.334 12 29.001s18.333 10 31 10h256c12 0 22.167 -3.33301 30.5 -10s12.5 -16.334 12.5 -29.001c0 -12 -4.16699 -21.5 -12.5 -28.5s-18.5 -10.5 -30.5 -10.5h-256z" />
    <glyph glyph-name="degree" unicode="&#xb0;" horiz-adv-x="469" 
d="M235 384c-36.667 0 -69.667 9 -99 27s-53 41.833 -71 71.5s-27 62.5 -27 98.5s9 68.833 27 98.5s41.667 53.5 71 71.5s62.333 27 99 27c36 0 68.833 -9 98.5 -27s53.5 -41.833 71.5 -71.5s27 -62.5 27 -98.5s-9 -68.833 -27 -98.5s-41.833 -53.5 -71.5 -71.5
s-62.5 -27 -98.5 -27zM235 470c20 0 38.499 5.00098 55.499 15.001s30.5 23.5 40.5 40.5s15 35.5 15 55.5s-5.16699 38.5 -15.5 55.5s-23.833 30.5 -40.5 40.5s-35 15 -55 15s-38.5 -5 -55.5 -15s-30.5 -23.5 -40.5 -40.5s-15 -35.5 -15 -55.5
c0 -20.667 5 -39.334 15 -56.001s23.333 -30 40 -40s35.334 -15 56.001 -15z" />
    <glyph glyph-name="plusminus" unicode="&#xb1;" horiz-adv-x="547" 
d="M273 153c-12 0 -22.167 4.16699 -30.5 12.5s-12.5 18.5 -12.5 30.5v150h-148c-12.667 0 -23 4 -31 12s-12 18.333 -12 31c0 12 4 22.167 12 30.5s18.333 12.5 31 12.5h148v149c0 12 4.33301 22.167 13 30.5s18.667 12.5 30 12.5c12.667 0 23 -4.16699 31 -12.5
s12 -18.5 12 -30.5v-149h149c12 0 22.167 -4.16699 30.5 -12.5s12.5 -18.5 12.5 -30.5c0 -12.667 -4.16699 -23 -12.5 -31s-18.5 -12 -30.5 -12h-149v-150c0 -12 -4 -22.167 -12 -30.5s-18.333 -12.5 -31 -12.5zM82 0c-12.667 0 -23 4 -31 12s-12 18.333 -12 31
c0 12 4 22.167 12 30.5s18.333 12.5 31 12.5h384c12 0 22 -4.16699 30 -12.5s12 -18.5 12 -30.5c0 -12.667 -4 -23 -12 -31s-18 -12 -30 -12h-384z" />
    <glyph glyph-name="uni00B2" unicode="&#xb2;" horiz-adv-x="369" 
d="M89 386c-12 0 -21.667 3.66797 -29 11.001s-11 16.666 -11 27.999c0 5.33301 0.666992 10.333 2 15s4 9 8 13l157 166c8.66699 9.33301 14.834 18.166 18.501 26.499s5.5 16.833 5.5 25.5c0 15.333 -5.66699 28.5 -17 39.5s-26 16.5 -44 16.5
c-22 0 -39.5 -6.33301 -52.5 -19s-19.5 -27.667 -19.5 -45c0 -11.333 -2.5 -20.666 -7.5 -27.999s-13.5 -11 -25.5 -11c-10 0 -17.833 3.83301 -23.5 11.5s-8.5 16.834 -8.5 27.501c0 37.333 12.667 68.333 38 93s58.666 37 99.999 37c39.333 0 70.833 -11.833 94.5 -35.5
s35.5 -52.834 35.5 -87.501c0 -22 -6.16699 -41 -18.5 -57s-24.5 -30.333 -36.5 -43l-142 -148l-7 35h178c11.333 0 20.833 -2.83301 28.5 -8.5s11.5 -14.5 11.5 -26.5s-3.66699 -21 -11 -27s-17 -9 -29 -9h-195z" />
    <glyph glyph-name="uni00B3" unicode="&#xb3;" horiz-adv-x="372" 
d="M187 377c-41.333 0 -75.3369 11.667 -102.004 35s-40 53 -40 89c0 11.333 3.5 20.666 10.5 27.999s16.167 11 27.5 11c10.667 0 18.834 -3.66699 24.501 -11s8.5 -16.666 8.5 -27.999c0 -16 6.33301 -29.5 19 -40.5s29.334 -16.5 50.001 -16.5c17.333 0 32.5 5 45.5 15
s19.5 23.333 19.5 40c0 18 -5.16699 32.667 -15.5 44s-23.166 17 -38.499 17c-13.333 0 -23.833 3 -31.5 9s-11.5 14 -11.5 24c0 23.333 12.667 35 38 35c16 0 28.333 4 37 12s13 19.667 13 35c0 14.667 -5.33301 26.5 -16 35.5s-24.667 13.5 -42 13.5
c-19.333 0 -34.666 -4.33301 -45.999 -13s-18.333 -19.334 -21 -32.001c-1.33301 -8.66699 -4.83301 -16.167 -10.5 -22.5s-12.167 -9.5 -19.5 -9.5c-10.667 0 -19.5 3.16699 -26.5 9.5s-10.5 14.833 -10.5 25.5c0 20.667 6 39.5 18 56.5s28.167 30.333 48.5 40
s42.833 14.5 67.5 14.5c36 0 66 -10.667 90 -32s36 -48.333 36 -81c0 -18 -5.33301 -34.833 -16 -50.5s-25 -27.5 -43 -35.5c23.333 -6.66699 41.333 -18.667 54 -36s19 -37.666 19 -60.999s-6 -44 -18 -62s-28.167 -32.167 -48.5 -42.5s-43.5 -15.5 -69.5 -15.5z" />
    <glyph glyph-name="acute" unicode="&#xb4;" horiz-adv-x="273" 
d="M91 589c-12.667 0 -23 4 -31 12s-12 18.333 -12 31c0 11.333 3.33301 21 10 29l108 108c8 8 18 12 30 12c12.667 0 23 -4.16699 31 -12.5s12 -18.833 12 -31.5c0 -12 -4 -21.667 -12 -29l-107 -108c-8 -7.33301 -17.667 -11 -29 -11z" />
    <glyph glyph-name="uni00B5" unicode="&#xb5;" horiz-adv-x="679" 
d="M337 -6c-44 0 -82.501 11.333 -115.501 34s-58.333 53.334 -76 92.001s-26.5 82 -26.5 130h-39v255c0 12.667 3.83301 22.834 11.5 30.501s17.834 11.5 30.501 11.5s23 -3.83301 31 -11.5s12 -17.834 12 -30.501v-255c0 -34.667 7.33301 -65.167 22 -91.5s35 -47 61 -62
s55.667 -22.5 89 -22.5c32.667 0 61.5 5.83301 86.5 17.5s44.5 28.167 58.5 49.5s21 45.666 21 72.999l48 -2c-0.666992 -42 -10.667 -79.5 -30 -112.5s-45 -58.833 -77 -77.5s-67.667 -28 -107 -28zM121.999 -234c-12.667 0 -22.833 4 -30.5 12s-11.5 18.333 -11.5 31v480
h85v-480c0 -12.667 -4 -23 -12 -31s-18.333 -12 -31 -12zM546 0c-12.667 0 -23 4 -31 12s-12 18.333 -12 31v462c0 12.667 4 22.834 12 30.501s18.333 11.5 31 11.5s23 -3.83301 31 -11.5s12 -17.834 12 -30.501v-462c0 -12.667 -4 -23 -12 -31s-18.333 -12 -31 -12z" />
    <glyph glyph-name="paragraph" unicode="&#xb6;" horiz-adv-x="578" 
d="M280 0c-12.667 0 -23 4.00098 -31 12.001s-12 18.333 -12 31v345c-37.333 1.33301 -70.333 10.833 -99 28.5s-51.334 41.167 -68.001 70.5s-25 61.666 -25 96.999c0 36.667 8.66699 70 26 100s40.833 53.833 70.5 71.5s62.834 26.5 99.501 26.5h249
c12 0 22.167 -4.16699 30.5 -12.5s12.5 -18.833 12.5 -31.5c0 -10 -3.66699 -19 -11 -27s-16.333 -12.667 -27 -14v-654c0 -12.667 -4 -23 -12 -31s-18.333 -12 -31 -12s-23 4 -31 12s-12 18.333 -12 31v653h-86v-653c0 -12.667 -4.16699 -23 -12.5 -31s-18.5 -12 -30.5 -12
z" />
    <glyph glyph-name="periodcentered" unicode="&#xb7;" horiz-adv-x="195" 
d="M97 308c-17.333 0 -32.166 5.83203 -44.499 17.499s-18.5 26.5 -18.5 44.5c0 17.333 6.16699 32 18.5 44s27.166 18 44.499 18c16.667 0 31 -6.16699 43 -18.5s18 -27.166 18 -44.499c0 -16.667 -6 -31 -18 -43s-26.333 -18 -43 -18z" />
    <glyph glyph-name="cedilla" unicode="&#xb8;" horiz-adv-x="313" 
d="M155 -233c-37.333 0 -67.833 7.67285 -91.5 23.0059s-35.5 33.333 -35.5 54c0 11.333 4 21 12 29s17.333 12 28 12c8 0 14.833 -1.83301 20.5 -5.5s10.5 -9.5 14.5 -17.5c4.66699 -8.66699 11.334 -15.334 20.001 -20.001s19.667 -7 33 -7c14 0 26 3.16699 36 9.5
s15 15.5 15 27.5s-3.83301 21.667 -11.5 29s-20.5 13 -38.5 17c-17.333 4 -29.833 10.167 -37.5 18.5s-7.83398 22.166 -0.500977 41.499l14 36c8 22.667 24.333 34 49 34c14 0 24.5 -4.83301 31.5 -14.5s7.5 -20.834 1.5 -33.501l-15 -36
c34.667 -8 59.167 -19.833 73.5 -35.5s21.5 -34.834 21.5 -57.501c0 -18.667 -6 -35.834 -18 -51.501s-28.5 -28.334 -49.5 -38.001s-45.167 -14.5 -72.5 -14.5z" />
    <glyph glyph-name="uni00B9" unicode="&#xb9;" horiz-adv-x="283" 
d="M181 386c-12.667 0 -22.001 4 -28.001 12s-9 18.333 -9 31v265l-51 -17c-15.333 -4.66699 -29.166 -6.5 -41.499 -5.5s-20.5 7.16699 -24.5 18.5c-4.66699 11.333 -4 21.333 2 30s14.667 14.667 26 18l109 38c18 6 31.5 5.5 40.5 -1.5s13.5 -19.5 13.5 -37.5v-308
c0 -12.667 -3 -23 -9 -31s-15.333 -12 -28 -12z" />
    <glyph glyph-name="ordmasculine" unicode="&#xba;" horiz-adv-x="474" 
d="M237 395c-37.333 0 -71 8.66699 -101 26s-53.5 40.833 -70.5 70.5s-25.5 63.5 -25.5 101.5c0 37.333 8.5 70.833 25.5 100.5s40.5 53 70.5 70s63.667 25.5 101 25.5s71 -8.5 101 -25.5s53.5 -40.333 70.5 -70s25.5 -63.5 25.5 -101.5
c0 -37.333 -8.5 -70.833 -25.5 -100.5s-40.5 -53.167 -70.5 -70.5s-63.667 -26 -101 -26zM237 478c32.667 0 60 10.833 82 32.5s33 48.834 33 81.501c0 33.333 -11 60.833 -33 82.5s-49.333 32.5 -82 32.5s-60 -10.833 -82 -32.5s-33 -49.167 -33 -82.5
c0 -32.667 11 -59.834 33 -81.501s49.333 -32.5 82 -32.5z" />
    <glyph glyph-name="guillemotright" unicode="&#xbb;" horiz-adv-x="469" 
d="M276 0c-12 0 -22.165 4.16699 -30.498 12.5s-12.5 18.5 -12.5 30.5c0 6.66699 1.33301 12.667 4 18l106 212l-106 212c-0.666992 3.33301 -1.5 6.33301 -2.5 9s-1.5 6 -1.5 10c0 12 4.16699 22 12.5 30s18.5 12 30.5 12c18.667 0 32 -8.66699 40 -26l113 -226
c1.33301 -4 2.5 -7.66699 3.5 -11s1.5 -6.66602 1.5 -9.99902s-0.5 -6.83301 -1.5 -10.5s-2.5 -7.83398 -4.5 -12.501l-112 -224c-4.66699 -8.66699 -10.334 -15.167 -17.001 -19.5s-14.334 -6.5 -23.001 -6.5zM81.002 0c-11.333 0 -21.167 4.16602 -29.5 12.499
s-12.5 18.5 -12.5 30.5c0 6.66699 1.33301 12.667 4 18l105 212l-105 212c-0.666992 3.33301 -1.66699 6.33301 -3 9s-2 6 -2 10c0 12 4.33301 22 13 30s18.667 12 30 12c18.667 0 32 -8.66699 40 -26l113 -226c1.33301 -4 2.5 -7.66699 3.5 -11s1.5 -6.66602 1.5 -9.99902
c0 -7.33301 -2 -15 -6 -23l-112 -224c-4 -8.66699 -9.5 -15.167 -16.5 -19.5s-14.833 -6.5 -23.5 -6.5z" />
    <glyph glyph-name="onequarter" unicode="&#xbc;" horiz-adv-x="774" 
d="M181 386c-12.667 0 -22.001 4 -28.001 12s-9 18.333 -9 31v265l-51 -17c-15.333 -4.66699 -29.166 -6.5 -41.499 -5.5s-20.5 7.16699 -24.5 18.5c-4.66699 11.333 -4 21.333 2 30s14.667 14.667 26 18l109 38c18 6 31.5 5.5 40.5 -1.5s13.5 -19.5 13.5 -37.5v-308
c0 -12.667 -3 -23 -9 -31s-15.333 -12 -28 -12zM145.999 0c-12.667 0 -21.999 5.33301 -27.999 16s-5.33301 22 2 34l463 713c5.33301 8 11 13.667 17 17s12.333 5 19 5c13.333 0 23.166 -5.83301 29.499 -17.5s4.5 -25.167 -5.5 -40.5l-464 -705
c-9.33301 -14.667 -20.333 -22 -33 -22zM627 -6c-11.333 0 -20.166 3.00098 -26.499 9.00098s-9.5 14 -9.5 24v57h-161c-11.333 0 -20.333 3.16699 -27 9.5s-10 14.166 -10 23.499s4 19.333 12 30l184 239c5.33301 6 11.166 10.5 17.499 13.5s12.5 4.5 18.5 4.5
c10 0 18.833 -3.16699 26.5 -9.5s11.5 -14.5 11.5 -24.5v-222h34c9.33301 0 17.166 -3 23.499 -9s9.5 -13.667 9.5 -23c0 -10.667 -3.16699 -18.667 -9.5 -24s-14.166 -8 -23.499 -8h-34v-57c0 -10 -3 -18 -9 -24s-15 -9 -27 -9zM481 148.001h112v148z" />
    <glyph glyph-name="onehalf" unicode="&#xbd;" horiz-adv-x="836" 
d="M181 386c-12.667 0 -22.001 4 -28.001 12s-9 18.333 -9 31v265l-51 -17c-15.333 -4.66699 -29.166 -6.5 -41.499 -5.5s-20.5 7.16699 -24.5 18.5c-4.66699 11.333 -4 21.333 2 30s14.667 14.667 26 18l109 38c18 6 31.5 5.5 40.5 -1.5s13.5 -19.5 13.5 -37.5v-308
c0 -12.667 -3 -23 -9 -31s-15.333 -12 -28 -12zM181.999 0c-12.667 0 -21.999 5.33301 -27.999 16s-5.33301 22 2 34l463 713c5.33301 8 11 13.667 17 17s12.333 5 19 5c13.333 0 23.166 -5.83301 29.499 -17.5s4.5 -25.167 -5.5 -40.5l-464 -705
c-9.33301 -14.667 -20.333 -22 -33 -22zM561 0c-12 0 -21.667 3.66797 -29 11.001s-11 16.666 -11 27.999c0 5.33301 0.666992 10.333 2 15s4 9 8 13l157 166c8.66699 9.33301 14.834 18.166 18.501 26.499s5.5 16.833 5.5 25.5c0 15.333 -5.66699 28.5 -17 39.5
s-26 16.5 -44 16.5c-22 0 -39.5 -6.33301 -52.5 -19s-19.5 -27.667 -19.5 -45c0 -11.333 -2.5 -20.666 -7.5 -27.999s-13.5 -11 -25.5 -11c-10 0 -17.833 3.83301 -23.5 11.5s-8.5 16.834 -8.5 27.501c0 37.333 12.667 68.333 38 93s58.666 37 99.999 37
c39.333 0 70.833 -11.833 94.5 -35.5s35.5 -52.834 35.5 -87.501c0 -22 -6.16699 -41 -18.5 -57s-24.5 -30.333 -36.5 -43l-142 -148l-7 35h178c11.333 0 20.833 -2.83301 28.5 -8.5s11.5 -14.5 11.5 -26.5s-3.66699 -21 -11 -27s-17 -9 -29 -9h-195z" />
    <glyph glyph-name="threequarters" unicode="&#xbe;" horiz-adv-x="846" 
d="M187 377c-41.333 0 -75.3369 11.667 -102.004 35s-40 53 -40 89c0 11.333 3.5 20.666 10.5 27.999s16.167 11 27.5 11c10.667 0 18.834 -3.66699 24.501 -11s8.5 -16.666 8.5 -27.999c0 -16 6.33301 -29.5 19 -40.5s29.334 -16.5 50.001 -16.5c17.333 0 32.5 5 45.5 15
s19.5 23.333 19.5 40c0 18 -5.16699 32.667 -15.5 44s-23.166 17 -38.499 17c-13.333 0 -23.833 3 -31.5 9s-11.5 14 -11.5 24c0 23.333 12.667 35 38 35c16 0 28.333 4 37 12s13 19.667 13 35c0 14.667 -5.33301 26.5 -16 35.5s-24.667 13.5 -42 13.5
c-19.333 0 -34.666 -4.33301 -45.999 -13s-18.333 -19.334 -21 -32.001c-1.33301 -8.66699 -4.83301 -16.167 -10.5 -22.5s-12.167 -9.5 -19.5 -9.5c-10.667 0 -19.5 3.16699 -26.5 9.5s-10.5 14.833 -10.5 25.5c0 20.667 6 39.5 18 56.5s28.167 30.333 48.5 40
s42.833 14.5 67.5 14.5c36 0 66 -10.667 90 -32s36 -48.333 36 -81c0 -18 -5.33301 -34.833 -16 -50.5s-25 -27.5 -43 -35.5c23.333 -6.66699 41.333 -18.667 54 -36s19 -37.666 19 -60.999s-6 -44 -18 -62s-28.167 -32.167 -48.5 -42.5s-43.5 -15.5 -69.5 -15.5zM192.996 0
c-12.667 0 -21.999 5.33301 -27.999 16s-5.33301 22 2 34l463 713c5.33301 8 11 13.667 17 17s12.333 5 19 5c13.333 0 23.166 -5.83301 29.499 -17.5s4.5 -25.167 -5.5 -40.5l-464 -705c-9.33301 -14.667 -20.333 -22 -33 -22zM693.997 -6
c-11.333 0 -20.166 3.00098 -26.499 9.00098s-9.5 14 -9.5 24v57h-161c-11.333 0 -20.333 3.16699 -27 9.5s-10 14.166 -10 23.499s4 19.333 12 30l184 239c5.33301 6 11.166 10.5 17.499 13.5s12.5 4.5 18.5 4.5c10 0 18.833 -3.16699 26.5 -9.5s11.5 -14.5 11.5 -24.5
v-222h34c9.33301 0 17.166 -3 23.499 -9s9.5 -13.667 9.5 -23c0 -10.667 -3.16699 -18.667 -9.5 -24s-14.166 -8 -23.499 -8h-34v-57c0 -10 -3 -18 -9 -24s-15 -9 -27 -9zM547.997 148.001h112v148z" />
    <glyph glyph-name="questiondown" unicode="&#xbf;" horiz-adv-x="547" 
d="M271 441c12 0 22.165 -3.99707 30.498 -11.9971s12.5 -18.333 12.5 -31c0 -26.667 -6.66699 -55.334 -20 -86.001s-32.333 -57.334 -57 -80.001l-56.5 -53.5c-17.667 -17 -32 -36.333 -43 -58s-16.5 -48.5 -16.5 -80.5c0 -24 5.83301 -46.333 17.5 -67
s28.334 -37.167 50.001 -49.5s47.167 -18.5 76.5 -18.5c32.667 0 60.667 6.5 84 19.5s41 31 53 54s18 49.833 18 80.5c0 12.667 3.83301 22.834 11.5 30.501s17.834 11.5 30.501 11.5s23 -3.83301 31 -11.5s12 -17.834 12 -30.501c0 -46 -10 -86.667 -30 -122
s-48 -63 -84 -83s-78 -30 -126 -30c-44 0 -83.167 9.33301 -117.5 28s-61.5 44.5 -81.5 77.5s-30 70.833 -30 113.5c0 37.333 6.5 69.166 19.5 95.499s30.167 50.333 51.5 72s45 44.167 71 67.5c20 17.333 33.333 37.5 40 60.5s10 42.833 10 59.5c0 12.667 4 23 12 31
s18.333 12 31 12zM270.998 621.003c17.333 0 31.833 -6 43.5 -18s17.5 -26.667 17.5 -44s-6 -32 -18 -44s-26.333 -18 -43 -18c-17.333 0 -32.166 6 -44.499 18s-18.5 26.667 -18.5 44s6.16699 32 18.5 44s27.166 18 44.499 18z" />
    <glyph glyph-name="Agrave" unicode="&#xc0;" horiz-adv-x="703" 
d="M61 0c-16.667 0 -28.834 6.83105 -36.501 20.498s-8.5 27.5 -2.5 41.5l290 689c8 20 22 30 42 30c19.333 0 33 -10 41 -30l290 -690c6.66699 -14.667 5.83398 -28.5 -2.49902 -41.5s-20.5 -19.5 -36.5 -19.5c-8.66699 0 -16.5 2.33301 -23.5 7s-12.5 11.334 -16.5 20.001
l-266 650h30l-269 -650c-4 -9.33301 -9.5 -16.166 -16.5 -20.499s-14.833 -6.5 -23.5 -6.5zM123 180.998l33 74h401l34 -74h-468zM350 868.998c-11.333 0 -21 4 -29 12l-108 107c-7.33301 8 -11 18 -11 30s4 22.333 12 31s18 13 30 13s22.333 -4.33301 31 -13l107 -108
c7.33301 -6.66699 11 -16 11 -28c0 -12.667 -4 -23.167 -12 -31.5s-18.333 -12.5 -31 -12.5z" />
    <glyph glyph-name="Aacute" unicode="&#xc1;" horiz-adv-x="703" 
d="M61 0c-16.667 0 -28.834 6.83105 -36.501 20.498s-8.5 27.5 -2.5 41.5l290 689c8 20 22 30 42 30c19.333 0 33 -10 41 -30l290 -690c6.66699 -14.667 5.83398 -28.5 -2.49902 -41.5s-20.5 -19.5 -36.5 -19.5c-8.66699 0 -16.5 2.33301 -23.5 7s-12.5 11.334 -16.5 20.001
l-266 650h30l-269 -650c-4 -9.33301 -9.5 -16.166 -16.5 -20.499s-14.833 -6.5 -23.5 -6.5zM123 180.998l33 74h401l34 -74h-468zM349 864.998c-12 0 -22.167 4.16699 -30.5 12.5s-12.5 18.5 -12.5 30.5s3.33301 21.667 10 29l108 108c8 8 18 12 30 12
c12.667 0 23 -4.16699 31 -12.5s12 -18.833 12 -31.5c0 -5.33301 -1 -10.5 -3 -15.5s-5 -9.5 -9 -13.5l-107 -108c-8 -7.33301 -17.667 -11 -29 -11z" />
    <glyph glyph-name="Acircumflex" unicode="&#xc2;" horiz-adv-x="703" 
d="M61 0c-16.667 0 -28.834 6.83105 -36.501 20.498s-8.5 27.5 -2.5 41.5l290 689c8 20 22 30 42 30c19.333 0 33 -10 41 -30l290 -690c6.66699 -14.667 5.83398 -28.5 -2.49902 -41.5s-20.5 -19.5 -36.5 -19.5c-8.66699 0 -16.5 2.33301 -23.5 7s-12.5 11.334 -16.5 20.001
l-266 650h30l-269 -650c-4 -9.33301 -9.5 -16.166 -16.5 -20.499s-14.833 -6.5 -23.5 -6.5zM123 180.998l33 74h401l34 -74h-468zM238 861.998c-12.667 0 -23.166 3.33398 -31.499 10.001s-12.5 15.667 -12.5 27c0 14.667 7 27 21 37l116 76c6 4 13 6 21 6
c4.66699 0 8.66699 -0.5 12 -1.5s6.66602 -2.5 9.99902 -4.5l115 -76c14 -10 21 -22.333 21 -37c0 -10.667 -4 -19.5 -12 -26.5s-18.333 -10.5 -31 -10.5c-5.33301 0 -10 0.666992 -14 2s-8.33301 3.66602 -13 6.99902l-88 61l-88 -61c-8 -6 -16.667 -9 -26 -9z" />
    <glyph glyph-name="Atilde" unicode="&#xc3;" horiz-adv-x="703" 
d="M61 0c-16.667 0 -28.834 6.83105 -36.501 20.498s-8.5 27.5 -2.5 41.5l290 689c8 20 22 30 42 30c19.333 0 33 -10 41 -30l290 -690c6.66699 -14.667 5.83398 -28.5 -2.49902 -41.5s-20.5 -19.5 -36.5 -19.5c-8.66699 0 -16.5 2.33301 -23.5 7s-12.5 11.334 -16.5 20.001
l-266 650h30l-269 -650c-4 -9.33301 -9.5 -16.166 -16.5 -20.499s-14.833 -6.5 -23.5 -6.5zM123 180.998l33 74h401l34 -74h-468zM418 870.998c-16.667 0 -31.833 3.83398 -45.5 11.501s-25.5 16.834 -35.5 27.501c-8.66699 8.66699 -16 15.167 -22 19.5
s-12.667 6.5 -20 6.5c-8 0 -14.667 -3.16699 -20 -9.5s-10.666 -14.5 -15.999 -24.5c-5.33301 -9.33301 -12.5 -15.833 -21.5 -19.5s-18.5 -3.5 -28.5 0.5s-16.667 10.667 -20 20s-2.33301 19 3 29c12.667 26 27 44.833 43 56.5s34 17.5 54 17.5
c20.667 0 37.167 -4.66699 49.5 -14s23.166 -18 32.499 -26c10 -8.66699 17.833 -14.5 23.5 -17.5s10.834 -4.5 15.501 -4.5c8.66699 0 16.667 7 24 21c5.33301 9.33301 12.666 16.166 21.999 20.499s18.666 4.83301 27.999 1.5
c11.333 -4.66699 18.833 -11.834 22.5 -21.501s2.83398 -19.5 -2.49902 -29.5c-12 -23.333 -25 -40 -39 -50s-29.667 -15 -47 -15z" />
    <glyph glyph-name="Adieresis" unicode="&#xc4;" horiz-adv-x="703" 
d="M61 0c-16.667 0 -28.834 6.83105 -36.501 20.498s-8.5 27.5 -2.5 41.5l290 689c8 20 22 30 42 30c19.333 0 33 -10 41 -30l290 -690c6.66699 -14.667 5.83398 -28.5 -2.49902 -41.5s-20.5 -19.5 -36.5 -19.5c-8.66699 0 -16.5 2.33301 -23.5 7s-12.5 11.334 -16.5 20.001
l-266 650h30l-269 -650c-4 -9.33301 -9.5 -16.166 -16.5 -20.499s-14.833 -6.5 -23.5 -6.5zM123 180.998l33 74h401l34 -74h-468zM246 875.998c-16.667 0 -30.334 5.33301 -41.001 16s-16 24 -16 40c0 15.333 5.33301 28.666 16 39.999s24.334 17 41.001 17
c15.333 0 28.5 -5.66699 39.5 -17s16.5 -24.666 16.5 -39.999c0 -16 -5.5 -29.333 -16.5 -40s-24.167 -16 -39.5 -16zM459 875.998c-16 0 -29.5 5.33301 -40.5 16s-16.5 24 -16.5 40c0 15.333 5.5 28.666 16.5 39.999s24.5 17 40.5 17c15.333 0 28.666 -5.66699 39.999 -17
s17 -24.666 17 -39.999c0 -16 -5.66699 -29.333 -17 -40s-24.666 -16 -39.999 -16z" />
    <glyph glyph-name="Aring" unicode="&#xc5;" horiz-adv-x="703" 
d="M61 0c-16.667 0 -28.834 6.83105 -36.501 20.498s-8.5 27.5 -2.5 41.5l290 689c8 20 22 30 42 30c19.333 0 33 -10 41 -30l290 -690c6.66699 -14.667 5.83398 -28.5 -2.49902 -41.5s-20.5 -19.5 -36.5 -19.5c-8.66699 0 -16.5 2.33301 -23.5 7s-12.5 11.334 -16.5 20.001
l-266 650h30l-269 -650c-4 -9.33301 -9.5 -16.166 -16.5 -20.499s-14.833 -6.5 -23.5 -6.5zM123 180.998l33 74h401l34 -74h-468zM352 824.998c-28.667 0 -52.667 9.5 -72 28.5s-29 43.167 -29 72.5c0 28.667 9.66699 52.667 29 72s43.333 29 72 29s52.667 -9.66699 72 -29
s29 -43.333 29 -72s-9.5 -52.667 -28.5 -72s-43.167 -29 -72.5 -29zM352 872.998c15.333 0 27.833 5.16699 37.5 15.5s14.5 22.833 14.5 37.5c0 15.333 -4.83301 27.833 -14.5 37.5s-22.167 14.5 -37.5 14.5c-14.667 0 -27 -4.83301 -37 -14.5s-15 -22.167 -15 -37.5
c0 -14.667 5 -27.167 15 -37.5s22.333 -15.5 37 -15.5z" />
    <glyph glyph-name="AE" unicode="&#xc6;" horiz-adv-x="974" 
d="M63 0c-11.333 0 -20.834 3.33301 -28.501 10s-12.667 14.834 -15 24.501s-0.833008 18.834 4.5 27.501l420 688c6 10 13.167 17.667 21.5 23s18.833 8 31.5 8h389c12.667 0 23 -3.83301 31 -11.5s12 -17.834 12 -30.501c0 -11.333 -4 -20.833 -12 -28.5
s-18.333 -11.5 -31 -11.5h-356v-265h241c12 0 22 -4 30 -12s12 -17.667 12 -29c0 -12 -4 -22 -12 -30s-18 -12 -30 -12h-241v-269h356c12.667 0 23 -3.83301 31 -11.5s12 -17.167 12 -28.5c0 -12.667 -4 -22.834 -12 -30.501s-18.333 -11.5 -31 -11.5h-400
c-12 0 -22.167 4.16699 -30.5 12.5s-12.5 18.5 -12.5 30.5v138h-247l-93 -154c-9.33301 -18 -22.666 -27 -39.999 -27zM240.999 255h202v379h23z" />
    <glyph glyph-name="Ccedilla" unicode="&#xc7;" horiz-adv-x="773" 
d="M451 -10c-54 0 -104.5 10.334 -151.5 31.001s-88.333 49.334 -124 86.001s-63.334 79.167 -83.001 127.5s-29.5 100.5 -29.5 156.5c0 55.333 9.83301 107.166 29.5 155.499s47.167 90.666 82.5 126.999s76.5 65 123.5 86s97.833 31.5 152.5 31.5
c48.667 0 92.334 -6.83301 131.001 -20.5s76.334 -35.834 113.001 -66.501c6 -4.66699 9.83301 -9.83398 11.5 -15.501s1.83398 -11.167 0.500977 -16.5s-4 -9.66602 -8 -12.999c-0.666992 -8 -4.33398 -14.333 -11.001 -19s-14.334 -6.83398 -23.001 -6.50098
s-17.334 3.83301 -26.001 10.5c-25.333 22 -52.666 38.5 -81.999 49.5s-64.666 16.5 -105.999 16.5c-42 0 -81.333 -8.33301 -118 -25s-69 -39.667 -97 -69s-49.833 -63.333 -65.5 -102s-23.5 -79.667 -23.5 -123c0 -44.667 7.83301 -86.167 23.5 -124.5
s37.5 -72.166 65.5 -101.499s60.333 -52.333 97 -69s76 -25 118 -25c35.333 0 69 6 101 18s62.333 29 91 51c9.33301 7.33301 19 10.333 29 9s18.5 -5.66602 25.5 -12.999s10.5 -17 10.5 -29c0 -5.33301 -1 -10.5 -3 -15.5s-5 -10.167 -9 -15.5
c-34.667 -30 -72.834 -51.833 -114.501 -65.5s-85.167 -20.5 -130.5 -20.5zM438 -232.999c-37.333 0 -67.8369 7.83789 -91.5039 23.5049s-35.5 33.5 -35.5 53.5c0 11.333 4 21 12 29s17.333 12 28 12c8 0 14.833 -1.83301 20.5 -5.5s10.5 -9.5 14.5 -17.5
c5.33301 -8.66699 12.333 -15.334 21 -20.001s19.334 -7 32.001 -7c14.667 0 26.834 3.16699 36.501 9.5s14.5 15.5 14.5 27.5s-3.66699 21.667 -11 29s-20.333 13 -39 17c-17.333 3.33301 -29.666 9.33301 -36.999 18s-7.66602 22.667 -0.999023 42l14 36
c4 10.667 9.83301 19 17.5 25s18.167 9 31.5 9c14 0 24.5 -4.83301 31.5 -14.5s7.5 -20.834 1.5 -33.501l-15 -36c34.667 -8 59.167 -19.833 73.5 -35.5s21.5 -34.834 21.5 -57.501c0 -18.667 -6 -35.834 -18 -51.501s-28.5 -28.334 -49.5 -38.001
s-45.167 -14.5 -72.5 -14.5z" />
    <glyph glyph-name="Egrave" unicode="&#xc8;" horiz-adv-x="695" 
d="M143 0c-12 0 -22.167 4.16895 -30.5 12.502s-12.5 18.5 -12.5 30.5v695c0 12.667 4.16699 23 12.5 31s18.5 12 30.5 12h464c12 0 22.167 -3.83301 30.5 -11.5s12.5 -17.834 12.5 -30.501c0 -11.333 -4.16699 -20.833 -12.5 -28.5s-18.5 -11.5 -30.5 -11.5h-420v-265h304
c12.667 0 23 -4 31 -12s12 -17.667 12 -29c0 -12 -4 -22 -12 -30s-18.333 -12 -31 -12h-304v-269h420c12 0 22.167 -3.83301 30.5 -11.5s12.5 -17.167 12.5 -28.5c0 -12.667 -4.16699 -22.834 -12.5 -30.501s-18.5 -11.5 -30.5 -11.5h-464zM382 869.002
c-11.333 0 -21 4 -29 12l-108 107c-7.33301 8 -11 18 -11 30s4 22.333 12 31s18 13 30 13s22.333 -4.33301 31 -13l107 -108c7.33301 -6.66699 11 -16 11 -28c0 -12.667 -4 -23.167 -12 -31.5s-18.333 -12.5 -31 -12.5z" />
    <glyph glyph-name="Eacute" unicode="&#xc9;" horiz-adv-x="695" 
d="M143 0c-12 0 -22.167 4.16895 -30.5 12.502s-12.5 18.5 -12.5 30.5v695c0 12.667 4.16699 23 12.5 31s18.5 12 30.5 12h464c12 0 22.167 -3.83301 30.5 -11.5s12.5 -17.834 12.5 -30.501c0 -11.333 -4.16699 -20.833 -12.5 -28.5s-18.5 -11.5 -30.5 -11.5h-420v-265h304
c12.667 0 23 -4 31 -12s12 -17.667 12 -29c0 -12 -4 -22 -12 -30s-18.333 -12 -31 -12h-304v-269h420c12 0 22.167 -3.83301 30.5 -11.5s12.5 -17.167 12.5 -28.5c0 -12.667 -4.16699 -22.834 -12.5 -30.501s-18.5 -11.5 -30.5 -11.5h-464zM380 865.002
c-12 0 -22.167 4.16699 -30.5 12.5s-12.5 18.5 -12.5 30.5s3.33301 21.667 10 29l108 108c8 8 18 12 30 12c12.667 0 23 -4.16699 31 -12.5s12 -18.833 12 -31.5c0 -5.33301 -1 -10.5 -3 -15.5s-5 -9.5 -9 -13.5l-107 -108c-8 -7.33301 -17.667 -11 -29 -11z" />
    <glyph glyph-name="Ecircumflex" unicode="&#xca;" horiz-adv-x="695" 
d="M143 0c-12 0 -22.167 4.16895 -30.5 12.502s-12.5 18.5 -12.5 30.5v695c0 12.667 4.16699 23 12.5 31s18.5 12 30.5 12h464c12 0 22.167 -3.83301 30.5 -11.5s12.5 -17.834 12.5 -30.501c0 -11.333 -4.16699 -20.833 -12.5 -28.5s-18.5 -11.5 -30.5 -11.5h-420v-265h304
c12.667 0 23 -4 31 -12s12 -17.667 12 -29c0 -12 -4 -22 -12 -30s-18.333 -12 -31 -12h-304v-269h420c12 0 22.167 -3.83301 30.5 -11.5s12.5 -17.167 12.5 -28.5c0 -12.667 -4.16699 -22.834 -12.5 -30.501s-18.5 -11.5 -30.5 -11.5h-464zM270 862.002
c-12.667 0 -23.166 3.33398 -31.499 10.001s-12.5 15.667 -12.5 27c0 14.667 7 27 21 37l116 76c6 4 13 6 21 6c4.66699 0 8.66699 -0.5 12 -1.5s6.66602 -2.5 9.99902 -4.5l115 -76c14 -10 21 -22.333 21 -37c0 -10.667 -4 -19.5 -12 -26.5s-18.333 -10.5 -31 -10.5
c-5.33301 0 -10 0.666992 -14 2s-8.33301 3.66602 -13 6.99902l-88 61l-88 -61c-8 -6 -16.667 -9 -26 -9z" />
    <glyph glyph-name="Edieresis" unicode="&#xcb;" horiz-adv-x="695" 
d="M143 0c-12 0 -22.167 4.16895 -30.5 12.502s-12.5 18.5 -12.5 30.5v695c0 12.667 4.16699 23 12.5 31s18.5 12 30.5 12h464c12 0 22.167 -3.83301 30.5 -11.5s12.5 -17.834 12.5 -30.501c0 -11.333 -4.16699 -20.833 -12.5 -28.5s-18.5 -11.5 -30.5 -11.5h-420v-265h304
c12.667 0 23 -4 31 -12s12 -17.667 12 -29c0 -12 -4 -22 -12 -30s-18.333 -12 -31 -12h-304v-269h420c12 0 22.167 -3.83301 30.5 -11.5s12.5 -17.167 12.5 -28.5c0 -12.667 -4.16699 -22.834 -12.5 -30.501s-18.5 -11.5 -30.5 -11.5h-464zM277 876.002
c-16.667 0 -30.334 5.33301 -41.001 16s-16 24 -16 40c0 15.333 5.33301 28.666 16 39.999s24.334 17 41.001 17c15.333 0 28.5 -5.66699 39.5 -17s16.5 -24.666 16.5 -39.999c0 -16 -5.5 -29.333 -16.5 -40s-24.167 -16 -39.5 -16zM490 876.002
c-16 0 -29.5 5.33301 -40.5 16s-16.5 24 -16.5 40c0 15.333 5.5 28.666 16.5 39.999s24.5 17 40.5 17c15.333 0 28.666 -5.66699 39.999 -17s17 -24.666 17 -39.999c0 -16 -5.66699 -29.333 -17 -40s-24.666 -16 -39.999 -16z" />
    <glyph glyph-name="Igrave" unicode="&#xcc;" horiz-adv-x="287" 
d="M143 0c-12 0 -22.167 4.16699 -30.5 12.5s-12.5 18.5 -12.5 30.5v695c0 12.667 4.16699 23 12.5 31s18.5 12 30.5 12c12.667 0 23.167 -4 31.5 -12s12.5 -18.333 12.5 -31v-695c0 -12 -4.16699 -22.167 -12.5 -30.5s-18.833 -12.5 -31.5 -12.5zM141 869
c-11.333 0 -21 4 -29 12l-108 107c-7.33301 8 -11 18 -11 30s4 22.333 12 31s18 13 30 13s22.333 -4.33301 31 -13l107 -108c7.33301 -6.66699 11 -16 11 -28c0 -12.667 -4 -23.167 -12 -31.5s-18.333 -12.5 -31 -12.5z" />
    <glyph glyph-name="Iacute" unicode="&#xcd;" horiz-adv-x="287" 
d="M143 0c-12 0 -22.167 4.16699 -30.5 12.5s-12.5 18.5 -12.5 30.5v695c0 12.667 4.16699 23 12.5 31s18.5 12 30.5 12c12.667 0 23.167 -4 31.5 -12s12.5 -18.333 12.5 -31v-695c0 -12 -4.16699 -22.167 -12.5 -30.5s-18.833 -12.5 -31.5 -12.5zM140 865
c-12 0 -22.167 4.16699 -30.5 12.5s-12.5 18.5 -12.5 30.5s3.33301 21.667 10 29l108 108c8 8 18 12 30 12c12.667 0 23 -4.16699 31 -12.5s12 -18.833 12 -31.5c0 -5.33301 -1 -10.5 -3 -15.5s-5 -9.5 -9 -13.5l-107 -108c-8 -7.33301 -17.667 -11 -29 -11z" />
    <glyph glyph-name="Icircumflex" unicode="&#xce;" horiz-adv-x="287" 
d="M143 0c-12 0 -22.167 4.16699 -30.5 12.5s-12.5 18.5 -12.5 30.5v695c0 12.667 4.16699 23 12.5 31s18.5 12 30.5 12c12.667 0 23.167 -4 31.5 -12s12.5 -18.333 12.5 -31v-695c0 -12 -4.16699 -22.167 -12.5 -30.5s-18.833 -12.5 -31.5 -12.5zM29 862
c-12.667 0 -23.166 3.33398 -31.499 10.001s-12.5 15.667 -12.5 27c0 14.667 7 27 21 37l116 76c6 4 13 6 21 6c4.66699 0 8.66699 -0.5 12 -1.5s6.66602 -2.5 9.99902 -4.5l115 -76c14 -10 21 -22.333 21 -37c0 -10.667 -4 -19.5 -12 -26.5s-18.333 -10.5 -31 -10.5
c-5.33301 0 -10 0.666992 -14 2s-8.33301 3.66602 -13 6.99902l-88 61l-88 -61c-8 -6 -16.667 -9 -26 -9z" />
    <glyph glyph-name="Idieresis" unicode="&#xcf;" horiz-adv-x="287" 
d="M143 0c-12 0 -22.167 4.16699 -30.5 12.5s-12.5 18.5 -12.5 30.5v695c0 12.667 4.16699 23 12.5 31s18.5 12 30.5 12c12.667 0 23.167 -4 31.5 -12s12.5 -18.333 12.5 -31v-695c0 -12 -4.16699 -22.167 -12.5 -30.5s-18.833 -12.5 -31.5 -12.5zM37 876
c-16.667 0 -30.334 5.33301 -41.001 16s-16 24 -16 40c0 15.333 5.33301 28.666 16 39.999s24.334 17 41.001 17c15.333 0 28.5 -5.66699 39.5 -17s16.5 -24.666 16.5 -39.999c0 -16 -5.5 -29.333 -16.5 -40s-24.167 -16 -39.5 -16zM250 876c-16 0 -29.5 5.33301 -40.5 16
s-16.5 24 -16.5 40c0 15.333 5.5 28.666 16.5 39.999s24.5 17 40.5 17c15.333 0 28.666 -5.66699 39.999 -17s17 -24.666 17 -39.999c0 -16 -5.66699 -29.333 -17 -40s-24.666 -16 -39.999 -16z" />
    <glyph glyph-name="Eth" unicode="&#xd0;" horiz-adv-x="774" 
d="M41 353c-12 0 -21.833 3.33301 -29.5 10s-11.5 16 -11.5 28s3.83301 21.333 11.5 28s17.5 10 29.5 10h288c12.667 0 22.834 -3.33301 30.501 -10s11.5 -16 11.5 -28s-3.83301 -21.333 -11.5 -28s-17.834 -10 -30.501 -10h-288zM143 0c-12 0 -22.167 4.16602 -30.5 12.499
s-12.5 18.5 -12.5 30.5v695c0 12.667 4.16699 23 12.5 31s18.5 12 30.5 12h181c57.333 0 109.666 -9.5 156.999 -28.5s88.333 -46 123 -81s61.5 -76.167 80.5 -123.5s28.5 -99.666 28.5 -156.999s-9.5 -109.833 -28.5 -157.5s-45.833 -89 -80.5 -124s-75.667 -62 -123 -81
s-99.666 -28.5 -156.999 -28.5h-181zM187 76.999h137c59.333 0 111.833 13.5 157.5 40.5s81.5 64.167 107.5 111.5s39 101.333 39 162s-13 114.667 -39 162s-61.833 84.333 -107.5 111s-98.167 40 -157.5 40h-137v-627z" />
    <glyph glyph-name="Ntilde" unicode="&#xd1;" horiz-adv-x="827" 
d="M143 0c-12.667 0 -23 4.16797 -31 12.501s-12 18.5 -12 30.5v695c0 12.667 4 23 12 31s18.333 12 31 12c13.333 0 24.333 -5.33301 33 -16l464 -612v585c0 12.667 4.16699 23 12.5 31s18.833 12 31.5 12c12 0 22.167 -4 30.5 -12s12.5 -18.333 12.5 -31v-695
c0 -12 -4.16699 -22.167 -12.5 -30.5s-18.5 -12.5 -30.5 -12.5c-6 0 -12 1.16699 -18 3.5s-11 6.16602 -15 11.499l-465 612v-584c0 -12 -4.16699 -22.167 -12.5 -30.5s-18.5 -12.5 -30.5 -12.5zM519 859.001c-21.333 0 -40.1699 3.83105 -56.5029 11.498
s-30.166 14.834 -41.499 21.501c-14.667 8 -26.667 13.833 -36 17.5s-18 5.5 -26 5.5c-11.333 0 -21.833 -2.5 -31.5 -7.5s-19.167 -13.5 -28.5 -25.5c-6.66699 -9.33301 -15 -15.666 -25 -18.999s-20 -2.33301 -30 3c-9.33301 4.66699 -14.833 12.334 -16.5 23.001
s0.833008 20.667 7.5 30c16 21.333 35 37.833 57 49.5s45.333 17.5 70 17.5c21.333 0 39.833 -3.66699 55.5 -11s28.834 -14 39.501 -20c14 -8.66699 25.167 -14.834 33.5 -18.501s17.5 -5.5 27.5 -5.5s18.667 1.66699 26 5s14 8 20 14c8 8 16 13.667 24 17s17 2 27 -4
c9.33301 -5.33301 14.833 -13.5 16.5 -24.5s-1.16602 -21.167 -8.49902 -30.5c-26 -32.667 -60.667 -49 -104 -49z" />
    <glyph glyph-name="Ograve" unicode="&#xd2;" horiz-adv-x="921" 
d="M461 -10c-58 0 -111.333 10 -160 30s-90.834 47.833 -126.501 83.5s-63.167 78 -82.5 127s-29 102.5 -29 160.5s9.66699 111.333 29 160s46.833 90.834 82.5 126.501s77.834 63.5 126.501 83.5s102 30 160 30s111.167 -10 159.5 -30s90.5 -47.833 126.5 -83.5
s63.667 -77.834 83 -126.501s29 -102 29 -160s-9.66699 -111.5 -29 -160.5s-47 -91.333 -83 -127s-78.167 -63.5 -126.5 -83.5s-101.5 -30 -159.5 -30zM461 71c45.333 0 87.166 8 125.499 24s71.5 38.5 99.5 67.5s49.833 63 65.5 102s23.5 81.167 23.5 126.5
s-7.83301 87.333 -23.5 126s-37.5 72.5 -65.5 101.5s-61.167 51.5 -99.5 67.5s-80.166 24 -125.499 24s-87.166 -8 -125.499 -24s-71.666 -38.5 -99.999 -67.5s-50.166 -62.833 -65.499 -101.5s-23 -80.667 -23 -126s7.66699 -87.5 23 -126.5s37.166 -73 65.499 -102
s61.666 -51.5 99.999 -67.5s80.166 -24 125.499 -24zM459 869c-11.333 0 -21 4 -29 12l-108 107c-7.33301 8 -11 18 -11 30s4 22.333 12 31s18 13 30 13s22.333 -4.33301 31 -13l107 -108c7.33301 -6.66699 11 -16 11 -28c0 -12.667 -4 -23.167 -12 -31.5
s-18.333 -12.5 -31 -12.5z" />
    <glyph glyph-name="Oacute" unicode="&#xd3;" horiz-adv-x="921" 
d="M461 -10c-58 0 -111.333 10 -160 30s-90.834 47.833 -126.501 83.5s-63.167 78 -82.5 127s-29 102.5 -29 160.5s9.66699 111.333 29 160s46.833 90.834 82.5 126.501s77.834 63.5 126.501 83.5s102 30 160 30s111.167 -10 159.5 -30s90.5 -47.833 126.5 -83.5
s63.667 -77.834 83 -126.501s29 -102 29 -160s-9.66699 -111.5 -29 -160.5s-47 -91.333 -83 -127s-78.167 -63.5 -126.5 -83.5s-101.5 -30 -159.5 -30zM461 71c45.333 0 87.166 8 125.499 24s71.5 38.5 99.5 67.5s49.833 63 65.5 102s23.5 81.167 23.5 126.5
s-7.83301 87.333 -23.5 126s-37.5 72.5 -65.5 101.5s-61.167 51.5 -99.5 67.5s-80.166 24 -125.499 24s-87.166 -8 -125.499 -24s-71.666 -38.5 -99.999 -67.5s-50.166 -62.833 -65.499 -101.5s-23 -80.667 -23 -126s7.66699 -87.5 23 -126.5s37.166 -73 65.499 -102
s61.666 -51.5 99.999 -67.5s80.166 -24 125.499 -24zM458 865c-12 0 -22.167 4.16699 -30.5 12.5s-12.5 18.5 -12.5 30.5s3.33301 21.667 10 29l108 108c8 8 18 12 30 12c12.667 0 23 -4.16699 31 -12.5s12 -18.833 12 -31.5c0 -5.33301 -1 -10.5 -3 -15.5s-5 -9.5 -9 -13.5
l-107 -108c-8 -7.33301 -17.667 -11 -29 -11z" />
    <glyph glyph-name="Ocircumflex" unicode="&#xd4;" horiz-adv-x="921" 
d="M461 -10c-58 0 -111.333 10 -160 30s-90.834 47.833 -126.501 83.5s-63.167 78 -82.5 127s-29 102.5 -29 160.5s9.66699 111.333 29 160s46.833 90.834 82.5 126.501s77.834 63.5 126.501 83.5s102 30 160 30s111.167 -10 159.5 -30s90.5 -47.833 126.5 -83.5
s63.667 -77.834 83 -126.501s29 -102 29 -160s-9.66699 -111.5 -29 -160.5s-47 -91.333 -83 -127s-78.167 -63.5 -126.5 -83.5s-101.5 -30 -159.5 -30zM461 71c45.333 0 87.166 8 125.499 24s71.5 38.5 99.5 67.5s49.833 63 65.5 102s23.5 81.167 23.5 126.5
s-7.83301 87.333 -23.5 126s-37.5 72.5 -65.5 101.5s-61.167 51.5 -99.5 67.5s-80.166 24 -125.499 24s-87.166 -8 -125.499 -24s-71.666 -38.5 -99.999 -67.5s-50.166 -62.833 -65.499 -101.5s-23 -80.667 -23 -126s7.66699 -87.5 23 -126.5s37.166 -73 65.499 -102
s61.666 -51.5 99.999 -67.5s80.166 -24 125.499 -24zM347 862c-12.667 0 -23.166 3.33398 -31.499 10.001s-12.5 15.667 -12.5 27c0 14.667 7 27 21 37l116 76c6 4 13 6 21 6c4.66699 0 8.66699 -0.5 12 -1.5s6.66602 -2.5 9.99902 -4.5l115 -76c14 -10 21 -22.333 21 -37
c0 -10.667 -4 -19.5 -12 -26.5s-18.333 -10.5 -31 -10.5c-5.33301 0 -10 0.666992 -14 2s-8.33301 3.66602 -13 6.99902l-88 61l-88 -61c-8 -6 -16.667 -9 -26 -9z" />
    <glyph glyph-name="Otilde" unicode="&#xd5;" horiz-adv-x="921" 
d="M461 -10c-58 0 -111.333 10 -160 30s-90.834 47.833 -126.501 83.5s-63.167 78 -82.5 127s-29 102.5 -29 160.5s9.66699 111.333 29 160s46.833 90.834 82.5 126.501s77.834 63.5 126.501 83.5s102 30 160 30s111.167 -10 159.5 -30s90.5 -47.833 126.5 -83.5
s63.667 -77.834 83 -126.501s29 -102 29 -160s-9.66699 -111.5 -29 -160.5s-47 -91.333 -83 -127s-78.167 -63.5 -126.5 -83.5s-101.5 -30 -159.5 -30zM461 71c45.333 0 87.166 8 125.499 24s71.5 38.5 99.5 67.5s49.833 63 65.5 102s23.5 81.167 23.5 126.5
s-7.83301 87.333 -23.5 126s-37.5 72.5 -65.5 101.5s-61.167 51.5 -99.5 67.5s-80.166 24 -125.499 24s-87.166 -8 -125.499 -24s-71.666 -38.5 -99.999 -67.5s-50.166 -62.833 -65.499 -101.5s-23 -80.667 -23 -126s7.66699 -87.5 23 -126.5s37.166 -73 65.499 -102
s61.666 -51.5 99.999 -67.5s80.166 -24 125.499 -24zM566 859c-21.333 0 -40.1699 3.83105 -56.5029 11.498s-30.166 14.834 -41.499 21.501c-14.667 8 -26.667 13.833 -36 17.5s-18 5.5 -26 5.5c-11.333 0 -21.833 -2.5 -31.5 -7.5s-19.167 -13.5 -28.5 -25.5
c-6.66699 -9.33301 -15 -15.666 -25 -18.999s-20 -2.33301 -30 3c-9.33301 4.66699 -14.833 12.334 -16.5 23.001s0.833008 20.667 7.5 30c16 21.333 35 37.833 57 49.5s45.333 17.5 70 17.5c21.333 0 39.833 -3.66699 55.5 -11s28.834 -14 39.501 -20
c14 -8.66699 25.167 -14.834 33.5 -18.501s17.5 -5.5 27.5 -5.5s18.667 1.66699 26 5s14 8 20 14c8 8 16 13.667 24 17s17 2 27 -4c9.33301 -5.33301 14.833 -13.5 16.5 -24.5s-1.16602 -21.167 -8.49902 -30.5c-26 -32.667 -60.667 -49 -104 -49z" />
    <glyph glyph-name="Odieresis" unicode="&#xd6;" horiz-adv-x="921" 
d="M461 -10c-58 0 -111.333 10 -160 30s-90.834 47.833 -126.501 83.5s-63.167 78 -82.5 127s-29 102.5 -29 160.5s9.66699 111.333 29 160s46.833 90.834 82.5 126.501s77.834 63.5 126.501 83.5s102 30 160 30s111.167 -10 159.5 -30s90.5 -47.833 126.5 -83.5
s63.667 -77.834 83 -126.501s29 -102 29 -160s-9.66699 -111.5 -29 -160.5s-47 -91.333 -83 -127s-78.167 -63.5 -126.5 -83.5s-101.5 -30 -159.5 -30zM461 71c45.333 0 87.166 8 125.499 24s71.5 38.5 99.5 67.5s49.833 63 65.5 102s23.5 81.167 23.5 126.5
s-7.83301 87.333 -23.5 126s-37.5 72.5 -65.5 101.5s-61.167 51.5 -99.5 67.5s-80.166 24 -125.499 24s-87.166 -8 -125.499 -24s-71.666 -38.5 -99.999 -67.5s-50.166 -62.833 -65.499 -101.5s-23 -80.667 -23 -126s7.66699 -87.5 23 -126.5s37.166 -73 65.499 -102
s61.666 -51.5 99.999 -67.5s80.166 -24 125.499 -24zM355 876c-16.667 0 -30.334 5.33301 -41.001 16s-16 24 -16 40c0 15.333 5.33301 28.666 16 39.999s24.334 17 41.001 17c15.333 0 28.5 -5.66699 39.5 -17s16.5 -24.666 16.5 -39.999c0 -16 -5.5 -29.333 -16.5 -40
s-24.167 -16 -39.5 -16zM568 876c-16 0 -29.5 5.33301 -40.5 16s-16.5 24 -16.5 40c0 15.333 5.5 28.666 16.5 39.999s24.5 17 40.5 17c15.333 0 28.666 -5.66699 39.999 -17s17 -24.666 17 -39.999c0 -16 -5.66699 -29.333 -17 -40s-24.666 -16 -39.999 -16z" />
    <glyph glyph-name="multiply" unicode="&#xd7;" horiz-adv-x="469" 
d="M81 153c-12 0 -22.167 4.16699 -30.5 12.5s-12.5 18.5 -12.5 30.5c0 12.667 4 23 12 31l124 124l-124 123c-8 9.33301 -12 19 -12 29c0 12.667 4.16699 23.167 12.5 31.5s18.5 12.5 30.5 12.5s22.333 -4 31 -12l123 -124l123 124c8 8 18.333 12 31 12
c12 0 22.167 -4.16699 30.5 -12.5s12.5 -18.5 12.5 -30.5c0 -11.333 -4 -21.333 -12 -30l-124 -123l124 -124c8 -8.66699 12 -19 12 -31s-4.16699 -22.167 -12.5 -30.5s-18.5 -12.5 -30.5 -12.5s-22 4 -30 12l-124 124l-124 -124c-8 -8 -18 -12 -30 -12z" />
    <glyph glyph-name="Oslash" unicode="&#xd8;" horiz-adv-x="896" 
d="M89 0c-14.667 0 -24.334 6.33203 -29.001 18.999s-2.66699 23.334 6 32.001l93 93l32 24l504 504l28 21l81 80c5.33301 5.33301 12.333 8 21 8c12.667 0 22.334 -5.66699 29.001 -17s4.66699 -22.333 -6 -33l-81 -81l-26 -19l-509 -509l-28 -20l-94 -94
c-5.33301 -5.33301 -12.333 -8 -21 -8zM461 -10.001c-58 0 -111.333 10 -160 30s-90.834 47.833 -126.501 83.5s-63.167 78 -82.5 127s-29 102.5 -29 160.5s9.66699 111.333 29 160s46.833 90.834 82.5 126.501s77.834 63.5 126.501 83.5s102 30 160 30
s111.167 -10 159.5 -30s90.5 -47.833 126.5 -83.5s63.667 -77.834 83 -126.501s29 -102 29 -160s-9.66699 -111.5 -29 -160.5s-47 -91.333 -83 -127s-78.167 -63.5 -126.5 -83.5s-101.5 -30 -159.5 -30zM461 70.999c45.333 0 87.166 8 125.499 24s71.5 38.5 99.5 67.5
s49.833 63 65.5 102s23.5 81.167 23.5 126.5s-7.83301 87.333 -23.5 126s-37.5 72.5 -65.5 101.5s-61.167 51.5 -99.5 67.5s-80.166 24 -125.499 24s-87.166 -8 -125.499 -24s-71.666 -38.5 -99.999 -67.5s-50.166 -62.833 -65.499 -101.5s-23 -80.667 -23 -126
s7.66699 -87.5 23 -126.5s37.166 -73 65.499 -102s61.666 -51.5 99.999 -67.5s80.166 -24 125.499 -24z" />
    <glyph glyph-name="Ugrave" unicode="&#xd9;" horiz-adv-x="828" 
d="M416 -16c-61.333 0 -116.001 11.667 -164.001 35s-85.333 55.833 -112 97.5s-40 89.167 -40 142.5v479c0 12.667 4.16699 23 12.5 31s18.5 12 30.5 12c12.667 0 23.167 -4 31.5 -12s12.5 -18.333 12.5 -31v-479c0 -38 9.66699 -71.667 29 -101s46.333 -52.166 81 -68.499
s74.334 -24.5 119.001 -24.5c44 0 83 8.16699 117 24.5s60.5 39.166 79.5 68.499s28.5 63 28.5 101v479c0 12.667 4.16699 23 12.5 31s18.833 12 31.5 12s23 -4 31 -12s12 -18.333 12 -31v-479c0 -53.333 -13.333 -100.833 -40 -142.5s-63.5 -74.167 -110.5 -97.5
s-100.833 -35 -161.5 -35zM411.999 869c-11.333 0 -21 4 -29 12l-108 107c-7.33301 8 -11 18 -11 30s4 22.333 12 31s18 13 30 13s22.333 -4.33301 31 -13l107 -108c7.33301 -6.66699 11 -16 11 -28c0 -12.667 -4 -23.167 -12 -31.5s-18.333 -12.5 -31 -12.5z" />
    <glyph glyph-name="Uacute" unicode="&#xda;" horiz-adv-x="828" 
d="M416 -16c-61.333 0 -116.001 11.667 -164.001 35s-85.333 55.833 -112 97.5s-40 89.167 -40 142.5v479c0 12.667 4.16699 23 12.5 31s18.5 12 30.5 12c12.667 0 23.167 -4 31.5 -12s12.5 -18.333 12.5 -31v-479c0 -38 9.66699 -71.667 29 -101s46.333 -52.166 81 -68.499
s74.334 -24.5 119.001 -24.5c44 0 83 8.16699 117 24.5s60.5 39.166 79.5 68.499s28.5 63 28.5 101v479c0 12.667 4.16699 23 12.5 31s18.833 12 31.5 12s23 -4 31 -12s12 -18.333 12 -31v-479c0 -53.333 -13.333 -100.833 -40 -142.5s-63.5 -74.167 -110.5 -97.5
s-100.833 -35 -161.5 -35zM410.999 865c-12 0 -22.167 4.16699 -30.5 12.5s-12.5 18.5 -12.5 30.5s3.33301 21.667 10 29l108 108c8 8 18 12 30 12c12.667 0 23 -4.16699 31 -12.5s12 -18.833 12 -31.5c0 -5.33301 -1 -10.5 -3 -15.5s-5 -9.5 -9 -13.5l-107 -108
c-8 -7.33301 -17.667 -11 -29 -11z" />
    <glyph glyph-name="Ucircumflex" unicode="&#xdb;" horiz-adv-x="828" 
d="M416 -16c-61.333 0 -116.001 11.667 -164.001 35s-85.333 55.833 -112 97.5s-40 89.167 -40 142.5v479c0 12.667 4.16699 23 12.5 31s18.5 12 30.5 12c12.667 0 23.167 -4 31.5 -12s12.5 -18.333 12.5 -31v-479c0 -38 9.66699 -71.667 29 -101s46.333 -52.166 81 -68.499
s74.334 -24.5 119.001 -24.5c44 0 83 8.16699 117 24.5s60.5 39.166 79.5 68.499s28.5 63 28.5 101v479c0 12.667 4.16699 23 12.5 31s18.833 12 31.5 12s23 -4 31 -12s12 -18.333 12 -31v-479c0 -53.333 -13.333 -100.833 -40 -142.5s-63.5 -74.167 -110.5 -97.5
s-100.833 -35 -161.5 -35zM299.999 862c-12.667 0 -23.166 3.33398 -31.499 10.001s-12.5 15.667 -12.5 27c0 14.667 7 27 21 37l116 76c6 4 13 6 21 6c4.66699 0 8.66699 -0.5 12 -1.5s6.66602 -2.5 9.99902 -4.5l115 -76c14 -10 21 -22.333 21 -37
c0 -10.667 -4 -19.5 -12 -26.5s-18.333 -10.5 -31 -10.5c-5.33301 0 -10 0.666992 -14 2s-8.33301 3.66602 -13 6.99902l-88 61l-88 -61c-8 -6 -16.667 -9 -26 -9z" />
    <glyph glyph-name="Udieresis" unicode="&#xdc;" horiz-adv-x="828" 
d="M416 -16c-61.333 0 -116.001 11.667 -164.001 35s-85.333 55.833 -112 97.5s-40 89.167 -40 142.5v479c0 12.667 4.16699 23 12.5 31s18.5 12 30.5 12c12.667 0 23.167 -4 31.5 -12s12.5 -18.333 12.5 -31v-479c0 -38 9.66699 -71.667 29 -101s46.333 -52.166 81 -68.499
s74.334 -24.5 119.001 -24.5c44 0 83 8.16699 117 24.5s60.5 39.166 79.5 68.499s28.5 63 28.5 101v479c0 12.667 4.16699 23 12.5 31s18.833 12 31.5 12s23 -4 31 -12s12 -18.333 12 -31v-479c0 -53.333 -13.333 -100.833 -40 -142.5s-63.5 -74.167 -110.5 -97.5
s-100.833 -35 -161.5 -35zM307.999 876c-16.667 0 -30.334 5.33301 -41.001 16s-16 24 -16 40c0 15.333 5.33301 28.666 16 39.999s24.334 17 41.001 17c15.333 0 28.5 -5.66699 39.5 -17s16.5 -24.666 16.5 -39.999c0 -16 -5.5 -29.333 -16.5 -40s-24.167 -16 -39.5 -16z
M520.999 876c-16 0 -29.5 5.33301 -40.5 16s-16.5 24 -16.5 40c0 15.333 5.5 28.666 16.5 39.999s24.5 17 40.5 17c15.333 0 28.666 -5.66699 39.999 -17s17 -24.666 17 -39.999c0 -16 -5.66699 -29.333 -17 -40s-24.666 -16 -39.999 -16z" />
    <glyph glyph-name="Yacute" unicode="&#xdd;" horiz-adv-x="655" 
d="M327 0c-11.333 0 -21.3369 4.16797 -30.0039 12.501s-13 18.5 -13 30.5v245l-270 425c-7.33301 11.333 -10.166 22.166 -8.49902 32.499s6.33398 18.833 14.001 25.5s17.167 10 28.5 10c8.66699 0 15.834 -2 21.501 -6s10.834 -9.33301 15.501 -16l265 -425h-42l266 425
c4.66699 7.33301 10.167 12.833 16.5 16.5s13.833 5.5 22.5 5.5c10 0 18.5 -3.5 25.5 -10.5s11 -15.667 12 -26s-1.83301 -20.833 -8.5 -31.5l-271 -425v-245c0 -12 -4.33301 -22.167 -13 -30.5s-19 -12.5 -31 -12.5zM324.996 865.001c-12 0 -22.167 4.16699 -30.5 12.5
s-12.5 18.5 -12.5 30.5s3.33301 21.667 10 29l108 108c8 8 18 12 30 12c12.667 0 23 -4.16699 31 -12.5s12 -18.833 12 -31.5c0 -5.33301 -1 -10.5 -3 -15.5s-5 -9.5 -9 -13.5l-107 -108c-8 -7.33301 -17.667 -11 -29 -11z" />
    <glyph glyph-name="Thorn" unicode="&#xde;" horiz-adv-x="616" 
d="M143 0c-12 0 -22.167 4.16699 -30.5 12.5s-12.5 18.5 -12.5 30.5v695c0 12.667 4.16699 23 12.5 31s18.5 12 30.5 12c12.667 0 23.167 -4 31.5 -12s12.5 -18.333 12.5 -31v-97h156c50 0 94 -9.66699 132 -29s67.833 -46.5 89.5 -81.5s32.5 -75.5 32.5 -121.5
c0 -44.667 -10.833 -84 -32.5 -118s-51.5 -60.667 -89.5 -80s-82 -29 -132 -29h-156v-139c0 -12 -4.16699 -22.167 -12.5 -30.5s-18.833 -12.5 -31.5 -12.5zM187 258l156 -0.000976562c33.333 0 62.666 6.5 87.999 19.5s45.333 31 60 54s22 48.833 22 77.5
c0 30 -7.33301 56.833 -22 80.5s-34.667 42.334 -60 56.001s-54.666 20.5 -87.999 20.5h-156v-308z" />
    <glyph glyph-name="germandbls" unicode="&#xdf;" horiz-adv-x="547" 
d="M90 0c-12 0 -22.165 4 -30.498 12s-12.5 18 -12.5 30v536c0 37.333 9.33301 71 28 101s43.834 53.667 75.501 71s68.167 26 109.5 26c37.333 0 70.5 -7.66699 99.5 -23s51.833 -36.333 68.5 -63s25 -57.334 25 -92.001c0 -23.333 -4.33301 -43.166 -13 -59.499
s-18.834 -30.833 -30.501 -43.5s-21.834 -25.167 -30.501 -37.5s-13 -26.5 -13 -42.5c0 -14.667 5 -28.334 15 -41.001s22.333 -25.667 37 -39s29.334 -27.5 44.001 -42.5s27 -32.333 37 -52s15 -42.5 15 -68.5c0 -33.333 -8.16699 -63.166 -24.5 -89.499
s-39.333 -47.166 -69 -62.499s-63.5 -23 -101.5 -23c-23.333 0 -46.5 4.33301 -69.5 13s-42.167 19.834 -57.5 33.501s-23 28.167 -23 43.5c0 11.333 3.16699 20.333 9.5 27s15.5 10 27.5 10c10.667 0 19 -2.33301 25 -7s12.167 -10.334 18.5 -17.001
s15.166 -12.334 26.499 -17.001s27.666 -7 48.999 -7c33.333 0 59.166 8.5 77.499 25.5s27.5 40.5 27.5 70.5c0 20 -4.83301 37.833 -14.5 53.5s-21.5 30.334 -35.5 44.001l-42.5 41.5c-14.333 14 -26.333 29.167 -36 45.5s-14.5 35.166 -14.5 56.499
c0 22.667 4.5 41 13.5 55s19.167 26.667 30.5 38s21.5 23.666 30.5 36.999s13.5 31 13.5 53c0 32.667 -10.667 57.834 -32 75.501s-49.666 26.5 -84.999 26.5s-64.833 -11.5 -88.5 -34.5s-35.5 -52.833 -35.5 -89.5v-532c0 -12 -4.16699 -22 -12.5 -30
s-18.833 -12 -31.5 -12z" />
    <glyph glyph-name="agrave" unicode="&#xe0;" 
d="M327 -5c-50.667 0 -96.001 12.167 -136.001 36.5s-71.667 57.5 -95 99.5s-35 89.333 -35 142c0 53.333 12.167 101 36.5 143s57.5 75.167 99.5 99.5s89.333 36.5 142 36.5c52 0 98.833 -12.167 140.5 -36.5s74.667 -57.5 99 -99.5s36.833 -89.667 37.5 -143l-34 -16
c0 -49.333 -11.167 -93.833 -33.5 -133.5s-52.666 -71 -90.999 -94s-81.833 -34.5 -130.5 -34.5zM338.999 72c36.667 0 69.667 8.66699 99 26s52.333 41.333 69 72s25 65 25 103c0 38.667 -8.33301 73.167 -25 103.5s-39.667 54.333 -69 72s-62.333 26.5 -99 26.5
s-69.667 -8.83301 -99 -26.5s-52.666 -41.667 -69.999 -72s-26 -64.833 -26 -103.5c0 -38 8.66699 -72.333 26 -103s40.666 -54.667 69.999 -72s62.333 -26 99 -26zM572.999 0c-12.667 0 -23 3.83301 -31 11.5s-12 17.834 -12 30.501v165l19 88l67 -22v-231
c0 -12.667 -4.16699 -22.834 -12.5 -30.501s-18.5 -11.5 -30.5 -11.5zM336.999 635c-11.333 0 -21 4 -29 12l-108 107c-7.33301 8 -11 18 -11 30s4 22.333 12 31s18 13 30 13s22.333 -4.33301 31 -13l107 -108c7.33301 -6.66699 11 -16 11 -28
c0 -12.667 -4 -23.167 -12 -31.5s-18.333 -12.5 -31 -12.5z" />
    <glyph glyph-name="aacute" unicode="&#xe1;" 
d="M327 -5c-50.667 0 -96.001 12.167 -136.001 36.5s-71.667 57.5 -95 99.5s-35 89.333 -35 142c0 53.333 12.167 101 36.5 143s57.5 75.167 99.5 99.5s89.333 36.5 142 36.5c52 0 98.833 -12.167 140.5 -36.5s74.667 -57.5 99 -99.5s36.833 -89.667 37.5 -143l-34 -16
c0 -49.333 -11.167 -93.833 -33.5 -133.5s-52.666 -71 -90.999 -94s-81.833 -34.5 -130.5 -34.5zM338.999 72c36.667 0 69.667 8.66699 99 26s52.333 41.333 69 72s25 65 25 103c0 38.667 -8.33301 73.167 -25 103.5s-39.667 54.333 -69 72s-62.333 26.5 -99 26.5
s-69.667 -8.83301 -99 -26.5s-52.666 -41.667 -69.999 -72s-26 -64.833 -26 -103.5c0 -38 8.66699 -72.333 26 -103s40.666 -54.667 69.999 -72s62.333 -26 99 -26zM572.999 0c-12.667 0 -23 3.83301 -31 11.5s-12 17.834 -12 30.501v165l19 88l67 -22v-231
c0 -12.667 -4.16699 -22.834 -12.5 -30.501s-18.5 -11.5 -30.5 -11.5zM335.999 631c-12 0 -22.167 4.16699 -30.5 12.5s-12.5 18.5 -12.5 30.5s3.33301 21.667 10 29l108 108c8 8 18 12 30 12c12.667 0 23 -4.16699 31 -12.5s12 -18.833 12 -31.5
c0 -5.33301 -1 -10.5 -3 -15.5s-5 -9.5 -9 -13.5l-107 -108c-8 -7.33301 -17.667 -11 -29 -11z" />
    <glyph glyph-name="acircumflex" unicode="&#xe2;" 
d="M327 -5c-50.667 0 -96.001 12.167 -136.001 36.5s-71.667 57.5 -95 99.5s-35 89.333 -35 142c0 53.333 12.167 101 36.5 143s57.5 75.167 99.5 99.5s89.333 36.5 142 36.5c52 0 98.833 -12.167 140.5 -36.5s74.667 -57.5 99 -99.5s36.833 -89.667 37.5 -143l-34 -16
c0 -49.333 -11.167 -93.833 -33.5 -133.5s-52.666 -71 -90.999 -94s-81.833 -34.5 -130.5 -34.5zM338.999 72c36.667 0 69.667 8.66699 99 26s52.333 41.333 69 72s25 65 25 103c0 38.667 -8.33301 73.167 -25 103.5s-39.667 54.333 -69 72s-62.333 26.5 -99 26.5
s-69.667 -8.83301 -99 -26.5s-52.666 -41.667 -69.999 -72s-26 -64.833 -26 -103.5c0 -38 8.66699 -72.333 26 -103s40.666 -54.667 69.999 -72s62.333 -26 99 -26zM572.999 0c-12.667 0 -23 3.83301 -31 11.5s-12 17.834 -12 30.501v165l19 88l67 -22v-231
c0 -12.667 -4.16699 -22.834 -12.5 -30.501s-18.5 -11.5 -30.5 -11.5zM224.999 628c-12.667 0 -23.166 3.33398 -31.499 10.001s-12.5 15.667 -12.5 27c0 14.667 7 27 21 37l116 76c6 4 13 6 21 6c4.66699 0 8.66699 -0.5 12 -1.5s6.66602 -2.5 9.99902 -4.5l115 -76
c14 -10 21 -22.333 21 -37c0 -10.667 -4 -19.5 -12 -26.5s-18.333 -10.5 -31 -10.5c-5.33301 0 -10 0.666992 -14 2s-8.33301 3.66602 -13 6.99902l-88 61l-88 -61c-8 -6 -16.667 -9 -26 -9z" />
    <glyph glyph-name="atilde" unicode="&#xe3;" 
d="M327 -5c-50.667 0 -96.001 12.167 -136.001 36.5s-71.667 57.5 -95 99.5s-35 89.333 -35 142c0 53.333 12.167 101 36.5 143s57.5 75.167 99.5 99.5s89.333 36.5 142 36.5c52 0 98.833 -12.167 140.5 -36.5s74.667 -57.5 99 -99.5s36.833 -89.667 37.5 -143l-34 -16
c0 -49.333 -11.167 -93.833 -33.5 -133.5s-52.666 -71 -90.999 -94s-81.833 -34.5 -130.5 -34.5zM338.999 72c36.667 0 69.667 8.66699 99 26s52.333 41.333 69 72s25 65 25 103c0 38.667 -8.33301 73.167 -25 103.5s-39.667 54.333 -69 72s-62.333 26.5 -99 26.5
s-69.667 -8.83301 -99 -26.5s-52.666 -41.667 -69.999 -72s-26 -64.833 -26 -103.5c0 -38 8.66699 -72.333 26 -103s40.666 -54.667 69.999 -72s62.333 -26 99 -26zM572.999 0c-12.667 0 -23 3.83301 -31 11.5s-12 17.834 -12 30.501v165l19 88l67 -22v-231
c0 -12.667 -4.16699 -22.834 -12.5 -30.501s-18.5 -11.5 -30.5 -11.5zM444.999 625c-21.333 0 -40.1699 3.83105 -56.5029 11.498s-30.166 14.834 -41.499 21.501c-14.667 8 -26.667 13.833 -36 17.5s-18 5.5 -26 5.5c-11.333 0 -21.833 -2.5 -31.5 -7.5
s-19.167 -13.5 -28.5 -25.5c-6.66699 -9.33301 -15 -15.666 -25 -18.999s-20 -2.33301 -30 3c-9.33301 4.66699 -14.833 12.334 -16.5 23.001s0.833008 20.667 7.5 30c16 21.333 35 37.833 57 49.5s45.333 17.5 70 17.5c21.333 0 39.833 -3.66699 55.5 -11
s28.834 -14 39.501 -20c14 -8.66699 25.167 -14.834 33.5 -18.501s17.5 -5.5 27.5 -5.5s18.667 1.66699 26 5s14 8 20 14c8 8 16 13.667 24 17s17 2 27 -4c9.33301 -5.33301 14.833 -13.5 16.5 -24.5s-1.16602 -21.167 -8.49902 -30.5c-26 -32.667 -60.667 -49 -104 -49z
" />
    <glyph glyph-name="adieresis" unicode="&#xe4;" 
d="M327 -5c-50.667 0 -96.001 12.167 -136.001 36.5s-71.667 57.5 -95 99.5s-35 89.333 -35 142c0 53.333 12.167 101 36.5 143s57.5 75.167 99.5 99.5s89.333 36.5 142 36.5c52 0 98.833 -12.167 140.5 -36.5s74.667 -57.5 99 -99.5s36.833 -89.667 37.5 -143l-34 -16
c0 -49.333 -11.167 -93.833 -33.5 -133.5s-52.666 -71 -90.999 -94s-81.833 -34.5 -130.5 -34.5zM338.999 72c36.667 0 69.667 8.66699 99 26s52.333 41.333 69 72s25 65 25 103c0 38.667 -8.33301 73.167 -25 103.5s-39.667 54.333 -69 72s-62.333 26.5 -99 26.5
s-69.667 -8.83301 -99 -26.5s-52.666 -41.667 -69.999 -72s-26 -64.833 -26 -103.5c0 -38 8.66699 -72.333 26 -103s40.666 -54.667 69.999 -72s62.333 -26 99 -26zM572.999 0c-12.667 0 -23 3.83301 -31 11.5s-12 17.834 -12 30.501v165l19 88l67 -22v-231
c0 -12.667 -4.16699 -22.834 -12.5 -30.501s-18.5 -11.5 -30.5 -11.5zM232.999 642c-16.667 0 -30.334 5.33301 -41.001 16s-16 24 -16 40c0 15.333 5.33301 28.666 16 39.999s24.334 17 41.001 17c15.333 0 28.5 -5.66699 39.5 -17s16.5 -24.666 16.5 -39.999
c0 -16 -5.5 -29.333 -16.5 -40s-24.167 -16 -39.5 -16zM445.999 642c-16 0 -29.5 5.33301 -40.5 16s-16.5 24 -16.5 40c0 15.333 5.5 28.666 16.5 39.999s24.5 17 40.5 17c15.333 0 28.666 -5.66699 39.999 -17s17 -24.666 17 -39.999c0 -16 -5.66699 -29.333 -17 -40
s-24.666 -16 -39.999 -16z" />
    <glyph glyph-name="aring" unicode="&#xe5;" 
d="M327 -5c-50.667 0 -96.001 12.167 -136.001 36.5s-71.667 57.5 -95 99.5s-35 89.333 -35 142c0 53.333 12.167 101 36.5 143s57.5 75.167 99.5 99.5s89.333 36.5 142 36.5c52 0 98.833 -12.167 140.5 -36.5s74.667 -57.5 99 -99.5s36.833 -89.667 37.5 -143l-34 -16
c0 -49.333 -11.167 -93.833 -33.5 -133.5s-52.666 -71 -90.999 -94s-81.833 -34.5 -130.5 -34.5zM338.999 72c36.667 0 69.667 8.66699 99 26s52.333 41.333 69 72s25 65 25 103c0 38.667 -8.33301 73.167 -25 103.5s-39.667 54.333 -69 72s-62.333 26.5 -99 26.5
s-69.667 -8.83301 -99 -26.5s-52.666 -41.667 -69.999 -72s-26 -64.833 -26 -103.5c0 -38 8.66699 -72.333 26 -103s40.666 -54.667 69.999 -72s62.333 -26 99 -26zM572.999 0c-12.667 0 -23 3.83301 -31 11.5s-12 17.834 -12 30.501v165l19 88l67 -22v-231
c0 -12.667 -4.16699 -22.834 -12.5 -30.501s-18.5 -11.5 -30.5 -11.5zM338.999 591c-28.667 0 -52.667 9.5 -72 28.5s-29 43.167 -29 72.5c0 28.667 9.66699 52.667 29 72s43.333 29 72 29s52.667 -9.66699 72 -29s29 -43.333 29 -72s-9.5 -52.667 -28.5 -72
s-43.167 -29 -72.5 -29zM338.999 639c15.333 0 27.833 5.16699 37.5 15.5s14.5 22.833 14.5 37.5c0 15.333 -4.83301 27.833 -14.5 37.5s-22.167 14.5 -37.5 14.5c-14.667 0 -27 -4.83301 -37 -14.5s-15 -22.167 -15 -37.5c0 -14.667 5 -27.167 15 -37.5
s22.333 -15.5 37 -15.5z" />
    <glyph glyph-name="ae" unicode="&#xe6;" horiz-adv-x="1090" 
d="M815 -5c-52.667 0 -99.1602 11.8311 -139.493 35.498s-72.166 56.5 -95.499 98.5s-35 90 -35 144c0 54.667 11 102.834 33 144.501s52 74.5 90 98.5s82 36 132 36c51.333 0 95.666 -11.5 132.999 -34.5s66.166 -54.833 86.499 -95.5s30.5 -87 30.5 -139
c0 -11.333 -3.66699 -20.5 -11 -27.5s-16.666 -10.5 -27.999 -10.5h-418v69h422l-41 -30c-0.666992 36.667 -8 69.667 -22 99s-33.833 52.333 -59.5 69s-56.5 25 -92.5 25c-38 0 -71 -8.83301 -99 -26.5s-49.667 -41.834 -65 -72.501s-23 -65.667 -23 -105
s8.66699 -74.166 26 -104.499s41.166 -54.333 71.499 -72s65.166 -26.5 104.499 -26.5c25.333 0 49.166 4 71.499 12s40.5 18 54.5 30c8 6.66699 17.167 10.334 27.5 11.001s19.166 -2.33301 26.499 -9c9.33301 -9.33301 14.166 -19 14.499 -29
s-3.83398 -18.667 -12.501 -26c-22.667 -18 -50.834 -33.167 -84.501 -45.5s-66.167 -18.5 -97.5 -18.5zM327.007 -5.00195c-50.667 0 -96.001 12.167 -136.001 36.5s-71.667 57.5 -95 99.5s-35 89.333 -35 142c0 53.333 12.167 101 36.5 143s57.5 75.167 99.5 99.5
s89.333 36.5 142 36.5c52 0 98.833 -12.167 140.5 -36.5s74.667 -57.5 99 -99.5s36.833 -89.667 37.5 -143l-34 -16c0 -49.333 -11.167 -93.833 -33.5 -133.5s-52.666 -71 -90.999 -94s-81.833 -34.5 -130.5 -34.5zM339.006 71.998c36.667 0 69.667 8.66699 99 26
s52.333 41.333 69 72s25 65 25 103c0 38.667 -8.33301 73.167 -25 103.5s-39.667 54.333 -69 72s-62.333 26.5 -99 26.5s-69.667 -8.83301 -99 -26.5s-52.666 -41.667 -69.999 -72s-26 -64.833 -26 -103.5c0 -38 8.66699 -72.333 26 -103s40.666 -54.667 69.999 -72
s62.333 -26 99 -26zM573.006 -0.00195312c-12.667 0 -23 3.83301 -31 11.5s-12 17.834 -12 30.501v165l19 88l67 -22v-231c0 -12.667 -4.16699 -22.834 -12.5 -30.501s-18.5 -11.5 -30.5 -11.5z" />
    <glyph glyph-name="ccedilla" unicode="&#xe7;" horiz-adv-x="598" 
d="M335 -5c-52.667 0 -99.666 12.166 -140.999 36.499s-73.833 57.5 -97.5 99.5s-35.5 89.333 -35.5 142c0 53.333 11.5 101 34.5 143s54.333 75.167 94 99.5s85.5 36.5 137.5 36.5c40 0 77 -7.83301 111 -23.5s64 -39.167 90 -70.5c8 -9.33301 10.833 -18.833 8.5 -28.5
s-8.5 -18.167 -18.5 -25.5c-8 -6 -17 -8 -27 -6s-18.667 7.33301 -26 16c-36.667 40.667 -82.667 61 -138 61c-36 0 -67.833 -8.66699 -95.5 -26s-49.167 -41 -64.5 -71s-23 -65 -23 -105c0 -38.667 8 -73.167 24 -103.5s38.5 -54.166 67.5 -71.499s62.167 -26 99.5 -26
c25.333 0 48.166 3.33301 68.499 10s38.5 16.667 54.5 30c8.66699 7.33301 17.834 11.5 27.501 12.5s18.5 -1.83301 26.5 -8.5c8.66699 -8 13.667 -17 15 -27s-2 -19 -10 -27c-48.667 -44.667 -109.334 -67 -182.001 -67zM313.001 -233.001
c-37.333 0 -67.8369 7.83789 -91.5039 23.5049s-35.5 33.5 -35.5 53.5c0 11.333 4 21 12 29s17.333 12 28 12c8 0 14.833 -1.83301 20.5 -5.5s10.5 -9.5 14.5 -17.5c5.33301 -8.66699 12.333 -15.334 21 -20.001s19.334 -7 32.001 -7c14.667 0 26.834 3.16699 36.501 9.5
s14.5 15.5 14.5 27.5s-3.66699 21.667 -11 29s-20.333 13 -39 17c-17.333 3.33301 -29.666 9.33301 -36.999 18s-7.66602 22.667 -0.999023 42l14 36c4 10.667 9.83301 19 17.5 25s18.167 9 31.5 9c14 0 24.5 -4.83301 31.5 -14.5s7.5 -20.834 1.5 -33.501l-15 -36
c34.667 -8 59.167 -19.833 73.5 -35.5s21.5 -34.834 21.5 -57.501c0 -18.667 -6 -35.834 -18 -51.501s-28.5 -28.334 -49.5 -38.001s-45.167 -14.5 -72.5 -14.5z" />
    <glyph glyph-name="egrave" unicode="&#xe8;" horiz-adv-x="616" 
d="M341 -5c-54.667 0 -102.995 11.8311 -144.995 35.498s-75 56.5 -99 98.5s-36 90 -36 144c0 54.667 11.333 102.834 34 144.501s53.834 74.5 93.501 98.5s85.5 36 137.5 36c51.333 0 95.666 -11.5 132.999 -34.5s66.166 -54.833 86.499 -95.5s30.5 -87 30.5 -139
c0 -11.333 -3.66699 -20.5 -11 -27.5s-16.666 -10.5 -27.999 -10.5h-418v69h422l-42 -30c0 36.667 -7 69.667 -21 99s-33.833 52.333 -59.5 69s-56.5 25 -92.5 25c-38 0 -71 -8.83301 -99 -26.5s-49.667 -41.834 -65 -72.501s-23 -65.667 -23 -105
s8.66699 -74.166 26 -104.499s41.166 -54.333 71.499 -72s65.166 -26.5 104.499 -26.5c22.667 0 45.834 4 69.501 12s42.5 18 56.5 30c8 6.66699 17.167 10.167 27.5 10.5s19.166 -2.5 26.499 -8.5c9.33301 -8.66699 14.166 -18.167 14.499 -28.5
s-3.83398 -19.166 -12.501 -26.499c-22.667 -18.667 -50.834 -34 -84.501 -46s-66.167 -18 -97.5 -18zM317.005 634.998c-11.333 0 -21 4 -29 12l-108 107c-7.33301 8 -11 18 -11 30s4 22.333 12 31s18 13 30 13s22.333 -4.33301 31 -13l107 -108
c7.33301 -6.66699 11 -16 11 -28c0 -12.667 -4 -23.167 -12 -31.5s-18.333 -12.5 -31 -12.5z" />
    <glyph glyph-name="eacute" unicode="&#xe9;" horiz-adv-x="616" 
d="M341 -5c-54.667 0 -102.995 11.8311 -144.995 35.498s-75 56.5 -99 98.5s-36 90 -36 144c0 54.667 11.333 102.834 34 144.501s53.834 74.5 93.501 98.5s85.5 36 137.5 36c51.333 0 95.666 -11.5 132.999 -34.5s66.166 -54.833 86.499 -95.5s30.5 -87 30.5 -139
c0 -11.333 -3.66699 -20.5 -11 -27.5s-16.666 -10.5 -27.999 -10.5h-418v69h422l-42 -30c0 36.667 -7 69.667 -21 99s-33.833 52.333 -59.5 69s-56.5 25 -92.5 25c-38 0 -71 -8.83301 -99 -26.5s-49.667 -41.834 -65 -72.501s-23 -65.667 -23 -105
s8.66699 -74.166 26 -104.499s41.166 -54.333 71.499 -72s65.166 -26.5 104.499 -26.5c22.667 0 45.834 4 69.501 12s42.5 18 56.5 30c8 6.66699 17.167 10.167 27.5 10.5s19.166 -2.5 26.499 -8.5c9.33301 -8.66699 14.166 -18.167 14.499 -28.5
s-3.83398 -19.166 -12.501 -26.499c-22.667 -18.667 -50.834 -34 -84.501 -46s-66.167 -18 -97.5 -18zM316.005 630.998c-12 0 -22.167 4.16699 -30.5 12.5s-12.5 18.5 -12.5 30.5s3.33301 21.667 10 29l108 108c8 8 18 12 30 12c12.667 0 23 -4.16699 31 -12.5
s12 -18.833 12 -31.5c0 -5.33301 -1 -10.5 -3 -15.5s-5 -9.5 -9 -13.5l-107 -108c-8 -7.33301 -17.667 -11 -29 -11z" />
    <glyph glyph-name="ecircumflex" unicode="&#xea;" horiz-adv-x="616" 
d="M341 -5c-54.667 0 -102.995 11.8311 -144.995 35.498s-75 56.5 -99 98.5s-36 90 -36 144c0 54.667 11.333 102.834 34 144.501s53.834 74.5 93.501 98.5s85.5 36 137.5 36c51.333 0 95.666 -11.5 132.999 -34.5s66.166 -54.833 86.499 -95.5s30.5 -87 30.5 -139
c0 -11.333 -3.66699 -20.5 -11 -27.5s-16.666 -10.5 -27.999 -10.5h-418v69h422l-42 -30c0 36.667 -7 69.667 -21 99s-33.833 52.333 -59.5 69s-56.5 25 -92.5 25c-38 0 -71 -8.83301 -99 -26.5s-49.667 -41.834 -65 -72.501s-23 -65.667 -23 -105
s8.66699 -74.166 26 -104.499s41.166 -54.333 71.499 -72s65.166 -26.5 104.499 -26.5c22.667 0 45.834 4 69.501 12s42.5 18 56.5 30c8 6.66699 17.167 10.167 27.5 10.5s19.166 -2.5 26.499 -8.5c9.33301 -8.66699 14.166 -18.167 14.499 -28.5
s-3.83398 -19.166 -12.501 -26.499c-22.667 -18.667 -50.834 -34 -84.501 -46s-66.167 -18 -97.5 -18zM205.005 627.998c-12.667 0 -23.166 3.33398 -31.499 10.001s-12.5 15.667 -12.5 27c0 14.667 7 27 21 37l116 76c6 4 13 6 21 6c4.66699 0 8.66699 -0.5 12 -1.5
s6.66602 -2.5 9.99902 -4.5l115 -76c14 -10 21 -22.333 21 -37c0 -10.667 -4 -19.5 -12 -26.5s-18.333 -10.5 -31 -10.5c-5.33301 0 -10 0.666992 -14 2s-8.33301 3.66602 -13 6.99902l-88 61l-88 -61c-8 -6 -16.667 -9 -26 -9z" />
    <glyph glyph-name="edieresis" unicode="&#xeb;" horiz-adv-x="616" 
d="M341 -5c-54.667 0 -102.995 11.8311 -144.995 35.498s-75 56.5 -99 98.5s-36 90 -36 144c0 54.667 11.333 102.834 34 144.501s53.834 74.5 93.501 98.5s85.5 36 137.5 36c51.333 0 95.666 -11.5 132.999 -34.5s66.166 -54.833 86.499 -95.5s30.5 -87 30.5 -139
c0 -11.333 -3.66699 -20.5 -11 -27.5s-16.666 -10.5 -27.999 -10.5h-418v69h422l-42 -30c0 36.667 -7 69.667 -21 99s-33.833 52.333 -59.5 69s-56.5 25 -92.5 25c-38 0 -71 -8.83301 -99 -26.5s-49.667 -41.834 -65 -72.501s-23 -65.667 -23 -105
s8.66699 -74.166 26 -104.499s41.166 -54.333 71.499 -72s65.166 -26.5 104.499 -26.5c22.667 0 45.834 4 69.501 12s42.5 18 56.5 30c8 6.66699 17.167 10.167 27.5 10.5s19.166 -2.5 26.499 -8.5c9.33301 -8.66699 14.166 -18.167 14.499 -28.5
s-3.83398 -19.166 -12.501 -26.499c-22.667 -18.667 -50.834 -34 -84.501 -46s-66.167 -18 -97.5 -18zM213.005 641.998c-16.667 0 -30.334 5.33301 -41.001 16s-16 24 -16 40c0 15.333 5.33301 28.666 16 39.999s24.334 17 41.001 17c15.333 0 28.5 -5.66699 39.5 -17
s16.5 -24.666 16.5 -39.999c0 -16 -5.5 -29.333 -16.5 -40s-24.167 -16 -39.5 -16zM426.005 641.998c-16 0 -29.5 5.33301 -40.5 16s-16.5 24 -16.5 40c0 15.333 5.5 28.666 16.5 39.999s24.5 17 40.5 17c15.333 0 28.666 -5.66699 39.999 -17s17 -24.666 17 -39.999
c0 -16 -5.66699 -29.333 -17 -40s-24.666 -16 -39.999 -16z" />
    <glyph glyph-name="igrave" unicode="&#xec;" horiz-adv-x="293" 
d="M147 0c-12.667 0 -23 4 -31 12s-12 18.333 -12 31v461c0 13.333 4 23.833 12 31.5s18.333 11.5 31 11.5s22.834 -3.83301 30.501 -11.5s11.5 -18.167 11.5 -31.5v-461c0 -12.667 -3.83301 -23 -11.5 -31s-17.834 -12 -30.501 -12zM145 635c-11.333 0 -21 4 -29 12
l-108 107c-7.33301 8 -11 18 -11 30s4 22.333 12 31s18 13 30 13s22.333 -4.33301 31 -13l107 -108c7.33301 -6.66699 11 -16 11 -28c0 -12.667 -4 -23.167 -12 -31.5s-18.333 -12.5 -31 -12.5z" />
    <glyph glyph-name="iacute" unicode="&#xed;" horiz-adv-x="293" 
d="M147 0c-12.667 0 -23 4 -31 12s-12 18.333 -12 31v461c0 13.333 4 23.833 12 31.5s18.333 11.5 31 11.5s22.834 -3.83301 30.501 -11.5s11.5 -18.167 11.5 -31.5v-461c0 -12.667 -3.83301 -23 -11.5 -31s-17.834 -12 -30.501 -12zM143 631
c-12 0 -22.167 4.16699 -30.5 12.5s-12.5 18.5 -12.5 30.5s3.33301 21.667 10 29l108 108c8 8 18 12 30 12c12.667 0 23 -4.16699 31 -12.5s12 -18.833 12 -31.5c0 -5.33301 -1 -10.5 -3 -15.5s-5 -9.5 -9 -13.5l-107 -108c-8 -7.33301 -17.667 -11 -29 -11z" />
    <glyph glyph-name="icircumflex" unicode="&#xee;" horiz-adv-x="293" 
d="M147 0c-12.667 0 -23 4 -31 12s-12 18.333 -12 31v461c0 13.333 4 23.833 12 31.5s18.333 11.5 31 11.5s22.834 -3.83301 30.501 -11.5s11.5 -18.167 11.5 -31.5v-461c0 -12.667 -3.83301 -23 -11.5 -31s-17.834 -12 -30.501 -12zM44.1016 628
c-11.3994 0 -20.8467 3.33398 -28.3477 10.001c-7.5 6.66699 -11.25 15.667 -11.25 27c0 14.667 6.2998 27 18.9004 37l104.403 76c5.39941 4 11.6992 6 18.8994 6c4.2002 0 7.7998 -0.5 10.7998 -1.5s6 -2.5 9 -4.5l103.503 -76c12.6006 -10 18.9004 -22.333 18.9004 -37
c0 -10.667 -3.59961 -19.5 -10.7998 -26.5s-16.501 -10.5 -27.9014 -10.5c-4.7998 0 -9 0.666992 -12.6006 2s-7.50098 3.66602 -11.7012 6.99902l-79.2021 61l-79.2021 -61c-7.2002 -6 -15.001 -9 -23.4014 -9z" />
    <glyph glyph-name="idieresis" unicode="&#xef;" horiz-adv-x="293" 
d="M50 667c-16 0 -29.667 5.5 -41 16.5s-17 24.5 -17 40.5c0 15.333 5.66699 28.5 17 39.5s25 16.5 41 16.5c15.333 0 28.666 -5.5 39.999 -16.5s17 -24.167 17 -39.5c0 -16 -5.66699 -29.5 -17 -40.5s-24.666 -16.5 -39.999 -16.5zM243 667c-15.333 0 -28.5 5.5 -39.5 16.5
s-16.5 24.5 -16.5 40.5c0 15.333 5.5 28.5 16.5 39.5s24.167 16.5 39.5 16.5c16 0 29.5 -5.5 40.5 -16.5s16.5 -24.167 16.5 -39.5c0 -16 -5.5 -29.5 -16.5 -40.5s-24.5 -16.5 -40.5 -16.5zM147 0c-12.667 0 -23 4 -31 12s-12 18.333 -12 31v461c0 13.333 4 23.833 12 31.5
s18.333 11.5 31 11.5s22.834 -3.83301 30.501 -11.5s11.5 -18.167 11.5 -31.5v-461c0 -12.667 -3.83301 -23 -11.5 -31s-17.834 -12 -30.501 -12z" />
    <glyph glyph-name="eth" unicode="&#xf0;" horiz-adv-x="669" 
d="M327 -5c-52 0 -97.999 11.167 -137.999 33.5s-71.333 53.166 -94 92.499s-34 84.666 -34 135.999c0 50.667 10.833 95.5 32.5 134.5s51.667 69.5 90 91.5s82.166 33 131.499 33c47.333 0 89 -10.667 125 -32s64.167 -50.5 84.5 -87.5s30.5 -79.5 30.5 -127.5h44
c0 -53.333 -11.667 -100.666 -35 -141.999s-55.333 -73.666 -96 -96.999s-87.667 -35 -141 -35zM327.001 72c37.333 0 70.166 7.83301 98.499 23.5s50.5 37.334 66.5 65.001s24 59.834 24 96.501c0 35.333 -8 66.833 -24 94.5s-38.167 49.167 -66.5 64.5
s-61.166 23 -98.499 23c-35.333 0 -66.833 -7.66699 -94.5 -23s-49.334 -36.833 -65.001 -64.5s-23.5 -59.167 -23.5 -94.5c0 -36.667 7.83301 -68.834 23.5 -96.501s37.334 -49.334 65.001 -65.001s59.167 -23.5 94.5 -23.5zM534.001 267l-0.999023 81.9971
c-0.666992 54.667 -6.16699 101.667 -16.5 141s-27.333 73 -51 101s-54.834 52.667 -93.501 74s-86.667 41.333 -144 60c-14 4.66699 -24.167 11 -30.5 19s-7.5 17.333 -3.5 28c4 11.333 11 17.833 21 19.5s21 0.5 33 -3.5c66 -23.333 121.5 -48.166 166.5 -74.499
s81 -56.166 108 -89.499s46.5 -71.666 58.5 -114.999s18 -93.333 18 -150v-92h-65zM254.002 607.997c-8 3.33301 -13.332 8.16602 -15.999 14.499s-1.33398 13.833 3.99902 22.5l92 176c4 8.66699 9.5 13.834 16.5 15.501s14.167 0.166992 21.5 -4.5
c8.66699 -5.33301 14 -11.333 16 -18s1.33301 -13.334 -2 -20.001l-92 -176c-4 -7.33301 -9.66699 -12.166 -17 -14.499s-15 -0.833008 -23 4.5z" />
    <glyph glyph-name="ntilde" unicode="&#xf1;" horiz-adv-x="679" 
d="M557 0c-12.667 0 -22.999 3.99805 -30.999 11.998s-12 18 -12 30v255c0 40.667 -7.66699 73.834 -23 99.501s-35.833 44.834 -61.5 57.501s-55.167 19 -88.5 19c-30.667 0 -58.667 -6 -84 -18s-45.333 -28.5 -60 -49.5s-22 -45.167 -22 -72.5h-57
c0.666992 42 11.5 79.5 32.5 112.5s49.167 59.167 84.5 78.5s74.666 29 117.999 29c47.333 0 89.5 -9.83301 126.5 -29.5s66.167 -48.5 87.5 -86.5s32 -84.667 32 -140v-255c0 -12 -4 -22 -12 -30s-18 -12 -30 -12zM133.001 -0.00195312c-12.667 0 -23 3.83301 -31 11.5
s-12 17.834 -12 30.501v462c0 13.333 4 23.833 12 31.5s18.333 11.5 31 11.5s22.834 -3.83301 30.501 -11.5s11.5 -18.167 11.5 -31.5v-462c0 -12.667 -3.83301 -22.834 -11.5 -30.501s-17.834 -11.5 -30.501 -11.5zM445.001 624.998
c-21.333 0 -40.1699 3.83105 -56.5029 11.498s-30.166 14.834 -41.499 21.501c-14.667 8 -26.667 13.833 -36 17.5s-18 5.5 -26 5.5c-11.333 0 -21.833 -2.5 -31.5 -7.5s-19.167 -13.5 -28.5 -25.5c-6.66699 -9.33301 -15 -15.666 -25 -18.999s-20 -2.33301 -30 3
c-9.33301 4.66699 -14.833 12.334 -16.5 23.001s0.833008 20.667 7.5 30c16 21.333 35 37.833 57 49.5s45.333 17.5 70 17.5c21.333 0 39.833 -3.66699 55.5 -11s28.834 -14 39.501 -20c14 -8.66699 25.167 -14.834 33.5 -18.501s17.5 -5.5 27.5 -5.5s18.667 1.66699 26 5
s14 8 20 14c8 8 16 13.667 24 17s17 2 27 -4c9.33301 -5.33301 14.833 -13.5 16.5 -24.5s-1.16602 -21.167 -8.49902 -30.5c-26 -32.667 -60.667 -49 -104 -49z" />
    <glyph glyph-name="ograve" unicode="&#xf2;" 
d="M339 -5c-54 0 -101.832 12 -143.499 36s-74.5 57 -98.5 99s-36 89.667 -36 143c0 54 12 102 36 144s56.833 75 98.5 99s89.5 36 143.5 36c53.333 0 100.666 -12 141.999 -36s74 -57 98 -99s36.333 -90 37 -144c0 -53.333 -12 -101 -36 -143s-56.833 -75 -98.5 -99
s-89.167 -36 -142.5 -36zM339.001 72c37.333 0 70.666 8.66699 99.999 26s52.166 41.166 68.499 71.499s24.5 64.833 24.5 103.5s-8.16699 73.334 -24.5 104.001s-39.166 54.667 -68.499 72s-62.666 26 -99.999 26s-70.666 -8.66699 -99.999 -26s-52.5 -41.333 -69.5 -72
s-25.5 -65.334 -25.5 -104.001s8.5 -73.167 25.5 -103.5s40.167 -54.166 69.5 -71.499s62.666 -26 99.999 -26zM337.001 635c-11.333 0 -21 4 -29 12l-108 107c-7.33301 8 -11 18 -11 30s4 22.333 12 31s18 13 30 13s22.333 -4.33301 31 -13l107 -108
c7.33301 -6.66699 11 -16 11 -28c0 -12.667 -4 -23.167 -12 -31.5s-18.333 -12.5 -31 -12.5z" />
    <glyph glyph-name="oacute" unicode="&#xf3;" 
d="M339 -5c-54 0 -101.832 12 -143.499 36s-74.5 57 -98.5 99s-36 89.667 -36 143c0 54 12 102 36 144s56.833 75 98.5 99s89.5 36 143.5 36c53.333 0 100.666 -12 141.999 -36s74 -57 98 -99s36.333 -90 37 -144c0 -53.333 -12 -101 -36 -143s-56.833 -75 -98.5 -99
s-89.167 -36 -142.5 -36zM339.001 72c37.333 0 70.666 8.66699 99.999 26s52.166 41.166 68.499 71.499s24.5 64.833 24.5 103.5s-8.16699 73.334 -24.5 104.001s-39.166 54.667 -68.499 72s-62.666 26 -99.999 26s-70.666 -8.66699 -99.999 -26s-52.5 -41.333 -69.5 -72
s-25.5 -65.334 -25.5 -104.001s8.5 -73.167 25.5 -103.5s40.167 -54.166 69.5 -71.499s62.666 -26 99.999 -26zM336.001 631c-12 0 -22.167 4.16699 -30.5 12.5s-12.5 18.5 -12.5 30.5s3.33301 21.667 10 29l108 108c8 8 18 12 30 12c12.667 0 23 -4.16699 31 -12.5
s12 -18.833 12 -31.5c0 -5.33301 -1 -10.5 -3 -15.5s-5 -9.5 -9 -13.5l-107 -108c-8 -7.33301 -17.667 -11 -29 -11z" />
    <glyph glyph-name="ocircumflex" unicode="&#xf4;" 
d="M339 -5c-54 0 -101.832 12 -143.499 36s-74.5 57 -98.5 99s-36 89.667 -36 143c0 54 12 102 36 144s56.833 75 98.5 99s89.5 36 143.5 36c53.333 0 100.666 -12 141.999 -36s74 -57 98 -99s36.333 -90 37 -144c0 -53.333 -12 -101 -36 -143s-56.833 -75 -98.5 -99
s-89.167 -36 -142.5 -36zM339.001 72c37.333 0 70.666 8.66699 99.999 26s52.166 41.166 68.499 71.499s24.5 64.833 24.5 103.5s-8.16699 73.334 -24.5 104.001s-39.166 54.667 -68.499 72s-62.666 26 -99.999 26s-70.666 -8.66699 -99.999 -26s-52.5 -41.333 -69.5 -72
s-25.5 -65.334 -25.5 -104.001s8.5 -73.167 25.5 -103.5s40.167 -54.166 69.5 -71.499s62.666 -26 99.999 -26zM225.001 628c-12.667 0 -23.166 3.33398 -31.499 10.001s-12.5 15.667 -12.5 27c0 14.667 7 27 21 37l116 76c6 4 13 6 21 6c4.66699 0 8.66699 -0.5 12 -1.5
s6.66602 -2.5 9.99902 -4.5l115 -76c14 -10 21 -22.333 21 -37c0 -10.667 -4 -19.5 -12 -26.5s-18.333 -10.5 -31 -10.5c-5.33301 0 -10 0.666992 -14 2s-8.33301 3.66602 -13 6.99902l-88 61l-88 -61c-8 -6 -16.667 -9 -26 -9z" />
    <glyph glyph-name="otilde" unicode="&#xf5;" 
d="M339 -5c-54 0 -101.832 12 -143.499 36s-74.5 57 -98.5 99s-36 89.667 -36 143c0 54 12 102 36 144s56.833 75 98.5 99s89.5 36 143.5 36c53.333 0 100.666 -12 141.999 -36s74 -57 98 -99s36.333 -90 37 -144c0 -53.333 -12 -101 -36 -143s-56.833 -75 -98.5 -99
s-89.167 -36 -142.5 -36zM339.001 72c37.333 0 70.666 8.66699 99.999 26s52.166 41.166 68.499 71.499s24.5 64.833 24.5 103.5s-8.16699 73.334 -24.5 104.001s-39.166 54.667 -68.499 72s-62.666 26 -99.999 26s-70.666 -8.66699 -99.999 -26s-52.5 -41.333 -69.5 -72
s-25.5 -65.334 -25.5 -104.001s8.5 -73.167 25.5 -103.5s40.167 -54.166 69.5 -71.499s62.666 -26 99.999 -26zM445.001 625c-21.333 0 -40.1699 3.83105 -56.5029 11.498s-30.166 14.834 -41.499 21.501c-14.667 8 -26.667 13.833 -36 17.5s-18 5.5 -26 5.5
c-11.333 0 -21.833 -2.5 -31.5 -7.5s-19.167 -13.5 -28.5 -25.5c-6.66699 -9.33301 -15 -15.666 -25 -18.999s-20 -2.33301 -30 3c-9.33301 4.66699 -14.833 12.334 -16.5 23.001s0.833008 20.667 7.5 30c16 21.333 35 37.833 57 49.5s45.333 17.5 70 17.5
c21.333 0 39.833 -3.66699 55.5 -11s28.834 -14 39.501 -20c14 -8.66699 25.167 -14.834 33.5 -18.501s17.5 -5.5 27.5 -5.5s18.667 1.66699 26 5s14 8 20 14c8 8 16 13.667 24 17s17 2 27 -4c9.33301 -5.33301 14.833 -13.5 16.5 -24.5s-1.16602 -21.167 -8.49902 -30.5
c-26 -32.667 -60.667 -49 -104 -49z" />
    <glyph glyph-name="odieresis" unicode="&#xf6;" 
d="M339 -5c-54 0 -101.832 12 -143.499 36s-74.5 57 -98.5 99s-36 89.667 -36 143c0 54 12 102 36 144s56.833 75 98.5 99s89.5 36 143.5 36c53.333 0 100.666 -12 141.999 -36s74 -57 98 -99s36.333 -90 37 -144c0 -53.333 -12 -101 -36 -143s-56.833 -75 -98.5 -99
s-89.167 -36 -142.5 -36zM339.001 72c37.333 0 70.666 8.66699 99.999 26s52.166 41.166 68.499 71.499s24.5 64.833 24.5 103.5s-8.16699 73.334 -24.5 104.001s-39.166 54.667 -68.499 72s-62.666 26 -99.999 26s-70.666 -8.66699 -99.999 -26s-52.5 -41.333 -69.5 -72
s-25.5 -65.334 -25.5 -104.001s8.5 -73.167 25.5 -103.5s40.167 -54.166 69.5 -71.499s62.666 -26 99.999 -26zM233.001 642c-16.667 0 -30.334 5.33301 -41.001 16s-16 24 -16 40c0 15.333 5.33301 28.666 16 39.999s24.334 17 41.001 17c15.333 0 28.5 -5.66699 39.5 -17
s16.5 -24.666 16.5 -39.999c0 -16 -5.5 -29.333 -16.5 -40s-24.167 -16 -39.5 -16zM446.001 642c-16 0 -29.5 5.33301 -40.5 16s-16.5 24 -16.5 40c0 15.333 5.5 28.666 16.5 39.999s24.5 17 40.5 17c15.333 0 28.666 -5.66699 39.999 -17s17 -24.666 17 -39.999
c0 -16 -5.66699 -29.333 -17 -40s-24.666 -16 -39.999 -16z" />
    <glyph glyph-name="divide" unicode="&#xf7;" horiz-adv-x="469" 
d="M81 307c-12 0 -22.167 4.16699 -30.5 12.5s-12.5 18.833 -12.5 31.5c0 12 4.16699 22 12.5 30s18.5 12 30.5 12h308c12 0 22.167 -4 30.5 -12s12.5 -18 12.5 -30c0 -12.667 -4.16699 -23.167 -12.5 -31.5s-18.5 -12.5 -30.5 -12.5h-308zM235 153
c-14.667 0 -27.167 5.33301 -37.5 16s-15.5 23 -15.5 37c0 14.667 5.16699 27.167 15.5 37.5s22.5 15.5 36.5 15.5c15.333 0 28 -5.16699 38 -15.5s15 -22.833 15 -37.5c0 -14 -5 -26.333 -15 -37s-22.333 -16 -37 -16zM235 442c-14.667 0 -27.167 5.16699 -37.5 15.5
s-15.5 22.5 -15.5 36.5c0 15.333 5.16699 28 15.5 38s22.5 15 36.5 15c15.333 0 28 -5 38 -15s15 -22.667 15 -38c0 -14 -5 -26.167 -15 -36.5s-22.333 -15.5 -37 -15.5z" />
    <glyph glyph-name="oslash" unicode="&#xf8;" horiz-adv-x="703" 
d="M93 -20c-14 0 -23.834 6.16504 -29.501 18.498s-3.16699 23.5 7.5 33.5l73 74l35 26l322 321l25 26l62 61c6.66699 6.66699 14.334 10 23.001 10c10 0 17.5 -3.16699 22.5 -9.5s7.5 -13.666 7.5 -21.999s-2.66699 -15.166 -8 -20.499l-66 -66l-24 -21l-323 -322l-27 -21
l-78 -79c-6.66699 -6 -14 -9 -22 -9zM356.999 -8.00195c-54 0 -101.833 12 -143.5 36s-74.5 57 -98.5 99s-36 89.667 -36 143c0 54 12 102 36 144s56.833 75 98.5 99s89.167 36 142.5 36c54 0 101.667 -12 143 -36s74 -57 98 -99s36.333 -90 37 -144
c0 -53.333 -12 -101 -36 -143s-56.833 -75 -98.5 -99s-89.167 -36 -142.5 -36zM356.999 68.998c37.333 0 70.666 8.66699 99.999 26s52.166 41.166 68.499 71.499s24.5 64.833 24.5 103.5s-8.16699 73.334 -24.5 104.001s-39.166 54.667 -68.499 72s-62.666 26 -99.999 26
s-70.666 -8.66699 -99.999 -26s-52.5 -41.333 -69.5 -72s-25.5 -65.334 -25.5 -104.001s8.5 -73.167 25.5 -103.5s40.167 -54.166 69.5 -71.499s62.666 -26 99.999 -26z" />
    <glyph glyph-name="ugrave" unicode="&#xf9;" horiz-adv-x="679" 
d="M325 -6c-46.667 0 -88.5 9.83301 -125.5 29.5s-66.167 48.5 -87.5 86.5s-32 84.667 -32 140v255c0 12 4 22 12 30s18 12 30 12c12.667 0 23 -4 31 -12s12 -18 12 -30v-255c0 -40 7.5 -73 22.5 -99s35.5 -45.333 61.5 -58s55.333 -19 88 -19c31.333 0 59.5 6 84.5 18
s44.833 28.667 59.5 50s22 45.333 22 72h58c-1.33301 -42 -12.333 -79.5 -33 -112.5s-48.667 -59.167 -84 -78.5s-75 -29 -119 -29zM546 0c-12.667 0 -23 4 -31 12s-12 18.333 -12 31v462c0 12.667 4 22.834 12 30.501s18.333 11.5 31 11.5s23 -3.83301 31 -11.5
s12 -17.834 12 -30.501v-462c0 -12.667 -4 -23 -12 -31s-18.333 -12 -31 -12zM338 635c-11.333 0 -21 4 -29 12l-108 107c-7.33301 8 -11 18 -11 30s4 22.333 12 31s18 13 30 13s22.333 -4.33301 31 -13l107 -108c7.33301 -6.66699 11 -16 11 -28
c0 -12.667 -4 -23.167 -12 -31.5s-18.333 -12.5 -31 -12.5z" />
    <glyph glyph-name="uacute" unicode="&#xfa;" horiz-adv-x="679" 
d="M325 -6c-46.667 0 -88.5 9.83301 -125.5 29.5s-66.167 48.5 -87.5 86.5s-32 84.667 -32 140v255c0 12 4 22 12 30s18 12 30 12c12.667 0 23 -4 31 -12s12 -18 12 -30v-255c0 -40 7.5 -73 22.5 -99s35.5 -45.333 61.5 -58s55.333 -19 88 -19c31.333 0 59.5 6 84.5 18
s44.833 28.667 59.5 50s22 45.333 22 72h58c-1.33301 -42 -12.333 -79.5 -33 -112.5s-48.667 -59.167 -84 -78.5s-75 -29 -119 -29zM546 0c-12.667 0 -23 4 -31 12s-12 18.333 -12 31v462c0 12.667 4 22.834 12 30.501s18.333 11.5 31 11.5s23 -3.83301 31 -11.5
s12 -17.834 12 -30.501v-462c0 -12.667 -4 -23 -12 -31s-18.333 -12 -31 -12zM337 631c-12 0 -22.167 4.16699 -30.5 12.5s-12.5 18.5 -12.5 30.5s3.33301 21.667 10 29l108 108c8 8 18 12 30 12c12.667 0 23 -4.16699 31 -12.5s12 -18.833 12 -31.5
c0 -5.33301 -1 -10.5 -3 -15.5s-5 -9.5 -9 -13.5l-107 -108c-8 -7.33301 -17.667 -11 -29 -11z" />
    <glyph glyph-name="ucircumflex" unicode="&#xfb;" horiz-adv-x="679" 
d="M325 -6c-46.667 0 -88.5 9.83301 -125.5 29.5s-66.167 48.5 -87.5 86.5s-32 84.667 -32 140v255c0 12 4 22 12 30s18 12 30 12c12.667 0 23 -4 31 -12s12 -18 12 -30v-255c0 -40 7.5 -73 22.5 -99s35.5 -45.333 61.5 -58s55.333 -19 88 -19c31.333 0 59.5 6 84.5 18
s44.833 28.667 59.5 50s22 45.333 22 72h58c-1.33301 -42 -12.333 -79.5 -33 -112.5s-48.667 -59.167 -84 -78.5s-75 -29 -119 -29zM546 0c-12.667 0 -23 4 -31 12s-12 18.333 -12 31v462c0 12.667 4 22.834 12 30.501s18.333 11.5 31 11.5s23 -3.83301 31 -11.5
s12 -17.834 12 -30.501v-462c0 -12.667 -4 -23 -12 -31s-18.333 -12 -31 -12zM226 628c-12.667 0 -23.166 3.33398 -31.499 10.001s-12.5 15.667 -12.5 27c0 14.667 7 27 21 37l116 76c6 4 13 6 21 6c4.66699 0 8.66699 -0.5 12 -1.5s6.66602 -2.5 9.99902 -4.5l115 -76
c14 -10 21 -22.333 21 -37c0 -10.667 -4 -19.5 -12 -26.5s-18.333 -10.5 -31 -10.5c-5.33301 0 -10 0.666992 -14 2s-8.33301 3.66602 -13 6.99902l-88 61l-88 -61c-8 -6 -16.667 -9 -26 -9z" />
    <glyph glyph-name="udieresis" unicode="&#xfc;" horiz-adv-x="679" 
d="M325 -6c-46.667 0 -88.5 9.83301 -125.5 29.5s-66.167 48.5 -87.5 86.5s-32 84.667 -32 140v255c0 12 4 22 12 30s18 12 30 12c12.667 0 23 -4 31 -12s12 -18 12 -30v-255c0 -40 7.5 -73 22.5 -99s35.5 -45.333 61.5 -58s55.333 -19 88 -19c31.333 0 59.5 6 84.5 18
s44.833 28.667 59.5 50s22 45.333 22 72h58c-1.33301 -42 -12.333 -79.5 -33 -112.5s-48.667 -59.167 -84 -78.5s-75 -29 -119 -29zM546 0c-12.667 0 -23 4 -31 12s-12 18.333 -12 31v462c0 12.667 4 22.834 12 30.501s18.333 11.5 31 11.5s23 -3.83301 31 -11.5
s12 -17.834 12 -30.501v-462c0 -12.667 -4 -23 -12 -31s-18.333 -12 -31 -12zM233 642c-16.667 0 -30.334 5.33301 -41.001 16s-16 24 -16 40c0 15.333 5.33301 28.666 16 39.999s24.334 17 41.001 17c15.333 0 28.5 -5.66699 39.5 -17s16.5 -24.666 16.5 -39.999
c0 -16 -5.5 -29.333 -16.5 -40s-24.167 -16 -39.5 -16zM446 642c-16 0 -29.5 5.33301 -40.5 16s-16.5 24 -16.5 40c0 15.333 5.5 28.666 16.5 39.999s24.5 17 40.5 17c15.333 0 28.666 -5.66699 39.999 -17s17 -24.666 17 -39.999c0 -16 -5.66699 -29.333 -17 -40
s-24.666 -16 -39.999 -16z" />
    <glyph glyph-name="yacute" unicode="&#xfd;" horiz-adv-x="545" 
d="M185 -239c-5.33301 0 -12 1.66699 -20 5c-24.667 11.333 -31.334 29 -20.001 53l317 704c10.667 24 28.334 30.667 53.001 20c24.667 -10 31.667 -27.333 21 -52l-318 -704c-7.33301 -17.333 -18.333 -26 -33 -26zM299 19
c-11.333 -5.33301 -21.665 -6.16895 -30.998 -2.50195s-17 10.834 -23 21.501l-225 453c-5.33301 10.667 -6 20.834 -2 30.501s11.333 17.167 22 22.5c11.333 4.66699 21.666 5.33398 30.999 2.00098s16.666 -10.666 21.999 -21.999l219 -453c6 -10.667 8 -20.834 6 -30.501
s-8.33301 -16.834 -19 -21.501zM275.001 630.997c-12 0 -22.167 4.16699 -30.5 12.5s-12.5 18.5 -12.5 30.5s3.33301 21.667 10 29l108 108c8 8 18 12 30 12c12.667 0 23 -4.16699 31 -12.5s12 -18.833 12 -31.5c0 -5.33301 -1 -10.5 -3 -15.5s-5 -9.5 -9 -13.5l-107 -108
c-8 -7.33301 -17.667 -11 -29 -11z" />
    <glyph glyph-name="thorn" unicode="&#xfe;" horiz-adv-x="706" 
d="M133 -234c-12.667 0 -23 3.99902 -31 11.999s-12 18.333 -12 31v929c0 13.333 4 23.833 12 31.5s18.333 11.5 31 11.5s23 -3.83301 31 -11.5s11.667 -18.167 11 -31.5l-7 -437l-31 -11c0 44 7 82.5 21 115.5s32.667 60.333 56 82s49.333 37.834 78 48.501
s57.667 16 87 16c50.667 0 96 -11.833 136 -35.5s71.5 -56.5 94.5 -98.5s34.5 -90.333 34.5 -145c0 -54 -11.167 -102 -33.5 -144s-53.5 -74.833 -93.5 -98.5s-86 -35.5 -138 -35.5c-45.333 0 -85.5 10.5 -120.5 31.5s-62.833 49.5 -83.5 85.5v-303
c0.666992 -12.667 -3 -23 -11 -31s-18.333 -12 -31 -12zM366 71.999c38.667 0 72.5 8.5 101.5 25.5s51.833 40.667 68.5 71s25 65.166 25 104.499s-8.33301 74.333 -25 105s-39.5 54.5 -68.5 71.5s-62.833 25.5 -101.5 25.5c-37.333 0 -70.666 -8.5 -99.999 -25.5
s-52.166 -40.833 -68.499 -71.5s-24.5 -65.667 -24.5 -105s8.16699 -74.166 24.5 -104.499s39.166 -54 68.499 -71s62.666 -25.5 99.999 -25.5z" />
    <glyph glyph-name="ydieresis" unicode="&#xff;" horiz-adv-x="545" 
d="M185 -239c-5.33301 0 -12 1.66699 -20 5c-24.667 11.333 -31.334 29 -20.001 53l317 704c10.667 24 28.334 30.667 53.001 20c24.667 -10 31.667 -27.333 21 -52l-318 -704c-7.33301 -17.333 -18.333 -26 -33 -26zM299 19
c-11.333 -5.33301 -21.665 -6.16895 -30.998 -2.50195s-17 10.834 -23 21.501l-225 453c-5.33301 10.667 -6 20.834 -2 30.501s11.333 17.167 22 22.5c11.333 4.66699 21.666 5.33398 30.999 2.00098s16.666 -10.666 21.999 -21.999l219 -453c6 -10.667 8 -20.834 6 -30.501
s-8.33301 -16.834 -19 -21.501zM172.001 641.997c-16.667 0 -30.334 5.33301 -41.001 16s-16 24 -16 40c0 15.333 5.33301 28.666 16 39.999s24.334 17 41.001 17c15.333 0 28.5 -5.66699 39.5 -17s16.5 -24.666 16.5 -39.999c0 -16 -5.5 -29.333 -16.5 -40
s-24.167 -16 -39.5 -16zM385.001 641.997c-16 0 -29.5 5.33301 -40.5 16s-16.5 24 -16.5 40c0 15.333 5.5 28.666 16.5 39.999s24.5 17 40.5 17c15.333 0 28.666 -5.66699 39.999 -17s17 -24.666 17 -39.999c0 -16 -5.66699 -29.333 -17 -40s-24.666 -16 -39.999 -16z" />
    <glyph glyph-name="Amacron" unicode="&#x100;" horiz-adv-x="703" 
d="M61 0c-16.667 0 -28.834 6.83105 -36.501 20.498s-8.5 27.5 -2.5 41.5l290 689c8 20 22 30 42 30c19.333 0 33 -10 41 -30l290 -690c6.66699 -14.667 5.83398 -28.5 -2.49902 -41.5s-20.5 -19.5 -36.5 -19.5c-8.66699 0 -16.5 2.33301 -23.5 7s-12.5 11.334 -16.5 20.001
l-266 650h30l-269 -650c-4 -9.33301 -9.5 -16.166 -16.5 -20.499s-14.833 -6.5 -23.5 -6.5zM123 180.998l33 74h401l34 -74h-468zM224 886.998c-12 0 -22.167 3.5 -30.5 10.5s-12.5 16.5 -12.5 28.5s4.16699 21.5 12.5 28.5s18.5 10.5 30.5 10.5h256
c12 0 22.167 -3.5 30.5 -10.5s12.5 -16.5 12.5 -28.5s-4.16699 -21.5 -12.5 -28.5s-18.5 -10.5 -30.5 -10.5h-256z" />
    <glyph glyph-name="amacron" unicode="&#x101;" 
d="M327 -5c-50.667 0 -96.001 12.167 -136.001 36.5s-71.667 57.5 -95 99.5s-35 89.333 -35 142c0 53.333 12.167 101 36.5 143s57.5 75.167 99.5 99.5s89.333 36.5 142 36.5c52 0 98.833 -12.167 140.5 -36.5s74.667 -57.5 99 -99.5s36.833 -89.667 37.5 -143l-34 -16
c0 -49.333 -11.167 -93.833 -33.5 -133.5s-52.666 -71 -90.999 -94s-81.833 -34.5 -130.5 -34.5zM338.999 72c36.667 0 69.667 8.66699 99 26s52.333 41.333 69 72s25 65 25 103c0 38.667 -8.33301 73.167 -25 103.5s-39.667 54.333 -69 72s-62.333 26.5 -99 26.5
s-69.667 -8.83301 -99 -26.5s-52.666 -41.667 -69.999 -72s-26 -64.833 -26 -103.5c0 -38 8.66699 -72.333 26 -103s40.666 -54.667 69.999 -72s62.333 -26 99 -26zM572.999 0c-12.667 0 -23 3.83301 -31 11.5s-12 17.834 -12 30.501v165l19 88l67 -22v-231
c0 -12.667 -4.16699 -22.834 -12.5 -30.501s-18.5 -11.5 -30.5 -11.5zM209.999 653c-12 0 -22.167 3.5 -30.5 10.5s-12.5 16.5 -12.5 28.5s4.16699 21.5 12.5 28.5s18.5 10.5 30.5 10.5h256c12 0 22.167 -3.5 30.5 -10.5s12.5 -16.5 12.5 -28.5s-4.16699 -21.5 -12.5 -28.5
s-18.5 -10.5 -30.5 -10.5h-256z" />
    <glyph glyph-name="Abreve" unicode="&#x102;" horiz-adv-x="703" 
d="M61 0c-16.667 0 -28.834 6.83105 -36.501 20.498s-8.5 27.5 -2.5 41.5l290 689c8 20 22 30 42 30c19.333 0 33 -10 41 -30l290 -690c6.66699 -14.667 5.83398 -28.5 -2.49902 -41.5s-20.5 -19.5 -36.5 -19.5c-8.66699 0 -16.5 2.33301 -23.5 7s-12.5 11.334 -16.5 20.001
l-266 650h30l-269 -650c-4 -9.33301 -9.5 -16.166 -16.5 -20.499s-14.833 -6.5 -23.5 -6.5zM123 180.998l33 74h401l34 -74h-468zM351 855.998c-28.667 0 -54.9961 5.33301 -78.9961 16s-43.167 25 -57.5 43s-21.5 38 -21.5 60c0 12 3.83301 22.333 11.5 31s17.5 13 29.5 13
c10.667 0 20.167 -3.5 28.5 -10.5s12.5 -16.167 12.5 -27.5c0 -15.333 7.5 -28.166 22.5 -38.499s32.833 -15.5 53.5 -15.5c24 0 42.833 5.16699 56.5 15.5s20.5 23.166 20.5 38.499c0 11.333 4.16699 20.5 12.5 27.5s18.166 10.5 29.499 10.5
c12 0 21.667 -4.16699 29 -12.5s11 -18.5 11 -30.5c-0.666992 -23.333 -8.33398 -44 -23.001 -62s-33.834 -32.167 -57.501 -42.5s-49.834 -15.5 -78.501 -15.5z" />
    <glyph glyph-name="abreve" unicode="&#x103;" 
d="M327 -5c-50.667 0 -96.001 12.167 -136.001 36.5s-71.667 57.5 -95 99.5s-35 89.333 -35 142c0 53.333 12.167 101 36.5 143s57.5 75.167 99.5 99.5s89.333 36.5 142 36.5c52 0 98.833 -12.167 140.5 -36.5s74.667 -57.5 99 -99.5s36.833 -89.667 37.5 -143l-34 -16
c0 -49.333 -11.167 -93.833 -33.5 -133.5s-52.666 -71 -90.999 -94s-81.833 -34.5 -130.5 -34.5zM338.999 72c36.667 0 69.667 8.66699 99 26s52.333 41.333 69 72s25 65 25 103c0 38.667 -8.33301 73.167 -25 103.5s-39.667 54.333 -69 72s-62.333 26.5 -99 26.5
s-69.667 -8.83301 -99 -26.5s-52.666 -41.667 -69.999 -72s-26 -64.833 -26 -103.5c0 -38 8.66699 -72.333 26 -103s40.666 -54.667 69.999 -72s62.333 -26 99 -26zM572.999 0c-12.667 0 -23 3.83301 -31 11.5s-12 17.834 -12 30.501v165l19 88l67 -22v-231
c0 -12.667 -4.16699 -22.834 -12.5 -30.501s-18.5 -11.5 -30.5 -11.5zM337.999 622c-28.667 0 -54.9961 5.33301 -78.9961 16s-43.167 25 -57.5 43s-21.5 38 -21.5 60c0 12 3.83301 22.333 11.5 31s17.5 13 29.5 13c10.667 0 20.167 -3.5 28.5 -10.5
s12.5 -16.167 12.5 -27.5c0 -15.333 7.5 -28.166 22.5 -38.499s32.833 -15.5 53.5 -15.5c24 0 42.833 5.16699 56.5 15.5s20.5 23.166 20.5 38.499c0 11.333 4.16699 20.5 12.5 27.5s18.166 10.5 29.499 10.5c12 0 21.667 -4.16699 29 -12.5s11 -18.5 11 -30.5
c-0.666992 -23.333 -8.33398 -44 -23.001 -62s-33.834 -32.167 -57.501 -42.5s-49.834 -15.5 -78.501 -15.5z" />
    <glyph glyph-name="Aogonek" unicode="&#x104;" horiz-adv-x="703" 
d="M61 0c-16.667 0 -28.834 6.83105 -36.501 20.498s-8.5 27.5 -2.5 41.5l290 689c8 20 22 30 42 30c19.333 0 33 -10 41 -30l290 -690c6.66699 -14.667 5.83398 -28.5 -2.49902 -41.5s-20.5 -19.5 -36.5 -19.5c-8.66699 0 -16.5 2.33301 -23.5 7s-12.5 11.334 -16.5 20.001
l-266 650h30l-269 -650c-4 -9.33301 -9.5 -16.166 -16.5 -20.499s-14.833 -6.5 -23.5 -6.5zM123 180.998l33 74h401l34 -74h-468zM643 -241.002c-21.333 0 -41.001 5.33301 -59.001 16s-32.5 25.167 -43.5 43.5s-16.5 38.5 -16.5 60.5c0 37.333 16.667 70 50 98
c8.66699 6 15.5 12.167 20.5 18.5s8.83301 12.5 11.5 18.5c8 14.667 20.333 22 37 22c12.667 0 22.834 -3.83301 30.501 -11.5s11.834 -17.834 12.501 -30.501c0 -14.667 -5.16699 -29 -15.5 -43s-25.833 -28.667 -46.5 -44
c-4.66699 -3.33301 -8.16699 -7.66602 -10.5 -12.999s-3.5 -10.333 -3.5 -15c0 -9.33301 3.16699 -17.333 9.5 -24s14.166 -10 23.499 -10c3.33301 0 6.66602 0.5 9.99902 1.5s6 2.5 8 4.5l33 24c8.66699 6 17.334 9 26.001 9c12.667 0 23 -4.16699 31 -12.5
s12 -18.5 12 -30.5c0 -13.333 -5 -25 -15 -35l-39 -25c-20 -14.667 -42 -22 -66 -22z" />
    <glyph glyph-name="aogonek" unicode="&#x105;" 
d="M327 -5c-50.667 0 -96.001 12.167 -136.001 36.5s-71.667 57.5 -95 99.5s-35 89.333 -35 142c0 53.333 12.167 101 36.5 143s57.5 75.167 99.5 99.5s89.333 36.5 142 36.5c52 0 98.833 -12.167 140.5 -36.5s74.667 -57.5 99 -99.5s36.833 -89.667 37.5 -143l-34 -16
c0 -49.333 -11.167 -93.833 -33.5 -133.5s-52.666 -71 -90.999 -94s-81.833 -34.5 -130.5 -34.5zM338.999 72c36.667 0 69.667 8.66699 99 26s52.333 41.333 69 72s25 65 25 103c0 38.667 -8.33301 73.167 -25 103.5s-39.667 54.333 -69 72s-62.333 26.5 -99 26.5
s-69.667 -8.83301 -99 -26.5s-52.666 -41.667 -69.999 -72s-26 -64.833 -26 -103.5c0 -38 8.66699 -72.333 26 -103s40.666 -54.667 69.999 -72s62.333 -26 99 -26zM572.999 0c-12.667 0 -23 3.83301 -31 11.5s-12 17.834 -12 30.501v165l19 88l67 -22v-231
c0 -12.667 -4.16699 -22.834 -12.5 -30.501s-18.5 -11.5 -30.5 -11.5zM608.999 -267c-21.333 0 -41.001 5.33301 -59.001 16s-32.5 25.167 -43.5 43.5s-16.5 38.5 -16.5 60.5c0 37.333 16.667 70 50 98c8.66699 6 15.5 12.167 20.5 18.5s8.83301 12.5 11.5 18.5
c8 14.667 20.333 22 37 22c12.667 0 22.834 -3.83301 30.501 -11.5s11.834 -17.834 12.501 -30.501c0 -14.667 -5.16699 -29 -15.5 -43s-25.833 -28.667 -46.5 -44c-4.66699 -3.33301 -8.16699 -7.66602 -10.5 -12.999s-3.5 -10.333 -3.5 -15
c0 -9.33301 3.16699 -17.333 9.5 -24s14.166 -10 23.499 -10c3.33301 0 6.66602 0.5 9.99902 1.5s6 2.5 8 4.5l33 24c8.66699 6 17.334 9 26.001 9c12.667 0 23 -4.16699 31 -12.5s12 -18.5 12 -30.5c0 -13.333 -5 -25 -15 -35l-39 -25c-20 -14.667 -42 -22 -66 -22z" />
    <glyph glyph-name="Cacute" unicode="&#x106;" horiz-adv-x="773" 
d="M451 -10c-54 0 -104.5 10.334 -151.5 31.001s-88.333 49.334 -124 86.001s-63.334 79.167 -83.001 127.5s-29.5 100.5 -29.5 156.5c0 55.333 9.83301 107.166 29.5 155.499s47.167 90.666 82.5 126.999s76.5 65 123.5 86s97.833 31.5 152.5 31.5
c48.667 0 92.334 -6.83301 131.001 -20.5s76.334 -35.834 113.001 -66.501c6 -4.66699 9.83301 -9.83398 11.5 -15.501s1.83398 -11.167 0.500977 -16.5s-4 -9.66602 -8 -12.999c-0.666992 -8 -4.33398 -14.333 -11.001 -19s-14.334 -6.83398 -23.001 -6.50098
s-17.334 3.83301 -26.001 10.5c-25.333 22 -52.666 38.5 -81.999 49.5s-64.666 16.5 -105.999 16.5c-42 0 -81.333 -8.33301 -118 -25s-69 -39.667 -97 -69s-49.833 -63.333 -65.5 -102s-23.5 -79.667 -23.5 -123c0 -44.667 7.83301 -86.167 23.5 -124.5
s37.5 -72.166 65.5 -101.499s60.333 -52.333 97 -69s76 -25 118 -25c35.333 0 69 6 101 18s62.333 29 91 51c9.33301 7.33301 19 10.333 29 9s18.5 -5.66602 25.5 -12.999s10.5 -17 10.5 -29c0 -5.33301 -1 -10.5 -3 -15.5s-5 -10.167 -9 -15.5
c-34.667 -30 -72.834 -51.833 -114.501 -65.5s-85.167 -20.5 -130.5 -20.5zM444 865.001c-12 0 -22.167 4.16699 -30.5 12.5s-12.5 18.5 -12.5 30.5s3.33301 21.667 10 29l108 108c8 8 18 12 30 12c12.667 0 23 -4.16699 31 -12.5s12 -18.833 12 -31.5
c0 -5.33301 -1 -10.5 -3 -15.5s-5 -9.5 -9 -13.5l-107 -108c-8 -7.33301 -17.667 -11 -29 -11z" />
    <glyph glyph-name="cacute" unicode="&#x107;" horiz-adv-x="598" 
d="M335 -5c-52.667 0 -99.666 12.166 -140.999 36.499s-73.833 57.5 -97.5 99.5s-35.5 89.333 -35.5 142c0 53.333 11.5 101 34.5 143s54.333 75.167 94 99.5s85.5 36.5 137.5 36.5c40 0 77 -7.83301 111 -23.5s64 -39.167 90 -70.5c8 -9.33301 10.833 -18.833 8.5 -28.5
s-8.5 -18.167 -18.5 -25.5c-8 -6 -17 -8 -27 -6s-18.667 7.33301 -26 16c-36.667 40.667 -82.667 61 -138 61c-36 0 -67.833 -8.66699 -95.5 -26s-49.167 -41 -64.5 -71s-23 -65 -23 -105c0 -38.667 8 -73.167 24 -103.5s38.5 -54.166 67.5 -71.499s62.167 -26 99.5 -26
c25.333 0 48.166 3.33301 68.499 10s38.5 16.667 54.5 30c8.66699 7.33301 17.834 11.5 27.501 12.5s18.5 -1.83301 26.5 -8.5c8.66699 -8 13.667 -17 15 -27s-2 -19 -10 -27c-48.667 -44.667 -109.334 -67 -182.001 -67zM324.001 630.999c-12 0 -22.167 4.16699 -30.5 12.5
s-12.5 18.5 -12.5 30.5s3.33301 21.667 10 29l108 108c8 8 18 12 30 12c12.667 0 23 -4.16699 31 -12.5s12 -18.833 12 -31.5c0 -5.33301 -1 -10.5 -3 -15.5s-5 -9.5 -9 -13.5l-107 -108c-8 -7.33301 -17.667 -11 -29 -11z" />
    <glyph glyph-name="Ccircumflex" unicode="&#x108;" horiz-adv-x="773" 
d="M451 -10c-54 0 -104.5 10.334 -151.5 31.001s-88.333 49.334 -124 86.001s-63.334 79.167 -83.001 127.5s-29.5 100.5 -29.5 156.5c0 55.333 9.83301 107.166 29.5 155.499s47.167 90.666 82.5 126.999s76.5 65 123.5 86s97.833 31.5 152.5 31.5
c48.667 0 92.334 -6.83301 131.001 -20.5s76.334 -35.834 113.001 -66.501c6 -4.66699 9.83301 -9.83398 11.5 -15.501s1.83398 -11.167 0.500977 -16.5s-4 -9.66602 -8 -12.999c-0.666992 -8 -4.33398 -14.333 -11.001 -19s-14.334 -6.83398 -23.001 -6.50098
s-17.334 3.83301 -26.001 10.5c-25.333 22 -52.666 38.5 -81.999 49.5s-64.666 16.5 -105.999 16.5c-42 0 -81.333 -8.33301 -118 -25s-69 -39.667 -97 -69s-49.833 -63.333 -65.5 -102s-23.5 -79.667 -23.5 -123c0 -44.667 7.83301 -86.167 23.5 -124.5
s37.5 -72.166 65.5 -101.499s60.333 -52.333 97 -69s76 -25 118 -25c35.333 0 69 6 101 18s62.333 29 91 51c9.33301 7.33301 19 10.333 29 9s18.5 -5.66602 25.5 -12.999s10.5 -17 10.5 -29c0 -5.33301 -1 -10.5 -3 -15.5s-5 -10.167 -9 -15.5
c-34.667 -30 -72.834 -51.833 -114.501 -65.5s-85.167 -20.5 -130.5 -20.5zM333 862.001c-12.667 0 -23.166 3.33398 -31.499 10.001s-12.5 15.667 -12.5 27c0 14.667 7 27 21 37l116 76c6 4 13 6 21 6c4.66699 0 8.66699 -0.5 12 -1.5s6.66602 -2.5 9.99902 -4.5l115 -76
c14 -10 21 -22.333 21 -37c0 -10.667 -4 -19.5 -12 -26.5s-18.333 -10.5 -31 -10.5c-5.33301 0 -10 0.666992 -14 2s-8.33301 3.66602 -13 6.99902l-88 61l-88 -61c-8 -6 -16.667 -9 -26 -9z" />
    <glyph glyph-name="ccircumflex" unicode="&#x109;" horiz-adv-x="598" 
d="M335 -5c-52.667 0 -99.666 12.166 -140.999 36.499s-73.833 57.5 -97.5 99.5s-35.5 89.333 -35.5 142c0 53.333 11.5 101 34.5 143s54.333 75.167 94 99.5s85.5 36.5 137.5 36.5c40 0 77 -7.83301 111 -23.5s64 -39.167 90 -70.5c8 -9.33301 10.833 -18.833 8.5 -28.5
s-8.5 -18.167 -18.5 -25.5c-8 -6 -17 -8 -27 -6s-18.667 7.33301 -26 16c-36.667 40.667 -82.667 61 -138 61c-36 0 -67.833 -8.66699 -95.5 -26s-49.167 -41 -64.5 -71s-23 -65 -23 -105c0 -38.667 8 -73.167 24 -103.5s38.5 -54.166 67.5 -71.499s62.167 -26 99.5 -26
c25.333 0 48.166 3.33301 68.499 10s38.5 16.667 54.5 30c8.66699 7.33301 17.834 11.5 27.501 12.5s18.5 -1.83301 26.5 -8.5c8.66699 -8 13.667 -17 15 -27s-2 -19 -10 -27c-48.667 -44.667 -109.334 -67 -182.001 -67zM213.001 627.999
c-12.667 0 -23.166 3.33398 -31.499 10.001s-12.5 15.667 -12.5 27c0 14.667 7 27 21 37l116 76c6 4 13 6 21 6c4.66699 0 8.66699 -0.5 12 -1.5s6.66602 -2.5 9.99902 -4.5l115 -76c14 -10 21 -22.333 21 -37c0 -10.667 -4 -19.5 -12 -26.5s-18.333 -10.5 -31 -10.5
c-5.33301 0 -10 0.666992 -14 2s-8.33301 3.66602 -13 6.99902l-88 61l-88 -61c-8 -6 -16.667 -9 -26 -9z" />
    <glyph glyph-name="Cdotaccent" unicode="&#x10a;" horiz-adv-x="773" 
d="M451 -10c-54 0 -104.5 10.334 -151.5 31.001s-88.333 49.334 -124 86.001s-63.334 79.167 -83.001 127.5s-29.5 100.5 -29.5 156.5c0 55.333 9.83301 107.166 29.5 155.499s47.167 90.666 82.5 126.999s76.5 65 123.5 86s97.833 31.5 152.5 31.5
c48.667 0 92.334 -6.83301 131.001 -20.5s76.334 -35.834 113.001 -66.501c6 -4.66699 9.83301 -9.83398 11.5 -15.501s1.83398 -11.167 0.500977 -16.5s-4 -9.66602 -8 -12.999c-0.666992 -8 -4.33398 -14.333 -11.001 -19s-14.334 -6.83398 -23.001 -6.50098
s-17.334 3.83301 -26.001 10.5c-25.333 22 -52.666 38.5 -81.999 49.5s-64.666 16.5 -105.999 16.5c-42 0 -81.333 -8.33301 -118 -25s-69 -39.667 -97 -69s-49.833 -63.333 -65.5 -102s-23.5 -79.667 -23.5 -123c0 -44.667 7.83301 -86.167 23.5 -124.5
s37.5 -72.166 65.5 -101.499s60.333 -52.333 97 -69s76 -25 118 -25c35.333 0 69 6 101 18s62.333 29 91 51c9.33301 7.33301 19 10.333 29 9s18.5 -5.66602 25.5 -12.999s10.5 -17 10.5 -29c0 -5.33301 -1 -10.5 -3 -15.5s-5 -10.167 -9 -15.5
c-34.667 -30 -72.834 -51.833 -114.501 -65.5s-85.167 -20.5 -130.5 -20.5zM446 880.001c-16 0 -29.667 5.66699 -41 17s-17 25.333 -17 42s5.83301 30.5 17.5 41.5s25.5 16.5 41.5 16.5c15.333 0 28.833 -5.5 40.5 -16.5s17.5 -24.833 17.5 -41.5
s-5.83301 -30.667 -17.5 -42s-25.5 -17 -41.5 -17z" />
    <glyph glyph-name="cdotaccent" unicode="&#x10b;" horiz-adv-x="598" 
d="M335 -5c-52.667 0 -99.666 12.166 -140.999 36.499s-73.833 57.5 -97.5 99.5s-35.5 89.333 -35.5 142c0 53.333 11.5 101 34.5 143s54.333 75.167 94 99.5s85.5 36.5 137.5 36.5c40 0 77 -7.83301 111 -23.5s64 -39.167 90 -70.5c8 -9.33301 10.833 -18.833 8.5 -28.5
s-8.5 -18.167 -18.5 -25.5c-8 -6 -17 -8 -27 -6s-18.667 7.33301 -26 16c-36.667 40.667 -82.667 61 -138 61c-36 0 -67.833 -8.66699 -95.5 -26s-49.167 -41 -64.5 -71s-23 -65 -23 -105c0 -38.667 8 -73.167 24 -103.5s38.5 -54.166 67.5 -71.499s62.167 -26 99.5 -26
c25.333 0 48.166 3.33301 68.499 10s38.5 16.667 54.5 30c8.66699 7.33301 17.834 11.5 27.501 12.5s18.5 -1.83301 26.5 -8.5c8.66699 -8 13.667 -17 15 -27s-2 -19 -10 -27c-48.667 -44.667 -109.334 -67 -182.001 -67zM326.001 645.999c-16 0 -29.667 5.66699 -41 17
s-17 25.333 -17 42s5.83301 30.5 17.5 41.5s25.5 16.5 41.5 16.5c15.333 0 28.833 -5.5 40.5 -16.5s17.5 -24.833 17.5 -41.5s-5.83301 -30.667 -17.5 -42s-25.5 -17 -41.5 -17z" />
    <glyph glyph-name="Ccaron" unicode="&#x10c;" horiz-adv-x="773" 
d="M451 -10c-54 0 -104.5 10.334 -151.5 31.001s-88.333 49.334 -124 86.001s-63.334 79.167 -83.001 127.5s-29.5 100.5 -29.5 156.5c0 55.333 9.83301 107.166 29.5 155.499s47.167 90.666 82.5 126.999s76.5 65 123.5 86s97.833 31.5 152.5 31.5
c48.667 0 92.334 -6.83301 131.001 -20.5s76.334 -35.834 113.001 -66.501c6 -4.66699 9.83301 -9.83398 11.5 -15.501s1.83398 -11.167 0.500977 -16.5s-4 -9.66602 -8 -12.999c-0.666992 -8 -4.33398 -14.333 -11.001 -19s-14.334 -6.83398 -23.001 -6.50098
s-17.334 3.83301 -26.001 10.5c-25.333 22 -52.666 38.5 -81.999 49.5s-64.666 16.5 -105.999 16.5c-42 0 -81.333 -8.33301 -118 -25s-69 -39.667 -97 -69s-49.833 -63.333 -65.5 -102s-23.5 -79.667 -23.5 -123c0 -44.667 7.83301 -86.167 23.5 -124.5
s37.5 -72.166 65.5 -101.499s60.333 -52.333 97 -69s76 -25 118 -25c35.333 0 69 6 101 18s62.333 29 91 51c9.33301 7.33301 19 10.333 29 9s18.5 -5.66602 25.5 -12.999s10.5 -17 10.5 -29c0 -5.33301 -1 -10.5 -3 -15.5s-5 -10.167 -9 -15.5
c-34.667 -30 -72.834 -51.833 -114.501 -65.5s-85.167 -20.5 -130.5 -20.5zM447 868.001c-9.33301 0 -16.334 1.99902 -21.001 5.99902l-116 77c-14 10 -21 22 -21 36c0 13.333 7 22.833 21 28.5s30.333 1.83398 49 -11.499l88 -59l88 59c21.333 14 38.333 17.833 51 11.5
s19 -15.833 19 -28.5c0 -14 -7 -26 -21 -36l-115 -77c-5.33301 -4 -12.666 -6 -21.999 -6z" />
    <glyph glyph-name="ccaron" unicode="&#x10d;" horiz-adv-x="598" 
d="M335 -5c-52.667 0 -99.666 12.166 -140.999 36.499s-73.833 57.5 -97.5 99.5s-35.5 89.333 -35.5 142c0 53.333 11.5 101 34.5 143s54.333 75.167 94 99.5s85.5 36.5 137.5 36.5c40 0 77 -7.83301 111 -23.5s64 -39.167 90 -70.5c8 -9.33301 10.833 -18.833 8.5 -28.5
s-8.5 -18.167 -18.5 -25.5c-8 -6 -17 -8 -27 -6s-18.667 7.33301 -26 16c-36.667 40.667 -82.667 61 -138 61c-36 0 -67.833 -8.66699 -95.5 -26s-49.167 -41 -64.5 -71s-23 -65 -23 -105c0 -38.667 8 -73.167 24 -103.5s38.5 -54.166 67.5 -71.499s62.167 -26 99.5 -26
c25.333 0 48.166 3.33301 68.499 10s38.5 16.667 54.5 30c8.66699 7.33301 17.834 11.5 27.501 12.5s18.5 -1.83301 26.5 -8.5c8.66699 -8 13.667 -17 15 -27s-2 -19 -10 -27c-48.667 -44.667 -109.334 -67 -182.001 -67zM327.001 633.999
c-9.33301 0 -16.334 1.99902 -21.001 5.99902l-116 77c-14 10 -21 22 -21 36c0 13.333 7 22.833 21 28.5s30.333 1.83398 49 -11.499l88 -59l88 59c21.333 14 38.333 17.833 51 11.5s19 -15.833 19 -28.5c0 -14 -7 -26 -21 -36l-115 -77c-5.33301 -4 -12.666 -6 -21.999 -6z
" />
    <glyph glyph-name="Dcaron" unicode="&#x10e;" horiz-adv-x="774" 
d="M143 0c-12 0 -22.167 4.16602 -30.5 12.499s-12.5 18.5 -12.5 30.5v695c0 12.667 4.16699 23 12.5 31s18.5 12 30.5 12h181c57.333 0 109.666 -9.5 156.999 -28.5s88.333 -46 123 -81s61.5 -76.167 80.5 -123.5s28.5 -99.666 28.5 -156.999s-9.5 -109.833 -28.5 -157.5
s-45.833 -89 -80.5 -124s-75.667 -62 -123 -81s-99.666 -28.5 -156.999 -28.5h-181zM187 76.999h137c59.333 0 111.833 13.5 157.5 40.5s81.5 64.167 107.5 111.5s39 101.333 39 162s-13 114.667 -39 162s-61.833 84.333 -107.5 111s-98.167 40 -157.5 40h-137v-627z
M388 867.999c-9.33301 0 -16.334 1.99902 -21.001 5.99902l-116 77c-14 10 -21 22 -21 36c0 13.333 7 22.833 21 28.5s30.333 1.83398 49 -11.499l88 -59l88 59c21.333 14 38.333 17.833 51 11.5s19 -15.833 19 -28.5c0 -14 -7 -26 -21 -36l-115 -77
c-5.33301 -4 -12.666 -6 -21.999 -6z" />
    <glyph glyph-name="dcaron" unicode="&#x10f;" horiz-adv-x="795" 
d="M339 -5c-52.667 0 -100.002 12.167 -142.002 36.5s-75.167 57.5 -99.5 99.5s-36.5 89.667 -36.5 143c0 52.667 11.667 100 35 142s55 75.167 95 99.5s85.333 36.5 136 36.5c42.667 0 81.5 -9.16699 116.5 -27.5s63.833 -42.5 86.5 -72.5v286c0 13.333 4 23.833 12 31.5
s18.333 11.5 31 11.5s23 -3.83301 31 -11.5s12 -18.167 12 -31.5v-467c-1.33301 -52 -14.166 -98.833 -38.499 -140.5s-57.166 -74.667 -98.499 -99s-88 -36.5 -140 -36.5zM338.998 72c36.667 0 69.667 8.83301 99 26.5s52.333 41.667 69 72s25 64.833 25 103.5
c0 38 -8.33301 72.333 -25 103s-39.667 54.667 -69 72s-62.333 26 -99 26s-69.667 -8.66699 -99 -26s-52.666 -41.333 -69.999 -72s-26 -65 -26 -103c0 -38.667 8.66699 -73.167 26 -103.5s40.666 -54.333 69.999 -72s62.333 -26.5 99 -26.5zM687.998 517
c-7.33301 1.33301 -13 4.16895 -17 8.50195s-5.66699 10.166 -5 17.499c1.33301 9.33301 5.83301 19.5 13.5 30.5s15.5 23 23.5 36s13 28.167 15 45.5c1.33301 13.333 0.5 24.166 -2.5 32.499l-9.5 25.5c-3.33301 8.66699 -5 19.667 -5 33c0 14 4.66699 24.167 14 30.5
s20.333 9.5 33 9.5c20.667 0 36 -9.66699 46 -29s13 -42 9 -68c-2 -20 -7.5 -40.333 -16.5 -61s-19.667 -39.667 -32 -57s-24.5 -31 -36.5 -41s-22 -14.333 -30 -13z" />
    <glyph glyph-name="Dcroat" unicode="&#x110;" horiz-adv-x="774" 
d="M41 353c-12 0 -21.833 3.33301 -29.5 10s-11.5 16 -11.5 28s3.83301 21.333 11.5 28s17.5 10 29.5 10h288c12.667 0 22.834 -3.33301 30.501 -10s11.5 -16 11.5 -28s-3.83301 -21.333 -11.5 -28s-17.834 -10 -30.501 -10h-288zM143 0c-12 0 -22.167 4.16602 -30.5 12.499
s-12.5 18.5 -12.5 30.5v695c0 12.667 4.16699 23 12.5 31s18.5 12 30.5 12h181c57.333 0 109.666 -9.5 156.999 -28.5s88.333 -46 123 -81s61.5 -76.167 80.5 -123.5s28.5 -99.666 28.5 -156.999s-9.5 -109.833 -28.5 -157.5s-45.833 -89 -80.5 -124s-75.667 -62 -123 -81
s-99.666 -28.5 -156.999 -28.5h-181zM187 76.999h137c59.333 0 111.833 13.5 157.5 40.5s81.5 64.167 107.5 111.5s39 101.333 39 162s-13 114.667 -39 162s-61.833 84.333 -107.5 111s-98.167 40 -157.5 40h-137v-627z" />
    <glyph glyph-name="dcroat" unicode="&#x111;" horiz-adv-x="706" 
d="M375 617c-12 0 -22 3.5 -30 10.5s-12 15.167 -12 24.5c0 11.333 4 20 12 26s18 9 30 9h288c12.667 0 23 -3 31 -9s12 -14.667 12 -26c0 -9.33301 -4 -17.5 -12 -24.5s-18.333 -10.5 -31 -10.5h-288zM339 -5c-52.667 0 -100.002 12.167 -142.002 36.5
s-75.167 57.5 -99.5 99.5s-36.5 89.667 -36.5 143c0 52.667 11.667 100 35 142s55 75.167 95 99.5s85.333 36.5 136 36.5c42.667 0 81.5 -9.16699 116.5 -27.5s63.833 -42.5 86.5 -72.5v286c0 13.333 4 23.833 12 31.5s18.333 11.5 31 11.5s23 -3.83301 31 -11.5
s12 -18.167 12 -31.5v-467c-1.33301 -52 -14.166 -98.833 -38.499 -140.5s-57.166 -74.667 -98.499 -99s-88 -36.5 -140 -36.5zM338.998 72c36.667 0 69.667 8.83301 99 26.5s52.333 41.667 69 72s25 64.833 25 103.5c0 38 -8.33301 72.333 -25 103s-39.667 54.667 -69 72
s-62.333 26 -99 26s-69.667 -8.66699 -99 -26s-52.666 -41.333 -69.999 -72s-26 -65 -26 -103c0 -38.667 8.66699 -73.167 26 -103.5s40.666 -54.333 69.999 -72s62.333 -26.5 99 -26.5z" />
    <glyph glyph-name="Emacron" unicode="&#x112;" horiz-adv-x="695" 
d="M143 0c-12 0 -22.167 4.16895 -30.5 12.502s-12.5 18.5 -12.5 30.5v695c0 12.667 4.16699 23 12.5 31s18.5 12 30.5 12h464c12 0 22.167 -3.83301 30.5 -11.5s12.5 -17.834 12.5 -30.501c0 -11.333 -4.16699 -20.833 -12.5 -28.5s-18.5 -11.5 -30.5 -11.5h-420v-265h304
c12.667 0 23 -4 31 -12s12 -17.667 12 -29c0 -12 -4 -22 -12 -30s-18.333 -12 -31 -12h-304v-269h420c12 0 22.167 -3.83301 30.5 -11.5s12.5 -17.167 12.5 -28.5c0 -12.667 -4.16699 -22.834 -12.5 -30.501s-18.5 -11.5 -30.5 -11.5h-464zM256 887.002
c-12 0 -22.167 3.5 -30.5 10.5s-12.5 16.5 -12.5 28.5s4.16699 21.5 12.5 28.5s18.5 10.5 30.5 10.5h256c12 0 22.167 -3.5 30.5 -10.5s12.5 -16.5 12.5 -28.5s-4.16699 -21.5 -12.5 -28.5s-18.5 -10.5 -30.5 -10.5h-256z" />
    <glyph glyph-name="emacron" unicode="&#x113;" horiz-adv-x="616" 
d="M341 -5c-54.667 0 -102.995 11.8311 -144.995 35.498s-75 56.5 -99 98.5s-36 90 -36 144c0 54.667 11.333 102.834 34 144.501s53.834 74.5 93.501 98.5s85.5 36 137.5 36c51.333 0 95.666 -11.5 132.999 -34.5s66.166 -54.833 86.499 -95.5s30.5 -87 30.5 -139
c0 -11.333 -3.66699 -20.5 -11 -27.5s-16.666 -10.5 -27.999 -10.5h-418v69h422l-42 -30c0 36.667 -7 69.667 -21 99s-33.833 52.333 -59.5 69s-56.5 25 -92.5 25c-38 0 -71 -8.83301 -99 -26.5s-49.667 -41.834 -65 -72.501s-23 -65.667 -23 -105
s8.66699 -74.166 26 -104.499s41.166 -54.333 71.499 -72s65.166 -26.5 104.499 -26.5c22.667 0 45.834 4 69.501 12s42.5 18 56.5 30c8 6.66699 17.167 10.167 27.5 10.5s19.166 -2.5 26.499 -8.5c9.33301 -8.66699 14.166 -18.167 14.499 -28.5
s-3.83398 -19.166 -12.501 -26.499c-22.667 -18.667 -50.834 -34 -84.501 -46s-66.167 -18 -97.5 -18zM191.005 652.998c-12 0 -22.167 3.5 -30.5 10.5s-12.5 16.5 -12.5 28.5s4.16699 21.5 12.5 28.5s18.5 10.5 30.5 10.5h256c12 0 22.167 -3.5 30.5 -10.5
s12.5 -16.5 12.5 -28.5s-4.16699 -21.5 -12.5 -28.5s-18.5 -10.5 -30.5 -10.5h-256z" />
    <glyph glyph-name="Ebreve" unicode="&#x114;" horiz-adv-x="695" 
d="M143 0c-12 0 -22.167 4.16895 -30.5 12.502s-12.5 18.5 -12.5 30.5v695c0 12.667 4.16699 23 12.5 31s18.5 12 30.5 12h464c12 0 22.167 -3.83301 30.5 -11.5s12.5 -17.834 12.5 -30.501c0 -11.333 -4.16699 -20.833 -12.5 -28.5s-18.5 -11.5 -30.5 -11.5h-420v-265h304
c12.667 0 23 -4 31 -12s12 -17.667 12 -29c0 -12 -4 -22 -12 -30s-18.333 -12 -31 -12h-304v-269h420c12 0 22.167 -3.83301 30.5 -11.5s12.5 -17.167 12.5 -28.5c0 -12.667 -4.16699 -22.834 -12.5 -30.501s-18.5 -11.5 -30.5 -11.5h-464zM383 856.002
c-28.667 0 -54.9961 5.33301 -78.9961 16s-43.167 25 -57.5 43s-21.5 38 -21.5 60c0 12 3.83301 22.333 11.5 31s17.5 13 29.5 13c10.667 0 20.167 -3.5 28.5 -10.5s12.5 -16.167 12.5 -27.5c0 -15.333 7.5 -28.166 22.5 -38.499s32.833 -15.5 53.5 -15.5
c24 0 42.833 5.16699 56.5 15.5s20.5 23.166 20.5 38.499c0 11.333 4.16699 20.5 12.5 27.5s18.166 10.5 29.499 10.5c12 0 21.667 -4.16699 29 -12.5s11 -18.5 11 -30.5c-0.666992 -23.333 -8.33398 -44 -23.001 -62s-33.834 -32.167 -57.501 -42.5
s-49.834 -15.5 -78.501 -15.5z" />
    <glyph glyph-name="ebreve" unicode="&#x115;" horiz-adv-x="616" 
d="M341 -5c-54.667 0 -102.995 11.8311 -144.995 35.498s-75 56.5 -99 98.5s-36 90 -36 144c0 54.667 11.333 102.834 34 144.501s53.834 74.5 93.501 98.5s85.5 36 137.5 36c51.333 0 95.666 -11.5 132.999 -34.5s66.166 -54.833 86.499 -95.5s30.5 -87 30.5 -139
c0 -11.333 -3.66699 -20.5 -11 -27.5s-16.666 -10.5 -27.999 -10.5h-418v69h422l-42 -30c0 36.667 -7 69.667 -21 99s-33.833 52.333 -59.5 69s-56.5 25 -92.5 25c-38 0 -71 -8.83301 -99 -26.5s-49.667 -41.834 -65 -72.501s-23 -65.667 -23 -105
s8.66699 -74.166 26 -104.499s41.166 -54.333 71.499 -72s65.166 -26.5 104.499 -26.5c22.667 0 45.834 4 69.501 12s42.5 18 56.5 30c8 6.66699 17.167 10.167 27.5 10.5s19.166 -2.5 26.499 -8.5c9.33301 -8.66699 14.166 -18.167 14.499 -28.5
s-3.83398 -19.166 -12.501 -26.499c-22.667 -18.667 -50.834 -34 -84.501 -46s-66.167 -18 -97.5 -18zM318.005 621.998c-28.667 0 -54.9961 5.33301 -78.9961 16s-43.167 25 -57.5 43s-21.5 38 -21.5 60c0 12 3.83301 22.333 11.5 31s17.5 13 29.5 13
c10.667 0 20.167 -3.5 28.5 -10.5s12.5 -16.167 12.5 -27.5c0 -15.333 7.5 -28.166 22.5 -38.499s32.833 -15.5 53.5 -15.5c24 0 42.833 5.16699 56.5 15.5s20.5 23.166 20.5 38.499c0 11.333 4.16699 20.5 12.5 27.5s18.166 10.5 29.499 10.5
c12 0 21.667 -4.16699 29 -12.5s11 -18.5 11 -30.5c-0.666992 -23.333 -8.33398 -44 -23.001 -62s-33.834 -32.167 -57.501 -42.5s-49.834 -15.5 -78.501 -15.5z" />
    <glyph glyph-name="Edotaccent" unicode="&#x116;" horiz-adv-x="695" 
d="M143 0c-12 0 -22.167 4.16895 -30.5 12.502s-12.5 18.5 -12.5 30.5v695c0 12.667 4.16699 23 12.5 31s18.5 12 30.5 12h464c12 0 22.167 -3.83301 30.5 -11.5s12.5 -17.834 12.5 -30.501c0 -11.333 -4.16699 -20.833 -12.5 -28.5s-18.5 -11.5 -30.5 -11.5h-420v-265h304
c12.667 0 23 -4 31 -12s12 -17.667 12 -29c0 -12 -4 -22 -12 -30s-18.333 -12 -31 -12h-304v-269h420c12 0 22.167 -3.83301 30.5 -11.5s12.5 -17.167 12.5 -28.5c0 -12.667 -4.16699 -22.834 -12.5 -30.501s-18.5 -11.5 -30.5 -11.5h-464zM383 880.002
c-16 0 -29.667 5.66699 -41 17s-17 25.333 -17 42s5.83301 30.5 17.5 41.5s25.5 16.5 41.5 16.5c15.333 0 28.833 -5.5 40.5 -16.5s17.5 -24.833 17.5 -41.5s-5.83301 -30.667 -17.5 -42s-25.5 -17 -41.5 -17z" />
    <glyph glyph-name="edotaccent" unicode="&#x117;" horiz-adv-x="616" 
d="M341 -5c-54.667 0 -102.995 11.8311 -144.995 35.498s-75 56.5 -99 98.5s-36 90 -36 144c0 54.667 11.333 102.834 34 144.501s53.834 74.5 93.501 98.5s85.5 36 137.5 36c51.333 0 95.666 -11.5 132.999 -34.5s66.166 -54.833 86.499 -95.5s30.5 -87 30.5 -139
c0 -11.333 -3.66699 -20.5 -11 -27.5s-16.666 -10.5 -27.999 -10.5h-418v69h422l-42 -30c0 36.667 -7 69.667 -21 99s-33.833 52.333 -59.5 69s-56.5 25 -92.5 25c-38 0 -71 -8.83301 -99 -26.5s-49.667 -41.834 -65 -72.501s-23 -65.667 -23 -105
s8.66699 -74.166 26 -104.499s41.166 -54.333 71.499 -72s65.166 -26.5 104.499 -26.5c22.667 0 45.834 4 69.501 12s42.5 18 56.5 30c8 6.66699 17.167 10.167 27.5 10.5s19.166 -2.5 26.499 -8.5c9.33301 -8.66699 14.166 -18.167 14.499 -28.5
s-3.83398 -19.166 -12.501 -26.499c-22.667 -18.667 -50.834 -34 -84.501 -46s-66.167 -18 -97.5 -18zM319.005 645.998c-16 0 -29.667 5.66699 -41 17s-17 25.333 -17 42s5.83301 30.5 17.5 41.5s25.5 16.5 41.5 16.5c15.333 0 28.833 -5.5 40.5 -16.5
s17.5 -24.833 17.5 -41.5s-5.83301 -30.667 -17.5 -42s-25.5 -17 -41.5 -17z" />
    <glyph glyph-name="Eogonek" unicode="&#x118;" horiz-adv-x="695" 
d="M143 0c-12 0 -22.167 4.16895 -30.5 12.502s-12.5 18.5 -12.5 30.5v695c0 12.667 4.16699 23 12.5 31s18.5 12 30.5 12h464c12 0 22.167 -3.83301 30.5 -11.5s12.5 -17.834 12.5 -30.501c0 -11.333 -4.16699 -20.833 -12.5 -28.5s-18.5 -11.5 -30.5 -11.5h-420v-265h304
c12.667 0 23 -4 31 -12s12 -17.667 12 -29c0 -12 -4 -22 -12 -30s-18.333 -12 -31 -12h-304v-269h420c12 0 22.167 -3.83301 30.5 -11.5s12.5 -17.167 12.5 -28.5c0 -12.667 -4.16699 -22.834 -12.5 -30.501s-18.5 -11.5 -30.5 -11.5h-464zM627 -266.998
c-21.333 0 -41.001 5.33301 -59.001 16s-32.5 25.167 -43.5 43.5s-16.5 38.5 -16.5 60.5c0 37.333 16.667 70 50 98c8.66699 6 15.5 12.167 20.5 18.5s8.83301 12.5 11.5 18.5c8 14.667 20.333 22 37 22c12.667 0 22.834 -3.83301 30.501 -11.5
s11.834 -17.834 12.501 -30.501c0 -14.667 -5.16699 -29 -15.5 -43s-25.833 -28.667 -46.5 -44c-4.66699 -3.33301 -8.16699 -7.66602 -10.5 -12.999s-3.5 -10.333 -3.5 -15c0 -9.33301 3.16699 -17.333 9.5 -24s14.166 -10 23.499 -10c3.33301 0 6.66602 0.5 9.99902 1.5
s6 2.5 8 4.5l33 24c8.66699 6 17.334 9 26.001 9c12.667 0 23 -4.16699 31 -12.5s12 -18.5 12 -30.5c0 -13.333 -5 -25 -15 -35l-39 -25c-20 -14.667 -42 -22 -66 -22z" />
    <glyph glyph-name="eogonek" unicode="&#x119;" horiz-adv-x="616" 
d="M341 -5c-54.667 0 -102.995 11.8311 -144.995 35.498s-75 56.5 -99 98.5s-36 90 -36 144c0 54.667 11.333 102.834 34 144.501s53.834 74.5 93.501 98.5s85.5 36 137.5 36c51.333 0 95.666 -11.5 132.999 -34.5s66.166 -54.833 86.499 -95.5s30.5 -87 30.5 -139
c0 -11.333 -3.66699 -20.5 -11 -27.5s-16.666 -10.5 -27.999 -10.5h-418v69h422l-42 -30c0 36.667 -7 69.667 -21 99s-33.833 52.333 -59.5 69s-56.5 25 -92.5 25c-38 0 -71 -8.83301 -99 -26.5s-49.667 -41.834 -65 -72.501s-23 -65.667 -23 -105
s8.66699 -74.166 26 -104.499s41.166 -54.333 71.499 -72s65.166 -26.5 104.499 -26.5c22.667 0 45.834 4 69.501 12s42.5 18 56.5 30c8 6.66699 17.167 10.167 27.5 10.5s19.166 -2.5 26.499 -8.5c9.33301 -8.66699 14.166 -18.167 14.499 -28.5
s-3.83398 -19.166 -12.501 -26.499c-22.667 -18.667 -50.834 -34 -84.501 -46s-66.167 -18 -97.5 -18zM409.005 -197.002c-21.333 0 -41.001 5.33301 -59.001 16s-32.5 25.167 -43.5 43.5s-16.5 38.5 -16.5 60.5c0 37.333 16.667 70 50 98c8.66699 6 15.5 12.167 20.5 18.5
s8.83301 12.5 11.5 18.5c8 14.667 20.333 22 37 22c12.667 0 22.834 -3.83301 30.501 -11.5s11.834 -17.834 12.501 -30.501c0 -14.667 -5.16699 -29 -15.5 -43s-25.833 -28.667 -46.5 -44c-4.66699 -3.33301 -8.16699 -7.66602 -10.5 -12.999s-3.5 -10.333 -3.5 -15
c0 -9.33301 3.16699 -17.333 9.5 -24s14.166 -10 23.499 -10c3.33301 0 6.66602 0.5 9.99902 1.5s6 2.5 8 4.5l33 24c8.66699 6 17.334 9 26.001 9c12.667 0 23 -4.16699 31 -12.5s12 -18.5 12 -30.5c0 -13.333 -5 -25 -15 -35l-39 -25c-20 -14.667 -42 -22 -66 -22z" />
    <glyph glyph-name="Ecaron" unicode="&#x11a;" horiz-adv-x="695" 
d="M143 0c-12 0 -22.167 4.16895 -30.5 12.502s-12.5 18.5 -12.5 30.5v695c0 12.667 4.16699 23 12.5 31s18.5 12 30.5 12h464c12 0 22.167 -3.83301 30.5 -11.5s12.5 -17.834 12.5 -30.501c0 -11.333 -4.16699 -20.833 -12.5 -28.5s-18.5 -11.5 -30.5 -11.5h-420v-265h304
c12.667 0 23 -4 31 -12s12 -17.667 12 -29c0 -12 -4 -22 -12 -30s-18.333 -12 -31 -12h-304v-269h420c12 0 22.167 -3.83301 30.5 -11.5s12.5 -17.167 12.5 -28.5c0 -12.667 -4.16699 -22.834 -12.5 -30.501s-18.5 -11.5 -30.5 -11.5h-464zM384 868.002
c-9.33301 0 -16.334 1.99902 -21.001 5.99902l-116 77c-14 10 -21 22 -21 36c0 13.333 7 22.833 21 28.5s30.333 1.83398 49 -11.499l88 -59l88 59c21.333 14 38.333 17.833 51 11.5s19 -15.833 19 -28.5c0 -14 -7 -26 -21 -36l-115 -77c-5.33301 -4 -12.666 -6 -21.999 -6z
" />
    <glyph glyph-name="ecaron" unicode="&#x11b;" horiz-adv-x="616" 
d="M341 -5c-54.667 0 -102.995 11.8311 -144.995 35.498s-75 56.5 -99 98.5s-36 90 -36 144c0 54.667 11.333 102.834 34 144.501s53.834 74.5 93.501 98.5s85.5 36 137.5 36c51.333 0 95.666 -11.5 132.999 -34.5s66.166 -54.833 86.499 -95.5s30.5 -87 30.5 -139
c0 -11.333 -3.66699 -20.5 -11 -27.5s-16.666 -10.5 -27.999 -10.5h-418v69h422l-42 -30c0 36.667 -7 69.667 -21 99s-33.833 52.333 -59.5 69s-56.5 25 -92.5 25c-38 0 -71 -8.83301 -99 -26.5s-49.667 -41.834 -65 -72.501s-23 -65.667 -23 -105
s8.66699 -74.166 26 -104.499s41.166 -54.333 71.499 -72s65.166 -26.5 104.499 -26.5c22.667 0 45.834 4 69.501 12s42.5 18 56.5 30c8 6.66699 17.167 10.167 27.5 10.5s19.166 -2.5 26.499 -8.5c9.33301 -8.66699 14.166 -18.167 14.499 -28.5
s-3.83398 -19.166 -12.501 -26.499c-22.667 -18.667 -50.834 -34 -84.501 -46s-66.167 -18 -97.5 -18zM319.005 633.998c-9.33301 0 -16.334 1.99902 -21.001 5.99902l-116 77c-14 10 -21 22 -21 36c0 13.333 7 22.833 21 28.5s30.333 1.83398 49 -11.499l88 -59l88 59
c21.333 14 38.333 17.833 51 11.5s19 -15.833 19 -28.5c0 -14 -7 -26 -21 -36l-115 -77c-5.33301 -4 -12.666 -6 -21.999 -6z" />
    <glyph glyph-name="Gcircumflex" unicode="&#x11c;" horiz-adv-x="773" 
d="M451 -10c-54 0 -104.501 10.334 -151.501 31.001s-88.333 49.334 -124 86.001s-63.334 79.167 -83.001 127.5s-29.5 100.5 -29.5 156.5c0 55.333 9.83301 107.166 29.5 155.499s47.167 90.666 82.5 126.999s76.5 65 123.5 86s97.833 31.5 152.5 31.5
c48.667 0 92.334 -6.83301 131.001 -20.5s76.334 -35.834 113.001 -66.501c6 -4.66699 9.83301 -9.83398 11.5 -15.501s1.83398 -11.167 0.500977 -16.5s-4 -9.66602 -8 -12.999c-0.666992 -8 -4.33398 -14.333 -11.001 -19s-14.5 -6.83398 -23.5 -6.50098
s-17.5 3.83301 -25.5 10.5c-25.333 22 -52.666 38.5 -81.999 49.5s-64.666 16.5 -105.999 16.5c-42 0 -81.333 -8.33301 -118 -25s-69 -39.667 -97 -69s-49.833 -63.333 -65.5 -102s-23.5 -79.667 -23.5 -123c0 -44.667 7.83301 -86.167 23.5 -124.5
s37.5 -72.166 65.5 -101.499s60.333 -52.333 97 -69s76 -25 118 -25c35.333 0 69 6 101 18s62.333 29 91 51c9.33301 7.33301 19 10.333 29 9s18.5 -5.66602 25.5 -12.999s10.5 -17 10.5 -29c0 -5.33301 -0.833008 -10.5 -2.5 -15.5s-4.83398 -10.167 -9.50098 -15.5
c-34.667 -30.667 -72.834 -52.667 -114.501 -66s-85.167 -20 -130.5 -20zM707.999 107.001l-84 18.001v193h-150c-12 0 -22.167 3.66699 -30.5 11s-12.5 16.666 -12.5 27.999s4.16699 20.5 12.5 27.5s18.5 10.5 30.5 10.5h191c12.667 0 23 -4 31 -12s12 -18.333 12 -31v-245
zM328.999 862.002c-12.667 0 -23.166 3.33398 -31.499 10.001s-12.5 15.667 -12.5 27c0 14.667 7 27 21 37l116 76c6 4 13 6 21 6c4.66699 0 8.66699 -0.5 12 -1.5s6.66602 -2.5 9.99902 -4.5l115 -76c14 -10 21 -22.333 21 -37c0 -10.667 -4 -19.5 -12 -26.5
s-18.333 -10.5 -31 -10.5c-5.33301 0 -10 0.666992 -14 2s-8.33301 3.66602 -13 6.99902l-88 61l-88 -61c-8 -6 -16.667 -9 -26 -9z" />
    <glyph glyph-name="gcircumflex" unicode="&#x11d;" 
d="M327 -5c-52 0 -98.002 11.834 -138.002 35.501s-71.333 56.5 -94 98.5s-34 90 -34 144c0 54.667 12 103 36 145s56.833 74.833 98.5 98.5s89.5 35.5 143.5 35.5c53.333 0 100.833 -11.833 142.5 -35.5s74.334 -56.5 98.001 -98.5s35.834 -90.333 36.501 -145l-50 -16
c0 -50.667 -10.333 -95.834 -31 -135.501s-49 -70.667 -85 -93s-77 -33.5 -123 -33.5zM338.998 -219.999c-50.667 0 -96.167 9.66797 -136.5 29.001s-74.166 46.333 -101.499 81c-7.33301 9.33301 -10.333 19.166 -9 29.499s6.66602 18.5 15.999 24.5
c10 6.66699 20.667 9 32 7s20.333 -7.66699 27 -17c18.667 -23.333 42.667 -42 72 -56s63.333 -21 102 -21c35.333 0 67.5 8.5 96.5 25.5s52 41.5 69 73.5s25.5 69.667 25.5 113v149l31 68l53 -13v-208c0 -53.333 -12 -101.5 -36 -144.5s-56.667 -77.167 -98 -102.5
s-89 -38 -143 -38zM338.998 72.002c37.333 0 70.666 8.5 99.999 25.5s52.166 40.667 68.499 71s24.5 65.166 24.5 104.499s-8.16699 74.333 -24.5 105s-39.166 54.5 -68.499 71.5s-62.666 25.5 -99.999 25.5c-38 0 -71.667 -8.5 -101 -25.5s-52.333 -40.833 -69 -71.5
s-25 -65.667 -25 -105s8.33301 -74.166 25 -104.499s39.667 -54 69 -71s63 -25.5 101 -25.5zM224.998 628.002c-12.667 0 -23.166 3.33398 -31.499 10.001s-12.5 15.667 -12.5 27c0 14.667 7 27 21 37l116 76c6 4 13 6 21 6c4.66699 0 8.66699 -0.5 12 -1.5
s6.66602 -2.5 9.99902 -4.5l115 -76c14 -10 21 -22.333 21 -37c0 -10.667 -4 -19.5 -12 -26.5s-18.333 -10.5 -31 -10.5c-5.33301 0 -10 0.666992 -14 2s-8.33301 3.66602 -13 6.99902l-88 61l-88 -61c-8 -6 -16.667 -9 -26 -9z" />
    <glyph glyph-name="Gbreve" unicode="&#x11e;" horiz-adv-x="773" 
d="M451 -10c-54 0 -104.501 10.334 -151.501 31.001s-88.333 49.334 -124 86.001s-63.334 79.167 -83.001 127.5s-29.5 100.5 -29.5 156.5c0 55.333 9.83301 107.166 29.5 155.499s47.167 90.666 82.5 126.999s76.5 65 123.5 86s97.833 31.5 152.5 31.5
c48.667 0 92.334 -6.83301 131.001 -20.5s76.334 -35.834 113.001 -66.501c6 -4.66699 9.83301 -9.83398 11.5 -15.501s1.83398 -11.167 0.500977 -16.5s-4 -9.66602 -8 -12.999c-0.666992 -8 -4.33398 -14.333 -11.001 -19s-14.5 -6.83398 -23.5 -6.50098
s-17.5 3.83301 -25.5 10.5c-25.333 22 -52.666 38.5 -81.999 49.5s-64.666 16.5 -105.999 16.5c-42 0 -81.333 -8.33301 -118 -25s-69 -39.667 -97 -69s-49.833 -63.333 -65.5 -102s-23.5 -79.667 -23.5 -123c0 -44.667 7.83301 -86.167 23.5 -124.5
s37.5 -72.166 65.5 -101.499s60.333 -52.333 97 -69s76 -25 118 -25c35.333 0 69 6 101 18s62.333 29 91 51c9.33301 7.33301 19 10.333 29 9s18.5 -5.66602 25.5 -12.999s10.5 -17 10.5 -29c0 -5.33301 -0.833008 -10.5 -2.5 -15.5s-4.83398 -10.167 -9.50098 -15.5
c-34.667 -30.667 -72.834 -52.667 -114.501 -66s-85.167 -20 -130.5 -20zM707.999 107.001l-84 18.001v193h-150c-12 0 -22.167 3.66699 -30.5 11s-12.5 16.666 -12.5 27.999s4.16699 20.5 12.5 27.5s18.5 10.5 30.5 10.5h191c12.667 0 23 -4 31 -12s12 -18.333 12 -31v-245
zM441.999 856.002c-28.667 0 -54.9961 5.33301 -78.9961 16s-43.167 25 -57.5 43s-21.5 38 -21.5 60c0 12 3.83301 22.333 11.5 31s17.5 13 29.5 13c10.667 0 20.167 -3.5 28.5 -10.5s12.5 -16.167 12.5 -27.5c0 -15.333 7.5 -28.166 22.5 -38.499s32.833 -15.5 53.5 -15.5
c24 0 42.833 5.16699 56.5 15.5s20.5 23.166 20.5 38.499c0 11.333 4.16699 20.5 12.5 27.5s18.166 10.5 29.499 10.5c12 0 21.667 -4.16699 29 -12.5s11 -18.5 11 -30.5c-0.666992 -23.333 -8.33398 -44 -23.001 -62s-33.834 -32.167 -57.501 -42.5
s-49.834 -15.5 -78.501 -15.5z" />
    </font>
</defs>
</svg>
